<svg id="Ebene_1" data-name="Ebene 1" xmlns="http://www.w3.org/2000/svg" viewBox="0 0 387 63"><defs><style>.cls-1{fill:#082635;}.cls-2{fill:#fff;}</style></defs><rect class="cls-1" width="387" height="45"/><rect class="cls-1" x="27" y="54" width="9" height="9"/><rect class="cls-1" x="54" y="45" width="9" height="9"/><rect class="cls-1" x="90" y="54" width="9" height="9"/><rect class="cls-1" x="63" y="54" width="9" height="9"/><rect class="cls-1" x="99" y="45" width="9" height="9"/><rect class="cls-1" x="18" y="45" width="9" height="9"/><rect class="cls-2" x="63" y="36" width="9" height="9"/><rect class="cls-2" x="36" y="27" width="9" height="9"/><rect class="cls-2" x="9" y="36" width="9" height="9"/><rect class="cls-2" x="90" y="27" width="9" height="9"/><rect class="cls-2" x="63" y="18" width="9" height="9"/><rect class="cls-2" x="18" y="18" width="9" height="9"/><rect class="cls-2" x="117" y="36" width="9" height="9"/><rect class="cls-2" x="126" y="18" width="9" height="9"/><rect class="cls-2" x="144" y="36" width="9" height="9"/><rect class="cls-2" x="153" y="36" width="9" height="9"/><rect class="cls-2" x="153" y="9" width="9" height="9"/><rect class="cls-1" x="144" y="45" width="9" height="9"/><rect class="cls-1" x="171" y="54" width="9" height="9"/><rect class="cls-1" x="117" y="45" width="9" height="9"/><rect class="cls-1" x="189" y="45" width="9" height="9"/><rect class="cls-1" x="198" y="45" width="9" height="9"/><rect class="cls-1" x="207" y="54" width="9" height="9"/><rect class="cls-1" x="234" y="45" width="9" height="9"/><rect class="cls-1" x="252" y="54" width="9" height="9"/><rect class="cls-1" x="270" y="54" width="9" height="9"/><rect class="cls-1" x="288" y="45" width="9" height="9"/><rect class="cls-1" x="288" y="54" width="9" height="9"/><rect class="cls-1" x="306" y="45" width="9" height="9"/><rect class="cls-1" x="315" y="54" width="9" height="9"/><rect class="cls-1" x="333" y="45" width="9" height="9"/><rect class="cls-1" x="261" y="45" width="9" height="9"/><rect class="cls-1" x="360" y="54" width="9" height="9"/><rect class="cls-1" x="378" y="45" width="9" height="9"/><rect class="cls-1" x="320.13" y="7.28" width="9" height="9"/><rect class="cls-2" x="180" y="27" width="9" height="9"/><rect class="cls-2" x="171" y="18" width="9" height="9"/><rect class="cls-2" x="207" y="27" width="9" height="9"/><rect class="cls-2" x="225" y="36" width="9" height="9"/><rect class="cls-2" x="243" y="27" width="9" height="9"/><rect class="cls-2" x="261" y="36" width="9" height="9"/><rect class="cls-2" x="306" y="27" width="9" height="9"/><rect class="cls-2" x="279" y="18" width="9" height="9"/><rect class="cls-2" x="288" y="27" width="9" height="9"/><rect class="cls-2" x="315" y="36" width="9" height="9"/><rect class="cls-2" x="342" y="27" width="9" height="9"/><rect class="cls-2" x="351" y="36" width="9" height="9"/><rect class="cls-2" x="369" y="18" width="9" height="9"/><rect class="cls-2" x="369" y="36" width="9" height="9"/><rect class="cls-1" x="9" y="45" width="9" height="9"/></svg>