<?xml version="1.0" encoding="utf-8"?>
<!-- Generator: Adobe Illustrator 25.2.1, SVG Export Plug-In . SVG Version: 6.00 Build 0)  -->
<svg version="1.1" id="flowChart" xmlns="http://www.w3.org/2000/svg" xmlns:xlink="http://www.w3.org/1999/xlink" x="0px" y="0px"
	 viewBox="0 0 841.9 550.3" style="enable-background:new 0 0 841.9 550.3;" xml:space="preserve">
<style type="text/css">
	.st0{fill:#04506C;}
	.st1{fill:#FFFFFF;}
</style>
<g>
	<g id="arrow4">
		<path class="st0" d="M390.1,94.3l38.3,65.4c-24.9-2.9-50,2.3-72.1,15.2c-25.9,15.2-44.6,39.2-52.9,68l-64.1,37.6l0,0l-22.6-38.7
			l-14.9-25.4c15.4-55.9,51.3-102.7,101.4-132.1c45.7-26.8,98.3-36.2,150-27L390.1,94.3z"/>
		<path class="st1" d="M197.2,237l37,63.2l0,0L197.2,237z"/>
	</g>
	<g>
		<path class="st1" d="M290.2,163.3l-4.1,4.1l11.4,11.4l-1.7,1.7l-11.4-11.4l-4.1,4.1l-1.4-1.4l9.9-9.9L290.2,163.3z"/>
		<path class="st1" d="M306.5,170.2c-1.3,1.3-2.8,1.9-4.4,1.9c-1.7,0-3.2-0.8-4.6-2.2l-0.3-0.3c-0.9-0.9-1.6-2-2-3.1
			c-0.4-1.1-0.5-2.2-0.2-3.3c0.2-1.1,0.7-2,1.5-2.7c1.2-1.2,2.6-1.8,4.1-1.7c1.5,0.1,3,1,4.5,2.5l0.7,0.7l-6.4,6.4
			c1,0.9,2,1.4,3.1,1.4c1.1,0.1,2.1-0.3,2.9-1.1c0.6-0.6,0.9-1.2,1.1-1.8c0.2-0.6,0.2-1.3,0.1-2l1.8-0.2
			C308.7,166.8,308.1,168.6,306.5,170.2z M297.8,161.9c-0.7,0.7-1,1.4-0.9,2.4c0,0.9,0.4,1.9,1.2,2.8l4.8-4.8l-0.1-0.1
			c-0.9-0.8-1.7-1.2-2.6-1.3C299.2,160.9,298.4,161.2,297.8,161.9z"/>
		<path class="st1" d="M314.9,156.4c-0.4-0.4-0.9-0.6-1.5-0.5c-0.6,0.1-1.4,0.5-2.4,1.1c-1,0.6-1.9,1.1-2.6,1.3
			c-0.7,0.2-1.4,0.3-2,0.2s-1.1-0.4-1.6-0.9c-0.8-0.8-1.1-1.8-1-3c0.1-1.2,0.7-2.3,1.7-3.3c1.1-1.1,2.2-1.7,3.5-1.8
			c1.2-0.1,2.3,0.3,3.1,1.1l-1.6,1.6c-0.4-0.4-1-0.6-1.7-0.6c-0.7,0.1-1.3,0.4-1.9,0.9c-0.6,0.6-0.9,1.2-1,1.8
			c-0.1,0.6,0.1,1.1,0.5,1.5c0.4,0.4,0.8,0.5,1.4,0.4c0.5-0.1,1.3-0.5,2.3-1.1c1-0.6,1.9-1.1,2.6-1.3c0.8-0.3,1.4-0.3,2-0.2
			c0.6,0.1,1.2,0.4,1.7,0.9c0.8,0.8,1.2,1.9,1,3.1c-0.2,1.2-0.8,2.3-1.9,3.4c-0.8,0.8-1.6,1.3-2.4,1.6c-0.9,0.3-1.7,0.4-2.5,0.2
			c-0.8-0.2-1.5-0.5-2.1-1.1l1.6-1.6c0.6,0.5,1.2,0.7,2,0.6c0.7-0.1,1.4-0.5,2.1-1.1c0.6-0.6,1-1.2,1.1-1.9
			C315.5,157.3,315.3,156.8,314.9,156.4z"/>
		<path class="st1" d="M311.6,141.1l2.3,2.3l1.8-1.8l1.3,1.3l-1.8,1.8l5.9,5.9c0.4,0.4,0.7,0.6,1.1,0.6c0.3,0,0.7-0.1,1.1-0.5
			c0.2-0.2,0.4-0.5,0.7-0.9l1.3,1.3c-0.3,0.5-0.7,1-1.1,1.4c-0.7,0.7-1.5,1.1-2.3,1c-0.8-0.1-1.6-0.5-2.4-1.3l-5.9-5.9l-1.7,1.7
			l-1.3-1.3l1.7-1.7l-2.3-2.3L311.6,141.1z"/>
	</g>
</g>
<g>
	<g id="arrow2">
		<path class="st0" d="M628.3,333.9L628.3,333.9c-5.5,19.9-13.5,38.4-23.7,55.2C569.8,447,510.2,485.6,444,494.4
			c-21.9,2.9-44.4,2.6-67.1-1.4l3.2-1.9l43.8-25.7L440,456l-16-27.5l0,0l-22.2-37.9c7.4,0.9,14.9,1,22.2,0.5c4.7-0.3,9.3-1,13.9-1.9
			c12.5-2.5,24.6-7.1,36-13.7c25.9-15.2,44.6-39.2,52.9-68l14.2-8.3l49.9-29.2l0,0l0,0L628.3,333.9z"/>
		<path class="st1" d="M424,428.5l16.1,27.5l0,0L424,428.5z M590.8,269.9l-49.9,29.2L590.8,269.9L590.8,269.9z M596,250.2L596,250.2
			l27.7,47.3L596,250.2z M590.8,269.9l-49.9,29.2L590.8,269.9L590.8,269.9z M424,428.5l16.1,27.5l0,0L424,428.5z M590.8,269.9
			l-49.9,29.2L590.8,269.9L590.8,269.9z M424,428.5l16.1,27.5l0,0L424,428.5z M424,428.5l16.1,27.5l0,0L424,428.5z"/>
	</g>
	<g>
		<path class="st1" d="M509.3,420.6l-12.8-12.8l3.6-3.6c1.1-1.1,2.3-1.8,3.7-2.2c1.3-0.4,2.7-0.3,4.1,0.1c1.4,0.4,2.7,1.2,3.8,2.4
			l0.8,0.8c1.2,1.2,2,2.5,2.5,3.9c0.4,1.4,0.5,2.7,0.1,4.1c-0.4,1.4-1.1,2.6-2.3,3.8L509.3,420.6z M499.6,407.5l10,10l1.8-1.8
			c1.3-1.3,1.9-2.7,1.8-4.2c-0.1-1.5-0.9-3-2.4-4.5l-0.7-0.7c-1.5-1.5-2.9-2.2-4.4-2.4c-1.5-0.1-2.9,0.4-4.1,1.7L499.6,407.5z"/>
		<path class="st1" d="M525,405.3c-1.3,1.3-2.8,1.9-4.4,1.9c-1.7,0-3.2-0.8-4.6-2.2l-0.3-0.3c-0.9-0.9-1.6-2-2-3.1
			c-0.4-1.1-0.5-2.2-0.2-3.3c0.2-1.1,0.7-2,1.5-2.7c1.2-1.2,2.6-1.8,4.1-1.7c1.5,0.1,3,1,4.5,2.5l0.7,0.7l-6.4,6.4
			c1,0.9,2,1.4,3.1,1.4c1.1,0.1,2.1-0.3,2.9-1.1c0.6-0.6,0.9-1.2,1.1-1.8c0.2-0.6,0.2-1.3,0.1-2l1.8-0.2
			C527.1,401.9,526.6,403.7,525,405.3z M516.2,396.9c-0.7,0.7-1,1.4-0.9,2.4c0,0.9,0.4,1.9,1.2,2.8l4.8-4.8l-0.1-0.1
			c-0.9-0.8-1.7-1.2-2.6-1.3C517.7,396,516.9,396.3,516.2,396.9z"/>
		<path class="st1" d="M533.4,391.4c-0.4-0.4-0.9-0.6-1.5-0.5c-0.6,0.1-1.4,0.5-2.4,1.1c-1,0.6-1.9,1.1-2.6,1.3
			c-0.7,0.2-1.4,0.3-2,0.2s-1.1-0.4-1.6-0.9c-0.8-0.8-1.1-1.8-1-3c0.1-1.2,0.7-2.3,1.7-3.3c1.1-1.1,2.2-1.7,3.5-1.8
			c1.2-0.1,2.3,0.3,3.1,1.1l-1.6,1.6c-0.4-0.4-1-0.6-1.7-0.6c-0.7,0.1-1.3,0.4-1.9,0.9c-0.6,0.6-0.9,1.2-1,1.8
			c-0.1,0.6,0.1,1.1,0.5,1.5c0.4,0.4,0.8,0.5,1.4,0.4c0.5-0.1,1.3-0.5,2.3-1.1c1-0.6,1.9-1.1,2.6-1.3c0.8-0.3,1.4-0.3,2-0.2
			c0.6,0.1,1.1,0.4,1.7,0.9c0.9,0.8,1.2,1.9,1,3.1c-0.2,1.2-0.8,2.3-1.9,3.4c-0.8,0.8-1.6,1.3-2.4,1.6c-0.9,0.3-1.7,0.4-2.5,0.2
			c-0.8-0.2-1.5-0.5-2.1-1.1l1.6-1.6c0.6,0.5,1.2,0.7,2,0.6c0.7-0.1,1.4-0.5,2.1-1.1c0.6-0.6,1-1.2,1.1-1.9
			C534,392.4,533.8,391.9,533.4,391.4z"/>
		<path class="st1" d="M527.6,378.2c-0.3-0.3-0.4-0.6-0.4-0.9c0-0.3,0.1-0.7,0.4-1s0.6-0.5,1-0.4c0.3,0,0.6,0.2,0.9,0.4
			c0.3,0.3,0.4,0.6,0.4,0.9c0,0.3-0.1,0.7-0.5,1c-0.3,0.3-0.6,0.5-1,0.5C528.2,378.6,527.9,378.5,527.6,378.2z M541.4,388.5
			l-1.6,1.6l-9.5-9.5l1.6-1.6L541.4,388.5z"/>
		<path class="st1" d="M538.8,381.4c-1.5-1.5-2.3-3-2.5-4.6c-0.2-1.6,0.3-2.9,1.4-4c1.2-1.2,2.5-1.7,3.9-1.5l-1-1.1l1.5-1.5l9.3,9.3
			c1.2,1.2,1.8,2.6,1.8,4c0,1.4-0.6,2.8-1.9,4c-0.7,0.7-1.5,1.2-2.5,1.6c-1,0.4-1.9,0.5-2.7,0.3l-0.1-1.8c1.6,0.2,2.8-0.3,3.8-1.3
			c0.8-0.8,1.2-1.6,1.2-2.5c0-0.9-0.4-1.7-1.2-2.5l-0.8-0.8c0.1,1.4-0.4,2.7-1.5,3.8c-1.1,1.1-2.5,1.6-4,1.4
			C541.9,383.8,540.3,383,538.8,381.4z M540.6,380c1.1,1.1,2.1,1.7,3.2,1.9c1.1,0.2,2-0.1,2.8-0.9c1-1,1.3-2.2,0.9-3.7l-4.3-4.3
			c-1.4-0.4-2.6-0.1-3.6,0.9c-0.8,0.8-1.1,1.7-0.9,2.8C538.7,377.6,539.4,378.8,540.6,380z"/>
		<path class="st1" d="M546.1,364.7l1.2,1.1c-0.2-1.6,0.3-3,1.5-4.2c2-2,4.2-1.9,6.4,0.4l6.3,6.3l-1.6,1.6l-6.3-6.3
			c-0.7-0.7-1.4-1-2-1c-0.6,0-1.3,0.3-1.9,0.9c-0.5,0.5-0.8,1.1-1,1.8c-0.1,0.7-0.1,1.4,0.2,2l6.8,6.8l-1.6,1.6l-9.5-9.5
			L546.1,364.7z"/>
	</g>
</g>
<g>
	<g id="arrow3">
		<path class="st0" d="M633,313.3l-9.3-15.8L596,250.2l-65.4,38.3c2.9-24.9-2.3-50-15.2-72.1c-15.2-25.9-39.2-44.6-68-52.9
			l-37.6-64.1l64-37.5C584.3,92.3,652.5,202.1,633,313.3z"/>
		<path class="st1" d="M590.8,269.9L590.8,269.9l37.5,64L590.8,269.9z M390.1,94.3L390.1,94.3l63.2-37L390.1,94.3z"/>
	</g>
	<g>
		<path class="st1" d="M480.8,129.3l-1.7-1.7l12.8-12.8l1.7,1.7L480.8,129.3z"/>
		<path class="st1" d="M494.7,124.2l-1,1.1c1.5-0.1,2.9,0.4,4,1.6c1.3,1.3,1.7,2.7,1.2,4.2c0.8-0.1,1.6-0.1,2.3,0.1
			c0.8,0.2,1.5,0.7,2.2,1.4c2.1,2.1,2,4.3-0.1,6.5l-6.4,6.4l-1.6-1.6l6.3-6.3c0.7-0.7,1-1.3,1.1-2c0-0.6-0.3-1.3-1.1-2.1
			c-0.6-0.6-1.3-0.9-2-1c-0.8,0-1.5,0.2-2.1,0.8l-6.3,6.3l-1.6-1.6l6.2-6.2c1.4-1.4,1.4-2.8,0-4.1c-1.1-1.1-2.2-1.3-3.5-0.8
			l-6.9,6.9l-1.6-1.6l9.5-9.5L494.7,124.2z"/>
		<path class="st1" d="M512.1,151.3c-1.4,1.4-2.9,2.3-4.5,2.5c-1.5,0.2-2.9-0.2-4-1.4c-1.2-1.2-1.7-2.4-1.6-3.8l-4.6,4.6l-1.6-1.6
			l13.2-13.2l1.5,1.5l-1,1.1c1.5-0.2,2.8,0.4,4,1.5c1.1,1.1,1.6,2.5,1.4,4c-0.2,1.5-1.1,3.1-2.6,4.6L512.1,151.3z M510.6,149.5
			c1.1-1.1,1.7-2.1,1.9-3.2c0.2-1.1-0.2-2-1-2.8c-1-1-2.2-1.3-3.5-0.9l-4.5,4.5c-0.4,1.4-0.1,2.5,0.9,3.5c0.8,0.8,1.7,1.1,2.8,0.9
			C508.3,151.4,509.4,150.7,510.6,149.5z"/>
		<path class="st1" d="M511.3,159.8l-1.6-1.6l13.5-13.5l1.6,1.6L511.3,159.8z"/>
		<path class="st1" d="M517.6,166.5c-1.3-1.3-1.9-2.8-1.9-4.4s0.8-3.2,2.2-4.6l0.3-0.3c0.9-0.9,2-1.6,3.1-2c1.1-0.4,2.2-0.5,3.2-0.2
			c1.1,0.2,2,0.7,2.7,1.5c1.2,1.2,1.8,2.6,1.7,4.1c-0.1,1.5-1,3-2.5,4.5l-0.7,0.7l-6.4-6.4c-0.9,1-1.4,2-1.5,3.1
			c-0.1,1.1,0.3,2.1,1.1,2.9c0.6,0.6,1.2,0.9,1.8,1.1c0.6,0.2,1.3,0.2,2,0.1l0.2,1.8C521,168.7,519.2,168.1,517.6,166.5z
			 M525.9,157.8c-0.7-0.7-1.4-1-2.4-0.9c-0.9,0-1.9,0.4-2.8,1.2l4.8,4.8l0.1-0.1c0.8-0.9,1.2-1.7,1.3-2.6
			C526.9,159.2,526.6,158.5,525.9,157.8z"/>
		<path class="st1" d="M534.4,163.9l-1,1.1c1.5-0.1,2.9,0.4,4,1.6c1.3,1.3,1.7,2.7,1.2,4.2c0.8-0.1,1.6-0.1,2.3,0.1
			c0.8,0.2,1.5,0.7,2.2,1.4c2.1,2.1,2,4.2-0.1,6.5l-6.4,6.4l-1.6-1.6l6.3-6.3c0.7-0.7,1-1.3,1.1-2c0-0.6-0.3-1.3-1.1-2.1
			c-0.6-0.6-1.3-0.9-2-1c-0.8,0-1.5,0.2-2.1,0.8l-6.3,6.3l-1.6-1.6l6.2-6.2c1.4-1.4,1.4-2.8,0-4.1c-1.1-1.1-2.3-1.3-3.5-0.8
			l-6.9,6.9l-1.6-1.6l9.5-9.5L534.4,163.9z"/>
		<path class="st1" d="M542.9,191.8c-1.3-1.3-1.9-2.8-1.9-4.4c0-1.7,0.8-3.2,2.2-4.6l0.3-0.3c0.9-0.9,2-1.6,3.1-2
			c1.1-0.4,2.2-0.5,3.3-0.2c1.1,0.2,2,0.7,2.7,1.5c1.2,1.2,1.8,2.6,1.7,4.1c-0.1,1.5-1,3-2.5,4.5l-0.7,0.7l-6.4-6.4
			c-0.9,1-1.4,2-1.5,3.1c-0.1,1.1,0.3,2.1,1.1,2.9c0.6,0.6,1.2,0.9,1.8,1.1c0.6,0.2,1.3,0.2,2,0.1l0.2,1.8
			C546.3,194,544.5,193.4,542.9,191.8z M551.2,183.1c-0.7-0.7-1.4-1-2.4-0.9c-0.9,0-1.9,0.4-2.8,1.2l4.8,4.8l0.1-0.1
			c0.8-0.9,1.2-1.7,1.3-2.6C552.2,184.5,551.9,183.8,551.2,183.1z"/>
		<path class="st1" d="M559.7,189.2l-1.1,1.2c1.6-0.2,3,0.3,4.2,1.5c2,2,1.9,4.2-0.4,6.4l-6.3,6.3l-1.6-1.6l6.3-6.3
			c0.7-0.7,1-1.4,1-2c0-0.6-0.3-1.3-0.9-1.9c-0.5-0.5-1.1-0.9-1.8-1s-1.4-0.1-2,0.2l-6.8,6.8l-1.6-1.6l9.5-9.5L559.7,189.2z"/>
		<path class="st1" d="M572.6,197.5l-2.3,2.3l1.8,1.8l-1.3,1.3l-1.8-1.8l-5.9,5.9c-0.4,0.4-0.6,0.7-0.6,1.1c0,0.3,0.1,0.7,0.5,1.1
			c0.2,0.2,0.5,0.4,0.9,0.7l-1.3,1.3c-0.5-0.3-1-0.7-1.4-1.1c-0.7-0.7-1.1-1.5-1-2.3c0.1-0.8,0.5-1.6,1.3-2.4l5.9-5.9l-1.7-1.7
			l1.3-1.3l1.7,1.7l2.3-2.3L572.6,197.5z"/>
	</g>
</g>
<g>
	<g id="arrow5">
		<path class="st0" d="M420.4,450.9L420.4,450.9l-56.2,32.9l0,0l-7.8,4.6c-56.8-15.6-102.4-52.2-130.6-99.2
			c-26.7-44.4-38-98.1-28.5-152.2l37,63.2l65.4-38.3c-6.5,55.6,28.2,109.1,83.2,125l5,8.5L420.4,450.9z"/>
		<path class="st1" d="M216.7,241.8l22.6,38.7l0,0L216.7,241.8z M387.8,395.3l32.5,55.6l0,0L387.8,395.3z M440.1,456l-16.1,9.4
			l-43.8,25.7l43.8-25.6L440.1,456L440.1,456z M387.8,395.3l32.5,55.6l0,0L387.8,395.3z M387.8,395.3l32.5,55.6l0,0L387.8,395.3z"/>
	</g>
	<g>
		<path class="st1" d="M276.6,368.4l-3-3l-5.2,5.2l-1.7-1.7l12.8-12.8l4.2,4.2c1.4,1.4,2.2,2.9,2.3,4.3c0.1,1.4-0.4,2.8-1.7,4
			c-0.8,0.8-1.7,1.3-2.7,1.4c-1,0.2-2.1,0-3.1-0.5l-2.4,8.4l-0.1,0.1l-1.8-1.8L276.6,368.4z M275,364l2.6,2.6
			c0.8,0.8,1.7,1.3,2.7,1.3c0.9,0.1,1.8-0.3,2.5-1c0.8-0.8,1.2-1.6,1.1-2.5c-0.1-0.9-0.5-1.8-1.4-2.7l-2.6-2.6L275,364z"/>
		<path class="st1" d="M281.4,383.8c-1.3-1.3-1.9-2.8-1.9-4.4s0.8-3.2,2.2-4.6l0.3-0.3c0.9-0.9,2-1.6,3.1-2c1.1-0.4,2.2-0.5,3.3-0.2
			c1.1,0.2,2,0.7,2.7,1.5c1.2,1.2,1.8,2.6,1.7,4.1c-0.1,1.5-1,3-2.5,4.5l-0.7,0.7l-6.4-6.4c-0.9,1-1.4,2-1.5,3.1
			c-0.1,1.1,0.3,2.1,1.1,2.9c0.6,0.6,1.2,0.9,1.8,1.1c0.6,0.2,1.3,0.2,2,0.1l0.2,1.8C284.8,386,283,385.4,281.4,383.8z M289.7,375.1
			c-0.7-0.7-1.4-1-2.4-0.9c-0.9,0-1.9,0.4-2.8,1.2l4.8,4.8l0.1-0.1c0.8-0.9,1.2-1.7,1.3-2.6C290.7,376.5,290.4,375.8,289.7,375.1z"
			/>
		<path class="st1" d="M292.4,390l9.7-4.9l1.7,1.7l-12.9,6.1l-1.2-1.2l6.1-12.9l1.7,1.7L292.4,390z"/>
		<path class="st1" d="M297.5,399.6l-1.6-1.6l9.5-9.5l1.6,1.6L297.5,399.6z M307.8,385.8c0.3-0.3,0.6-0.4,0.9-0.4
			c0.3,0,0.7,0.1,1,0.4c0.3,0.3,0.5,0.6,0.4,1c0,0.3-0.2,0.6-0.4,0.9s-0.6,0.4-0.9,0.4c-0.3,0-0.7-0.1-1-0.5c-0.3-0.3-0.5-0.6-0.5-1
			C307.4,386.4,307.5,386.1,307.8,385.8z"/>
		<path class="st1" d="M303.9,406.3c-1.3-1.3-1.9-2.8-1.9-4.4c0-1.7,0.8-3.2,2.2-4.6l0.3-0.3c0.9-0.9,2-1.6,3.1-2
			c1.1-0.4,2.2-0.5,3.3-0.2c1.1,0.2,2,0.7,2.7,1.5c1.2,1.2,1.8,2.6,1.7,4.1c-0.1,1.5-1,3-2.5,4.5l-0.7,0.7l-6.4-6.4
			c-0.9,1-1.4,2-1.4,3.1c-0.1,1.1,0.3,2.1,1.1,2.9c0.6,0.6,1.2,0.9,1.8,1.1c0.6,0.2,1.3,0.2,2,0.1l0.2,1.8
			C307.3,408.5,305.5,407.9,303.9,406.3z M312.2,397.6c-0.7-0.7-1.4-1-2.4-0.9c-0.9,0-1.9,0.4-2.8,1.2l4.8,4.8l0.1-0.1
			c0.8-0.9,1.2-1.7,1.3-2.6C313.2,399,312.9,398.3,312.2,397.6z"/>
		<path class="st1" d="M320.3,417.9l9.1-5.4l1.6,1.6l-12.3,6.7l-1.3-1.3l4.9-9.5l-9.5,5l-1.3-1.3l6.7-12.3l1.6,1.6l-5.2,9l9.3-4.9
			l1.3,1.3L320.3,417.9z"/>
	</g>
</g>
<g>
	<path id="arrow1" class="st0" d="M329,494.4H9.2l52.6-52.6L9.2,389.2h199.9C235,436,276.6,473.9,329,494.4z"/>
	<g>
		<path class="st1" d="M128.8,440.7v7.1h-2.4v-18.1h6.7c2,0,3.5,0.5,4.7,1.5c1.1,1,1.7,2.3,1.7,4c0,1.8-0.5,3.1-1.6,4.1
			c-1.1,0.9-2.7,1.4-4.7,1.4H128.8z M128.8,438.8h4.3c1.3,0,2.3-0.3,2.9-0.9c0.7-0.6,1-1.5,1-2.6c0-1.1-0.3-1.9-1-2.6
			c-0.7-0.6-1.6-1-2.8-1h-4.4V438.8z"/>
		<path class="st1" d="M144.6,447.8h-2.3v-19.1h2.3V447.8z"/>
		<path class="st1" d="M156.6,447.8c-0.1-0.3-0.2-0.7-0.3-1.4c-1.1,1.1-2.3,1.7-3.8,1.7c-1.3,0-2.4-0.4-3.3-1.1
			c-0.8-0.7-1.3-1.7-1.3-2.9c0-1.4,0.5-2.5,1.6-3.3c1.1-0.8,2.6-1.2,4.5-1.2h2.2v-1.1c0-0.8-0.2-1.4-0.7-1.9
			c-0.5-0.5-1.2-0.7-2.1-0.7c-0.8,0-1.5,0.2-2.1,0.6c-0.6,0.4-0.8,0.9-0.8,1.5h-2.3c0-0.7,0.2-1.3,0.7-1.9c0.5-0.6,1.1-1.1,1.9-1.5
			c0.8-0.4,1.7-0.5,2.7-0.5c1.5,0,2.8,0.4,3.6,1.2c0.9,0.8,1.3,1.8,1.4,3.2v6.2c0,1.2,0.2,2.2,0.5,2.9v0.2H156.6z M152.8,446
			c0.7,0,1.4-0.2,2-0.6c0.6-0.4,1.1-0.9,1.4-1.5v-2.8h-1.8c-2.8,0-4.2,0.8-4.2,2.5c0,0.7,0.2,1.3,0.7,1.7
			C151.4,445.8,152,446,152.8,446z"/>
		<path class="st1" d="M164.3,434.3l0.1,1.7c1-1.3,2.4-1.9,4-1.9c2.8,0,4.3,1.6,4.3,4.8v8.9h-2.3v-8.9c0-1-0.2-1.7-0.7-2.1
			c-0.4-0.5-1.1-0.7-2-0.7c-0.7,0-1.4,0.2-2,0.6c-0.6,0.4-1,0.9-1.3,1.6v9.6h-2.3v-13.4H164.3z"/>
	</g>
</g>
<g>
	<path id="arrow6" class="st0" d="M832.7,441.3l-53.2,53.2H501c50.3-19.8,93.4-56.6,120.3-105.3h157.1l1.1-1.1L832.7,441.3z"/>
	<g>
		<path class="st1" d="M656.5,439.7c-2-0.6-3.5-1.3-4.5-2.2c-0.9-0.9-1.4-1.9-1.4-3.2c0-1.4,0.6-2.6,1.7-3.5
			c1.1-0.9,2.6-1.4,4.4-1.4c1.2,0,2.3,0.2,3.3,0.7c1,0.5,1.7,1.1,2.3,2c0.5,0.8,0.8,1.8,0.8,2.8h-2.4c0-1.1-0.3-2-1-2.6
			c-0.7-0.6-1.7-0.9-2.9-0.9c-1.2,0-2.1,0.3-2.8,0.8c-0.7,0.5-1,1.2-1,2.2c0,0.7,0.3,1.4,0.9,1.9c0.6,0.5,1.7,1,3.2,1.4
			c1.5,0.4,2.7,0.9,3.5,1.4c0.8,0.5,1.5,1.1,1.9,1.8c0.4,0.7,0.6,1.5,0.6,2.4c0,1.5-0.6,2.6-1.7,3.5s-2.7,1.3-4.6,1.3
			c-1.2,0-2.4-0.2-3.5-0.7c-1.1-0.5-1.9-1.1-2.5-2c-0.6-0.8-0.9-1.8-0.9-2.8h2.4c0,1.1,0.4,2,1.2,2.6s1.9,1,3.2,1
			c1.3,0,2.2-0.3,2.9-0.8c0.7-0.5,1-1.2,1-2.1c0-0.9-0.3-1.6-0.9-2.1C659.3,440.7,658.2,440.2,656.5,439.7z"/>
		<path class="st1" d="M674.2,446.5c-0.9,1.1-2.2,1.6-3.9,1.6c-1.4,0-2.5-0.4-3.3-1.2c-0.8-0.8-1.1-2.1-1.1-3.7v-8.7h2.3v8.7
			c0,2,0.8,3.1,2.5,3.1c1.8,0,2.9-0.7,3.5-2v-9.8h2.3v13.4h-2.2L674.2,446.5z"/>
		<path class="st1" d="M691.3,441.2c0,2-0.5,3.7-1.4,4.9c-0.9,1.3-2.2,1.9-3.8,1.9c-1.6,0-2.9-0.5-3.9-1.6v6.5H680v-18.6h2.1
			l0.1,1.5c0.9-1.2,2.2-1.7,3.9-1.7c1.6,0,2.9,0.6,3.8,1.8c0.9,1.2,1.4,2.9,1.4,5.1V441.2z M689,441c0-1.5-0.3-2.7-1-3.6
			c-0.6-0.9-1.5-1.3-2.7-1.3c-1.4,0-2.4,0.6-3.1,1.9v6.4c0.7,1.2,1.7,1.8,3.2,1.8c1.1,0,2-0.4,2.6-1.3C688.7,444,689,442.7,689,441z
			"/>
		<path class="st1" d="M705.6,441.2c0,2-0.5,3.7-1.4,4.9c-0.9,1.3-2.2,1.9-3.8,1.9c-1.6,0-2.9-0.5-3.9-1.6v6.5h-2.3v-18.6h2.1
			l0.1,1.5c0.9-1.2,2.2-1.7,3.9-1.7c1.6,0,2.9,0.6,3.8,1.8c0.9,1.2,1.4,2.9,1.4,5.1V441.2z M703.3,441c0-1.5-0.3-2.7-1-3.6
			c-0.6-0.9-1.5-1.3-2.7-1.3c-1.4,0-2.4,0.6-3.1,1.9v6.4c0.7,1.2,1.7,1.8,3.2,1.8c1.1,0,2-0.4,2.6-1.3
			C703,444,703.3,442.7,703.3,441z"/>
		<path class="st1" d="M707.9,440.9c0-1.3,0.3-2.5,0.8-3.6c0.5-1.1,1.2-1.9,2.2-2.4c0.9-0.6,2-0.9,3.2-0.9c1.8,0,3.3,0.6,4.4,1.9
			c1.1,1.3,1.7,3,1.7,5.1v0.2c0,1.3-0.3,2.5-0.8,3.5c-0.5,1-1.2,1.8-2.1,2.4c-0.9,0.6-2,0.9-3.2,0.9c-1.8,0-3.3-0.6-4.4-1.9
			c-1.1-1.3-1.7-2.9-1.7-5V440.9z M710.2,441.2c0,1.5,0.3,2.7,1,3.6c0.7,0.9,1.6,1.4,2.8,1.4c1.2,0,2.1-0.5,2.8-1.4
			c0.7-0.9,1-2.2,1-3.8c0-1.5-0.3-2.7-1-3.6c-0.7-0.9-1.6-1.4-2.8-1.4c-1.1,0-2,0.5-2.7,1.4C710.6,438.2,710.2,439.5,710.2,441.2z"
			/>
		<path class="st1" d="M729.5,436.4c-0.3-0.1-0.7-0.1-1.1-0.1c-1.5,0-2.5,0.6-3.1,1.9v9.5H723v-13.4h2.2l0,1.6
			c0.8-1.2,1.8-1.8,3.2-1.8c0.4,0,0.8,0.1,1,0.2V436.4z"/>
		<path class="st1" d="M735.4,431.1v3.3h2.5v1.8h-2.5v8.3c0,0.5,0.1,0.9,0.3,1.2c0.2,0.3,0.6,0.4,1.1,0.4c0.3,0,0.6,0,1.1-0.1v1.9
			c-0.6,0.2-1.2,0.2-1.8,0.2c-1,0-1.8-0.3-2.3-0.9c-0.5-0.6-0.8-1.5-0.8-2.6v-8.3h-2.4v-1.8h2.4v-3.3H735.4z"/>
	</g>
</g>
</svg>
