<svg id="Ebene_1" data-name="Ebene 1" xmlns="http://www.w3.org/2000/svg" viewBox="0 0 929.05 805.3"><defs><style>.cls-1{fill-opacity:0.17;}.cls-2{fill:#535d66;}.cls-3{fill:#ccc;}.cls-4{fill:#716565;}.cls-5{fill:#febeae;}.cls-6{fill:#032636;}.cls-7{fill:#fff;}.cls-8{fill-opacity:0.13;}.cls-9{fill-opacity:0.19;}.cls-10{fill-opacity:0.09;}.cls-11{fill:#fce9ea;}.cls-12{fill:#b3449b;}.cls-12,.cls-14,.cls-16,.cls-17{fill-opacity:1;}.cls-13{fill:#3c464f;}.cls-14{fill:#ffbfaf;}.cls-15{fill:#222b32;}.cls-17{fill:#234b69;}.cls-18{fill:#f13b74;}.cls-19{fill:#01506b;}</style></defs><g id="layer2"><path class="cls-1" d="M1412.58,879.26l-4.24,8.9q-30.15,26.87-176.43,43Q1084.63,947.25,885,944.2,694.52,940,580.31,919.31q-36.59-6.66-60.28-14.54l-19.91-8.08q-16.41-8.36-16.6-17.43,5-27.84,136.06-46.34t328.47-19.19q197.4.69,328.47,19.19t136.06,46.34" transform="translate(-483.52 -139.39)"/><path class="cls-2" d="M685.91,586.8l-6.72.42L659.38,858.49q0,3.39,3.34,3.72a3.36,3.36,0,0,0,3.31-3.08Z" transform="translate(-483.52 -139.39)"/><path d="M916.15,840l-38.28-6.21q-14.76,26.16-19.16,36.12-5,10.86-4,15c.43,2.28,2.22,3.76,5.39,4.42a56,56,0,0,0,16,.43q19.18-2.13,30.73-9.8,6.24-4.08,5.8-13.21l8.1-4.78-4.58-22" transform="translate(-483.52 -139.39)"/><path class="cls-3" d="M777.93,208.67l-246.59.59L562,594.86,817.66,572,777.94,208.75" transform="translate(-483.52 -139.39)"/><path d="M559.77,571.13l2,23.92,32.63-2-34.64-21.9" transform="translate(-483.52 -139.39)"/><path class="cls-2" d="M553.67,208,530.14,209l3.28,31.75L553.67,208" transform="translate(-483.52 -139.39)"/><path class="cls-2" d="M764.15,208.2l16.3,23.22-1.93-23.31-14.37.09" transform="translate(-483.52 -139.39)"/><path d="M815.77,550.58l-16,23.63,18.31-1.44-2.28-22.19" transform="translate(-483.52 -139.39)"/><path class="cls-2" d="M572.22,594.41l-6.72.41L545.69,866.1q0,3.39,3.34,3.71a3.33,3.33,0,0,0,3.3-3.07Z" transform="translate(-483.52 -139.39)"/><path class="cls-4" d="M795.74,574l-1.87.17,1.92,11.93q-.07-3.48-.14-7c-.06-1.36,0-3,.09-5.09Z" transform="translate(-483.52 -139.39)"/><path d="M855.43,842.28l-50.54-16.71Q789.2,840.77,780.52,846a68,68,0,0,1-7.94,4.36q-1.53.9-17.07,7a30.72,30.72,0,0,0-5.39,2.89c-2.65,1.87-3.73,4-3.23,6.53q3.6,10.18,29.22,11a85.4,85.4,0,0,0,19.72-1.68,54.62,54.62,0,0,0,6.26-1.81q1.74-.51,10.88-4.64a14.78,14.78,0,0,1,3.86-1,15.44,15.44,0,0,1,3.76.06q-.11-.18,8.62,1.76a34.72,34.72,0,0,0,4.84.4,61.89,61.89,0,0,0,14.43-1.72q5.65-1.3,12.22-3.43l-5.26-23.38" transform="translate(-483.52 -139.39)"/><path class="cls-5" d="M769.77,349.28q-14.71-.28-23,2.34-2.14.63-5.06,1.68-14.46,5.58-17.49,6.48-2.1.81-20.45,6.12-3.37,1-5.4,1.8-5.61,2-6.52,4.34l-.86,5.89a3,3,0,0,0,.13,1.4c.33,1,1.68,1.41,4,1.33q8.55,0,36.64-9.5-8.16,3-8,6.16a3.88,3.88,0,0,0,2.16,3.72,7,7,0,0,0,5.18.12,29.16,29.16,0,0,0,4-1.57q.55-.18,8.2-4.1c1.07-.52,2-.94,2.82-1.25a16,16,0,0,1,3.49-.94,25.41,25.41,0,0,1,4.43-.14,5.29,5.29,0,0,0,1.25-.23,13.34,13.34,0,0,0,4.43-2.73l1.2-1,8.81-19.85" transform="translate(-483.52 -139.39)"/><path d="M876.11,139.39q-9.86,0-16.67,5.31-5.64,4.17-11.42,16.61-6,2.07-7.46,6.16-1.83,4-1.13,13.55c.17,2.63.5,5.76,1,9.4q3.68,24.35,3.34,24.14l58.45,3.84a12.44,12.44,0,0,0,7.07-5.37q2.63-4.09,4.32-12.46,3.85-20.72-.65-35.32A36,36,0,0,0,899.18,147a41.3,41.3,0,0,0-23-7.59" transform="translate(-483.52 -139.39)"/><path class="cls-6" d="M920.19,243.94l-71.76,23.85q-8.52,3-13.24,7Q827,281,822.65,300.06q-4.14,16.8-8.17,65.82l-47.83-18.21-13.92,39.85,58.77,21.35-3.85,33.87q-8.86,55.33-8.29,56.4A49,49,0,0,0,802.69,524q-10.66,54.33-10,67.65Q796.32,765,800.48,830q31.47,24.71,57.46,13.44-.71-28.32-2-42.17l-1.78-14.73-5.61-33.29a169.32,169.32,0,0,1-.82-25.64,282.43,282.43,0,0,1,3.43-32.92q12.18-65.88,16-92.3,16.23,69.84,17,112Q885,739.52,880,781.6q-8.62,25.46-8.88,33.78-.81,8.58,1.84,20.11l.69,3a45.2,45.2,0,0,1,18-.55l28.91,9.29,22.07-314.47,32.55-19.57L940,403.32q23.26,7.17,29.36-8.82,3.11-7.41,4.9-22.16l6.54-67.55q.17-15-9.75-24.3-9.55-10.15-41.8-26L920.2,244" transform="translate(-483.52 -139.39)"/><path class="cls-7" d="M909.93,234.16l-40.41,31L862,254.6,858.42,269q-9.06,13.77-13.07,24.06-7.36,17.1-12.81,54.6-7.23,51.33-10.9,104.89,10.67,6.66,32.46,2.27l-1.27-77.09q27.51-66.75,38.57-88.63A222.29,222.29,0,0,1,918,246.62l-7.89-12.23" transform="translate(-483.52 -139.39)"/><path class="cls-7" d="M773.76,350.33l-7.2-2.74L754.9,375l6.11,3.5,12.73-28.14" transform="translate(-483.52 -139.39)"/><path class="cls-5" d="M851.6,174.73c-3.13.44-4.87,2.85-5.21,7.26a48.48,48.48,0,0,0-.17,6.92q1.18,16.72,1.19,22.73l-1.53-.34a13.43,13.43,0,0,0-.57-9.3q-2.46-5.25-4.3-5.36-2.31.39.31,15.52c.93,4.84,1.82,8,2.67,9.6a2.73,2.73,0,0,0,1.08,1.21c.32.22.95.17,1.89-.13a.79.79,0,0,1,.61.65q1.53,10.11,1.81,10.65a24.94,24.94,0,0,0,2.11,5.88q2.31,4.81,9.89,12l.72,5.79,6.54,7.76,15.48-8.38L910.4,235.9l.06-.1a9.64,9.64,0,0,1-2.06-2.29,5.79,5.79,0,0,1-.76-2.12c-.28-.46-.11-3.54.5-9.22a15.68,15.68,0,0,0-.29-3.16c2.38.38,4.08-1.21,5.11-4.75q3-11,2.36-18.18-1.12-4.49-4.52-.67-2.19,2.68-4,11.76-.19-15-1.26-21.12c-.73-3.83-2.15-6.34-4.28-7.52-1.49-.9-3.62-1.22-6.41-1l-4.3.61q-11.79,2.49-12.42,2.46a27.24,27.24,0,0,1-6.22.31,22.49,22.49,0,0,1-5.87-1.27L856,175.27a10.82,10.82,0,0,0-4.28-.55" transform="translate(-483.52 -139.39)"/><path class="cls-6" d="M867.88,265l-6.66,11.3.78,4.88q-6.48,2.49-10.1,11.91-3.82,9.26-7.51,29.5-5.31,27.9-16.32,117.33L833.73,451l9.63-12q9.33-76.08,15.56-106.87,2.36-12.15,4.4-19.52.78-2.82,1.77-5.77l3.19-8.51a20.14,20.14,0,0,0,.75-2.61q.93-3.65.25-12.36l5.7-6.86-7.06-11.52" transform="translate(-483.52 -139.39)"/><path d="M865.61,296.05l-1.26,1.12-.21,4.2,1.6-.05-.13-5.27" transform="translate(-483.52 -139.39)"/><path class="cls-8" d="M849.22,530.21l14.43,70.24,0,.06,1.72-3.4h0c.42-2.72.76-5.14,1-7.26l.74,3.73,1.41-2.77-19.35-60.54Z" transform="translate(-483.52 -139.39)"/><path class="cls-8" d="M855,477.52q2,20.3,6.46,32.93,7.8,22.53,24,24.73a40.42,40.42,0,0,0,6.6.52,69.92,69.92,0,0,0,16.12-2.15,121.09,121.09,0,0,0,27.54-10.45v0l-.06,0a9,9,0,0,0-1.57.41q-15.39,5.17-21.17,6.69a86.4,86.4,0,0,1-12.7,2.55,49.3,49.3,0,0,1-5.8.36,29.32,29.32,0,0,1-14.86-3.54q-5.4-2.91-12.36-11.17L855,477.52Z" transform="translate(-483.52 -139.39)"/><path class="cls-8" d="M812.42,520c-.36,0-.69,0-1,0q-3,.18-2.37,1.56c.24.77,1.88,2.25,4.9,4.44l29.87-1.61h.06Q819.26,520,812.42,520Z" transform="translate(-483.52 -139.39)"/><path class="cls-8" d="M813.77,509q-4.72,2-5.49,3c-.69.75-.31,1.39,1.12,1.92q4.22,1.58,25.44,2.92h0Z" transform="translate(-483.52 -139.39)"/><path class="cls-8" d="M832.83,344.82q-2.12.53-11.53,42.33-10.51,47.64-15.92,80.47-3.52,21.74-3.49,32.45.33,11.1,3.56,15l15.48-58.47q8.43-64.45,10.64-85.7,2.77-26,1.3-26.05Z" transform="translate(-483.52 -139.39)"/><path class="cls-8" d="M823.11,447.62h0a56.1,56.1,0,0,0,5,8.89,28.58,28.58,0,0,0,5.68,5.88q6.49,5,21.34,9.95h0l-1.46-23.12v0l-30.62-1.58Z" transform="translate(-483.52 -139.39)"/><path class="cls-8" d="M887.13,377l-1.9,5.92,49.57,19.54h0Z" transform="translate(-483.52 -139.39)"/><path class="cls-8" d="M928.51,309.48l-1.64,32.83,4,.12-2.39-32.92Z" transform="translate(-483.52 -139.39)"/><path class="cls-8" d="M927.41,256.72,920.47,278l-9.29,3,3.88,8.66-54.31,80.51L924.42,294l3-37.19v-.1Z" transform="translate(-483.52 -139.39)"/><path class="cls-9" d="M904.22,234.46A178.17,178.17,0,0,1,890.91,251q-5.24,5.5-9.5,7.38-8.48,3.79-19.25-5.21l9.52,11.08q14.82-7.65,20.84-13.33,5.44-4.6,11.69-16.39" transform="translate(-483.52 -139.39)"/><path class="cls-7" d="M896.08,323.5,875.7,349.65l4.73,12.85,13.65,1.78,7.24-21.49L900,327.88l-3.89-4.35" transform="translate(-483.52 -139.39)"/><path class="cls-5" d="M867.66,297.05q-1.21-.12-4,2.25l-.32,6q-8.05-1.74-10,4.11a3.16,3.16,0,0,0,1.32,4q1.8,1.23,8.16,2.05-4.74,2.4-5.77,6a23.53,23.53,0,0,0-.09,11.31,11.59,11.59,0,0,0,2.88,6,7.56,7.56,0,0,0,2.44,1.52,29.4,29.4,0,0,0,4.73,1.24,4.25,4.25,0,0,1,1.38.69q1.27.83,1.77,4.11l10.71,9q9.48-8.79,12.8-18,4.21-11.89,2.38-21.64-1.05-4.63-3.94-6.51a11.64,11.64,0,0,0-3.83-1.49c-.25-.18-3.36-.57-9.35-1.19a11.9,11.9,0,0,1-3.3-1,9,9,0,0,1-2.59-1.91q-.86-.64-3.82-5.61a2.15,2.15,0,0,0-1.57-.86" transform="translate(-483.52 -139.39)"/><path class="cls-10" d="M881.17,363.13l5.14,18.54L894,364.61l-12.78-1.48" transform="translate(-483.52 -139.39)"/><path class="cls-11" d="M554.2,485.76h0a.68.68,0,0,1-.68.67.67.67,0,0,1-.67-.67h0a.67.67,0,0,1,.67-.67A.68.68,0,0,1,554.2,485.76Z" transform="translate(-483.52 -139.39)"/><path class="cls-12" d="M580.32,270h0" transform="translate(-483.52 -139.39)"/><path d="M1108.91,464.17h-78.42v99.05h78.42Z" transform="translate(-483.52 -139.39)"/><path d="M1165.26,552.38H974.15v15.2h191.11Z" transform="translate(-483.52 -139.39)"/><path class="cls-11" d="M1063.11,483.86h0a.68.68,0,0,0,1.35,0h0a.68.68,0,1,0-1.35,0Z" transform="translate(-483.52 -139.39)"/><path d="M1093.88,876.57l-7.49,35q19.8,4,27.56,4.07,7.14.55,20.19-2.44l-3.75-50.47-36.51,13.88" transform="translate(-483.52 -139.39)"/><path d="M1005.52,873.24l-4.84,40.27q14.42,4.26,21.29,4.1,7.23.21,20.16-3.81l-6.25-35.71-30.36-4.85" transform="translate(-483.52 -139.39)"/><path class="cls-2" d="M1087.39,719.79l.84,82.18.84,82.19,45,.65q9.08-82.36,18.16-164.75l-64.82-.27" transform="translate(-483.52 -139.39)"/><path class="cls-2" d="M1046.11,718.27l-1.94,83.47-1.94,83.47-46.56-.27q-9.55-85-19.09-170.05l69.53,3.38" transform="translate(-483.52 -139.39)"/><path class="cls-13" d="M1309.59,568.56H817.29v18.72h492.3V568.56" transform="translate(-483.52 -139.39)"/><path class="cls-14" d="M1181.6,510h0v67.41l-45.26,26.68q9.12-40.91,18.25-81.8l27-12.29" transform="translate(-483.52 -139.39)"/><path class="cls-14" d="M952.39,496.58h0V564l45.25,26.68-18.24-81.8-27-12.29" transform="translate(-483.52 -139.39)"/><path class="cls-13" d="M1255.17,586.67h-20.81v329h20.81v-329" transform="translate(-483.52 -139.39)"/><path class="cls-13" d="M875.42,586.67h-20.8v329h20.8v-329" transform="translate(-483.52 -139.39)"/><path class="cls-15" d="M973.36,601.74h-26V730.15h26V601.74" transform="translate(-483.52 -139.39)"/><path class="cls-15" d="M1186.82,600.19h-26v128.4h26V600.19" transform="translate(-483.52 -139.39)"/><path d="M970,921.58l.88,1.87q6.2,5.64,36.3,9,30.3,3.38,71.37,2.73,39.2-.88,62.7-5.22a91.68,91.68,0,0,0,12.4-3.05l4.1-1.69q3.38-1.75,3.41-3.66-1-5.83-28-9.72t-67.59-4q-40.6.15-67.58,4t-28,9.72" transform="translate(-483.52 -139.39)"/><path class="cls-16" d="M959.64,715.55l1,6a38.79,38.79,0,0,0,16,17.95q9.21,6.08,25.65,11.51,31.82,9.88,74.48,8.61,44.41-2.1,71.48-15.47,2.2-.63,8.7-4.88l4.68-3.38a44.26,44.26,0,0,0,7.08-6.85q5.58-6.9,5.12-14-1.49-18.49-31.42-30.7-31-12.84-75.65-13.1-41.84.18-73.64,12Q960.94,696,959.64,715.55" transform="translate(-483.52 -139.39)"/><path class="cls-13" d="M1045,874.19H992.87v11.95H1045V874.19" transform="translate(-483.52 -139.39)"/><path class="cls-13" d="M1136.14,876.47H1086.3v11.81h49.84V876.47" transform="translate(-483.52 -139.39)"/><path class="cls-17" d="M863,412.26h0" transform="translate(-483.52 -139.39)"/><path d="M1076.78,739.54h-22.41V924.8h22.41V739.54" transform="translate(-483.52 -139.39)"/><path class="cls-18" d="M1275.45,519.16h-49v49h49q0-24.53,0-49" transform="translate(-483.52 -139.39)"/><path class="cls-18" d="M1289.05,531.25h-22.61a2.38,2.38,0,0,0-2.38,2.38h0v22.61a2.38,2.38,0,0,0,2.38,2.38h22.61a2.37,2.37,0,0,0,2.38-2.38h0V533.63a2.37,2.37,0,0,0-2.38-2.38h0m0,4.77-2.38-2.39v22.62l2.38-2.38h-22.61l2.38,2.38V533.63l-2.38,2.39Z" transform="translate(-483.52 -139.39)"/><path d="M1196.3,666.84H943.41v33.5H1196.3v-33.5" transform="translate(-483.52 -139.39)"/><path class="cls-14" d="M1103.29,377.23l-.2,2.79q-1.63,18.48.31,27.35,1.5,8.16,10.53,16.76l-82-11.85q13.42-5.26,17.1-13.1,4.21-6.9,6.59-31.07l47.69,9.12" transform="translate(-483.52 -139.39)"/><path class="cls-14" d="M1114.22,363l0,1.81a13.44,13.44,0,0,0,4.46,8.94,12.33,12.33,0,0,0,9.39,3.07,12.62,12.62,0,0,0,8.56-4.71,13.22,13.22,0,0,0,1.78-2.88l.62-1.62a13.89,13.89,0,0,0-2.72-13.1,12.33,12.33,0,0,0-18-.77,13.64,13.64,0,0,0-4.13,9.26" transform="translate(-483.52 -139.39)"/><path class="cls-14" d="M1030.45,354.58l0,1.82a13.44,13.44,0,0,0,4.46,8.94,12.26,12.26,0,0,0,9.39,3.06,12.61,12.61,0,0,0,8.56-4.7,13.75,13.75,0,0,0,3-9.84,13.4,13.4,0,0,0-4.46-8.94,12.3,12.3,0,0,0-9.39-3.07,12.64,12.64,0,0,0-8.56,4.71,13.22,13.22,0,0,0-1.78,2.88l-.61,1.62a14,14,0,0,0-.61,3.52" transform="translate(-483.52 -139.39)"/><path class="cls-19" d="M1031.14,401.1h0l83.22,8.17c24.79,12.63,41.72,22.53,51,29.4,9.62,7.12,16.36,14.94,20.38,23.6,4.58,9.85,24.91,88.27,7.16,108.48s-37.92,35.8-47.36,29.15c-10.12-7.13,8.07-66.14,8.07-66.14l-4.2,15.59c-13.45,49.93-5.43,95.17,2.81,141.75l-158.11.8c4.88-11.84,6.87-50.72,7.83-67.79,1.77-31.76-10-97.73-10-97.73l-23.49,54.46c.53-6.81-23.07-5.06-27.82-28.31-4.52-22.15,9.82-69.41,10.26-72.89,3.09-24.1,9.15-39.77,17.86-47.5a61.51,61.51,0,0,1,13.43-9.26l30.4-11.92a163,163,0,0,0,18.54-9.86Z" transform="translate(-483.52 -139.39)"/><path class="cls-7" d="M1102.93,327.88a4,4,0,0,1,2.85,1.16,4,4,0,1,1-5.69,0,4,4,0,0,1,2.82-1.21Z" transform="translate(-483.52 -139.39)"/><path d="M1103.52,327.87a2.54,2.54,0,0,1,1.15.19l2.4,1.59-1.35-.49a6.26,6.26,0,0,1-.53,4.25c-.87,1.75-1.77,2.63-2.71,2.64a1.57,1.57,0,0,1-1.17-.57,2.41,2.41,0,0,1-.52-1.43q-.16-1.38,1.25-5.3l-.09-.63-1.42-.09c1.47-.12,2.46-.17,3-.16Z" transform="translate(-483.52 -139.39)"/><path d="M1104.9,321q2.19.61,4.49,3.68l-11.93-2.06.12-.06,1.26-.52c.45-.19.84-.34,1.19-.46a15.85,15.85,0,0,1,1.88-.56,6.17,6.17,0,0,1,3,0Z" transform="translate(-483.52 -139.39)"/><path class="cls-7" d="M1125.16,332.24a4,4,0,0,1,.07,8,4,4,0,0,1-4.06-4,4,4,0,0,1,4-4.05Z" transform="translate(-483.52 -139.39)"/><path d="M1125.76,332.22a2.52,2.52,0,0,1,1.14.19l2.4,1.59-1.35-.49a6.26,6.26,0,0,1-.53,4.25c-.87,1.75-1.77,2.63-2.71,2.64a1.57,1.57,0,0,1-1.17-.57,2.41,2.41,0,0,1-.52-1.43q-.16-1.38,1.25-5.3l-.09-.63-1.42-.09c1.47-.11,2.46-.17,3-.16Z" transform="translate(-483.52 -139.39)"/><path d="M1127.13,325.32q2.19.62,4.49,3.68l-11.93-2.06.12-.06,1.26-.52c.45-.18.84-.34,1.19-.46a15.85,15.85,0,0,1,1.88-.56,6.17,6.17,0,0,1,3,0Z" transform="translate(-483.52 -139.39)"/><path d="M1170.69,486.84H960.46V724.89h210.23v-238" transform="translate(-483.52 -139.39)"/><path class="cls-19" d="M1126.58,418.34l-13.4-6.51-2.34-10.37L1041.29,391l-10,17.79,95.24,9.55" transform="translate(-483.52 -139.39)"/><path class="cls-12" d="M1037,268.13h0" transform="translate(-483.52 -139.39)"/><path d="M1055.3,292.31l-2.54.67a31.64,31.64,0,0,0-13.67,6.39,17.47,17.47,0,0,0-3.28,4.06l-1.28,2.59a26.84,26.84,0,0,0-1.69,6.51q-2.44,19.59,9.06,54.63a79.67,79.67,0,0,0,7.14,15.18,42.43,42.43,0,0,0,4,5.37q.9,1.52,6.62,5.87,17.54,10,33.54,6,20.25-4.85,36.64-38.18a104.75,104.75,0,0,0,8.44-25.94q2.43-13.24-.61-24.22a42.73,42.73,0,0,0-4.34-10l-3-4.42a49.86,49.86,0,0,0-7.2-7.59,55.31,55.31,0,0,0-8.34-5.89q-2.16-1.82-13.26-5.45a38.24,38.24,0,0,0-20.17,0q-11.1,3.06-26,14.45" transform="translate(-483.52 -139.39)"/></g></svg>