<svg xmlns="http://www.w3.org/2000/svg" viewBox="0 0 533.92 247.26"><circle cx="47.08" cy="203.01" r="12.51" style="fill:#fff"/><circle cx="158.73" cy="61.2" r="12.51" style="fill:#fff"/><circle cx="251.09" cy="185.3" r="12.51" style="fill:#fff"/><path d="M51.31,204.29c2-.21,3.95-.45,5.95-.73" transform="translate(-0.93 -2.11)" style="fill:none;stroke:#fff;stroke-linecap:round;stroke-miterlimit:10;stroke-width:5px"/><path d="M69.2,201.44c16.65-3.69,32.35-10.66,38.5-24.1,10.82-23.63-17.74-45.76-8.79-72.94C108.6,74.94,158,52.61,185.3,66.64c37.91,19.51,11.8,98.55,49.38,116.53,25,12,66.23-8.5,69.31-28.54,3.29-21.45-38.85-32-39.25-63.83-.23-18.24,13.31-38.28,32.22-45,13.73-4.86,29.5-2.42,41,5,18,11.57,13.61,27.57,31.87,46.1,11.48,11.66,27.82,20.15,42.6,21.86,26.94,3.13,56-15.38,75.68-46.25" transform="translate(-0.93 -2.11)" style="fill:none;stroke:#fff;stroke-linecap:round;stroke-miterlimit:10;stroke-width:5px;stroke-dasharray:12.131143569946289,12.131143569946289"/><path d="M491.27,67.32c1-1.72,2-3.47,2.89-5.25" transform="translate(-0.93 -2.11)" style="fill:none;stroke:#fff;stroke-linecap:round;stroke-miterlimit:10;stroke-width:5px"/><path d="M8.59,240.62a2.06,2.06,0,0,0-.5-.66,4.26,4.26,0,0,0-.88-.52A9.65,9.65,0,0,0,6,239a10.79,10.79,0,0,1-2-.73,6.23,6.23,0,0,1-1.44-1,4,4,0,0,1-.9-1.21,3.44,3.44,0,0,1-.31-1.48A3.53,3.53,0,0,1,1.74,233a3.71,3.71,0,0,1,1.06-1.24A4.73,4.73,0,0,1,4.37,231a6.28,6.28,0,0,1,1.92-.28,6.06,6.06,0,0,1,2,.32,4.58,4.58,0,0,1,1.57.9,4,4,0,0,1,1,1.37,4.12,4.12,0,0,1,.38,1.76H8.77a3,3,0,0,0-.2-.93,2.09,2.09,0,0,0-.47-.72,2.3,2.3,0,0,0-.79-.47,2.87,2.87,0,0,0-1.06-.18,3.36,3.36,0,0,0-1,.14,2.41,2.41,0,0,0-.75.38,1.72,1.72,0,0,0-.48.6,1.77,1.77,0,0,0-.16.77,1.46,1.46,0,0,0,.22.8,1.88,1.88,0,0,0,.62.6,4.58,4.58,0,0,0,.94.48c.36.14.75.27,1.18.39a11.14,11.14,0,0,1,1.44.51,6.48,6.48,0,0,1,1.26.73,4.73,4.73,0,0,1,1.28,1.4,3.56,3.56,0,0,1,.48,1.87,3.48,3.48,0,0,1-.39,1.66,3.54,3.54,0,0,1-1.06,1.22,4.71,4.71,0,0,1-1.56.75,7.16,7.16,0,0,1-1.94.25A6.69,6.69,0,0,1,4.27,245,5.27,5.27,0,0,1,2.48,244a4.5,4.5,0,0,1-1.13-1.4,4.09,4.09,0,0,1-.42-1.87H3.45a2.93,2.93,0,0,0,.25,1.12,2.1,2.1,0,0,0,.6.78,2.54,2.54,0,0,0,.9.45,4.59,4.59,0,0,0,1.15.14,3.7,3.7,0,0,0,1-.12,2.5,2.5,0,0,0,.77-.37,1.56,1.56,0,0,0,.48-.57,1.61,1.61,0,0,0,.18-.76A1.88,1.88,0,0,0,8.59,240.62Z" transform="translate(-0.93 -2.11)" style="fill:#fff"/><path d="M18.28,234.53h4v1.88h-4v4.79a2.93,2.93,0,0,0,.14,1,1.48,1.48,0,0,0,.38.61,1.4,1.4,0,0,0,.6.35,3.21,3.21,0,0,0,.78.09l.63,0,.63-.08L22,243l.43-.1.27,1.75a4.25,4.25,0,0,1-.64.27c-.25.08-.51.14-.79.2s-.57.09-.87.12-.61,0-.91,0a4.9,4.9,0,0,1-1.52-.22,3,3,0,0,1-1.17-.7,3.19,3.19,0,0,1-.77-1.21,5,5,0,0,1-.27-1.76v-5H13.26v-1.88h2.49V232h2.53Z" transform="translate(-0.93 -2.11)" style="fill:#fff"/><path d="M34,234.41a5.4,5.4,0,0,1,.84.19l-.37,2.51a8.15,8.15,0,0,0-1.08-.19,9.51,9.51,0,0,0-1-.06,4.4,4.4,0,0,0-1,.1,2.35,2.35,0,0,0-.79.33,2.49,2.49,0,0,0-.68.57,3,3,0,0,0-.46.8v6.44H26.89V234.53h2.36l.11,1.48,0,.24a4.77,4.77,0,0,1,1.54-1.4,4,4,0,0,1,2-.51A7.87,7.87,0,0,1,34,234.41Z" transform="translate(-0.93 -2.11)" style="fill:#fff"/><path d="M44,244.63a3.27,3.27,0,0,1-.11-.56,3.64,3.64,0,0,1-1.2.86,4.81,4.81,0,0,1-.81.27,4.76,4.76,0,0,1-.94.09,4.46,4.46,0,0,1-1.5-.23,3.55,3.55,0,0,1-1.16-.66,2.84,2.84,0,0,1-.75-1,2.89,2.89,0,0,1-.27-1.25,3.34,3.34,0,0,1,.34-1.55,2.92,2.92,0,0,1,1-1.12,4.7,4.7,0,0,1,1.52-.62,9.13,9.13,0,0,1,2.06-.21h1.61V238a1.73,1.73,0,0,0-.13-.71,1.36,1.36,0,0,0-.38-.54,1.64,1.64,0,0,0-.65-.36,2.65,2.65,0,0,0-.89-.13,2.69,2.69,0,0,0-.79.11,1.45,1.45,0,0,0-.55.3,1,1,0,0,0-.3.43,1.33,1.33,0,0,0-.1.54H37.44a2.74,2.74,0,0,1,.3-1.25,3.4,3.4,0,0,1,.86-1A4.46,4.46,0,0,1,40,234.6a6.19,6.19,0,0,1,1.86-.26,6.12,6.12,0,0,1,1.75.23,4.25,4.25,0,0,1,1.42.68A3.37,3.37,0,0,1,46,236.4a3.57,3.57,0,0,1,.34,1.61v4.61a7.4,7.4,0,0,0,.1,1.34,3.57,3.57,0,0,0,.31,1v.17H44.12A2.34,2.34,0,0,1,44,244.63Zm-1.74-1.43a2.87,2.87,0,0,0,.67-.28,2.08,2.08,0,0,0,.52-.39,1.73,1.73,0,0,0,.35-.44v-1.88H42.31a5.29,5.29,0,0,0-1.2.12,2.34,2.34,0,0,0-.81.37,1.37,1.37,0,0,0-.42.54,1.56,1.56,0,0,0-.14.68,1.52,1.52,0,0,0,.1.57,1.19,1.19,0,0,0,.33.44,1.64,1.64,0,0,0,.51.27,2.3,2.3,0,0,0,.73.1A3,3,0,0,0,42.22,243.2Z" transform="translate(-0.93 -2.11)" style="fill:#fff"/><path d="M54.29,234.53h4v1.88h-4v4.79a3,3,0,0,0,.13,1,1.59,1.59,0,0,0,.38.61,1.44,1.44,0,0,0,.61.35,3.07,3.07,0,0,0,.77.09l.63,0,.63-.08L58,243l.44-.1.26,1.75a3.52,3.52,0,0,1-.64.27,7.37,7.37,0,0,1-.78.2c-.28.05-.58.09-.88.12s-.6,0-.9,0a4.9,4.9,0,0,1-1.52-.22,3.11,3.11,0,0,1-1.18-.7,3.17,3.17,0,0,1-.76-1.21,5,5,0,0,1-.27-1.76v-5H49.27v-1.88h2.49V232h2.53Z" transform="translate(-0.93 -2.11)" style="fill:#fff"/><path d="M64.3,244.9a5.24,5.24,0,0,1-1.68-1.09,4.87,4.87,0,0,1-1.09-1.62,5.31,5.31,0,0,1-.38-2v-.39a6.16,6.16,0,0,1,.39-2.24,5.21,5.21,0,0,1,1.07-1.72,4.84,4.84,0,0,1,1.6-1.11,5.08,5.08,0,0,1,2-.39,5,5,0,0,1,2,.38,4.26,4.26,0,0,1,1.5,1.06,4.56,4.56,0,0,1,.91,1.65,6.72,6.72,0,0,1,.32,2.11v1.08H63.7v0a4.19,4.19,0,0,0,.35,1.1,2.69,2.69,0,0,0,.59.77,3,3,0,0,0,.89.55,3.08,3.08,0,0,0,1.11.19,4.06,4.06,0,0,0,1.58-.32,3,3,0,0,0,1.23-.94l1.3,1.34a4.57,4.57,0,0,1-1.62,1.35,5.49,5.49,0,0,1-2.65.6A5.87,5.87,0,0,1,64.3,244.9Zm1-8.35a2.06,2.06,0,0,0-.71.49,2.82,2.82,0,0,0-.52.77,3.81,3.81,0,0,0-.31,1h4.71v-.2a2.57,2.57,0,0,0-.16-.86,2.2,2.2,0,0,0-.45-.72,2.12,2.12,0,0,0-.71-.48,2.4,2.4,0,0,0-1-.18A2.3,2.3,0,0,0,65.3,236.55Z" transform="translate(-0.93 -2.11)" style="fill:#fff"/><path d="M73.47,237.54a5.08,5.08,0,0,1,.85-1.71,3.83,3.83,0,0,1,1.34-1.1,4,4,0,0,1,1.78-.39,4.09,4.09,0,0,1,1,.11,3,3,0,0,1,.85.34,2.69,2.69,0,0,1,.49.34,2.46,2.46,0,0,1,.41.44l.11-1h2.3v10.26a4.8,4.8,0,0,1-.36,1.9,3.94,3.94,0,0,1-1,1.4,4.43,4.43,0,0,1-1.55.87,6.25,6.25,0,0,1-2,.3,5.39,5.39,0,0,1-1-.1,6.22,6.22,0,0,1-1.08-.3,5.51,5.51,0,0,1-1-.53,3.42,3.42,0,0,1-.83-.78L74.94,246a4.48,4.48,0,0,0,.6.56,3.33,3.33,0,0,0,.64.39,3.26,3.26,0,0,0,.69.22,3.38,3.38,0,0,0,.72.08,3.31,3.31,0,0,0,1.08-.17,2.16,2.16,0,0,0,.79-.51,2,2,0,0,0,.47-.75,3.21,3.21,0,0,0,.16-1v-.67a3.25,3.25,0,0,1-.42.41,2.85,2.85,0,0,1-.46.31,3.48,3.48,0,0,1-.82.31,4.16,4.16,0,0,1-2.73-.29,4.12,4.12,0,0,1-1.34-1.12,5.12,5.12,0,0,1-.85-1.7,7.31,7.31,0,0,1-.3-2.13v-.2A7.6,7.6,0,0,1,73.47,237.54Zm2.37,3.68a3.09,3.09,0,0,0,.43,1.05,2.13,2.13,0,0,0,.73.7,2.08,2.08,0,0,0,1.06.25,2.84,2.84,0,0,0,.68-.07,2.11,2.11,0,0,0,.56-.22,2,2,0,0,0,.45-.37,2.36,2.36,0,0,0,.34-.47v-4.55a2.23,2.23,0,0,0-.37-.51,1.68,1.68,0,0,0-.48-.36,2.07,2.07,0,0,0-.53-.19,2.53,2.53,0,0,0-.63-.07,2,2,0,0,0-1.06.26,2.07,2.07,0,0,0-.74.7,3.44,3.44,0,0,0-.44,1.07,5.89,5.89,0,0,0-.14,1.3v.2A5.77,5.77,0,0,0,75.84,241.22Z" transform="translate(-0.93 -2.11)" style="fill:#fff"/><path d="M86.29,249.32c-.19,0-.4-.08-.61-.14l.33-1.94h.44l.4,0a1,1,0,0,0,.59-.2,2.39,2.39,0,0,0,.45-.45,3.73,3.73,0,0,0,.29-.4c.07-.1.14-.23.22-.37l.64-1.21-4.49-10.11h2.77l2.52,6.32.34,1.12.42-1.09,2.48-6.35h2.79l-5.36,12.16a7.46,7.46,0,0,1-.46.87,4.38,4.38,0,0,1-.7.87,3.68,3.68,0,0,1-1,.66,3.28,3.28,0,0,1-1.39.28A4.43,4.43,0,0,1,86.29,249.32Z" transform="translate(-0.93 -2.11)" style="fill:#fff"/><path d="M128.28,35.69a4.44,4.44,0,0,1-1,1.46,4.55,4.55,0,0,1-1.55.93,5.73,5.73,0,0,1-2,.33,5.2,5.2,0,0,1-1.62-.24,4.25,4.25,0,0,1-1.33-.66,4.51,4.51,0,0,1-1-1,5.4,5.4,0,0,1-.71-1.27,7.21,7.21,0,0,1-.43-1.49,9.35,9.35,0,0,1-.15-1.7V30.14a9.48,9.48,0,0,1,.14-1.62,7.18,7.18,0,0,1,.41-1.45,5.56,5.56,0,0,1,.78-1.42,5.35,5.35,0,0,1,1.12-1.06,4.57,4.57,0,0,1,1.26-.6,5.25,5.25,0,0,1,1.51-.21,6,6,0,0,1,2,.33,4.26,4.26,0,0,1,1.53.95,4.47,4.47,0,0,1,1,1.48,7.37,7.37,0,0,1,.48,2h-2.55a5.7,5.7,0,0,0-.21-1.13,2.45,2.45,0,0,0-.47-.84,1.89,1.89,0,0,0-.75-.51,3,3,0,0,0-1.09-.18,2.3,2.3,0,0,0-.71.1,1.84,1.84,0,0,0-.58.28,2.25,2.25,0,0,0-.67.7,4.29,4.29,0,0,0-.43,1,5.85,5.85,0,0,0-.19,1,10.39,10.39,0,0,0-.06,1.15v1.95a10.43,10.43,0,0,0,.09,1.43,5.89,5.89,0,0,0,.27,1.15,3.17,3.17,0,0,0,.34.69,2.17,2.17,0,0,0,.46.53,2.24,2.24,0,0,0,.65.34,2.57,2.57,0,0,0,.82.12,3.22,3.22,0,0,0,1-.15,1.77,1.77,0,0,0,.76-.48,2.1,2.1,0,0,0,.5-.79,4,4,0,0,0,.24-1.12h2.55A5.65,5.65,0,0,1,128.28,35.69Z" transform="translate(-0.93 -2.11)" style="fill:#fff"/><path d="M131,30.69A4.9,4.9,0,0,1,132,29a4.4,4.4,0,0,1,1.54-1.13,5.56,5.56,0,0,1,4.19,0A4.67,4.67,0,0,1,139.3,29a5,5,0,0,1,1,1.71,6.61,6.61,0,0,1,.33,2.13V33a6.67,6.67,0,0,1-.33,2.14,5,5,0,0,1-1,1.71A4.38,4.38,0,0,1,137.75,38a5.56,5.56,0,0,1-4.19,0A4.21,4.21,0,0,1,132,36.88a4.9,4.9,0,0,1-1-1.71A6.67,6.67,0,0,1,130.7,33v-.21A6.61,6.61,0,0,1,131,30.69Zm2.33,3.64a3.31,3.31,0,0,0,.43,1.05,2.12,2.12,0,0,0,.76.73,2.17,2.17,0,0,0,1.11.27,2.06,2.06,0,0,0,1.08-.27,2.12,2.12,0,0,0,.76-.73,3.55,3.55,0,0,0,.42-1.05,6,6,0,0,0,.14-1.3v-.21a5.75,5.75,0,0,0-.14-1.27,3.61,3.61,0,0,0-.42-1.06,2.11,2.11,0,0,0-1.86-1,2.1,2.1,0,0,0-1.09.27,2.12,2.12,0,0,0-.76.73,3.37,3.37,0,0,0-.43,1.06,5.75,5.75,0,0,0-.14,1.27V33A6,6,0,0,0,133.36,34.33Z" transform="translate(-0.93 -2.11)" style="fill:#fff"/><path d="M143.1,27.64h2.29l.15,1.48a5,5,0,0,1,.47-.55,3.18,3.18,0,0,1,.53-.44,3.26,3.26,0,0,1,1-.51,3.9,3.9,0,0,1,1.19-.18,4.36,4.36,0,0,1,1.47.24,2.82,2.82,0,0,1,1.15.74,3.33,3.33,0,0,1,.74,1.31,6.07,6.07,0,0,1,.27,1.93V38.2h-2.52V31.7a3.24,3.24,0,0,0-.15-1.07,1.6,1.6,0,0,0-.42-.67,1.41,1.41,0,0,0-.66-.35,3.3,3.3,0,0,0-.87-.1,2.66,2.66,0,0,0-.77.1,2.06,2.06,0,0,0-.62.28,2.71,2.71,0,0,0-.41.35,3,3,0,0,0-.33.44V38.2H143.1Z" transform="translate(-0.93 -2.11)" style="fill:#fff"/><path d="M160.54,36.25a2.19,2.19,0,0,0,.68-.35,1.84,1.84,0,0,0,.46-.54,1.4,1.4,0,0,0,.15-.71h2.38a3.05,3.05,0,0,1-.34,1.49,3.68,3.68,0,0,1-1,1.18,4.59,4.59,0,0,1-1.42.8,5,5,0,0,1-1.7.29,5.11,5.11,0,0,1-2.14-.42,4.34,4.34,0,0,1-1.54-1.14,5.06,5.06,0,0,1-.93-1.69,6.69,6.69,0,0,1-.32-2.07v-.32a6.69,6.69,0,0,1,.31-2.07,5,5,0,0,1,.94-1.7,4.39,4.39,0,0,1,1.53-1.14,5.11,5.11,0,0,1,2.14-.42,5.42,5.42,0,0,1,1.79.29,4.21,4.21,0,0,1,1.41.83,3.58,3.58,0,0,1,.93,1.27,3.89,3.89,0,0,1,.31,1.65h-2.38a1.82,1.82,0,0,0-.14-.77,1.74,1.74,0,0,0-.42-.63,2.07,2.07,0,0,0-.68-.43,2.41,2.41,0,0,0-2,.12,2.13,2.13,0,0,0-.72.74,3.05,3.05,0,0,0-.39,1,6.89,6.89,0,0,0-.11,1.21v.32a6.09,6.09,0,0,0,.11,1.22,2.86,2.86,0,0,0,.39,1,2,2,0,0,0,.71.74,2.25,2.25,0,0,0,1.15.28A2.63,2.63,0,0,0,160.54,36.25Z" transform="translate(-0.93 -2.11)" style="fill:#fff"/><path d="M170,38a4.93,4.93,0,0,1-1.68-1.09,4.73,4.73,0,0,1-1.09-1.61,5.33,5.33,0,0,1-.38-2V32.9a6.1,6.1,0,0,1,.39-2.23A5.11,5.11,0,0,1,168.26,29a4.7,4.7,0,0,1,1.6-1.11,4.91,4.91,0,0,1,2-.4,5.17,5.17,0,0,1,2,.38,4.28,4.28,0,0,1,1.5,1.07,4.44,4.44,0,0,1,.91,1.64,6.78,6.78,0,0,1,.32,2.12v1.07h-7.26v0a4.11,4.11,0,0,0,.35,1.09,2.6,2.6,0,0,0,.59.78,3,3,0,0,0,.89.54,3.08,3.08,0,0,0,1.11.2,4.06,4.06,0,0,0,1.58-.32,3.12,3.12,0,0,0,1.23-.94l1.3,1.34a4.57,4.57,0,0,1-1.62,1.35,5.49,5.49,0,0,1-2.65.6A5.68,5.68,0,0,1,170,38Zm1-8.34a1.93,1.93,0,0,0-.71.49,2.67,2.67,0,0,0-.52.77,3.85,3.85,0,0,0-.31,1h4.71v-.19a2.57,2.57,0,0,0-.16-.86,2.2,2.2,0,0,0-.45-.72,2.14,2.14,0,0,0-.71-.49,2.4,2.4,0,0,0-1-.18A2.3,2.3,0,0,0,171,29.66Z" transform="translate(-0.93 -2.11)" style="fill:#fff"/><path d="M179.14,27.64h2.32l.1,1.06a3.05,3.05,0,0,1,.47-.48,4,4,0,0,1,.54-.37,3.24,3.24,0,0,1,.81-.3,4.12,4.12,0,0,1,1-.11,3.92,3.92,0,0,1,1.78.39,3.72,3.72,0,0,1,1.3,1.1,5,5,0,0,1,.8,1.7,8.29,8.29,0,0,1,.27,2.18V33a8.07,8.07,0,0,1-.27,2.13,5.44,5.44,0,0,1-.79,1.7,3.8,3.8,0,0,1-1.3,1.13,3.76,3.76,0,0,1-1.77.41,3.92,3.92,0,0,1-1-.12,3.76,3.76,0,0,1-.85-.33,2.32,2.32,0,0,1-.44-.31,4.61,4.61,0,0,1-.4-.37v5h-2.52Zm6.68,3.88a3.53,3.53,0,0,0-.4-1.05,2.09,2.09,0,0,0-.72-.7,2,2,0,0,0-1-.26,3.24,3.24,0,0,0-.65.07,2,2,0,0,0-.52.2,1.71,1.71,0,0,0-.47.37,1.8,1.8,0,0,0-.35.5v4.56a2.59,2.59,0,0,0,.32.47,2,2,0,0,0,.44.38,2,2,0,0,0,.55.22,2.53,2.53,0,0,0,.7.09,1.94,1.94,0,0,0,1-.27,2.1,2.1,0,0,0,.72-.73,3.6,3.6,0,0,0,.4-1.06A6.73,6.73,0,0,0,186,33v-.21A6,6,0,0,0,185.82,31.52Z" transform="translate(-0.93 -2.11)" style="fill:#fff"/><path d="M195.94,27.64h4v1.87h-4v4.8a3,3,0,0,0,.14,1,1.48,1.48,0,0,0,.38.61,1.36,1.36,0,0,0,.61.34,2.66,2.66,0,0,0,.77.1,4.64,4.64,0,0,0,.63,0l.63-.08a4.51,4.51,0,0,0,.55-.09l.43-.09.27,1.74a3.16,3.16,0,0,1-.64.28,6.09,6.09,0,0,1-.79.19,7.93,7.93,0,0,1-.87.12c-.31,0-.61,0-.91,0a4.78,4.78,0,0,1-1.51-.23,2.92,2.92,0,0,1-1.18-.7,3.07,3.07,0,0,1-.77-1.2,5.15,5.15,0,0,1-.27-1.77v-5h-2.49V27.64h2.49V25.06h2.53Z" transform="translate(-0.93 -2.11)" style="fill:#fff"/><path d="M217.29,213.75h3.61a6.78,6.78,0,0,1,1.78.23,6.31,6.31,0,0,1,1.53.63,5.28,5.28,0,0,1,1.18.92,6.24,6.24,0,0,1,.9,1.21,7,7,0,0,1,.63,1.64,8.42,8.42,0,0,1,.22,1.92v1.15a7.86,7.86,0,0,1-.21,1.84,5.9,5.9,0,0,1-1.46,2.83,5,5,0,0,1-1.12.94,5.51,5.51,0,0,1-1.54.68A7,7,0,0,1,221,228h-3.71Zm2.57,12.17H221a3.86,3.86,0,0,0,1.05-.14,2.9,2.9,0,0,0,.87-.41,3.16,3.16,0,0,0,.73-.69,4.14,4.14,0,0,0,.53-1,6.7,6.7,0,0,0,.27-1,9.27,9.27,0,0,0,.1-1.22v-1.17a8.8,8.8,0,0,0-.1-1.19,6.32,6.32,0,0,0-.28-1,4,4,0,0,0-.59-1,3.23,3.23,0,0,0-.87-.74,3.74,3.74,0,0,0-1.81-.46h-1Z" transform="translate(-0.93 -2.11)" style="fill:#fff"/><path d="M232.31,227.77a4.87,4.87,0,0,1-1.69-1.09,4.57,4.57,0,0,1-1.08-1.61,5.17,5.17,0,0,1-.38-2v-.39a6.28,6.28,0,0,1,.38-2.23,5.43,5.43,0,0,1,1.07-1.73,5,5,0,0,1,3.6-1.5,5.12,5.12,0,0,1,2,.38,4.16,4.16,0,0,1,1.5,1.07,4.46,4.46,0,0,1,.92,1.64,6.79,6.79,0,0,1,.31,2.12v1.07h-7.25v0a4.13,4.13,0,0,0,.34,1.09,2.76,2.76,0,0,0,1.49,1.32,3,3,0,0,0,1.11.2,3.89,3.89,0,0,0,1.58-.33,3,3,0,0,0,1.23-.93l1.3,1.33a4.53,4.53,0,0,1-1.63,1.36,5.48,5.48,0,0,1-2.64.6A5.64,5.64,0,0,1,232.31,227.77Zm1-8.34a1.89,1.89,0,0,0-.7.49,2.7,2.7,0,0,0-.53.77,3.73,3.73,0,0,0-.3,1h4.7v-.19a2.3,2.3,0,0,0-.16-.86,2.33,2.33,0,0,0-.44-.73,2.22,2.22,0,0,0-.71-.48,2.43,2.43,0,0,0-1-.18A2.35,2.35,0,0,0,233.3,219.43Z" transform="translate(-0.93 -2.11)" style="fill:#fff"/><path d="M248.21,224.63a1.09,1.09,0,0,0-.41-.38,4.06,4.06,0,0,0-.78-.31,10.6,10.6,0,0,0-1.21-.28,11.75,11.75,0,0,1-1.69-.47,5.11,5.11,0,0,1-1.3-.67,2.87,2.87,0,0,1-.85-.89,2.31,2.31,0,0,1-.3-1.19,2.59,2.59,0,0,1,.31-1.24,2.93,2.93,0,0,1,.88-1,4.29,4.29,0,0,1,1.4-.71,6.26,6.26,0,0,1,1.85-.26,6.73,6.73,0,0,1,1.93.26,4.52,4.52,0,0,1,1.46.71,3,3,0,0,1,.91,1.08,2.91,2.91,0,0,1,.32,1.34h-2.52a1.32,1.32,0,0,0-.11-.53,1.38,1.38,0,0,0-.31-.46,2,2,0,0,0-.68-.39,3,3,0,0,0-1-.14,3.44,3.44,0,0,0-.9.1,1.67,1.67,0,0,0-.63.29,1.18,1.18,0,0,0-.35.39,1,1,0,0,0,0,.93,1,1,0,0,0,.37.38,2.81,2.81,0,0,0,.69.31,8.17,8.17,0,0,0,1.12.24,13.54,13.54,0,0,1,1.77.42,5.09,5.09,0,0,1,1.39.63,3.06,3.06,0,0,1,.91.92,2.51,2.51,0,0,1,.32,1.28,2.58,2.58,0,0,1-.33,1.29,3.24,3.24,0,0,1-.94,1,4.75,4.75,0,0,1-1.47.66,7.13,7.13,0,0,1-1.91.24,6.53,6.53,0,0,1-2.07-.31,4.67,4.67,0,0,1-1.5-.82,3.28,3.28,0,0,1-.93-1.12,2.85,2.85,0,0,1-.31-1.29h2.42a1.57,1.57,0,0,0,.25.78,1.61,1.61,0,0,0,.55.52,2.37,2.37,0,0,0,.77.29,4.12,4.12,0,0,0,.86.09,3.73,3.73,0,0,0,1-.11,2.21,2.21,0,0,0,.69-.29,1.11,1.11,0,0,0,.34-.38.89.89,0,0,0,.12-.45A1,1,0,0,0,248.21,224.63Z" transform="translate(-0.93 -2.11)" style="fill:#fff"/><path d="M259.77,217.41v8.49h3V228h-8.67V225.9h3.13v-6.41h-3.13v-2.08Zm-2.64-3.28a1.32,1.32,0,0,1,.3-.44,1.42,1.42,0,0,1,.45-.27,1.89,1.89,0,0,1,.6-.1,1.41,1.41,0,0,1,1,.34,1.16,1.16,0,0,1,.41.86,1.19,1.19,0,0,1-.29.89,1.27,1.27,0,0,1-.89.41,1.34,1.34,0,0,1-.56.08,1.47,1.47,0,0,1-.56-.18,1,1,0,0,1-.42-.42,1.28,1.28,0,0,1-.15-.61A1.3,1.3,0,0,1,257.13,214.13Z" transform="translate(-0.93 -2.11)" style="fill:#fff"/><path d="M265.48,220.41a4.9,4.9,0,0,1,.85-1.71,3.85,3.85,0,0,1,1.34-1.1,4,4,0,0,1,1.78-.39,4.62,4.62,0,0,1,1,.11,3.36,3.36,0,0,1,.85.34,3.3,3.3,0,0,1,.49.34,2.85,2.85,0,0,1,.41.44l.11-1h2.3v10.25a4.77,4.77,0,0,1-.36,1.9,3.85,3.85,0,0,1-1,1.4,4.28,4.28,0,0,1-1.55.87,6.25,6.25,0,0,1-2,.3,5.31,5.31,0,0,1-1-.1,5.45,5.45,0,0,1-1.08-.3,5.51,5.51,0,0,1-1-.53,3.24,3.24,0,0,1-.83-.78l1.16-1.53a4.48,4.48,0,0,0,.6.56,3.59,3.59,0,0,0,.64.4,4.15,4.15,0,0,0,.68.22,3.54,3.54,0,0,0,.73.07,3.31,3.31,0,0,0,1.08-.17,2.14,2.14,0,0,0,.79-.5,2.17,2.17,0,0,0,.47-.76,3.15,3.15,0,0,0,.16-1V227a3.25,3.25,0,0,1-.42.41,2.91,2.91,0,0,1-.46.32,3.47,3.47,0,0,1-.82.3,3.74,3.74,0,0,1-1,.12,3.77,3.77,0,0,1-1.76-.41,3.9,3.9,0,0,1-1.34-1.12,4.94,4.94,0,0,1-.85-1.7,7.19,7.19,0,0,1-.3-2.12v-.21A7.65,7.65,0,0,1,265.48,220.41Zm2.37,3.68a3.09,3.09,0,0,0,.43,1,2,2,0,0,0,.73.7,2.08,2.08,0,0,0,1.06.26,2.82,2.82,0,0,0,.68-.08,2.11,2.11,0,0,0,.56-.22,2.22,2.22,0,0,0,.45-.36,2.43,2.43,0,0,0,.34-.48v-4.55a2.78,2.78,0,0,0-.37-.51,1.89,1.89,0,0,0-.48-.36,2.07,2.07,0,0,0-.53-.19,2.59,2.59,0,0,0-.63-.07,2,2,0,0,0-1.8,1,3.38,3.38,0,0,0-.44,1.06,6,6,0,0,0-.14,1.3v.21A5.68,5.68,0,0,0,267.85,224.09Z" transform="translate(-0.93 -2.11)" style="fill:#fff"/><path d="M277.47,217.41h2.28l.16,1.48a4.19,4.19,0,0,1,.46-.55,3.79,3.79,0,0,1,.54-.45,3.46,3.46,0,0,1,1-.5,3.83,3.83,0,0,1,1.18-.18,4.53,4.53,0,0,1,1.47.23,3,3,0,0,1,1.16.75,3.26,3.26,0,0,1,.74,1.31,6,6,0,0,1,.27,1.93V228h-2.52v-6.5a3.24,3.24,0,0,0-.15-1.07,1.6,1.6,0,0,0-.42-.67,1.41,1.41,0,0,0-.66-.35,3.35,3.35,0,0,0-.87-.1,2.66,2.66,0,0,0-.77.1,2.06,2.06,0,0,0-.62.28,2,2,0,0,0-.41.35,3,3,0,0,0-.33.44V228h-2.53Z" transform="translate(-0.93 -2.11)" style="fill:#fff"/><path d="M235.6,2.89V5h-2.91V15h2.91v2.07h-8.3V15h2.83V5H227.3V2.89Z" transform="translate(-0.93 -2.11)" style="fill:#fff"/><path d="M240.49,7.76a2.58,2.58,0,0,1,.83-1,2.11,2.11,0,0,1,1.28-.38,2.4,2.4,0,0,1,.69.09,1.4,1.4,0,0,1,.53.27,1.6,1.6,0,0,1,.3.33,2.15,2.15,0,0,1,.21.43,1.94,1.94,0,0,1,.32-.42,1.7,1.7,0,0,1,.38-.33,1.93,1.93,0,0,1,.58-.27,2.32,2.32,0,0,1,.72-.1,2.25,2.25,0,0,1,.9.17,1.84,1.84,0,0,1,.74.54,2.72,2.72,0,0,1,.48,1,5.55,5.55,0,0,1,.17,1.45v7.62h-2.31V9.48a1.85,1.85,0,0,0-.07-.51,1,1,0,0,0-.19-.34.63.63,0,0,0-.27-.16,1,1,0,0,0-.34-.05.9.9,0,0,0-.34.05,1.23,1.23,0,0,0-.26.12,1.12,1.12,0,0,0-.18.2.66.66,0,0,0-.11.24v8.08h-2.26V9.47a1.88,1.88,0,0,0-.06-.51.85.85,0,0,0-.16-.33.61.61,0,0,0-.28-.16.9.9,0,0,0-.34-.05,1,1,0,0,0-.36.06.81.81,0,0,0-.28.17.62.62,0,0,0-.15.2c0,.08-.08.16-.12.24v8h-2.31V6.54h2.18Z" transform="translate(-0.93 -2.11)" style="fill:#fff"/><path d="M250.93,6.54h2.33l.1,1.07a3.12,3.12,0,0,1,.47-.49,2.82,2.82,0,0,1,.54-.36,3.24,3.24,0,0,1,.81-.3,3.59,3.59,0,0,1,.95-.11,3.92,3.92,0,0,1,1.78.39,3.78,3.78,0,0,1,1.3,1.09,5.4,5.4,0,0,1,.8,1.71,8.24,8.24,0,0,1,.27,2.18v.21a8,8,0,0,1-.27,2.13,5.45,5.45,0,0,1-.79,1.7,3.9,3.9,0,0,1-1.3,1.13,3.67,3.67,0,0,1-1.77.41,4,4,0,0,1-1-.11,4,4,0,0,1-.85-.33c-.15-.1-.3-.2-.44-.31s-.27-.24-.4-.38v5h-2.52Zm6.69,3.89a3.2,3.2,0,0,0-.41-1,2.1,2.1,0,0,0-.71-.71,2,2,0,0,0-1.05-.25,2.64,2.64,0,0,0-.65.07,2.22,2.22,0,0,0-.53.19,2.41,2.41,0,0,0-.46.37,2.34,2.34,0,0,0-.36.51v4.55a2.39,2.39,0,0,0,.33.48,2,2,0,0,0,.44.37,1.72,1.72,0,0,0,.55.23,2.54,2.54,0,0,0,.7.08,1.94,1.94,0,0,0,1-.27,2,2,0,0,0,.71-.72,3.17,3.17,0,0,0,.4-1.07,5.88,5.88,0,0,0,.13-1.29v-.2A5.88,5.88,0,0,0,257.62,10.43Z" transform="translate(-0.93 -2.11)" style="fill:#fff"/><path d="M269.22,2.11V15h3.11v2.07h-8.91V15h3.25V4.19h-3.25V2.11Z" transform="translate(-0.93 -2.11)" style="fill:#fff"/><path d="M277.76,16.91a5,5,0,0,1-1.69-1.09A4.61,4.61,0,0,1,275,14.2a5.12,5.12,0,0,1-.38-2v-.39A6.07,6.07,0,0,1,275,9.58a5.32,5.32,0,0,1,1.07-1.73,4.89,4.89,0,0,1,3.6-1.5,5,5,0,0,1,2,.38,4.26,4.26,0,0,1,1.5,1.06,4.74,4.74,0,0,1,.92,1.65,6.72,6.72,0,0,1,.31,2.11v1.08h-7.25v0a4.25,4.25,0,0,0,.34,1.09,2.93,2.93,0,0,0,.59.77,2.76,2.76,0,0,0,.9.55,3,3,0,0,0,1.1.19,3.9,3.9,0,0,0,1.59-.32,3,3,0,0,0,1.23-.94l1.3,1.34a4.61,4.61,0,0,1-1.63,1.35,5.48,5.48,0,0,1-2.64.6A5.84,5.84,0,0,1,277.76,16.91Zm1-8.35a2.31,2.31,0,0,0-.71.49,3.06,3.06,0,0,0-.52.77,4.21,4.21,0,0,0-.31,1h4.71v-.2a2.25,2.25,0,0,0-.16-.85,2.41,2.41,0,0,0-.44-.73,2.34,2.34,0,0,0-.71-.48,2.43,2.43,0,0,0-1-.18A2.35,2.35,0,0,0,278.75,8.56Z" transform="translate(-0.93 -2.11)" style="fill:#fff"/><path d="M288.49,7.76a2.52,2.52,0,0,1,.84-1,2.09,2.09,0,0,1,1.28-.38,2.45,2.45,0,0,1,.69.09,1.36,1.36,0,0,1,.52.27,1.4,1.4,0,0,1,.31.33,2.15,2.15,0,0,1,.21.43,2.34,2.34,0,0,1,.69-.75,2.11,2.11,0,0,1,.59-.27,2.54,2.54,0,0,1,1.62.07,1.75,1.75,0,0,1,.73.54,2.73,2.73,0,0,1,.49,1,5.55,5.55,0,0,1,.17,1.45v7.62h-2.32V9.48a1.88,1.88,0,0,0-.06-.51,1,1,0,0,0-.19-.34.63.63,0,0,0-.27-.16,1,1,0,0,0-.35-.05.88.88,0,0,0-.33.05,1,1,0,0,0-.26.12,1.12,1.12,0,0,0-.18.2.66.66,0,0,0-.11.24v8.08H290.3V9.47a1.88,1.88,0,0,0-.06-.51.85.85,0,0,0-.16-.33.61.61,0,0,0-.28-.16.93.93,0,0,0-.34-.05,1,1,0,0,0-.36.06.73.73,0,0,0-.28.17.83.83,0,0,0-.16.2,2.56,2.56,0,0,0-.11.24v8h-2.31V6.54h2.18Z" transform="translate(-0.93 -2.11)" style="fill:#fff"/><path d="M301.76,16.91a5,5,0,0,1-1.68-1.09A4.77,4.77,0,0,1,299,14.2a5.31,5.31,0,0,1-.38-2v-.39A6.07,6.07,0,0,1,299,9.58a4.89,4.89,0,0,1,2.67-2.84,5.08,5.08,0,0,1,2-.39,5,5,0,0,1,2,.38,4.31,4.31,0,0,1,1.49,1.06,4.58,4.58,0,0,1,.92,1.65,6.72,6.72,0,0,1,.32,2.11v1.08h-7.26v0a3.88,3.88,0,0,0,.35,1.09,2.56,2.56,0,0,0,.59.77,2.72,2.72,0,0,0,.89.55,3,3,0,0,0,1.11.19,3.88,3.88,0,0,0,1.58-.32,3,3,0,0,0,1.23-.94l1.3,1.34a4.61,4.61,0,0,1-1.63,1.35,5.45,5.45,0,0,1-2.64.6A5.84,5.84,0,0,1,301.76,16.91Zm1-8.35a2.2,2.2,0,0,0-.71.49,2.82,2.82,0,0,0-.52.77,3.81,3.81,0,0,0-.31,1h4.7v-.2a2.25,2.25,0,0,0-.16-.85,2.07,2.07,0,0,0-.44-.73,2.22,2.22,0,0,0-.71-.48,2.43,2.43,0,0,0-1-.18A2.3,2.3,0,0,0,302.76,8.56Z" transform="translate(-0.93 -2.11)" style="fill:#fff"/><path d="M310.92,6.54h2.28L313.36,8a3.53,3.53,0,0,1,.46-.55,3.72,3.72,0,0,1,.53-.45,4,4,0,0,1,1-.51,4.1,4.1,0,0,1,1.18-.17,4.62,4.62,0,0,1,1.47.23,3.07,3.07,0,0,1,1.16.74,3.54,3.54,0,0,1,.74,1.31,6.46,6.46,0,0,1,.26,1.94v6.54h-2.52v-6.5a3.56,3.56,0,0,0-.14-1.07,1.54,1.54,0,0,0-.42-.67,1.51,1.51,0,0,0-.66-.35,3.38,3.38,0,0,0-.88-.1,2.59,2.59,0,0,0-.76.1,2.06,2.06,0,0,0-.62.28,2,2,0,0,0-.41.35,2.46,2.46,0,0,0-.34.44v7.52h-2.52Z" transform="translate(-0.93 -2.11)" style="fill:#fff"/><path d="M327.75,6.54h4V8.42h-4v4.79a2.93,2.93,0,0,0,.14,1,1.42,1.42,0,0,0,.38.61,1.4,1.4,0,0,0,.6.35,3.21,3.21,0,0,0,.78.09l.63,0,.63-.08.55-.09.43-.1.27,1.75a3.42,3.42,0,0,1-.64.27,6.08,6.08,0,0,1-.79.2q-.42.08-.87.12c-.31,0-.61,0-.91,0a4.9,4.9,0,0,1-1.52-.22,2.89,2.89,0,0,1-1.17-.7,3.1,3.1,0,0,1-.77-1.2,5.15,5.15,0,0,1-.27-1.77v-5h-2.49V6.54h2.49V4h2.53Z" transform="translate(-0.93 -2.11)" style="fill:#fff"/><path d="M341.42,16.65a4.82,4.82,0,0,1-.1-.57,4.2,4.2,0,0,1-.54.48,4.32,4.32,0,0,1-.67.38,4.27,4.27,0,0,1-.81.27,4.59,4.59,0,0,1-.93.09,4.46,4.46,0,0,1-1.5-.23,3.43,3.43,0,0,1-1.16-.65,2.92,2.92,0,0,1-1-2.26,3.34,3.34,0,0,1,.35-1.55,2.84,2.84,0,0,1,1-1.12,4.7,4.7,0,0,1,1.52-.62,9.13,9.13,0,0,1,2.06-.21h1.61V10a1.76,1.76,0,0,0-.13-.71,1.36,1.36,0,0,0-.38-.54,1.71,1.71,0,0,0-.65-.36,3,3,0,0,0-1.68,0,1.45,1.45,0,0,0-.55.3,1,1,0,0,0-.3.43,1.33,1.33,0,0,0-.1.54h-2.53a2.74,2.74,0,0,1,.3-1.25,3.27,3.27,0,0,1,.86-1.05,4.5,4.5,0,0,1,1.38-.72,6,6,0,0,1,1.86-.27,6.19,6.19,0,0,1,1.76.23,4.17,4.17,0,0,1,1.42.69,3.25,3.25,0,0,1,.93,1.14,3.7,3.7,0,0,1,.34,1.61v4.61a7.4,7.4,0,0,0,.1,1.34,3.46,3.46,0,0,0,.31,1v.17h-2.58A2.46,2.46,0,0,1,341.42,16.65Zm-1.74-1.44a2.77,2.77,0,0,0,.68-.28,2.58,2.58,0,0,0,.52-.38,2.29,2.29,0,0,0,.35-.45V12.22h-1.45a5.17,5.17,0,0,0-1.2.12,2.34,2.34,0,0,0-.81.37,1.37,1.37,0,0,0-.42.54,1.58,1.58,0,0,0-.15.69,1.51,1.51,0,0,0,.11.56,1.16,1.16,0,0,0,.32.44,1.7,1.7,0,0,0,.52.27,2.28,2.28,0,0,0,.72.1A2.9,2.9,0,0,0,339.68,15.21Z" transform="translate(-0.93 -2.11)" style="fill:#fff"/><path d="M351.75,6.54h4V8.42h-4v4.79a2.93,2.93,0,0,0,.14,1,1.42,1.42,0,0,0,.38.61,1.38,1.38,0,0,0,.61.35,3.07,3.07,0,0,0,.77.09l.63,0,.63-.08.55-.09.44-.1.26,1.75a3.16,3.16,0,0,1-.64.27,5.69,5.69,0,0,1-.79.2q-.42.08-.87.12c-.3,0-.6,0-.9,0a4.85,4.85,0,0,1-1.52-.22,3,3,0,0,1-1.18-.7,3.22,3.22,0,0,1-.77-1.2,5.16,5.16,0,0,1-.26-1.77v-5h-2.49V6.54h2.49V4h2.52Z" transform="translate(-0.93 -2.11)" style="fill:#fff"/><path d="M365.23,6.54V15h3v2.07h-8.67V15h3.13V8.62h-3.13V6.54Zm-2.65-3.27a1.52,1.52,0,0,1,.31-.44,1.13,1.13,0,0,1,.45-.27,1.64,1.64,0,0,1,.6-.1,1.45,1.45,0,0,1,1,.33,1.2,1.2,0,0,1,.41.87,1.2,1.2,0,0,1-.29.89,1.27,1.27,0,0,1-.89.41A1.35,1.35,0,0,1,363,4.85a1,1,0,0,1-.42-.42,1.33,1.33,0,0,1-.14-.6A1.47,1.47,0,0,1,362.58,3.27Z" transform="translate(-0.93 -2.11)" style="fill:#fff"/><path d="M370.86,9.59a4.84,4.84,0,0,1,1-1.7,4.32,4.32,0,0,1,1.55-1.13,5.53,5.53,0,0,1,4.18,0,4.48,4.48,0,0,1,1.57,1.13,5.13,5.13,0,0,1,.95,1.7,6.45,6.45,0,0,1,.34,2.14v.2a6.46,6.46,0,0,1-.34,2.15,5.13,5.13,0,0,1-.95,1.7,4.45,4.45,0,0,1-1.56,1.13,5.09,5.09,0,0,1-2.09.4,5.21,5.21,0,0,1-2.1-.4,4.41,4.41,0,0,1-1.55-1.13,4.84,4.84,0,0,1-1-1.7,6.46,6.46,0,0,1-.34-2.15v-.2A6.45,6.45,0,0,1,370.86,9.59Zm2.33,3.64a3.07,3.07,0,0,0,.43,1.06,2.13,2.13,0,0,0,.76.73,2.16,2.16,0,0,0,1.1.26,2.12,2.12,0,0,0,1.09-.26,2.18,2.18,0,0,0,.75-.73,3.51,3.51,0,0,0,.43-1.06,5.89,5.89,0,0,0,.14-1.3v-.2a5.84,5.84,0,0,0-.14-1.28,3.74,3.74,0,0,0-.43-1.06,2.18,2.18,0,0,0-.75-.73,2.46,2.46,0,0,0-2.2,0,2.18,2.18,0,0,0-.75.73,3.24,3.24,0,0,0-.43,1.06,5.28,5.28,0,0,0-.15,1.28v.2A5.33,5.33,0,0,0,373.19,13.23Z" transform="translate(-0.93 -2.11)" style="fill:#fff"/><path d="M382.93,6.54h2.28L385.37,8a4.19,4.19,0,0,1,.46-.55,4.36,4.36,0,0,1,.53-.45,4,4,0,0,1,1-.51,4.1,4.1,0,0,1,1.18-.17,4.62,4.62,0,0,1,1.47.23,3.07,3.07,0,0,1,1.16.74,3.54,3.54,0,0,1,.74,1.31,6.16,6.16,0,0,1,.26,1.94v6.54h-2.52v-6.5a3.27,3.27,0,0,0-.14-1.07,1.54,1.54,0,0,0-.42-.67,1.41,1.41,0,0,0-.66-.35,3.38,3.38,0,0,0-.88-.1,2.59,2.59,0,0,0-.76.1,2.06,2.06,0,0,0-.62.28,2,2,0,0,0-.41.35,2,2,0,0,0-.33.44v7.52h-2.53Z" transform="translate(-0.93 -2.11)" style="fill:#fff"/><circle cx="308.54" cy="40.18" r="12.51" style="fill:#fff"/><circle cx="412.39" cy="119.4" r="12.51" transform="translate(35.43 324.47) rotate(-45)" style="fill:#fff"/><path d="M374.31,154.89v5.41h-2.55V146.09h4.65a7.54,7.54,0,0,1,2.08.27,5,5,0,0,1,1.62.82,3.51,3.51,0,0,1,1,1.33,4.47,4.47,0,0,1,.36,1.86,4.69,4.69,0,0,1-.18,1.35,3.94,3.94,0,0,1-.52,1.07,3.9,3.9,0,0,1-.82.85,5.82,5.82,0,0,1-1.06.63l3,5.91v.12h-2.72l-2.7-5.41Zm2.12-2.08a3.19,3.19,0,0,0,1.11-.18,2.14,2.14,0,0,0,.83-.52,1.88,1.88,0,0,0,.43-.69,2.81,2.81,0,0,0,0-1.95,1.83,1.83,0,0,0-.53-.75,2.38,2.38,0,0,0-.79-.42,3.31,3.31,0,0,0-1-.14h-2.1v4.65Z" transform="translate(-0.93 -2.11)" style="fill:#fff"/><path d="M386.67,160.1A5.06,5.06,0,0,1,385,159a4.7,4.7,0,0,1-1.08-1.62,5.14,5.14,0,0,1-.38-2V155a6.11,6.11,0,0,1,.38-2.23,5.11,5.11,0,0,1,1.07-1.72,4.74,4.74,0,0,1,1.61-1.11,4.83,4.83,0,0,1,2-.4,5.14,5.14,0,0,1,2,.38,4.28,4.28,0,0,1,1.5,1.07,4.6,4.6,0,0,1,.92,1.64,6.79,6.79,0,0,1,.31,2.12v1.07h-7.26v0a4.11,4.11,0,0,0,.35,1.09,2.77,2.77,0,0,0,.59.78,2.92,2.92,0,0,0,.9.54,3,3,0,0,0,1.1.2,4.1,4.1,0,0,0,1.59-.32,3.12,3.12,0,0,0,1.23-.94l1.29,1.34a4.48,4.48,0,0,1-1.62,1.35,5.48,5.48,0,0,1-2.64.6A5.73,5.73,0,0,1,386.67,160.1Zm1-8.34a1.93,1.93,0,0,0-.71.49,2.67,2.67,0,0,0-.52.77,4.27,4.27,0,0,0-.31,1h4.71v-.19a2.34,2.34,0,0,0-.16-.86,2.14,2.14,0,0,0-1.15-1.21,2.45,2.45,0,0,0-1-.18A2.34,2.34,0,0,0,387.67,151.76Z" transform="translate(-0.93 -2.11)" style="fill:#fff"/><path d="M402.14,145.3v12.93h3.11v2.07h-8.91v-2.07h3.25V147.38h-3.25V145.3Z" transform="translate(-0.93 -2.11)" style="fill:#fff"/><path d="M410.68,160.1A5,5,0,0,1,409,159a4.84,4.84,0,0,1-1.08-1.62,5.33,5.33,0,0,1-.38-2V155a6.1,6.1,0,0,1,.39-2.23,5.09,5.09,0,0,1,1.06-1.72,4.84,4.84,0,0,1,1.61-1.11,4.91,4.91,0,0,1,2-.4,5.09,5.09,0,0,1,2,.38,4.28,4.28,0,0,1,1.5,1.07,4.46,4.46,0,0,1,.92,1.64,6.79,6.79,0,0,1,.31,2.12v1.07h-7.25v0a4.13,4.13,0,0,0,.34,1.09,2.81,2.81,0,0,0,.6.78,2.87,2.87,0,0,0,.89.54,3,3,0,0,0,1.11.2,4.06,4.06,0,0,0,1.58-.32,3.12,3.12,0,0,0,1.23-.94l1.3,1.34a4.61,4.61,0,0,1-1.63,1.35,5.48,5.48,0,0,1-2.64.6A5.64,5.64,0,0,1,410.68,160.1Zm1-8.34a1.89,1.89,0,0,0-.7.49,2.7,2.7,0,0,0-.53.77,3.84,3.84,0,0,0-.3,1h4.7v-.19a2.34,2.34,0,0,0-.16-.86,2,2,0,0,0-.44-.72,2.25,2.25,0,0,0-.71-.49,2.43,2.43,0,0,0-1-.18A2.35,2.35,0,0,0,411.67,151.76Z" transform="translate(-0.93 -2.11)" style="fill:#fff"/><path d="M426.34,159.84a5,5,0,0,1-.11-.56,3.09,3.09,0,0,1-.54.47,3.59,3.59,0,0,1-.66.39,4.4,4.4,0,0,1-1.75.36,4.72,4.72,0,0,1-1.5-.23,3.55,3.55,0,0,1-1.16-.66,3,3,0,0,1-1-2.26,3.37,3.37,0,0,1,.34-1.55,2.85,2.85,0,0,1,1-1.11,4.6,4.6,0,0,1,1.52-.62,9,9,0,0,1,2-.21h1.61v-.67a2,2,0,0,0-.12-.71,1.5,1.5,0,0,0-.39-.54,2,2,0,0,0-.64-.36,3.06,3.06,0,0,0-.9-.12,2.59,2.59,0,0,0-.78.1,1.67,1.67,0,0,0-.56.31,1.15,1.15,0,0,0-.3.42,1.62,1.62,0,0,0-.1.54h-2.53a2.7,2.7,0,0,1,.3-1.24,3.1,3.1,0,0,1,.87-1.05,4.11,4.11,0,0,1,1.38-.73,5.88,5.88,0,0,1,1.86-.27,6.57,6.57,0,0,1,1.76.23,4,4,0,0,1,1.41.69,3.37,3.37,0,0,1,.93,1.15,3.52,3.52,0,0,1,.34,1.6v4.61a8.67,8.67,0,0,0,.1,1.35,4.09,4.09,0,0,0,.31,1v.16H426.5A2.24,2.24,0,0,1,426.34,159.84Zm-1.74-1.44a2.68,2.68,0,0,0,.67-.27,2.14,2.14,0,0,0,.53-.39,2.17,2.17,0,0,0,.34-.44v-1.89H424.7a4.63,4.63,0,0,0-1.2.13,2,2,0,0,0-.81.37,1.4,1.4,0,0,0-.43.54,1.69,1.69,0,0,0-.14.68,1.3,1.3,0,0,0,.11.56,1.28,1.28,0,0,0,.32.45,1.49,1.49,0,0,0,.52.26,2.22,2.22,0,0,0,.72.11A3,3,0,0,0,424.6,158.4Z" transform="translate(-0.93 -2.11)" style="fill:#fff"/><path d="M438.58,157a1.17,1.17,0,0,0-.41-.38,3.94,3.94,0,0,0-.77-.31,10.84,10.84,0,0,0-1.22-.28,11.75,11.75,0,0,1-1.69-.47,4.81,4.81,0,0,1-1.3-.67,3,3,0,0,1-.85-.89,2.31,2.31,0,0,1-.3-1.19,2.62,2.62,0,0,1,.31-1.24,3,3,0,0,1,.88-1,4.39,4.39,0,0,1,1.4-.71,6.26,6.26,0,0,1,1.85-.26,6.8,6.8,0,0,1,1.94.26,4.46,4.46,0,0,1,1.45.71,3.26,3.26,0,0,1,.92,1.08,2.9,2.9,0,0,1,.31,1.34h-2.52a1.32,1.32,0,0,0-.1-.53,1.59,1.59,0,0,0-.32-.46,1.93,1.93,0,0,0-.68-.39,3.26,3.26,0,0,0-1-.14,3.49,3.49,0,0,0-.9.1,1.67,1.67,0,0,0-.63.29,1.3,1.3,0,0,0-.35.39,1,1,0,0,0-.12.48,1.14,1.14,0,0,0,.1.45,1,1,0,0,0,.37.38,2.81,2.81,0,0,0,.69.31,8.35,8.35,0,0,0,1.13.24,15.89,15.89,0,0,1,1.77.42,5.52,5.52,0,0,1,1.38.63,2.88,2.88,0,0,1,.91.93,2.45,2.45,0,0,1,.32,1.28,2.63,2.63,0,0,1-.33,1.29,3.1,3.1,0,0,1-.94,1,4.75,4.75,0,0,1-1.47.66,7.08,7.08,0,0,1-1.91.24,6.26,6.26,0,0,1-2.07-.31,4.65,4.65,0,0,1-1.5-.81,3.4,3.4,0,0,1-.92-1.13,2.86,2.86,0,0,1-.32-1.29h2.42a1.6,1.6,0,0,0,.8,1.3,2.47,2.47,0,0,0,.77.3,4.91,4.91,0,0,0,.86.08,4.17,4.17,0,0,0,1-.1,2,2,0,0,0,.69-.3,1.08,1.08,0,0,0,.34-.37.9.9,0,0,0,.12-.46A1,1,0,0,0,438.58,157Z" transform="translate(-0.93 -2.11)" style="fill:#fff"/><path d="M446.68,160.1A5.06,5.06,0,0,1,445,159a4.7,4.7,0,0,1-1.08-1.62,5.14,5.14,0,0,1-.38-2V155a6.11,6.11,0,0,1,.38-2.23,5.11,5.11,0,0,1,1.07-1.72,4.74,4.74,0,0,1,1.61-1.11,4.83,4.83,0,0,1,2-.4,5.14,5.14,0,0,1,2,.38,4.28,4.28,0,0,1,1.5,1.07,4.6,4.6,0,0,1,.92,1.64,6.79,6.79,0,0,1,.31,2.12v1.07h-7.26v0a4.11,4.11,0,0,0,.35,1.09,2.77,2.77,0,0,0,.59.78,2.92,2.92,0,0,0,.9.54,3,3,0,0,0,1.1.2,4.1,4.1,0,0,0,1.59-.32,3.12,3.12,0,0,0,1.23-.94l1.29,1.34a4.48,4.48,0,0,1-1.62,1.35,5.48,5.48,0,0,1-2.64.6A5.73,5.73,0,0,1,446.68,160.1Zm1-8.34a1.93,1.93,0,0,0-.71.49,2.67,2.67,0,0,0-.52.77,4.27,4.27,0,0,0-.31,1h4.71v-.19a2.34,2.34,0,0,0-.16-.86,2.14,2.14,0,0,0-1.15-1.21,2.45,2.45,0,0,0-1-.18A2.34,2.34,0,0,0,447.68,151.76Z" transform="translate(-0.93 -2.11)" style="fill:#fff"/><circle cx="493.23" cy="61.2" r="9.78" style="fill:#fff"/><path d="M460.75,33.24a1.93,1.93,0,0,0-.5-.66,4.26,4.26,0,0,0-.88-.52,7.93,7.93,0,0,0-1.23-.43,11.45,11.45,0,0,1-2-.74,6.23,6.23,0,0,1-1.45-1,3.65,3.65,0,0,1-.89-1.2,3.44,3.44,0,0,1-.31-1.48,3.5,3.5,0,0,1,.38-1.63A3.74,3.74,0,0,1,455,24.36a4.59,4.59,0,0,1,1.56-.79,6.65,6.65,0,0,1,1.92-.27,6.06,6.06,0,0,1,2,.32,4.88,4.88,0,0,1,1.58.89,4.23,4.23,0,0,1,1,1.38,4.12,4.12,0,0,1,.38,1.76h-2.5a3,3,0,0,0-.2-.93,2.09,2.09,0,0,0-.47-.72,2.22,2.22,0,0,0-.78-.48,3.16,3.16,0,0,0-1.07-.17,3.37,3.37,0,0,0-1,.13,2.64,2.64,0,0,0-.75.38,1.72,1.72,0,0,0-.48.6,1.77,1.77,0,0,0-.16.77,1.52,1.52,0,0,0,.21.8,2.09,2.09,0,0,0,.62.6,4.68,4.68,0,0,0,.95.48q.54.21,1.17.39a11.17,11.17,0,0,1,1.44.52,6.84,6.84,0,0,1,1.27.72A4.71,4.71,0,0,1,463,32.15a3.56,3.56,0,0,1,.48,1.87,3.45,3.45,0,0,1-.39,1.66A3.74,3.74,0,0,1,462,36.9a4.77,4.77,0,0,1-1.57.75,7.52,7.52,0,0,1-1.94.25,6.8,6.8,0,0,1-2.08-.33,5.22,5.22,0,0,1-1.78-.94,4.37,4.37,0,0,1-1.13-1.4,4.12,4.12,0,0,1-.42-1.87h2.52a2.93,2.93,0,0,0,.25,1.12,2.1,2.1,0,0,0,.6.78,2.54,2.54,0,0,0,.9.45,4.16,4.16,0,0,0,1.15.15,3.69,3.69,0,0,0,1-.13,2.14,2.14,0,0,0,.76-.36,1.6,1.6,0,0,0,.49-.58,1.58,1.58,0,0,0,.18-.76A1.73,1.73,0,0,0,460.75,33.24Z" transform="translate(-0.93 -2.11)" style="fill:#fff"/><path d="M472.36,36.25a3.78,3.78,0,0,1-1.29,1.23,3.3,3.3,0,0,1-1.7.45,4,4,0,0,1-1.5-.26,2.78,2.78,0,0,1-1.16-.81,3.68,3.68,0,0,1-.76-1.4,6.86,6.86,0,0,1-.26-2.05V27.15h2.53v6.28a5.4,5.4,0,0,0,.1,1.15,1.74,1.74,0,0,0,.31.74,1.17,1.17,0,0,0,.57.41,2.51,2.51,0,0,0,.83.12,3.12,3.12,0,0,0,.84-.1,2,2,0,0,0,.66-.28,1.69,1.69,0,0,0,.42-.38,2.3,2.3,0,0,0,.32-.49V27.16h2.54l0,10.56h-2.29Z" transform="translate(-0.93 -2.11)" style="fill:#fff"/><path d="M477.65,27.17H480l.1,1.07a3.12,3.12,0,0,1,.47-.49,3.17,3.17,0,0,1,.54-.36,3.39,3.39,0,0,1,.81-.3,4.12,4.12,0,0,1,.95-.11,3.89,3.89,0,0,1,1.78.39,3.72,3.72,0,0,1,1.3,1.1,5.25,5.25,0,0,1,.8,1.7,8.37,8.37,0,0,1,.27,2.19v.21a8.06,8.06,0,0,1-.28,2.13,5.34,5.34,0,0,1-.79,1.7,3.9,3.9,0,0,1-1.3,1.13,3.79,3.79,0,0,1-1.77.41,4,4,0,0,1-1-.12,4,4,0,0,1-.85-.33,4.37,4.37,0,0,1-.44-.31l-.4-.38v5h-2.52Zm6.68,3.89a3.54,3.54,0,0,0-.41-1,2.07,2.07,0,0,0-.71-.7,2,2,0,0,0-1-.26,2.64,2.64,0,0,0-.65.07,2.22,2.22,0,0,0-.53.19,2.41,2.41,0,0,0-.46.37,2.34,2.34,0,0,0-.36.51v4.55a2.36,2.36,0,0,0,.32.48,2.22,2.22,0,0,0,.44.37,1.72,1.72,0,0,0,.55.23,2.53,2.53,0,0,0,.7.09,1.94,1.94,0,0,0,1-.27,2.1,2.1,0,0,0,.72-.73,3.6,3.6,0,0,0,.4-1.06,6.63,6.63,0,0,0,.13-1.29v-.21A6.72,6.72,0,0,0,484.33,31.06Z" transform="translate(-0.93 -2.11)" style="fill:#fff"/><path d="M489.65,27.19H492l.1,1.06a3.05,3.05,0,0,1,.47-.48,3.53,3.53,0,0,1,.55-.37,3.31,3.31,0,0,1,.8-.3,4.22,4.22,0,0,1,1-.1,3.85,3.85,0,0,1,1.77.39,3.7,3.7,0,0,1,1.3,1.09,5.2,5.2,0,0,1,.8,1.71,8.29,8.29,0,0,1,.27,2.18v.22a7.67,7.67,0,0,1-.28,2.13,5.28,5.28,0,0,1-.79,1.69,3.83,3.83,0,0,1-1.3,1.14,3.78,3.78,0,0,1-1.77.4,4.05,4.05,0,0,1-1-.12,3.06,3.06,0,0,1-.84-.33,2.32,2.32,0,0,1-.44-.31,4.61,4.61,0,0,1-.4-.37v5h-2.52Zm6.68,3.89a3.43,3.43,0,0,0-.4-1,2.12,2.12,0,0,0-.72-.71,2,2,0,0,0-1-.25,3.27,3.27,0,0,0-.65.06,2,2,0,0,0-.52.2,1.92,1.92,0,0,0-.47.37,1.71,1.71,0,0,0-.35.51v4.55a2.56,2.56,0,0,0,.33.48,2.21,2.21,0,0,0,.43.37,2.12,2.12,0,0,0,.55.23,3.06,3.06,0,0,0,.7.08,1.94,1.94,0,0,0,1-.27,2,2,0,0,0,.72-.72,3.4,3.4,0,0,0,.4-1.07,5.88,5.88,0,0,0,.13-1.29v-.2A5.88,5.88,0,0,0,496.33,31.08Z" transform="translate(-0.93 -2.11)" style="fill:#fff"/><path d="M501.55,30.25a4.86,4.86,0,0,1,1-1.7,4.37,4.37,0,0,1,1.54-1.13,5.56,5.56,0,0,1,4.19,0,4.7,4.7,0,0,1,1.56,1.14,5,5,0,0,1,1,1.7,6.71,6.71,0,0,1,.33,2.14v.2a6.73,6.73,0,0,1-.34,2.15,5,5,0,0,1-1,1.7,4.41,4.41,0,0,1-1.55,1.13,5.3,5.3,0,0,1-2.09.4,5.22,5.22,0,0,1-2.11-.41,4.28,4.28,0,0,1-1.54-1.13,4.81,4.81,0,0,1-1-1.71,6.62,6.62,0,0,1-.33-2.14v-.2A6.71,6.71,0,0,1,501.55,30.25Zm2.32,3.64a3.28,3.28,0,0,0,.44,1.06,2,2,0,0,0,.75.73,2.17,2.17,0,0,0,1.11.27,2.12,2.12,0,0,0,1.09-.27A2.09,2.09,0,0,0,508,35a3.56,3.56,0,0,0,.43-1.05,6,6,0,0,0,.14-1.3v-.2a5.84,5.84,0,0,0-.14-1.28,4,4,0,0,0-.42-1.06,2.11,2.11,0,0,0-1.86-1,2.2,2.2,0,0,0-1.09.26,2.15,2.15,0,0,0-.76.74,3.31,3.31,0,0,0-.43,1.05,5.83,5.83,0,0,0-.15,1.28v.2A5.89,5.89,0,0,0,503.87,33.89Z" transform="translate(-0.93 -2.11)" style="fill:#fff"/><path d="M522.19,27.11a4.07,4.07,0,0,1,.84.19l-.38,2.51a9.6,9.6,0,0,0-1.07-.2,9.79,9.79,0,0,0-1.05-.06,4.43,4.43,0,0,0-1,.1,2.68,2.68,0,0,0-.79.33,2.49,2.49,0,0,0-.68.57,3,3,0,0,0-.46.8v6.44h-2.53V27.22h2.35l.11,1.48,0,.24a4.88,4.88,0,0,1,1.54-1.4,4,4,0,0,1,2-.51A7.83,7.83,0,0,1,522.19,27.11Z" transform="translate(-0.93 -2.11)" style="fill:#fff"/><path d="M530.46,27.24h4v1.88h-3.95v4.8a3,3,0,0,0,.14,1,1.43,1.43,0,0,0,1,.95,2.71,2.71,0,0,0,.77.1l.63,0,.63-.08.56-.09.43-.1.26,1.75a3.52,3.52,0,0,1-.64.27,7.37,7.37,0,0,1-.78.2c-.28,0-.58.09-.88.12s-.6,0-.9,0a4.85,4.85,0,0,1-1.52-.23,3,3,0,0,1-1.18-.7,3.05,3.05,0,0,1-.76-1.2,5.15,5.15,0,0,1-.27-1.77v-5h-2.49V27.23h2.49V24.66h2.53Z" transform="translate(-0.93 -2.11)" style="fill:#fff"/><polygon points="51.92 119.24 46.56 113.86 39.1 115.22 42.56 108.47 38.96 101.79 46.45 102.99 51.69 97.5 52.86 105 59.7 108.29 52.93 111.72 51.92 119.24" style="fill:#fff"/><polygon points="80.21 73.78 72.66 73.05 67.78 78.85 66.14 71.44 59.11 68.59 65.65 64.75 66.19 57.18 71.87 62.21 79.23 60.38 76.2 67.34 80.21 73.78" style="fill:#fff"/><polygon points="171.16 130.81 159.93 133.11 155.46 143.67 149.8 133.7 138.38 132.71 146.11 124.25 143.52 113.08 153.96 117.81 163.78 111.9 162.5 123.29 171.16 130.81" style="fill:#fff"/><polygon points="256.54 150.19 258.06 142.85 252.87 137.44 260.32 136.61 263.86 130 266.95 136.83 274.33 138.16 268.79 143.21 269.81 150.63 263.29 146.93 256.54 150.19" style="fill:#fff"/><polygon points="408.23 62.15 399.32 63.1 395.06 70.97 391.4 62.8 382.59 61.18 389.24 55.17 388.06 46.3 395.82 50.76 403.9 46.9 402.05 55.66 408.23 62.15" style="fill:#fff"/><polygon points="438.83 73.93 432.5 71.98 427.3 76.1 427.19 69.47 421.68 65.81 427.94 63.66 429.73 57.27 433.71 62.57 440.33 62.29 436.52 67.72 438.83 73.93" style="fill:#fff"/><polygon points="314.9 105.02 314.22 95.88 306.31 91.27 314.79 87.8 316.73 78.85 322.65 85.84 331.76 84.93 326.94 92.72 330.63 101.1 321.73 98.92 314.9 105.02" style="fill:#fff"/><polygon points="470.38 121.14 473.55 116.06 471.17 110.56 476.98 112 481.47 108.03 481.89 114.01 487.05 117.06 481.5 119.3 480.2 125.15 476.35 120.56 470.38 121.14" style="fill:#fff"/><circle cx="493.23" cy="61.2" r="15.42" style="fill:none;stroke:#fff;stroke-miterlimit:10;stroke-width:3px"/></svg>