<svg xmlns="http://www.w3.org/2000/svg" viewBox="0 0 415.75 349.9"><circle cx="53.08" cy="305.76" r="12.51" style="fill:#fff"/><circle cx="87.85" cy="172.82" r="12.51" style="fill:#fff"/><circle cx="212.27" cy="246.87" r="12.51" transform="translate(-49.95 438.22) rotate(-85.93)" style="fill:#fff"/><path d="M54,309.35A59.44,59.44,0,0,0,59.86,308" transform="translate(-0.93 -2.89)" style="fill:none;stroke:#fff;stroke-linecap:round;stroke-miterlimit:10;stroke-width:5px"/><path d="M70.71,303.33a21.43,21.43,0,0,0,7.61-8.23c4-7.89,1.06-16.13-2-26C65.8,234.68,60.52,217.46,64.24,205c5.21-17.5,28.51-34.1,47.08-30.7,29,5.32,25.43,55.69,65.09,71.75,2.16.87,26.69,10.42,44-1.59,17-11.78,20.33-39.68,14-59.87C223.6,150,188.09,150,183.63,122.17c-3.66-22.82,15.12-53,36.73-57,35.09-6.51,58.78,59.38,92.52,54.7,13.65-1.89,31.06-15.62,47-68.68" transform="translate(-0.93 -2.89)" style="fill:none;stroke:#fff;stroke-linecap:round;stroke-miterlimit:10;stroke-width:5px;stroke-dasharray:11.87515640258789,11.87515640258789"/><path d="M361.55,45.5c.54-1.89,1.07-3.81,1.6-5.79" transform="translate(-0.93 -2.89)" style="fill:none;stroke:#fff;stroke-linecap:round;stroke-miterlimit:10;stroke-width:5px"/><path d="M8.59,344.15a2.06,2.06,0,0,0-.5-.66,4.26,4.26,0,0,0-.88-.52A9.65,9.65,0,0,0,6,342.54a10.79,10.79,0,0,1-2-.73,6.23,6.23,0,0,1-1.44-1,3.86,3.86,0,0,1-.9-1.21,3.44,3.44,0,0,1-.31-1.48,3.53,3.53,0,0,1,.38-1.63,3.71,3.71,0,0,1,1.06-1.24,4.73,4.73,0,0,1,1.57-.79,6.6,6.6,0,0,1,1.92-.28,6.06,6.06,0,0,1,2,.32,4.58,4.58,0,0,1,1.57.9,4,4,0,0,1,1,1.37,4.12,4.12,0,0,1,.38,1.76H8.77a3,3,0,0,0-.2-.93,2.09,2.09,0,0,0-.47-.72,2.3,2.3,0,0,0-.79-.47,2.88,2.88,0,0,0-1.06-.17,3.37,3.37,0,0,0-1,.13,2.41,2.41,0,0,0-.75.38,1.72,1.72,0,0,0-.48.6,1.77,1.77,0,0,0-.16.77,1.46,1.46,0,0,0,.22.8,1.88,1.88,0,0,0,.62.6,4.58,4.58,0,0,0,.94.48c.36.14.75.27,1.18.39a11.14,11.14,0,0,1,1.44.51,6.48,6.48,0,0,1,1.26.73,4.6,4.6,0,0,1,1.28,1.4,3.56,3.56,0,0,1,.48,1.87,3.45,3.45,0,0,1-.39,1.66,3.54,3.54,0,0,1-1.06,1.22,4.71,4.71,0,0,1-1.56.75,7.16,7.16,0,0,1-1.94.25,6.69,6.69,0,0,1-2.08-.32,5.27,5.27,0,0,1-1.79-.94,4.5,4.5,0,0,1-1.13-1.4,4.09,4.09,0,0,1-.42-1.87H3.45a2.93,2.93,0,0,0,.25,1.12,2.1,2.1,0,0,0,.6.78,2.54,2.54,0,0,0,.9.45,4.59,4.59,0,0,0,1.15.14,3.7,3.7,0,0,0,1-.12,2.5,2.5,0,0,0,.77-.37,1.56,1.56,0,0,0,.48-.57,1.61,1.61,0,0,0,.18-.76A1.74,1.74,0,0,0,8.59,344.15Z" transform="translate(-0.93 -2.89)" style="fill:#fff"/><path d="M18.28,338.06h4v1.88h-4v4.79a2.93,2.93,0,0,0,.14,1,1.48,1.48,0,0,0,.38.61,1.4,1.4,0,0,0,.6.35,3.21,3.21,0,0,0,.78.09l.63,0,.63-.08.55-.09.43-.1.27,1.75a4.25,4.25,0,0,1-.64.27,6.08,6.08,0,0,1-.79.2q-.42.07-.87.12c-.31,0-.61,0-.91,0a4.9,4.9,0,0,1-1.52-.22,3,3,0,0,1-1.17-.7A3.19,3.19,0,0,1,16,346.7a5,5,0,0,1-.27-1.76v-5H13.26v-1.88h2.49v-2.58h2.53Z" transform="translate(-0.93 -2.89)" style="fill:#fff"/><path d="M34,337.94a5.4,5.4,0,0,1,.84.19l-.37,2.51a10.18,10.18,0,0,0-1.08-.19,9.51,9.51,0,0,0-1-.06,4.4,4.4,0,0,0-1,.1,2.68,2.68,0,0,0-.79.33,2.49,2.49,0,0,0-.68.57,3,3,0,0,0-.46.8v6.44H26.89V338.06h2.36l.11,1.48,0,.24a4.77,4.77,0,0,1,1.54-1.4,4,4,0,0,1,2-.51A7.87,7.87,0,0,1,34,337.94Z" transform="translate(-0.93 -2.89)" style="fill:#fff"/><path d="M44,348.16a3.09,3.09,0,0,1-.11-.56,3.64,3.64,0,0,1-1.2.86,4.81,4.81,0,0,1-.81.27,4.76,4.76,0,0,1-.94.09,4.46,4.46,0,0,1-1.5-.23,3.72,3.72,0,0,1-1.16-.65,3,3,0,0,1-.75-1,2.89,2.89,0,0,1-.27-1.25,3.34,3.34,0,0,1,.34-1.55,2.92,2.92,0,0,1,1-1.12,4.7,4.7,0,0,1,1.52-.62,9.19,9.19,0,0,1,2.06-.21h1.61v-.66a1.73,1.73,0,0,0-.13-.71,1.36,1.36,0,0,0-.38-.54,1.64,1.64,0,0,0-.65-.36,2.65,2.65,0,0,0-.89-.13,2.69,2.69,0,0,0-.79.11,1.45,1.45,0,0,0-.55.3,1,1,0,0,0-.3.43,1.33,1.33,0,0,0-.1.54H37.44a2.74,2.74,0,0,1,.3-1.25,3.4,3.4,0,0,1,.86-1.05,4.25,4.25,0,0,1,1.39-.72,5.88,5.88,0,0,1,1.86-.27,6.12,6.12,0,0,1,1.75.23,4.25,4.25,0,0,1,1.42.68,3.37,3.37,0,0,1,.93,1.15,3.57,3.57,0,0,1,.34,1.61v4.61a7.4,7.4,0,0,0,.1,1.34,3.46,3.46,0,0,0,.31,1v.17H44.12A2.34,2.34,0,0,1,44,348.16Zm-1.74-1.43a2.87,2.87,0,0,0,.67-.28,2.08,2.08,0,0,0,.52-.39,1.73,1.73,0,0,0,.35-.44v-1.88H42.31a5.29,5.29,0,0,0-1.2.12,2.34,2.34,0,0,0-.81.37,1.37,1.37,0,0,0-.42.54,1.56,1.56,0,0,0-.14.68,1.52,1.52,0,0,0,.1.57,1.19,1.19,0,0,0,.33.44,1.64,1.64,0,0,0,.51.27,2.3,2.3,0,0,0,.73.1A3,3,0,0,0,42.22,346.73Z" transform="translate(-0.93 -2.89)" style="fill:#fff"/><path d="M54.29,338.06h4v1.88h-4v4.79a3,3,0,0,0,.13,1,1.59,1.59,0,0,0,.38.61,1.44,1.44,0,0,0,.61.35,3.07,3.07,0,0,0,.77.09l.63,0,.63-.08.55-.09c.18,0,.32-.07.44-.1l.26,1.75a3.52,3.52,0,0,1-.64.27,5.55,5.55,0,0,1-.78.2c-.28.05-.58.09-.88.12s-.6,0-.9,0a4.9,4.9,0,0,1-1.52-.22,3.11,3.11,0,0,1-1.18-.7A3.17,3.17,0,0,1,52,346.7a5,5,0,0,1-.27-1.76v-5H49.27v-1.88h2.49v-2.58h2.53Z" transform="translate(-0.93 -2.89)" style="fill:#fff"/><path d="M64.3,348.43a5.24,5.24,0,0,1-1.68-1.09,4.87,4.87,0,0,1-1.09-1.62,5.31,5.31,0,0,1-.38-2v-.39a6.16,6.16,0,0,1,.39-2.24,5.21,5.21,0,0,1,1.07-1.72,5,5,0,0,1,1.6-1.11,5.08,5.08,0,0,1,2-.39,5,5,0,0,1,2,.38,4.26,4.26,0,0,1,1.5,1.06,4.56,4.56,0,0,1,.91,1.65,6.72,6.72,0,0,1,.32,2.11v1.08H63.7v0a4.23,4.23,0,0,0,.35,1.09,2.56,2.56,0,0,0,.59.77,3,3,0,0,0,.89.55,3.08,3.08,0,0,0,1.11.19,3.88,3.88,0,0,0,1.58-.32,3,3,0,0,0,1.23-.94l1.3,1.34a4.48,4.48,0,0,1-1.62,1.35,5.49,5.49,0,0,1-2.65.6A5.87,5.87,0,0,1,64.3,348.43Zm1-8.35a2.06,2.06,0,0,0-.71.49,2.82,2.82,0,0,0-.52.77,4.21,4.21,0,0,0-.31,1h4.71v-.2a2.57,2.57,0,0,0-.16-.86,2.2,2.2,0,0,0-.45-.72,2.12,2.12,0,0,0-.71-.48,2.4,2.4,0,0,0-1-.18A2.3,2.3,0,0,0,65.3,340.08Z" transform="translate(-0.93 -2.89)" style="fill:#fff"/><path d="M73.47,341.07a5.08,5.08,0,0,1,.85-1.71,3.8,3.8,0,0,1,3.12-1.49,4.09,4.09,0,0,1,1,.11,3,3,0,0,1,.85.34,2.69,2.69,0,0,1,.49.34,2.46,2.46,0,0,1,.41.44l.11-1h2.3v10.26a4.77,4.77,0,0,1-.36,1.9,3.94,3.94,0,0,1-1,1.4,4.43,4.43,0,0,1-1.55.87,6.25,6.25,0,0,1-2,.3,5.39,5.39,0,0,1-1-.1,6.22,6.22,0,0,1-1.08-.3,5.51,5.51,0,0,1-1-.53,3.24,3.24,0,0,1-.83-.78l1.16-1.53a4.48,4.48,0,0,0,.6.56,3.33,3.33,0,0,0,.64.39,3.26,3.26,0,0,0,.69.22,3.38,3.38,0,0,0,.72.08,3.31,3.31,0,0,0,1.08-.17,2.16,2.16,0,0,0,.79-.51,1.92,1.92,0,0,0,.47-.75,3.21,3.21,0,0,0,.16-1v-.67a3.25,3.25,0,0,1-.42.41,2.85,2.85,0,0,1-.46.31,3.48,3.48,0,0,1-.82.31,4.16,4.16,0,0,1-2.73-.29,4,4,0,0,1-1.34-1.12,5.12,5.12,0,0,1-.85-1.7,7.31,7.31,0,0,1-.3-2.13v-.2A7.6,7.6,0,0,1,73.47,341.07Zm2.37,3.68a3.09,3.09,0,0,0,.43,1.05,2,2,0,0,0,.73.7,2.08,2.08,0,0,0,1.06.25,2.84,2.84,0,0,0,.68-.07,2.11,2.11,0,0,0,.56-.22,2,2,0,0,0,.45-.37,2.36,2.36,0,0,0,.34-.47v-4.55a2.23,2.23,0,0,0-.37-.51,1.68,1.68,0,0,0-.48-.36,2.07,2.07,0,0,0-.53-.19,2.53,2.53,0,0,0-.63-.07,2,2,0,0,0-1.06.26,2.07,2.07,0,0,0-.74.7,3.44,3.44,0,0,0-.44,1.07,5.89,5.89,0,0,0-.14,1.3v.2A5.77,5.77,0,0,0,75.84,344.75Z" transform="translate(-0.93 -2.89)" style="fill:#fff"/><path d="M91.77,338.06v8.5h3v2.07H86.08v-2.07h3.14v-6.42H86.08v-2.08Zm-2.65-3.27a1.23,1.23,0,0,1,.3-.44,1.24,1.24,0,0,1,.46-.27,1.64,1.64,0,0,1,.6-.1,1.45,1.45,0,0,1,1,.33,1.16,1.16,0,0,1,.4.87,1.2,1.2,0,0,1-.28.89,1.27,1.27,0,0,1-.9.41,1.33,1.33,0,0,1-.56.07,1.19,1.19,0,0,1-.56-.18,1.06,1.06,0,0,1-.42-.42,1.21,1.21,0,0,1-.15-.6A1.47,1.47,0,0,1,89.12,334.79Z" transform="translate(-0.93 -2.89)" style="fill:#fff"/><path d="M100.31,348.43a5.18,5.18,0,0,1-1.69-1.09,4.7,4.7,0,0,1-1.08-1.62,5.31,5.31,0,0,1-.38-2v-.39a6.38,6.38,0,0,1,.38-2.24,5.38,5.38,0,0,1,1.07-1.72,4.89,4.89,0,0,1,3.6-1.5,5,5,0,0,1,2,.38,4.26,4.26,0,0,1,1.5,1.06,4.58,4.58,0,0,1,.92,1.65,6.72,6.72,0,0,1,.31,2.11v1.08H99.71v0a4.25,4.25,0,0,0,.34,1.09,2.93,2.93,0,0,0,.59.77,3.07,3.07,0,0,0,.9.55,3,3,0,0,0,1.11.19,3.88,3.88,0,0,0,1.58-.32,3,3,0,0,0,1.23-.94l1.3,1.34a4.61,4.61,0,0,1-1.63,1.35,5.48,5.48,0,0,1-2.64.6A5.84,5.84,0,0,1,100.31,348.43Zm1-8.35a2,2,0,0,0-.7.49,2.85,2.85,0,0,0-.53.77,3.81,3.81,0,0,0-.3,1h4.7v-.2a2.34,2.34,0,0,0-.16-.86,2.18,2.18,0,0,0-.44-.72,2.22,2.22,0,0,0-.71-.48,2.43,2.43,0,0,0-1-.18A2.35,2.35,0,0,0,101.3,340.08Z" transform="translate(-0.93 -2.89)" style="fill:#fff"/><path d="M50.68,146.29v4.32H48.12V136.39h2.56V143l1.3-1.72,3.62-4.88h3.11l-4.82,6.28,5,7.94h-3l-3.68-6Z" transform="translate(-0.93 -2.89)" style="fill:#fff"/><path d="M60.15,143.1a4.79,4.79,0,0,1,1-1.71,4.41,4.41,0,0,1,1.55-1.13,5.13,5.13,0,0,1,2.09-.41,5.21,5.21,0,0,1,2.1.41,4.54,4.54,0,0,1,1.56,1.13,5.1,5.1,0,0,1,1,1.71,6.61,6.61,0,0,1,.33,2.13v.21a6.71,6.71,0,0,1-.33,2.14,5.15,5.15,0,0,1-1,1.7,4.29,4.29,0,0,1-1.55,1.13,5.16,5.16,0,0,1-2.09.41,5.22,5.22,0,0,1-2.11-.41,4.29,4.29,0,0,1-1.55-1.13,4.84,4.84,0,0,1-1-1.7,6.71,6.71,0,0,1-.33-2.14v-.21A6.61,6.61,0,0,1,60.15,143.1Zm2.33,3.63a3.27,3.27,0,0,0,.43,1.06,2.12,2.12,0,0,0,.76.73,2.17,2.17,0,0,0,1.11.27,2.11,2.11,0,0,0,1.08-.27,2,2,0,0,0,.75-.73,3.51,3.51,0,0,0,.43-1.06,5.86,5.86,0,0,0,.14-1.29v-.21A5.75,5.75,0,0,0,67,144a3.62,3.62,0,0,0-.43-1.06,2,2,0,0,0-.75-.74,2.46,2.46,0,0,0-2.2,0,2.21,2.21,0,0,0-.75.74,3.37,3.37,0,0,0-.43,1.06,5.2,5.2,0,0,0-.15,1.27v.21A5.31,5.31,0,0,0,62.48,146.73Z" transform="translate(-0.93 -2.89)" style="fill:#fff"/><path d="M72.22,140H74.5l.16,1.49a4.19,4.19,0,0,1,.46-.55,3.79,3.79,0,0,1,.54-.45,3.46,3.46,0,0,1,1-.5,3.83,3.83,0,0,1,1.18-.18,4.53,4.53,0,0,1,1.47.23,3,3,0,0,1,1.16.75,3.29,3.29,0,0,1,.74,1.3,6.14,6.14,0,0,1,.27,1.94v6.54H79v-6.5a3.24,3.24,0,0,0-.15-1.07,1.54,1.54,0,0,0-.42-.67,1.41,1.41,0,0,0-.66-.35,3.35,3.35,0,0,0-.87-.1,2.66,2.66,0,0,0-.77.1,2.06,2.06,0,0,0-.62.28,2,2,0,0,0-.41.35,2.41,2.41,0,0,0-.33.44v7.52H72.22Z" transform="translate(-0.93 -2.89)" style="fill:#fff"/><path d="M93.76,148.58v2H84V149l6-6.9H84.14V140h9.35v1.56l-6.06,7Z" transform="translate(-0.93 -2.89)" style="fill:#fff"/><path d="M99.07,150.41a5,5,0,0,1-1.69-1.09,4.71,4.71,0,0,1-1.08-1.61,5.36,5.36,0,0,1-.38-2v-.39a6.28,6.28,0,0,1,.38-2.23,5.43,5.43,0,0,1,1.07-1.73,5,5,0,0,1,3.6-1.5,5.12,5.12,0,0,1,2,.38,4.26,4.26,0,0,1,1.5,1.06,4.58,4.58,0,0,1,.92,1.65,6.77,6.77,0,0,1,.31,2.11v1.08H98.47v0a4.13,4.13,0,0,0,.34,1.09,2.63,2.63,0,0,0,.6.77,2.72,2.72,0,0,0,.89.55,3,3,0,0,0,1.11.2,3.89,3.89,0,0,0,1.58-.33,3,3,0,0,0,1.23-.93l1.3,1.33a4.63,4.63,0,0,1-1.63,1.36,5.48,5.48,0,0,1-2.64.6A5.84,5.84,0,0,1,99.07,150.41Zm1-8.34a2,2,0,0,0-.7.48,2.9,2.9,0,0,0-.53.78,3.73,3.73,0,0,0-.3,1h4.7v-.19a2.3,2.3,0,0,0-.16-.86,2.33,2.33,0,0,0-.44-.73,2.22,2.22,0,0,0-.71-.48,2.43,2.43,0,0,0-1-.18A2.35,2.35,0,0,0,100.06,142.07Z" transform="translate(-0.93 -2.89)" style="fill:#fff"/><path d="M108.25,140h2.33l.09,1.07a3.57,3.57,0,0,1,.47-.48,3.31,3.31,0,0,1,.55-.37,3.24,3.24,0,0,1,.81-.3,4.06,4.06,0,0,1,1-.11,3.92,3.92,0,0,1,1.78.39,3.76,3.76,0,0,1,1.29,1.09,5.21,5.21,0,0,1,.81,1.71,8.29,8.29,0,0,1,.27,2.18v.22a7.94,7.94,0,0,1-.27,2.12,5.25,5.25,0,0,1-.8,1.7,3.6,3.6,0,0,1-3.06,1.55,4,4,0,0,1-1-.12,4,4,0,0,1-.85-.33,4.37,4.37,0,0,1-.44-.31,4.67,4.67,0,0,1-.4-.38v5h-2.52Zm6.69,3.89a3.54,3.54,0,0,0-.41-1.05,2.12,2.12,0,0,0-.72-.71,2,2,0,0,0-1-.25,2.62,2.62,0,0,0-.64.07,2.07,2.07,0,0,0-.53.19,2.84,2.84,0,0,0-.47.37,2.7,2.7,0,0,0-.35.51v4.55a2,2,0,0,0,.33.48,2.16,2.16,0,0,0,.43.37,1.78,1.78,0,0,0,.56.23,2.5,2.5,0,0,0,.69.09,2,2,0,0,0,1-.27,2.07,2.07,0,0,0,.71-.73,3.4,3.4,0,0,0,.4-1.07,5.85,5.85,0,0,0,.13-1.28v-.21A6,6,0,0,0,114.94,143.93Z" transform="translate(-0.93 -2.89)" style="fill:#fff"/><path d="M125.06,140H129v1.88h-3.95v4.79a2.75,2.75,0,0,0,.14,1,1.45,1.45,0,0,0,.38.61,1.49,1.49,0,0,0,.6.34,3.12,3.12,0,0,0,.77.1,4.44,4.44,0,0,0,.63,0l.63-.08.56-.09a3.07,3.07,0,0,0,.43-.1l.26,1.75a2.93,2.93,0,0,1-.64.28,7.43,7.43,0,0,1-.78.19c-.28,0-.57.09-.88.12s-.6,0-.9,0a4.89,4.89,0,0,1-1.52-.23,2.89,2.89,0,0,1-1.17-.7,3,3,0,0,1-.77-1.2,5.15,5.15,0,0,1-.27-1.77v-5H120V140h2.49v-2.57h2.53Z" transform="translate(-0.93 -2.89)" style="fill:#fff"/><path d="M177.55,273.21h3.6a6.8,6.8,0,0,1,1.79.23,6.24,6.24,0,0,1,1.52.63,5.33,5.33,0,0,1,1.19.92,6.11,6.11,0,0,1,1.52,2.85,7.9,7.9,0,0,1,.22,1.92v1.15a8.44,8.44,0,0,1-.2,1.84,7.06,7.06,0,0,1-.59,1.6,6.39,6.39,0,0,1-.88,1.23,5.49,5.49,0,0,1-1.11.95,5.94,5.94,0,0,1-1.54.67,6.6,6.6,0,0,1-1.81.23h-3.71Zm2.57,12.17h1.14a3.44,3.44,0,0,0,1-.14,3.14,3.14,0,0,0,.87-.4,3,3,0,0,0,.73-.7,3.91,3.91,0,0,0,.53-1,5.27,5.27,0,0,0,.27-1,7.72,7.72,0,0,0,.1-1.22v-1.17a7.54,7.54,0,0,0-.1-1.19,4.81,4.81,0,0,0-.28-1,3.73,3.73,0,0,0-.59-1,3,3,0,0,0-.86-.74,3.42,3.42,0,0,0-.83-.33,3.84,3.84,0,0,0-1-.12h-1Z" transform="translate(-0.93 -2.89)" style="fill:#fff"/><path d="M192.56,287.23a4.93,4.93,0,0,1-1.68-1.09,4.73,4.73,0,0,1-1.09-1.61,5.33,5.33,0,0,1-.38-2v-.39a6.1,6.1,0,0,1,.39-2.23,5.11,5.11,0,0,1,1.07-1.72,4.7,4.7,0,0,1,1.6-1.11,4.91,4.91,0,0,1,2-.4,5.17,5.17,0,0,1,2,.38,4.28,4.28,0,0,1,1.5,1.07,4.6,4.6,0,0,1,.92,1.64,7.09,7.09,0,0,1,.31,2.12V283H192v0a4.11,4.11,0,0,0,.35,1.09,2.77,2.77,0,0,0,.59.78,3,3,0,0,0,.89.54,3.08,3.08,0,0,0,1.11.2,4.06,4.06,0,0,0,1.58-.32,3,3,0,0,0,1.23-.94l1.3,1.34a4.48,4.48,0,0,1-1.62,1.35,5.48,5.48,0,0,1-2.64.6A5.7,5.7,0,0,1,192.56,287.23Zm1-8.34a1.93,1.93,0,0,0-.71.49,2.67,2.67,0,0,0-.52.77,4.27,4.27,0,0,0-.31,1h4.71V281a2.57,2.57,0,0,0-.16-.86,2.2,2.2,0,0,0-.45-.72,2.14,2.14,0,0,0-.71-.49,2.4,2.4,0,0,0-1-.18A2.3,2.3,0,0,0,193.56,278.89Z" transform="translate(-0.93 -2.89)" style="fill:#fff"/><path d="M208.46,284.09a1.13,1.13,0,0,0-.4-.38,4.35,4.35,0,0,0-.78-.31,10.84,10.84,0,0,0-1.22-.28,11.75,11.75,0,0,1-1.69-.47,5,5,0,0,1-1.29-.67,2.76,2.76,0,0,1-.85-.89,2.22,2.22,0,0,1-.31-1.19,2.71,2.71,0,0,1,.31-1.24,3.15,3.15,0,0,1,.88-1,4.45,4.45,0,0,1,1.41-.71,6.22,6.22,0,0,1,1.85-.26,6.78,6.78,0,0,1,1.93.26,4.46,4.46,0,0,1,1.45.71,3.06,3.06,0,0,1,.92,1.08,2.91,2.91,0,0,1,.32,1.34h-2.52a1.32,1.32,0,0,0-.11-.53,1.55,1.55,0,0,0-.31-.46,2.08,2.08,0,0,0-.69-.39,3.24,3.24,0,0,0-1-.14,3.52,3.52,0,0,0-.91.1,1.83,1.83,0,0,0-.63.29,1.14,1.14,0,0,0-.34.39.91.91,0,0,0-.13.48,1,1,0,0,0,.47.83,2.74,2.74,0,0,0,.7.31,7.85,7.85,0,0,0,1.12.24,13.54,13.54,0,0,1,1.77.42,4.89,4.89,0,0,1,1.38.63,2.88,2.88,0,0,1,.91.93,2.36,2.36,0,0,1,.32,1.28,2.57,2.57,0,0,1-.33,1.28,3,3,0,0,1-.94,1,4.75,4.75,0,0,1-1.47.66,7.06,7.06,0,0,1-1.9.24,6.18,6.18,0,0,1-2.07-.31,4.82,4.82,0,0,1-1.51-.81,3.4,3.4,0,0,1-.92-1.13,2.86,2.86,0,0,1-.32-1.29H204a1.64,1.64,0,0,0,.8,1.3,2.47,2.47,0,0,0,.77.3,4.91,4.91,0,0,0,.86.08,4.31,4.31,0,0,0,1-.1,2,2,0,0,0,.68-.3,1.22,1.22,0,0,0,.35-.37,1,1,0,0,0,.11-.46A.87.87,0,0,0,208.46,284.09Z" transform="translate(-0.93 -2.89)" style="fill:#fff"/><path d="M220,276.87v8.49h3v2.07h-8.68v-2.07h3.14V279h-3.14v-2.08Zm-2.65-3.27a1.23,1.23,0,0,1,.3-.44,1.42,1.42,0,0,1,.46-.28,1.89,1.89,0,0,1,.6-.09,1.45,1.45,0,0,1,1,.33,1.2,1.2,0,0,1,.41.87,1.22,1.22,0,0,1-.29.89,1.31,1.31,0,0,1-.9.41,1.51,1.51,0,0,1-.56.07,1.47,1.47,0,0,1-.56-.18,1.06,1.06,0,0,1-.42-.42,1.25,1.25,0,0,1-.15-.61A1.42,1.42,0,0,1,217.38,273.6Z" transform="translate(-0.93 -2.89)" style="fill:#fff"/><path d="M225.73,279.88a5.08,5.08,0,0,1,.85-1.71,3.86,3.86,0,0,1,1.34-1.11,4,4,0,0,1,1.79-.39,4.62,4.62,0,0,1,1,.11,3.15,3.15,0,0,1,.84.34,2.85,2.85,0,0,1,.49.34,2.49,2.49,0,0,1,.42.44l.11-1h2.29v10.25a5,5,0,0,1-.35,1.9,3.88,3.88,0,0,1-1,1.4,4.25,4.25,0,0,1-1.54.88,6.64,6.64,0,0,1-2,.29,6.19,6.19,0,0,1-1-.09,6.27,6.27,0,0,1-1.08-.31,4.9,4.9,0,0,1-1-.52,3.7,3.7,0,0,1-.84-.79l1.17-1.53a3.86,3.86,0,0,0,.59.56,4.07,4.07,0,0,0,.65.4,3.34,3.34,0,0,0,1.4.29,3.22,3.22,0,0,0,1.08-.17,2.05,2.05,0,0,0,.8-.5,2,2,0,0,0,.46-.75,3,3,0,0,0,.16-1v-.67a3.85,3.85,0,0,1-.41.4,3,3,0,0,1-.47.32,3.78,3.78,0,0,1-.82.31,4.21,4.21,0,0,1-1,.11,3.85,3.85,0,0,1-1.77-.41,4.09,4.09,0,0,1-1.34-1.11,5.37,5.37,0,0,1-.85-1.71,7.54,7.54,0,0,1-.29-2.12v-.21A7.9,7.9,0,0,1,225.73,279.88Zm2.37,3.68a3.61,3.61,0,0,0,.43,1,2,2,0,0,0,.73.7,2.11,2.11,0,0,0,1.06.26,3.39,3.39,0,0,0,.68-.07,1.89,1.89,0,0,0,1-.59,2.69,2.69,0,0,0,.34-.47v-4.55a2.18,2.18,0,0,0-.36-.52,1.75,1.75,0,0,0-.49-.35,2,2,0,0,0-.52-.2,3.22,3.22,0,0,0-.64-.07,2.11,2.11,0,0,0-1.06.26,2.18,2.18,0,0,0-.74.71,3.47,3.47,0,0,0-.43,1.06,6,6,0,0,0-.14,1.3v.21A5.85,5.85,0,0,0,228.1,283.56Z" transform="translate(-0.93 -2.89)" style="fill:#fff"/><path d="M237.72,276.87H240l.16,1.48a4.06,4.06,0,0,1,.46-.55,3.18,3.18,0,0,1,.53-.44,3.31,3.31,0,0,1,1-.51,3.79,3.79,0,0,1,1.18-.18,4.36,4.36,0,0,1,1.47.24,2.92,2.92,0,0,1,1.16.74,3.6,3.6,0,0,1,.74,1.31,6.39,6.39,0,0,1,.26,1.93v6.54h-2.52v-6.5a3.24,3.24,0,0,0-.15-1.07,1.45,1.45,0,0,0-1.07-1,3.38,3.38,0,0,0-.88-.1,2.59,2.59,0,0,0-.76.1,2,2,0,0,0-.62.28,2.79,2.79,0,0,0-.42.35,3,3,0,0,0-.33.44v7.52h-2.53Z" transform="translate(-0.93 -2.89)" style="fill:#fff"/><path d="M178.71,36a6.16,6.16,0,0,1-.33,2.07,4.26,4.26,0,0,1-.95,1.55,4.14,4.14,0,0,1-1.49,1,5.72,5.72,0,0,1-2,.34,5.39,5.39,0,0,1-1.93-.34A4.16,4.16,0,0,1,169.58,38a5.88,5.88,0,0,1-.34-2.07V26.49h2.53l0,9.47a5.86,5.86,0,0,0,.15,1.25,2.56,2.56,0,0,0,.43.91,1.62,1.62,0,0,0,.65.54,2.13,2.13,0,0,0,.9.18,2.42,2.42,0,0,0,1-.19,1.71,1.71,0,0,0,.69-.56,2.57,2.57,0,0,0,.44-.91,4.58,4.58,0,0,0,.15-1.22V26.49h2.52Z" transform="translate(-0.93 -2.89)" style="fill:#fff"/><path d="M183,31.37a2.49,2.49,0,0,1,.84-1,2.15,2.15,0,0,1,1.28-.38,2.38,2.38,0,0,1,.68.09,1.47,1.47,0,0,1,.53.27,1.18,1.18,0,0,1,.3.33,1.93,1.93,0,0,1,.22.43,2.53,2.53,0,0,1,.31-.42,2.3,2.3,0,0,1,.38-.33,2,2,0,0,1,.59-.27,2.26,2.26,0,0,1,.71-.1,2.46,2.46,0,0,1,.91.17,1.91,1.91,0,0,1,.73.54,2.64,2.64,0,0,1,.48,1,5.13,5.13,0,0,1,.18,1.45v7.62h-2.32V33.08a1.53,1.53,0,0,0-.07-.51.75.75,0,0,0-.18-.33.62.62,0,0,0-.28-.17,1.16,1.16,0,0,0-.34,0,1.14,1.14,0,0,0-.33,0,.71.71,0,0,0-.26.13.54.54,0,0,0-.18.19.83.83,0,0,0-.12.25v8.07h-2.25V33.08a1.9,1.9,0,0,0-.06-.52.74.74,0,0,0-.17-.32.65.65,0,0,0-.27-.17,1.21,1.21,0,0,0-.34,0,1,1,0,0,0-.36.06,1.05,1.05,0,0,0-.29.17.75.75,0,0,0-.15.2,2.56,2.56,0,0,0-.11.24v8h-2.32V30.15h2.18Z" transform="translate(-0.93 -2.89)" style="fill:#fff"/><path d="M200.17,37.37a1.05,1.05,0,0,0-.4-.38,4.35,4.35,0,0,0-.78-.31,11.14,11.14,0,0,0-1.21-.28,11.4,11.4,0,0,1-1.69-.47,5.11,5.11,0,0,1-1.3-.67,2.76,2.76,0,0,1-.85-.89,2.31,2.31,0,0,1-.3-1.19,2.7,2.7,0,0,1,.3-1.24,3.07,3.07,0,0,1,.89-1,4.29,4.29,0,0,1,1.4-.71,6.26,6.26,0,0,1,1.85-.26,6.73,6.73,0,0,1,1.93.26,4.52,4.52,0,0,1,1.46.71,3.13,3.13,0,0,1,.91,1.08,2.91,2.91,0,0,1,.32,1.34h-2.52a1.32,1.32,0,0,0-.11-.53,1.38,1.38,0,0,0-.31-.46,2.13,2.13,0,0,0-.68-.39,3,3,0,0,0-1-.14,3.39,3.39,0,0,0-.9.1,1.67,1.67,0,0,0-.63.29,1.18,1.18,0,0,0-.35.39,1,1,0,0,0-.12.48,1,1,0,0,0,.1.45,1,1,0,0,0,.37.38,2.81,2.81,0,0,0,.69.31,8.17,8.17,0,0,0,1.12.24,13.54,13.54,0,0,1,1.77.42,5.09,5.09,0,0,1,1.39.63,2.91,2.91,0,0,1,.9.92,2.41,2.41,0,0,1,.33,1.28,2.58,2.58,0,0,1-.33,1.29,3.36,3.36,0,0,1-.94,1,5,5,0,0,1-1.47.66,7.13,7.13,0,0,1-1.91.24,6.53,6.53,0,0,1-2.07-.31,4.83,4.83,0,0,1-1.51-.82,3.37,3.37,0,0,1-.92-1.12,2.86,2.86,0,0,1-.32-1.29h2.43a1.57,1.57,0,0,0,.25.78,1.61,1.61,0,0,0,.55.52,2.11,2.11,0,0,0,.76.29,4.21,4.21,0,0,0,.87.09,3.73,3.73,0,0,0,1-.11,2.21,2.21,0,0,0,.69-.29,1.18,1.18,0,0,0,.34-.37.93.93,0,0,0,.12-.46A.88.88,0,0,0,200.17,37.37Z" transform="translate(-0.93 -2.89)" style="fill:#fff"/><path d="M208.28,40.51a4.87,4.87,0,0,1-1.69-1.09,4.71,4.71,0,0,1-1.08-1.61,5.33,5.33,0,0,1-.38-2v-.39a6.1,6.1,0,0,1,.39-2.23,5.23,5.23,0,0,1,1.06-1.73,5,5,0,0,1,3.6-1.5,5.17,5.17,0,0,1,2,.38,4.21,4.21,0,0,1,1.49,1.07,4.46,4.46,0,0,1,.92,1.64,6.79,6.79,0,0,1,.31,2.12v1.07h-7.25v0a3.77,3.77,0,0,0,.35,1.09,2.44,2.44,0,0,0,.59.77,2.72,2.72,0,0,0,.89.55,3,3,0,0,0,1.11.2,3.89,3.89,0,0,0,1.58-.33,3,3,0,0,0,1.23-.93l1.3,1.33a4.53,4.53,0,0,1-1.63,1.36,5.48,5.48,0,0,1-2.64.6A5.64,5.64,0,0,1,208.28,40.51Zm1-8.34a1.93,1.93,0,0,0-.71.49,2.92,2.92,0,0,0-.53.77,3.73,3.73,0,0,0-.3,1h4.7v-.19a2.3,2.3,0,0,0-.16-.86,2,2,0,0,0-.44-.72,2.1,2.1,0,0,0-.71-.49,2.43,2.43,0,0,0-1-.18A2.3,2.3,0,0,0,209.28,32.17Z" transform="translate(-0.93 -2.89)" style="fill:#fff"/><path d="M222.27,30.15h3.95V32h-3.95v4.8a2.73,2.73,0,0,0,.14,1,1.45,1.45,0,0,0,.38.61,1.49,1.49,0,0,0,.6.34,3.12,3.12,0,0,0,.77.1,4.64,4.64,0,0,0,.63,0l.63-.08.55-.09a2.92,2.92,0,0,0,.44-.1l.26,1.75a2.93,2.93,0,0,1-.64.28,7.43,7.43,0,0,1-.78.19c-.28,0-.57.09-.88.12s-.6.05-.9.05a4.89,4.89,0,0,1-1.52-.23,3,3,0,0,1-1.18-.7,3.05,3.05,0,0,1-.76-1.2,5.15,5.15,0,0,1-.27-1.77V32h-2.49V30.15h2.49V27.57h2.53Z" transform="translate(-0.93 -2.89)" style="fill:#fff"/><path d="M239,38.68v2h-9.75v-1.6l6-6.9h-5.87V30.15h9.34V31.7l-6,7Z" transform="translate(-0.93 -2.89)" style="fill:#fff"/><path d="M248.2,39.24a4.11,4.11,0,0,1-1.3,1.23,3.26,3.26,0,0,1-1.69.45,4.31,4.31,0,0,1-1.51-.26,2.84,2.84,0,0,1-1.16-.81,3.67,3.67,0,0,1-.75-1.4,6.81,6.81,0,0,1-.27-2V30.15h2.53v6.27a5.5,5.5,0,0,0,.1,1.16,1.75,1.75,0,0,0,.32.74,1.21,1.21,0,0,0,.56.41,2.55,2.55,0,0,0,.83.12,3.67,3.67,0,0,0,.85-.1,2.48,2.48,0,0,0,.66-.28,2.56,2.56,0,0,0,.42-.39,2.63,2.63,0,0,0,.31-.48V30.15h2.54V40.71h-2.3Z" transform="translate(-0.93 -2.89)" style="fill:#fff"/><path d="M253.44,30.15h2.29l.15,1.48a3.58,3.58,0,0,1,.47-.55,3.24,3.24,0,0,1,.53-.45,3.46,3.46,0,0,1,1-.5,3.83,3.83,0,0,1,1.18-.18,4.53,4.53,0,0,1,1.47.23,2.91,2.91,0,0,1,1.16.75,3.33,3.33,0,0,1,.74,1.31,6,6,0,0,1,.27,1.93v6.54H260.2v-6.5a3.24,3.24,0,0,0-.15-1.07,1.6,1.6,0,0,0-.42-.67,1.41,1.41,0,0,0-.66-.35,3.3,3.3,0,0,0-.87-.1,2.66,2.66,0,0,0-.77.1,2.06,2.06,0,0,0-.62.28,2.24,2.24,0,0,0-.41.35,3,3,0,0,0-.33.44v7.52h-2.53Z" transform="translate(-0.93 -2.89)" style="fill:#fff"/><path d="M265.45,33.15a5.27,5.27,0,0,1,.85-1.71,3.94,3.94,0,0,1,1.34-1.1,4,4,0,0,1,1.79-.39,4.62,4.62,0,0,1,1,.11,3.15,3.15,0,0,1,.84.34,2.85,2.85,0,0,1,.49.34,2.49,2.49,0,0,1,.42.44l.11-1h2.29V40.4a5,5,0,0,1-.35,1.9,3.85,3.85,0,0,1-1,1.4,4.28,4.28,0,0,1-1.55.87,6.29,6.29,0,0,1-2,.3,5.31,5.31,0,0,1-1-.1,5.45,5.45,0,0,1-1.08-.3,4.94,4.94,0,0,1-1-.53,3.45,3.45,0,0,1-.84-.78l1.17-1.53a4.42,4.42,0,0,0,.59.56,4.07,4.07,0,0,0,.65.4,4.15,4.15,0,0,0,.68.22,3.51,3.51,0,0,0,.72.07,3.22,3.22,0,0,0,1.08-.17,2.05,2.05,0,0,0,.8-.5,2.15,2.15,0,0,0,.46-.76,2.89,2.89,0,0,0,.16-1v-.68a4,4,0,0,1-.41.41,3,3,0,0,1-.47.32,3.31,3.31,0,0,1-.82.3,3.71,3.71,0,0,1-1,.12,3.85,3.85,0,0,1-1.77-.41,4,4,0,0,1-1.34-1.12,5.32,5.32,0,0,1-.85-1.7,7.54,7.54,0,0,1-.29-2.12v-.21A8,8,0,0,1,265.45,33.15Zm2.38,3.68a3.09,3.09,0,0,0,.43,1.05,2,2,0,0,0,.72.7,2.11,2.11,0,0,0,1.06.26,2.91,2.91,0,0,0,.69-.08,2,2,0,0,0,.55-.22,2,2,0,0,0,.45-.36,2.08,2.08,0,0,0,.34-.48V33.15a2.34,2.34,0,0,0-.36-.51,1.78,1.78,0,0,0-.49-.36,2,2,0,0,0-.52-.19,2.62,2.62,0,0,0-.64-.07,2.11,2.11,0,0,0-1.06.26,2.15,2.15,0,0,0-.73.71,3.16,3.16,0,0,0-.44,1.06,6,6,0,0,0-.14,1.3v.21A5.15,5.15,0,0,0,267.83,36.83Z" transform="translate(-0.93 -2.89)" style="fill:#fff"/><circle cx="221.06" cy="63" r="12.51" style="fill:#fff"/><circle cx="310.41" cy="118.72" r="12.51" transform="translate(6.05 251.38) rotate(-45)" style="fill:#fff"/><path d="M272.33,154.21v5.41h-2.55V145.4h4.65a7.12,7.12,0,0,1,2.08.28,4.57,4.57,0,0,1,1.62.81,3.49,3.49,0,0,1,1,1.33,4.87,4.87,0,0,1,.18,3.21,3.59,3.59,0,0,1-.51,1.08,4.18,4.18,0,0,1-.83.85,5,5,0,0,1-1.06.62l3.05,5.91v.13h-2.73l-2.69-5.41Zm2.12-2.08a3.25,3.25,0,0,0,1.12-.18,2.23,2.23,0,0,0,.83-.53,1.88,1.88,0,0,0,.43-.68,2.65,2.65,0,0,0,.15-.92,2.84,2.84,0,0,0-.18-1,1.83,1.83,0,0,0-.53-.74,2.14,2.14,0,0,0-.79-.42,3.41,3.41,0,0,0-1.05-.15h-2.1v4.66Z" transform="translate(-0.93 -2.89)" style="fill:#fff"/><path d="M284.7,159.42a5.24,5.24,0,0,1-1.68-1.09,4.87,4.87,0,0,1-1.09-1.62,5.31,5.31,0,0,1-.38-2v-.4a6.1,6.1,0,0,1,.39-2.23,5.05,5.05,0,0,1,1.07-1.72,4.84,4.84,0,0,1,1.6-1.11,5.08,5.08,0,0,1,2-.39,5,5,0,0,1,2,.38,4.26,4.26,0,0,1,1.5,1.06A4.56,4.56,0,0,1,291,152a6.72,6.72,0,0,1,.32,2.11v1.08H284.1v0a4.19,4.19,0,0,0,.35,1.1,2.69,2.69,0,0,0,.59.77,3,3,0,0,0,.89.55,3.08,3.08,0,0,0,1.11.19,4.06,4.06,0,0,0,1.58-.32,3.12,3.12,0,0,0,1.23-.94l1.3,1.34a4.57,4.57,0,0,1-1.62,1.35,5.49,5.49,0,0,1-2.65.6A5.87,5.87,0,0,1,284.7,159.42Zm1-8.35a2.06,2.06,0,0,0-.71.49,2.82,2.82,0,0,0-.52.77,3.81,3.81,0,0,0-.31,1h4.71v-.2a2.57,2.57,0,0,0-.16-.86,2.2,2.2,0,0,0-.45-.72,2.12,2.12,0,0,0-.71-.48,2.4,2.4,0,0,0-1-.18A2.3,2.3,0,0,0,285.7,151.07Z" transform="translate(-0.93 -2.89)" style="fill:#fff"/><path d="M300.17,144.62v12.93h3.11v2.07h-8.92v-2.07h3.26V146.7h-3.26v-2.08Z" transform="translate(-0.93 -2.89)" style="fill:#fff"/><path d="M308.71,159.42a5.18,5.18,0,0,1-1.69-1.09,4.7,4.7,0,0,1-1.08-1.62,5.12,5.12,0,0,1-.38-2v-.4a6.11,6.11,0,0,1,.38-2.23,5.38,5.38,0,0,1,1.07-1.72,4.88,4.88,0,0,1,1.61-1.11,5,5,0,0,1,2-.39,5,5,0,0,1,2,.38,4.26,4.26,0,0,1,1.5,1.06,4.74,4.74,0,0,1,.92,1.65,6.72,6.72,0,0,1,.31,2.11v1.08H308.1v0a4.19,4.19,0,0,0,.35,1.1,2.88,2.88,0,0,0,.59.77,2.94,2.94,0,0,0,.9.55,3,3,0,0,0,1.1.19,4.1,4.1,0,0,0,1.59-.32,3.12,3.12,0,0,0,1.23-.94l1.3,1.34a4.61,4.61,0,0,1-1.63,1.35,5.48,5.48,0,0,1-2.64.6A5.84,5.84,0,0,1,308.71,159.42Zm1-8.35a2.06,2.06,0,0,0-.71.49,2.82,2.82,0,0,0-.52.77,4.21,4.21,0,0,0-.31,1h4.71v-.2a2.34,2.34,0,0,0-.16-.86,2.08,2.08,0,0,0-1.15-1.2,2.45,2.45,0,0,0-1-.18A2.33,2.33,0,0,0,309.7,151.07Z" transform="translate(-0.93 -2.89)" style="fill:#fff"/><path d="M324.36,159.15a4.65,4.65,0,0,1-.1-.56,3.64,3.64,0,0,1-1.2.86,4.81,4.81,0,0,1-.81.27,5,5,0,0,1-2.44-.14,3.55,3.55,0,0,1-1.16-.66,3,3,0,0,1-.76-1,3,3,0,0,1-.26-1.25,3.31,3.31,0,0,1,.34-1.55,2.92,2.92,0,0,1,1-1.12,4.7,4.7,0,0,1,1.52-.62,9.13,9.13,0,0,1,2.06-.21h1.61v-.66a1.73,1.73,0,0,0-.13-.71,1.36,1.36,0,0,0-.38-.54,1.64,1.64,0,0,0-.65-.36,3,3,0,0,0-1.68,0,1.45,1.45,0,0,0-.55.3,1,1,0,0,0-.3.42,1.42,1.42,0,0,0-.1.55h-2.53a2.74,2.74,0,0,1,.3-1.25,3.4,3.4,0,0,1,.86-1.05,4.52,4.52,0,0,1,1.38-.73,6.28,6.28,0,0,1,1.86-.26,6.15,6.15,0,0,1,1.76.23,4.35,4.35,0,0,1,1.42.68,3.37,3.37,0,0,1,.93,1.15,3.7,3.7,0,0,1,.34,1.61v4.61a7.4,7.4,0,0,0,.1,1.34,3.57,3.57,0,0,0,.31,1v.17h-2.58A3.14,3.14,0,0,1,324.36,159.15Zm-1.73-1.43a2.87,2.87,0,0,0,.67-.28,2.08,2.08,0,0,0,.52-.39,2,2,0,0,0,.35-.44v-1.88h-1.45a5.17,5.17,0,0,0-1.2.12,2.34,2.34,0,0,0-.81.37,1.37,1.37,0,0,0-.42.54,1.56,1.56,0,0,0-.14.68,1.52,1.52,0,0,0,.1.57,1.09,1.09,0,0,0,.33.44,1.53,1.53,0,0,0,.51.27,2.3,2.3,0,0,0,.73.1A3,3,0,0,0,322.63,157.72Z" transform="translate(-0.93 -2.89)" style="fill:#fff"/><path d="M336.61,156.27a1.07,1.07,0,0,0-.41-.37,4,4,0,0,0-.78-.32c-.32-.09-.72-.19-1.21-.28a11.78,11.78,0,0,1-1.69-.46,5.45,5.45,0,0,1-1.3-.67,2.79,2.79,0,0,1-.85-.9,2.28,2.28,0,0,1-.3-1.18,2.56,2.56,0,0,1,.31-1.24,3.05,3.05,0,0,1,.88-1,4.49,4.49,0,0,1,1.4-.71,6.27,6.27,0,0,1,1.85-.25,6.74,6.74,0,0,1,1.93.25,4.73,4.73,0,0,1,1.46.71,3.21,3.21,0,0,1,.91,1.08,2.94,2.94,0,0,1,.32,1.34h-2.52a1.4,1.4,0,0,0-.11-.53,1.45,1.45,0,0,0-.31-.45,2,2,0,0,0-.68-.39,3,3,0,0,0-1-.15,3.92,3.92,0,0,0-.9.1,1.84,1.84,0,0,0-.63.29,1.18,1.18,0,0,0-.35.39,1,1,0,0,0-.12.48,1.06,1.06,0,0,0,.1.46.93.93,0,0,0,.37.37,2.48,2.48,0,0,0,.69.31,8,8,0,0,0,1.12.25,15.43,15.43,0,0,1,1.77.41,5.77,5.77,0,0,1,1.39.63,3,3,0,0,1,.91.93,2.48,2.48,0,0,1,.32,1.28,2.58,2.58,0,0,1-.33,1.29,3.11,3.11,0,0,1-.94,1,4.75,4.75,0,0,1-1.47.66,7.13,7.13,0,0,1-1.91.24,6.54,6.54,0,0,1-2.07-.3,4.67,4.67,0,0,1-1.5-.82,3.38,3.38,0,0,1-.93-1.12,2.91,2.91,0,0,1-.31-1.29h2.42a1.64,1.64,0,0,0,.25.78,1.71,1.71,0,0,0,.55.52,2.62,2.62,0,0,0,.77.29,4.12,4.12,0,0,0,.86.09,4.19,4.19,0,0,0,1-.11,2.21,2.21,0,0,0,.69-.29,1.21,1.21,0,0,0,.34-.38.89.89,0,0,0,.12-.45A1,1,0,0,0,336.61,156.27Z" transform="translate(-0.93 -2.89)" style="fill:#fff"/><path d="M344.71,159.42a5.24,5.24,0,0,1-1.68-1.09,4.87,4.87,0,0,1-1.09-1.62,5.31,5.31,0,0,1-.38-2v-.4a6.1,6.1,0,0,1,.39-2.23,5.05,5.05,0,0,1,1.07-1.72,4.84,4.84,0,0,1,1.6-1.11,5.08,5.08,0,0,1,2-.39,5,5,0,0,1,2,.38,4.26,4.26,0,0,1,1.5,1.06,4.56,4.56,0,0,1,.91,1.65,6.72,6.72,0,0,1,.32,2.11v1.08h-7.26v0a3.85,3.85,0,0,0,.35,1.1,2.69,2.69,0,0,0,.59.77,3,3,0,0,0,.89.55,3.08,3.08,0,0,0,1.11.19,4.06,4.06,0,0,0,1.58-.32,3.12,3.12,0,0,0,1.23-.94l1.3,1.34a4.57,4.57,0,0,1-1.62,1.35,5.49,5.49,0,0,1-2.65.6A5.87,5.87,0,0,1,344.71,159.42Zm1-8.35a2.06,2.06,0,0,0-.71.49,2.82,2.82,0,0,0-.52.77,3.81,3.81,0,0,0-.31,1h4.71v-.2a2.35,2.35,0,0,0-.17-.86,2,2,0,0,0-.44-.72,2.12,2.12,0,0,0-.71-.48,2.4,2.4,0,0,0-1-.18A2.3,2.3,0,0,0,345.71,151.07Z" transform="translate(-0.93 -2.89)" style="fill:#fff"/><path d="M311.41,2.89h4.65a8.66,8.66,0,0,1,2,.23,5.09,5.09,0,0,1,1.6.71,3.38,3.38,0,0,1,1,1.21,3.58,3.58,0,0,1,.36,1.72,3.43,3.43,0,0,1-.22,1.17,3,3,0,0,1-.61,1,3.67,3.67,0,0,1-.56.47,4.7,4.7,0,0,1-.71.36h0a3.51,3.51,0,0,1,1.1.49,3.06,3.06,0,0,1,1.18,1.65,3.84,3.84,0,0,1,.15,1.07,4.19,4.19,0,0,1-.36,1.8,3.55,3.55,0,0,1-1,1.31,4.71,4.71,0,0,1-1.57.78,7.2,7.2,0,0,1-2,.27h-5.05ZM314,15h2.51a3.81,3.81,0,0,0,1-.15,2.44,2.44,0,0,0,.75-.4,2.07,2.07,0,0,0,.5-.67,2.23,2.23,0,0,0,.17-.88,2.37,2.37,0,0,0-.13-.9,1.72,1.72,0,0,0-.43-.68,1.86,1.86,0,0,0-.72-.44,3.34,3.34,0,0,0-1-.16H314Zm2.15-6.16a3.61,3.61,0,0,0,1.08-.15A1.83,1.83,0,0,0,318,8.3a1.66,1.66,0,0,0,.43-.58,1.87,1.87,0,0,0,.15-.78,2.21,2.21,0,0,0-.14-.81,1.41,1.41,0,0,0-.39-.56,1.75,1.75,0,0,0-.81-.43A3.91,3.91,0,0,0,316.08,5H314v3.9Z" transform="translate(-0.93 -2.89)" style="fill:#fff"/><path d="M326.33,16.93a5.24,5.24,0,0,1-1.68-1.09,4.7,4.7,0,0,1-1.08-1.62,5.33,5.33,0,0,1-.38-2v-.39a6.1,6.1,0,0,1,.39-2.23,5.27,5.27,0,0,1,1.07-1.72,4.89,4.89,0,0,1,3.6-1.5,5.12,5.12,0,0,1,2,.38,4.28,4.28,0,0,1,1.5,1.07,4.74,4.74,0,0,1,.92,1.65,7,7,0,0,1,.31,2.11v1.08h-7.26v0a4.25,4.25,0,0,0,.34,1.09,2.93,2.93,0,0,0,.59.77,2.76,2.76,0,0,0,.9.55,3,3,0,0,0,1.11.2,4.06,4.06,0,0,0,1.58-.32,3.12,3.12,0,0,0,1.23-.94l1.3,1.34a4.61,4.61,0,0,1-1.63,1.35,5.48,5.48,0,0,1-2.64.6A5.93,5.93,0,0,1,326.33,16.93Zm1-8.34a2,2,0,0,0-.71.48,2.82,2.82,0,0,0-.52.77,4.21,4.21,0,0,0-.31,1h4.71v-.2a2.57,2.57,0,0,0-.16-.86A2.14,2.14,0,0,0,329.2,8.6a2.43,2.43,0,0,0-1-.18A2.35,2.35,0,0,0,327.34,8.59Z" transform="translate(-0.93 -2.89)" style="fill:#fff"/><path d="M340.34,6.58h4V8.46h-4v4.79a3,3,0,0,0,.13,1,1.48,1.48,0,0,0,.38.61,1.38,1.38,0,0,0,.61.35,3.07,3.07,0,0,0,.77.09l.63,0,.63-.08.55-.09a3.24,3.24,0,0,0,.44-.1l.26,1.75a3.16,3.16,0,0,1-.64.28c-.25.07-.51.14-.79.19s-.57.09-.87.12-.61,0-.91,0a4.79,4.79,0,0,1-1.51-.22,3,3,0,0,1-1.18-.71,3.07,3.07,0,0,1-.77-1.2,5.42,5.42,0,0,1-.26-1.77v-5h-2.49V6.57h2.49V4h2.53Z" transform="translate(-0.93 -2.89)" style="fill:#fff"/><path d="M356.07,6.48a6,6,0,0,1,.84.19l-.38,2.51A7.73,7.73,0,0,0,355.46,9a7.82,7.82,0,0,0-1-.07,4.4,4.4,0,0,0-1,.11,2.67,2.67,0,0,0-.79.32,2.49,2.49,0,0,0-.68.57,2.9,2.9,0,0,0-.46.81v6.43h-2.53V6.59h2.35l.11,1.48,0,.24A5,5,0,0,1,353,6.91a4,4,0,0,1,2-.51A7.83,7.83,0,0,1,356.07,6.48Z" transform="translate(-0.93 -2.89)" style="fill:#fff"/><path d="M362.34,17a5,5,0,0,1-1.68-1.1,4.73,4.73,0,0,1-1.09-1.61,5.36,5.36,0,0,1-.37-2v-.39a6.07,6.07,0,0,1,.39-2.23,5,5,0,0,1,1.07-1.72,4.64,4.64,0,0,1,1.61-1.11,5.41,5.41,0,0,1,4,0,4.16,4.16,0,0,1,1.5,1.07,4.58,4.58,0,0,1,.91,1.64,6.79,6.79,0,0,1,.31,2.12V12.7h-7.26v0a4.32,4.32,0,0,0,.35,1.1,2.88,2.88,0,0,0,.59.77,3.24,3.24,0,0,0,.89.55,3.08,3.08,0,0,0,1.11.19,3.88,3.88,0,0,0,1.58-.32,3,3,0,0,0,1.24-.93l1.29,1.34a4.52,4.52,0,0,1-1.63,1.35,5.45,5.45,0,0,1-2.64.59A5.84,5.84,0,0,1,362.34,17Zm1-8.35a1.93,1.93,0,0,0-.71.49,2.7,2.7,0,0,0-.53.77,3.84,3.84,0,0,0-.3,1h4.7v-.19a2.3,2.3,0,0,0-.16-.86,2.07,2.07,0,0,0-.44-.73,2.22,2.22,0,0,0-.71-.48,2.4,2.4,0,0,0-1-.18A2.3,2.3,0,0,0,363.35,8.63Z" transform="translate(-0.93 -2.89)" style="fill:#fff"/><path d="M378.25,15.72A4,4,0,0,1,377,17a3.3,3.3,0,0,1-1.7.45,4.3,4.3,0,0,1-1.5-.26,2.84,2.84,0,0,1-1.16-.81,3.76,3.76,0,0,1-.76-1.4,7.25,7.25,0,0,1-.26-2V6.62h2.53V12.9a5.5,5.5,0,0,0,.1,1.16,1.75,1.75,0,0,0,.32.74,1.16,1.16,0,0,0,.56.41,2.55,2.55,0,0,0,.83.12,3.67,3.67,0,0,0,.85-.1,2.19,2.19,0,0,0,.66-.28,2.49,2.49,0,0,0,.42-.38,2.71,2.71,0,0,0,.31-.49V6.63h2.54l0,10.57H378.4Z" transform="translate(-0.93 -2.89)" style="fill:#fff"/><path d="M390.26,15.74A4,4,0,0,1,389,17a3.29,3.29,0,0,1-1.69.45,4.31,4.31,0,0,1-1.51-.25,2.77,2.77,0,0,1-1.16-.82,3.67,3.67,0,0,1-.75-1.4,6.81,6.81,0,0,1-.27-2V6.64h2.53v6.28a5.4,5.4,0,0,0,.1,1.15,1.75,1.75,0,0,0,.32.74,1.08,1.08,0,0,0,.56.41,2.55,2.55,0,0,0,.83.12,3.7,3.7,0,0,0,.85-.09,2.2,2.2,0,0,0,.66-.29,2.13,2.13,0,0,0,.42-.38,2.46,2.46,0,0,0,.31-.48V6.64h2.54V17.21h-2.3Z" transform="translate(-0.93 -2.89)" style="fill:#fff"/><path d="M395.51,6.65h2.29L398,8.14a3.58,3.58,0,0,1,.47-.55,3.24,3.24,0,0,1,.53-.45,3.46,3.46,0,0,1,1-.5,3.9,3.9,0,0,1,1.19-.18,4.36,4.36,0,0,1,1.47.24,2.92,2.92,0,0,1,1.15.74,3.4,3.4,0,0,1,.74,1.31,5.88,5.88,0,0,1,.26,1.94v6.54h-2.52V10.72a3.05,3.05,0,0,0-.14-1.07A1.67,1.67,0,0,0,401.7,9a1.5,1.5,0,0,0-.66-.35,3.85,3.85,0,0,0-.87-.1,2.66,2.66,0,0,0-.77.1,2.06,2.06,0,0,0-.62.28,2,2,0,0,0-.41.35,3,3,0,0,0-.33.44v7.52H395.5Z" transform="translate(-0.93 -2.89)" style="fill:#fff"/><path d="M407.52,9.67a5.12,5.12,0,0,1,.85-1.7,3.8,3.8,0,0,1,1.35-1.11,3.91,3.91,0,0,1,1.78-.38,4.09,4.09,0,0,1,1,.11,3.39,3.39,0,0,1,1.33.68,2.49,2.49,0,0,1,.42.44l.11-1h2.29V16.93a4.77,4.77,0,0,1-.36,1.9,3.85,3.85,0,0,1-1,1.4,4.43,4.43,0,0,1-1.55.87,6.12,6.12,0,0,1-3,.2,7.25,7.25,0,0,1-1.08-.3,6.19,6.19,0,0,1-1-.53,3.46,3.46,0,0,1-.83-.79L409,18.15a3.91,3.91,0,0,0,.6.56,3.39,3.39,0,0,0,.64.4,3.26,3.26,0,0,0,.69.22,3.38,3.38,0,0,0,.72.08,3.31,3.31,0,0,0,1.08-.17,2,2,0,0,0,.79-.51A1.92,1.92,0,0,0,414,18a2.93,2.93,0,0,0,.16-1v-.68a4,4,0,0,1-.41.41,3.88,3.88,0,0,1-.47.32,3.47,3.47,0,0,1-.82.3,3.72,3.72,0,0,1-1,.11,3.81,3.81,0,0,1-1.77-.4,4.25,4.25,0,0,1-1.34-1.12,5.48,5.48,0,0,1-.85-1.71,7.54,7.54,0,0,1-.29-2.12v-.21A8,8,0,0,1,407.52,9.67Zm2.37,3.69a3,3,0,0,0,.43,1,2,2,0,0,0,.72.71,2.1,2.1,0,0,0,1.06.25,2.93,2.93,0,0,0,.69-.07,2,2,0,0,0,.55-.22,2,2,0,0,0,.45-.36,2.47,2.47,0,0,0,.35-.48V9.68a2.08,2.08,0,0,0-.37-.51,1.55,1.55,0,0,0-.48-.36,2,2,0,0,0-.52-.19,2.62,2.62,0,0,0-.64-.07,2.1,2.1,0,0,0-1.06.25,2.28,2.28,0,0,0-.74.71,3.43,3.43,0,0,0-.43,1.07,5.31,5.31,0,0,0-.15,1.29v.21A5.84,5.84,0,0,0,409.89,13.36Z" transform="translate(-0.93 -2.89)" style="fill:#fff"/><polygon points="37 245.58 31.64 240.21 24.18 241.57 27.64 234.81 24.04 228.14 31.53 229.34 36.77 223.85 37.94 231.35 44.78 234.63 38.01 238.06 37 245.58" style="fill:#fff"/><polygon points="120.63 241.27 109.4 243.57 104.93 254.13 99.27 244.16 87.85 243.18 95.58 234.71 92.99 223.54 103.43 228.28 113.25 222.36 111.97 233.76 120.63 241.27" style="fill:#fff"/><polygon points="266.62 223.41 268.13 216.06 262.94 210.65 270.39 209.82 273.94 203.22 277.03 210.05 284.41 211.37 278.87 216.42 279.88 223.85 273.37 220.14 266.62 223.41" style="fill:#fff"/><polygon points="315.68 61.96 306.78 62.91 302.51 70.78 298.86 62.61 290.05 60.99 296.69 54.98 295.51 46.1 303.28 50.57 311.36 46.7 309.51 55.47 315.68 61.96" style="fill:#fff"/><polygon points="245.78 132.48 239.44 130.54 234.25 134.65 234.14 128.03 228.62 124.36 234.89 122.21 236.67 115.83 240.65 121.12 247.27 120.85 243.47 126.27 245.78 132.48" style="fill:#fff"/><polygon points="188.12 210.4 187.44 201.27 179.53 196.66 188.01 193.19 189.96 184.24 195.87 191.23 204.98 190.32 200.16 198.1 203.85 206.49 194.95 204.31 188.12 210.4" style="fill:#fff"/><polygon points="135.21 92.45 138.39 87.36 136 81.87 141.81 83.31 146.3 79.34 146.72 85.32 151.89 88.36 146.33 90.61 145.03 96.46 141.18 91.87 135.21 92.45" style="fill:#fff"/><circle cx="363.17" cy="39.93" r="9.78" style="fill:#fff"/><circle cx="363.17" cy="39.93" r="15.42" style="fill:none;stroke:#fff;stroke-miterlimit:10;stroke-width:3px"/></svg>