<svg xmlns="http://www.w3.org/2000/svg" viewBox="0 0 397.81 350.18"><circle cx="47.08" cy="305.93" r="12.51" style="fill:#fff"/><circle cx="81.85" cy="173" r="12.51" style="fill:#fff"/><circle cx="206.27" cy="246.86" r="12.51" transform="translate(-55.51 432.41) rotate(-85.93)" style="fill:#fff"/><path d="M48,309.34A59.71,59.71,0,0,0,53.86,308" transform="translate(-0.93 -2.7)" style="fill:none;stroke:#fff;stroke-linecap:round;stroke-miterlimit:10;stroke-width:5px"/><path d="M64.71,303.31a21.37,21.37,0,0,0,7.6-8.22c4-7.89,1.07-16.13-2-26C59.8,234.67,54.52,217.45,58.24,205c5.21-17.5,28.51-34.11,47.08-30.7,29,5.32,25.43,55.68,65.09,71.74,2.16.88,26.69,10.42,44-1.58,17-11.78,20.33-39.69,14-59.88C217.6,150,182.09,150,177.63,122.15c-3.66-22.82,15.12-53,36.73-57,35.09-6.52,58.78,59.37,92.52,54.7,13.65-1.89,31.06-15.63,47-68.69" transform="translate(-0.93 -2.7)" style="fill:none;stroke:#fff;stroke-linecap:round;stroke-miterlimit:10;stroke-width:5px;stroke-dasharray:11.87515640258789,11.87515640258789"/><path d="M355.55,45.48q.81-2.82,1.6-5.79" transform="translate(-0.93 -2.7)" style="fill:none;stroke:#fff;stroke-linecap:round;stroke-miterlimit:10;stroke-width:5px"/><path d="M8.59,344.14a2.06,2.06,0,0,0-.5-.66,4.26,4.26,0,0,0-.88-.52A8.32,8.32,0,0,0,6,342.53a10.78,10.78,0,0,1-2-.74,5.93,5.93,0,0,1-1.44-1,3.86,3.86,0,0,1-.9-1.21,3.38,3.38,0,0,1-.31-1.48,3.56,3.56,0,0,1,.38-1.63,3.81,3.81,0,0,1,1.06-1.24,4.93,4.93,0,0,1,1.57-.79,6.6,6.6,0,0,1,1.92-.27,6.06,6.06,0,0,1,2,.32,4.73,4.73,0,0,1,1.57.89,3.94,3.94,0,0,1,1,1.38,4.07,4.07,0,0,1,.38,1.75H8.77a3,3,0,0,0-.2-.92,2.23,2.23,0,0,0-.47-.73,2.3,2.3,0,0,0-.79-.47,3.1,3.1,0,0,0-1.06-.17,3.36,3.36,0,0,0-1,.14,2.21,2.21,0,0,0-.75.38,1.67,1.67,0,0,0-.64,1.36,1.44,1.44,0,0,0,.22.8,1.88,1.88,0,0,0,.62.6,4.58,4.58,0,0,0,.94.48c.36.14.75.27,1.18.39a11.17,11.17,0,0,1,1.44.52,6.45,6.45,0,0,1,1.26.72,4.72,4.72,0,0,1,1.28,1.4,3.59,3.59,0,0,1,.48,1.87,3.42,3.42,0,0,1-.39,1.66,3.54,3.54,0,0,1-1.06,1.22,4.53,4.53,0,0,1-1.56.75,7.16,7.16,0,0,1-1.94.26,7,7,0,0,1-2.08-.32,5.45,5.45,0,0,1-1.79-.94,4.74,4.74,0,0,1-1.13-1.4,4.12,4.12,0,0,1-.42-1.87H3.45a2.84,2.84,0,0,0,.25,1.11,2.1,2.1,0,0,0,.6.78,2.54,2.54,0,0,0,.9.45,4.16,4.16,0,0,0,1.15.15,3.32,3.32,0,0,0,1-.13,2.28,2.28,0,0,0,.77-.36,1.68,1.68,0,0,0,.48-.58,1.58,1.58,0,0,0,.18-.76A1.7,1.7,0,0,0,8.59,344.14Z" transform="translate(-0.93 -2.7)" style="fill:#fff"/><path d="M18.28,338.05h4v1.87h-4v4.8a3,3,0,0,0,.14,1,1.48,1.48,0,0,0,.38.61,1.38,1.38,0,0,0,.6.34,2.78,2.78,0,0,0,.78.1,4.64,4.64,0,0,0,.63,0l.63-.08a4.51,4.51,0,0,0,.55-.09l.43-.09.27,1.74a3.43,3.43,0,0,1-.64.28,6.09,6.09,0,0,1-.79.19,7.93,7.93,0,0,1-.87.12c-.31,0-.61.05-.91.05a4.89,4.89,0,0,1-1.52-.23,2.89,2.89,0,0,1-1.17-.7,3.07,3.07,0,0,1-.77-1.2,5.15,5.15,0,0,1-.27-1.77v-5H13.26v-1.87h2.49v-2.58h2.53Z" transform="translate(-0.93 -2.7)" style="fill:#fff"/><path d="M34,337.93a3.78,3.78,0,0,1,.84.19l-.37,2.5c-.36-.08-.72-.14-1.08-.19a9.51,9.51,0,0,0-1-.06,4.37,4.37,0,0,0-1,.11,2.67,2.67,0,0,0-.79.32,2.49,2.49,0,0,0-.68.57,2.9,2.9,0,0,0-.46.81v6.43H26.89V338.05h2.36l.11,1.47,0,.25a4.81,4.81,0,0,1,1.54-1.41,4,4,0,0,1,2-.51A7.83,7.83,0,0,1,34,337.93Z" transform="translate(-0.93 -2.7)" style="fill:#fff"/><path d="M44,348.15a3.47,3.47,0,0,1-.11-.56,3.5,3.5,0,0,1-.54.47,3.59,3.59,0,0,1-.66.39,4,4,0,0,1-.81.26,4.11,4.11,0,0,1-.94.1,4.45,4.45,0,0,1-1.5-.24,3.36,3.36,0,0,1-1.16-.65,3,3,0,0,1-1-2.26,3.37,3.37,0,0,1,.34-1.55,2.83,2.83,0,0,1,1-1.11,4.48,4.48,0,0,1,1.52-.62,9.19,9.19,0,0,1,2.06-.21h1.61v-.67a1.8,1.8,0,0,0-.13-.71,1.36,1.36,0,0,0-.38-.54,1.93,1.93,0,0,0-.65-.36,3,3,0,0,0-.89-.12,2.71,2.71,0,0,0-.79.1,1.47,1.47,0,0,0-.55.31.91.91,0,0,0-.3.42,1.4,1.4,0,0,0-.1.54H37.44a2.7,2.7,0,0,1,.3-1.24,3.19,3.19,0,0,1,.86-1,4.26,4.26,0,0,1,1.39-.73,5.88,5.88,0,0,1,1.86-.27,6.5,6.5,0,0,1,1.75.23,4.09,4.09,0,0,1,1.42.69,3.37,3.37,0,0,1,.93,1.15,3.52,3.52,0,0,1,.34,1.6v4.61a7.59,7.59,0,0,0,.1,1.35,3.68,3.68,0,0,0,.31,1v.16H44.12A2.24,2.24,0,0,1,44,348.15Zm-1.74-1.44a2.85,2.85,0,0,0,.67-.27,2.36,2.36,0,0,0,.52-.39,1.93,1.93,0,0,0,.35-.44v-1.89H42.31a4.74,4.74,0,0,0-1.2.13,2.17,2.17,0,0,0-.81.37,1.37,1.37,0,0,0-.42.54,1.51,1.51,0,0,0-.14.68,1.47,1.47,0,0,0,.1.56,1.31,1.31,0,0,0,.33.45,1.44,1.44,0,0,0,.51.26,2.29,2.29,0,0,0,.73.11A3,3,0,0,0,42.22,346.71Z" transform="translate(-0.93 -2.7)" style="fill:#fff"/><path d="M54.29,338.05h4v1.87h-4v4.8a3,3,0,0,0,.13,1,1.59,1.59,0,0,0,.38.61,1.42,1.42,0,0,0,.61.34,2.66,2.66,0,0,0,.77.1,4.64,4.64,0,0,0,.63,0l.63-.08a4.21,4.21,0,0,0,.55-.09l.44-.09.26,1.74a2.93,2.93,0,0,1-.64.28,5.57,5.57,0,0,1-.78.19,8.11,8.11,0,0,1-.88.12c-.3,0-.6.05-.9.05a4.89,4.89,0,0,1-1.52-.23,3,3,0,0,1-1.18-.7,3.05,3.05,0,0,1-.76-1.2,5.15,5.15,0,0,1-.27-1.77v-5H49.27v-1.87h2.49v-2.58h2.53Z" transform="translate(-0.93 -2.7)" style="fill:#fff"/><path d="M64.3,348.41a4.93,4.93,0,0,1-1.68-1.09,4.73,4.73,0,0,1-1.09-1.61,5.33,5.33,0,0,1-.38-2v-.39a6.1,6.1,0,0,1,.39-2.23,5.11,5.11,0,0,1,1.07-1.72,4.7,4.7,0,0,1,1.6-1.11,4.91,4.91,0,0,1,2-.4,5.17,5.17,0,0,1,2,.38,4.28,4.28,0,0,1,1.5,1.07,4.44,4.44,0,0,1,.91,1.64,6.78,6.78,0,0,1,.32,2.12v1.07H63.7v0a4.11,4.11,0,0,0,.35,1.09,2.6,2.6,0,0,0,.59.78,3,3,0,0,0,.89.54,3.08,3.08,0,0,0,1.11.2,4.06,4.06,0,0,0,1.58-.32,3.12,3.12,0,0,0,1.23-.94l1.3,1.34a4.48,4.48,0,0,1-1.62,1.35,5.49,5.49,0,0,1-2.65.6A5.68,5.68,0,0,1,64.3,348.41Zm1-8.34a1.93,1.93,0,0,0-.71.49,2.67,2.67,0,0,0-.52.77,4.27,4.27,0,0,0-.31,1h4.71v-.19a2.57,2.57,0,0,0-.16-.86,2.2,2.2,0,0,0-.45-.72,2,2,0,0,0-.71-.49,2.4,2.4,0,0,0-1-.18A2.3,2.3,0,0,0,65.3,340.07Z" transform="translate(-0.93 -2.7)" style="fill:#fff"/><path d="M73.47,341.05a4.94,4.94,0,0,1,.85-1.7,3.86,3.86,0,0,1,1.34-1.11,4,4,0,0,1,1.78-.39,4.62,4.62,0,0,1,1,.11,3.36,3.36,0,0,1,.85.34,3.3,3.3,0,0,1,.49.34,2.85,2.85,0,0,1,.41.44l.11-1h2.3V348.3a4.77,4.77,0,0,1-.36,1.9,3.85,3.85,0,0,1-1,1.4,4.29,4.29,0,0,1-1.55.88,6.55,6.55,0,0,1-2,.29,5.61,5.61,0,0,1-2.09-.4,5.45,5.45,0,0,1-1-.52,3.46,3.46,0,0,1-.83-.79l1.16-1.53a3.91,3.91,0,0,0,.6.56,4,4,0,0,0,.64.4,3.26,3.26,0,0,0,.69.22,3.38,3.38,0,0,0,.72.07,3.31,3.31,0,0,0,1.08-.17,2,2,0,0,0,.79-.5,2,2,0,0,0,.47-.75,3.21,3.21,0,0,0,.16-1v-.67a3.16,3.16,0,0,1-.42.4,2.91,2.91,0,0,1-.46.32,4,4,0,0,1-.82.31,4.23,4.23,0,0,1-1,.11,3.77,3.77,0,0,1-1.76-.41,4.09,4.09,0,0,1-1.34-1.11,5.17,5.17,0,0,1-.85-1.71,7.19,7.19,0,0,1-.3-2.12v-.21A7.65,7.65,0,0,1,73.47,341.05Zm2.37,3.69a3.13,3.13,0,0,0,.43,1,2,2,0,0,0,.73.7,2.08,2.08,0,0,0,1.06.26,3.47,3.47,0,0,0,.68-.07,2.51,2.51,0,0,0,.56-.22,2.34,2.34,0,0,0,.45-.37,2.69,2.69,0,0,0,.34-.47v-4.56a2.78,2.78,0,0,0-.37-.51,1.85,1.85,0,0,0-.48-.35,2.08,2.08,0,0,0-.53-.2,2.53,2.53,0,0,0-.63-.07,2,2,0,0,0-1.8,1,3.38,3.38,0,0,0-.44,1.06,6,6,0,0,0-.14,1.3v.21A5.84,5.84,0,0,0,75.84,344.74Z" transform="translate(-0.93 -2.7)" style="fill:#fff"/><path d="M86.29,352.83c-.19,0-.4-.08-.61-.13l.33-1.95.44,0h.4a1,1,0,0,0,.59-.2,2.09,2.09,0,0,0,.45-.44c.13-.17.23-.3.29-.4l.22-.37.64-1.22-4.49-10.1h2.77l2.52,6.32.34,1.12.42-1.1,2.48-6.34h2.79l-5.36,12.16a8.29,8.29,0,0,1-.46.86,3.88,3.88,0,0,1-.7.87,3.7,3.7,0,0,1-1,.67,3.28,3.28,0,0,1-1.39.27A4.43,4.43,0,0,1,86.29,352.83Z" transform="translate(-0.93 -2.7)" style="fill:#fff"/><path d="M51.39,148.09a4.63,4.63,0,0,1-1,1.45,4.38,4.38,0,0,1-1.56.93,5.69,5.69,0,0,1-2,.33,5.61,5.61,0,0,1-1.62-.23,4.62,4.62,0,0,1-1.33-.67,5,5,0,0,1-1-1,6,6,0,0,1-.71-1.26,7.49,7.49,0,0,1-.43-1.5,10.26,10.26,0,0,1-.14-1.7v-1.93a9.49,9.49,0,0,1,.13-1.62,8.13,8.13,0,0,1,.41-1.45,5.84,5.84,0,0,1,.79-1.41A5.16,5.16,0,0,1,44.05,137a4.57,4.57,0,0,1,1.26-.6,5.13,5.13,0,0,1,1.5-.21,5.92,5.92,0,0,1,2,.33,4.54,4.54,0,0,1,1.54.95,4.49,4.49,0,0,1,1,1.49,6.54,6.54,0,0,1,.48,2H49.33a4.64,4.64,0,0,0-.21-1.13,2.29,2.29,0,0,0-.46-.83,2,2,0,0,0-.76-.52,2.93,2.93,0,0,0-1.09-.18,2.71,2.71,0,0,0-.71.1,2.21,2.21,0,0,0-1.24,1,3.91,3.91,0,0,0-.43,1,5.83,5.83,0,0,0-.2,1c0,.36,0,.75,0,1.15v2a12.43,12.43,0,0,0,.08,1.43,5.24,5.24,0,0,0,.28,1.15,3.15,3.15,0,0,0,.33.69,2.2,2.2,0,0,0,.47.53,1.92,1.92,0,0,0,.65.34,2.55,2.55,0,0,0,.81.12,3.24,3.24,0,0,0,1-.15,1.92,1.92,0,0,0,.76-.47,2.43,2.43,0,0,0,.5-.79,4,4,0,0,0,.23-1.13h2.55A5.7,5.7,0,0,1,51.39,148.09Z" transform="translate(-0.93 -2.7)" style="fill:#fff"/><path d="M54.15,143.08a4.84,4.84,0,0,1,1-1.7,4.46,4.46,0,0,1,1.55-1.14,5.09,5.09,0,0,1,2.09-.41,5.21,5.21,0,0,1,2.1.41,4.7,4.7,0,0,1,1.56,1.14,5.33,5.33,0,0,1,1,1.7,6.71,6.71,0,0,1,.33,2.14v.2a6.62,6.62,0,0,1-.33,2.14,5.27,5.27,0,0,1-1,1.71,4.5,4.5,0,0,1-1.55,1.13,5.16,5.16,0,0,1-2.09.4,5.22,5.22,0,0,1-2.11-.4,4.41,4.41,0,0,1-1.55-1.13,4.79,4.79,0,0,1-1-1.71,6.62,6.62,0,0,1-.34-2.14v-.2A6.71,6.71,0,0,1,54.15,143.08Zm2.33,3.64a3.09,3.09,0,0,0,.43,1.05,2.15,2.15,0,0,0,.76.74,2.28,2.28,0,0,0,1.11.26,2.21,2.21,0,0,0,1.08-.26,2,2,0,0,0,.75-.74,3.56,3.56,0,0,0,.43-1.05,6,6,0,0,0,.14-1.3v-.2a5.84,5.84,0,0,0-.14-1.28,3.74,3.74,0,0,0-.43-1.06,2,2,0,0,0-.75-.73,2.46,2.46,0,0,0-2.2,0,2.18,2.18,0,0,0-.75.73,3.24,3.24,0,0,0-.43,1.06,5.28,5.28,0,0,0-.15,1.28v.2A5.39,5.39,0,0,0,56.48,146.72Z" transform="translate(-0.93 -2.7)" style="fill:#fff"/><path d="M66.22,140H68.5l.16,1.48a5,5,0,0,1,.46-.55,5.37,5.37,0,0,1,.53-.44,4,4,0,0,1,1-.51,3.79,3.79,0,0,1,1.18-.18,4.28,4.28,0,0,1,1.47.24,3,3,0,0,1,1.16.74,3.54,3.54,0,0,1,.74,1.31,6.09,6.09,0,0,1,.26,1.93v6.55H73v-6.51a3.31,3.31,0,0,0-.14-1.07,1.67,1.67,0,0,0-.42-.67,1.5,1.5,0,0,0-.66-.35,3.85,3.85,0,0,0-.87-.1,3.06,3.06,0,0,0-.77.1,2.08,2.08,0,0,0-.62.29,1.9,1.9,0,0,0-.41.34,2.09,2.09,0,0,0-.33.45v7.52H66.22Z" transform="translate(-0.93 -2.7)" style="fill:#fff"/><path d="M83.66,148.64a2.14,2.14,0,0,0,.67-.35,1.58,1.58,0,0,0,.46-.54A1.51,1.51,0,0,0,85,147h2.38a3,3,0,0,1-.35,1.49,3.59,3.59,0,0,1-1,1.19,4.4,4.4,0,0,1-1.41.79,4.82,4.82,0,0,1-1.7.29,5.16,5.16,0,0,1-2.15-.42,4.43,4.43,0,0,1-1.54-1.14,5,5,0,0,1-.93-1.69,6.69,6.69,0,0,1-.32-2.07v-.31a6.6,6.6,0,0,1,.32-2.07,5,5,0,0,1,.93-1.7,4.45,4.45,0,0,1,1.54-1.15,5.56,5.56,0,0,1,3.92-.12,4.23,4.23,0,0,1,1.42.82,3.55,3.55,0,0,1,.92,1.27,3.91,3.91,0,0,1,.32,1.66H85a2,2,0,0,0-.14-.78,2.13,2.13,0,0,0-.43-.63,2.2,2.2,0,0,0-.67-.43,2.39,2.39,0,0,0-.86-.15,2.19,2.19,0,0,0-1.14.27,2.22,2.22,0,0,0-.72.74,3.2,3.2,0,0,0-.38,1,6.08,6.08,0,0,0-.12,1.22v.31a6.92,6.92,0,0,0,.11,1.22,2.86,2.86,0,0,0,.39,1.05,2,2,0,0,0,.72.74,2.13,2.13,0,0,0,1.15.28A2.4,2.4,0,0,0,83.66,148.64Z" transform="translate(-0.93 -2.7)" style="fill:#fff"/><path d="M93.07,150.4a5.18,5.18,0,0,1-1.69-1.09,4.7,4.7,0,0,1-1.08-1.62,5.14,5.14,0,0,1-.38-2v-.39a6.32,6.32,0,0,1,.38-2.23,5.27,5.27,0,0,1,1.07-1.72A4.74,4.74,0,0,1,93,140.23a5.05,5.05,0,0,1,2-.4,5,5,0,0,1,2,.39,4.13,4.13,0,0,1,1.5,1.06,4.5,4.5,0,0,1,.92,1.65,6.72,6.72,0,0,1,.31,2.11v1.07H92.47v0a4.21,4.21,0,0,0,.34,1.1,3.1,3.1,0,0,0,.59.77,2.92,2.92,0,0,0,.9.54,2.82,2.82,0,0,0,1.11.2,4.06,4.06,0,0,0,1.58-.32,3.12,3.12,0,0,0,1.23-.94l1.3,1.34a4.61,4.61,0,0,1-1.63,1.35,5.48,5.48,0,0,1-2.64.6A5.84,5.84,0,0,1,93.07,150.4Zm1-8.35a1.89,1.89,0,0,0-.7.49,2.7,2.7,0,0,0-.53.77,3.81,3.81,0,0,0-.3,1h4.7v-.2a2.34,2.34,0,0,0-.16-.86,2.18,2.18,0,0,0-.44-.72,2.22,2.22,0,0,0-.71-.48,2.43,2.43,0,0,0-1-.18A2.35,2.35,0,0,0,94.06,142.05Z" transform="translate(-0.93 -2.7)" style="fill:#fff"/><path d="M102.25,140h2.33l.09,1.06a3.57,3.57,0,0,1,.47-.48,3.53,3.53,0,0,1,.55-.37,3.24,3.24,0,0,1,.81-.3,4.06,4.06,0,0,1,1-.11,3.73,3.73,0,0,1,1.77.4,3.6,3.6,0,0,1,1.3,1.09,4.87,4.87,0,0,1,.8,1.7,7.91,7.91,0,0,1,.28,2.19v.21a7.67,7.67,0,0,1-.28,2.13,5.13,5.13,0,0,1-.79,1.7,3.66,3.66,0,0,1-3.06,1.54,4,4,0,0,1-1-.12,3,3,0,0,1-.85-.33,3.19,3.19,0,0,1-.44-.31,4.49,4.49,0,0,1-.4-.37v5h-2.52Zm6.69,3.89a3.5,3.5,0,0,0-.41-1.06,2.09,2.09,0,0,0-.72-.7,2,2,0,0,0-1-.26,3.14,3.14,0,0,0-.64.07,2.08,2.08,0,0,0-.53.2,2.4,2.4,0,0,0-.47.37,2.18,2.18,0,0,0-.35.51v4.55a2.23,2.23,0,0,0,.76.85,2.12,2.12,0,0,0,.55.23,3.13,3.13,0,0,0,.7.08,2,2,0,0,0,1-.27,2.07,2.07,0,0,0,.71-.73,3.34,3.34,0,0,0,.4-1.06,5.88,5.88,0,0,0,.13-1.29v-.2A6.56,6.56,0,0,0,108.94,143.92Z" transform="translate(-0.93 -2.7)" style="fill:#fff"/><path d="M119.06,140h4v1.87h-4v4.8a2.73,2.73,0,0,0,.14,1,1.43,1.43,0,0,0,1,1,2.71,2.71,0,0,0,.77.1l.63,0c.22,0,.43-.05.63-.09l.55-.08.44-.1.26,1.75a3.52,3.52,0,0,1-.64.27,7.37,7.37,0,0,1-.78.2c-.28.05-.57.09-.88.12s-.6,0-.9,0a4.9,4.9,0,0,1-1.52-.22,3,3,0,0,1-1.18-.71,3.05,3.05,0,0,1-.76-1.2,5.15,5.15,0,0,1-.27-1.77v-5H114V140h2.49v-2.58h2.53Z" transform="translate(-0.93 -2.7)" style="fill:#fff"/><path d="M171.55,273.2h3.6a6.86,6.86,0,0,1,1.79.22,6.26,6.26,0,0,1,1.52.64,5.06,5.06,0,0,1,1.19.92,5.9,5.9,0,0,1,.89,1.21,6.82,6.82,0,0,1,.63,1.64,7.87,7.87,0,0,1,.22,1.91v1.16a8.5,8.5,0,0,1-.2,1.84,7,7,0,0,1-.59,1.59,6.79,6.79,0,0,1-.88,1.24,5.43,5.43,0,0,1-1.11.94,5.62,5.62,0,0,1-1.54.67,6.6,6.6,0,0,1-1.81.24h-3.71Zm2.57,12.17h1.14a3.79,3.79,0,0,0,1-.14,3.17,3.17,0,0,0,.87-.41,2.81,2.81,0,0,0,.73-.69,4,4,0,0,0,.53-1,5.17,5.17,0,0,0,.27-1,7.82,7.82,0,0,0,.1-1.22v-1.18a7.41,7.41,0,0,0-.1-1.18,4.66,4.66,0,0,0-.28-1,3.59,3.59,0,0,0-.59-1,2.89,2.89,0,0,0-.86-.74,3.61,3.61,0,0,0-.83-.34,3.84,3.84,0,0,0-1-.12h-1Z" transform="translate(-0.93 -2.7)" style="fill:#fff"/><path d="M186.56,287.22a5.24,5.24,0,0,1-1.68-1.09,4.87,4.87,0,0,1-1.09-1.62,5.31,5.31,0,0,1-.38-2v-.39a6.16,6.16,0,0,1,.39-2.24,5.21,5.21,0,0,1,1.07-1.72,5,5,0,0,1,1.6-1.11,5.08,5.08,0,0,1,2-.39,5,5,0,0,1,2,.38,4.26,4.26,0,0,1,1.5,1.06,4.56,4.56,0,0,1,.91,1.65,6.72,6.72,0,0,1,.32,2.11v1.08H186v0a4.23,4.23,0,0,0,.35,1.09,2.56,2.56,0,0,0,.59.77,3,3,0,0,0,.89.55,3.08,3.08,0,0,0,1.11.19,3.88,3.88,0,0,0,1.58-.32,3,3,0,0,0,1.23-.94l1.3,1.34a4.57,4.57,0,0,1-1.62,1.35,5.49,5.49,0,0,1-2.65.6A5.87,5.87,0,0,1,186.56,287.22Zm1-8.35a2.06,2.06,0,0,0-.71.49,2.82,2.82,0,0,0-.52.77,3.81,3.81,0,0,0-.31,1h4.71V281a2.57,2.57,0,0,0-.16-.86,2.2,2.2,0,0,0-.45-.72,2.12,2.12,0,0,0-.71-.48,2.4,2.4,0,0,0-1-.18A2.3,2.3,0,0,0,187.56,278.87Z" transform="translate(-0.93 -2.7)" style="fill:#fff"/><path d="M202.46,284.07a1,1,0,0,0-.41-.37,3.4,3.4,0,0,0-.77-.31,10.6,10.6,0,0,0-1.22-.29,11.78,11.78,0,0,1-1.69-.46,5.65,5.65,0,0,1-1.3-.67,3,3,0,0,1-.85-.89,2.34,2.34,0,0,1-.3-1.19,2.56,2.56,0,0,1,.31-1.24,3.17,3.17,0,0,1,.88-1,4.38,4.38,0,0,1,1.4-.7,6,6,0,0,1,1.86-.26,6.44,6.44,0,0,1,1.93.26,4.45,4.45,0,0,1,1.45.7,3.24,3.24,0,0,1,.92,1.08,2.94,2.94,0,0,1,.31,1.35h-2.52a1.4,1.4,0,0,0-.1-.54,1.49,1.49,0,0,0-.32-.45,1.93,1.93,0,0,0-.68-.39,3,3,0,0,0-1-.15,4,4,0,0,0-.91.1,1.84,1.84,0,0,0-.63.29,1.14,1.14,0,0,0-.34.39.91.91,0,0,0-.13.48,1,1,0,0,0,.11.46.9.9,0,0,0,.36.37,2.43,2.43,0,0,0,.7.31,6.56,6.56,0,0,0,1.12.25,15.43,15.43,0,0,1,1.77.41,5.52,5.52,0,0,1,1.38.63,2.88,2.88,0,0,1,.91.93,2.41,2.41,0,0,1,.32,1.28,2.58,2.58,0,0,1-.33,1.29,3.13,3.13,0,0,1-.94,1,5,5,0,0,1-1.47.65,7.08,7.08,0,0,1-1.91.24,6.54,6.54,0,0,1-2.07-.3,4.78,4.78,0,0,1-1.5-.82,3.47,3.47,0,0,1-.92-1.12,2.92,2.92,0,0,1-.32-1.29H198a1.64,1.64,0,0,0,.26.78,1.68,1.68,0,0,0,.54.52,2.73,2.73,0,0,0,.77.29,4.38,4.38,0,0,0,1.86,0,2,2,0,0,0,.69-.29,1.25,1.25,0,0,0,.35-.38,1,1,0,0,0,.11-.45A1,1,0,0,0,202.46,284.07Z" transform="translate(-0.93 -2.7)" style="fill:#fff"/><path d="M214,276.85v8.5h3v2.07h-8.68v-2.07h3.14v-6.42h-3.14v-2.08Zm-2.65-3.27a1.23,1.23,0,0,1,.3-.44,1.24,1.24,0,0,1,.46-.27,1.64,1.64,0,0,1,.6-.1,1.47,1.47,0,0,1,1,.33,1.31,1.31,0,0,1,.12,1.76,1.27,1.27,0,0,1-.9.41,1.33,1.33,0,0,1-.56.07,1.19,1.19,0,0,1-.56-.18,1.06,1.06,0,0,1-.42-.42,1.21,1.21,0,0,1-.15-.6A1.47,1.47,0,0,1,211.38,273.58Z" transform="translate(-0.93 -2.7)" style="fill:#fff"/><path d="M219.73,279.86a5.27,5.27,0,0,1,.85-1.71,3.94,3.94,0,0,1,1.34-1.1,4,4,0,0,1,1.79-.39,4.09,4.09,0,0,1,1,.11,3,3,0,0,1,.84.34,2.38,2.38,0,0,1,.49.34,2.51,2.51,0,0,1,.42.44l.11-1h2.29v10.26a4.77,4.77,0,0,1-.36,1.9,3.82,3.82,0,0,1-1,1.4,4.38,4.38,0,0,1-1.54.87,6.34,6.34,0,0,1-2,.3,5.31,5.31,0,0,1-1-.1,6.22,6.22,0,0,1-1.08-.3,4.94,4.94,0,0,1-1-.53,3.45,3.45,0,0,1-.84-.78l1.17-1.53a3.89,3.89,0,0,0,.59.56,3.11,3.11,0,0,0,.65.39,3.18,3.18,0,0,0,.68.22,3.38,3.38,0,0,0,.72.08,3.26,3.26,0,0,0,1.08-.17,2.2,2.2,0,0,0,.8-.51,2,2,0,0,0,.46-.75,2.93,2.93,0,0,0,.16-1v-.68a4,4,0,0,1-.41.41,2.94,2.94,0,0,1-.47.31,3.32,3.32,0,0,1-.82.31,3.72,3.72,0,0,1-1,.11,3.81,3.81,0,0,1-1.77-.4,4,4,0,0,1-1.34-1.12,5.32,5.32,0,0,1-.85-1.7,7.67,7.67,0,0,1-.29-2.13v-.2A8,8,0,0,1,219.73,279.86Zm2.37,3.68a3.31,3.31,0,0,0,.43,1,2,2,0,0,0,.73.7,2.1,2.1,0,0,0,1.06.25,2.84,2.84,0,0,0,.68-.07,2,2,0,0,0,.56-.22,2,2,0,0,0,.45-.37,2.36,2.36,0,0,0,.34-.47v-4.55a1.94,1.94,0,0,0-.36-.51,1.72,1.72,0,0,0-.49-.36,1.94,1.94,0,0,0-.53-.19,2.48,2.48,0,0,0-.63-.07,2,2,0,0,0-1.06.26,2.15,2.15,0,0,0-.74.7,3.43,3.43,0,0,0-.43,1.07,5.34,5.34,0,0,0-.14,1.3v.2A5.78,5.78,0,0,0,222.1,283.54Z" transform="translate(-0.93 -2.7)" style="fill:#fff"/><path d="M231.72,276.85H234l.15,1.49a4.35,4.35,0,0,1,.47-.56,3.75,3.75,0,0,1,.53-.44,3.67,3.67,0,0,1,1-.51,4.1,4.1,0,0,1,1.18-.17,4.36,4.36,0,0,1,1.47.23,2.92,2.92,0,0,1,1.15.74,3.55,3.55,0,0,1,.75,1.31,6.46,6.46,0,0,1,.26,1.94v6.54h-2.52v-6.51a3.18,3.18,0,0,0-.15-1.06,1.38,1.38,0,0,0-.42-.67,1.52,1.52,0,0,0-.66-.36,3.75,3.75,0,0,0-.87-.09,3.13,3.13,0,0,0-.77.09,2.2,2.2,0,0,0-.62.29,2.64,2.64,0,0,0-.41.34,3.72,3.72,0,0,0-.33.45v7.52h-2.53Z" transform="translate(-0.93 -2.7)" style="fill:#fff"/><path d="M142.12,26.48v2.08h-2.91V38.63h2.91V40.7h-8.3V38.63h2.83V28.56h-2.83V26.48Z" transform="translate(-0.93 -2.7)" style="fill:#fff"/><path d="M147,31.35a2.6,2.6,0,0,1,.84-1,2.09,2.09,0,0,1,1.28-.38,2.42,2.42,0,0,1,.69.08,1.31,1.31,0,0,1,.52.28,1.57,1.57,0,0,1,.31.32,2.56,2.56,0,0,1,.21.44,2.29,2.29,0,0,1,.32-.43,2,2,0,0,1,.38-.32,2.23,2.23,0,0,1,.58-.28,2.65,2.65,0,0,1,.71-.09,2.27,2.27,0,0,1,.91.17,1.84,1.84,0,0,1,.74.54,2.89,2.89,0,0,1,.48,1,5.49,5.49,0,0,1,.17,1.45V40.7h-2.31V33.07a1.85,1.85,0,0,0-.07-.51.92.92,0,0,0-.19-.34.77.77,0,0,0-.27-.17,1.27,1.27,0,0,0-.34,0,1.18,1.18,0,0,0-.34,0,2.1,2.1,0,0,0-.26.13.86.86,0,0,0-.18.2.66.66,0,0,0-.11.24V40.7h-2.26V33.06a1.88,1.88,0,0,0-.06-.51.85.85,0,0,0-.16-.33.73.73,0,0,0-.28-.17,1.18,1.18,0,0,0-.34,0,1,1,0,0,0-.36.05.84.84,0,0,0-.28.18.62.62,0,0,0-.15.2,1.34,1.34,0,0,0-.12.24v8h-2.31V30.13h2.18Z" transform="translate(-0.93 -2.7)" style="fill:#fff"/><path d="M157.45,30.13h2.33l.1,1.06a3.51,3.51,0,0,1,.46-.48,3.25,3.25,0,0,1,.55-.36,2.9,2.9,0,0,1,.81-.31,4.07,4.07,0,0,1,1-.1,3.92,3.92,0,0,1,1.78.39,3.78,3.78,0,0,1,1.3,1.09,5.25,5.25,0,0,1,.8,1.7,8.31,8.31,0,0,1,.27,2.19v.21a8.07,8.07,0,0,1-.27,2.13,5.56,5.56,0,0,1-.79,1.7,3.9,3.9,0,0,1-1.3,1.13,3.67,3.67,0,0,1-1.77.41,4,4,0,0,1-1-.12,3.13,3.13,0,0,1-.85-.33,4.27,4.27,0,0,1-.44-.3c-.13-.12-.27-.24-.4-.38v5h-2.52ZM164.14,34a3.26,3.26,0,0,0-.41-1.06,2.07,2.07,0,0,0-.71-.7A2,2,0,0,0,162,32a3.27,3.27,0,0,0-.65.06,2.24,2.24,0,0,0-.53.2,2.08,2.08,0,0,0-.46.37,1.94,1.94,0,0,0-.36.51V37.7a2.56,2.56,0,0,0,.33.48,2.27,2.27,0,0,0,.44.37,2,2,0,0,0,.55.23,3,3,0,0,0,.7.08,1.94,1.94,0,0,0,1-.27,2.07,2.07,0,0,0,.71-.73,3.12,3.12,0,0,0,.4-1.06,5.88,5.88,0,0,0,.13-1.29v-.2A5.88,5.88,0,0,0,164.14,34Z" transform="translate(-0.93 -2.7)" style="fill:#fff"/><path d="M175.74,25.7V38.63h3.11V40.7h-8.92V38.63h3.26V27.78h-3.26V25.7Z" transform="translate(-0.93 -2.7)" style="fill:#fff"/><path d="M184.28,40.5a5.18,5.18,0,0,1-1.69-1.09,4.7,4.7,0,0,1-1.08-1.62,5.14,5.14,0,0,1-.38-2v-.39a6.11,6.11,0,0,1,.38-2.23,5.38,5.38,0,0,1,1.07-1.72,4.74,4.74,0,0,1,1.61-1.11,5,5,0,0,1,2-.39,5,5,0,0,1,2,.38,4.13,4.13,0,0,1,1.5,1.06,4.65,4.65,0,0,1,.92,1.65,6.72,6.72,0,0,1,.31,2.11v1.07h-7.26v0a4.6,4.6,0,0,0,.35,1.1,2.88,2.88,0,0,0,.59.77,2.94,2.94,0,0,0,.9.55,3,3,0,0,0,1.1.19,4.1,4.1,0,0,0,1.59-.32,3.12,3.12,0,0,0,1.23-.94l1.3,1.34a4.61,4.61,0,0,1-1.63,1.35,5.48,5.48,0,0,1-2.64.6A5.84,5.84,0,0,1,184.28,40.5Zm1-8.35a2.15,2.15,0,0,0-.71.49,2.67,2.67,0,0,0-.52.77,4.21,4.21,0,0,0-.31,1h4.71v-.2a2.34,2.34,0,0,0-.16-.86,2.08,2.08,0,0,0-1.15-1.2,2.43,2.43,0,0,0-1-.18A2.35,2.35,0,0,0,185.27,32.15Z" transform="translate(-0.93 -2.7)" style="fill:#fff"/><path d="M195,31.35a2.52,2.52,0,0,1,.84-1,2.09,2.09,0,0,1,1.28-.38,2.47,2.47,0,0,1,.69.08,1.38,1.38,0,0,1,.52.28,1.57,1.57,0,0,1,.31.32,2.56,2.56,0,0,1,.21.44,2.09,2.09,0,0,1,.69-.75,2.29,2.29,0,0,1,.59-.28,2.6,2.6,0,0,1,.71-.09,2.27,2.27,0,0,1,.91.17,1.81,1.81,0,0,1,.73.54,2.73,2.73,0,0,1,.49,1,5.49,5.49,0,0,1,.17,1.45V40.7h-2.32V33.07a1.53,1.53,0,0,0-.07-.51.79.79,0,0,0-.18-.34.77.77,0,0,0-.27-.17,1.29,1.29,0,0,0-.35,0,1.15,1.15,0,0,0-.33,0,1.58,1.58,0,0,0-.26.13.86.86,0,0,0-.18.2.66.66,0,0,0-.11.24V40.7h-2.26V33.06a1.88,1.88,0,0,0-.06-.51.74.74,0,0,0-.17-.33.62.62,0,0,0-.27-.17,1.22,1.22,0,0,0-.34,0,1,1,0,0,0-.36.05.88.88,0,0,0-.29.18,1.15,1.15,0,0,0-.15.2,1.33,1.33,0,0,0-.11.24v8h-2.31V30.13h2.17Z" transform="translate(-0.93 -2.7)" style="fill:#fff"/><path d="M208.28,40.5a5.18,5.18,0,0,1-1.69-1.09,4.84,4.84,0,0,1-1.08-1.62,5.33,5.33,0,0,1-.38-2v-.39a6.1,6.1,0,0,1,.39-2.23,5.19,5.19,0,0,1,1.06-1.72,4.84,4.84,0,0,1,1.61-1.11,5.08,5.08,0,0,1,2-.39,5,5,0,0,1,2,.38,4.18,4.18,0,0,1,1.49,1.06,4.5,4.5,0,0,1,.92,1.65,6.72,6.72,0,0,1,.31,2.11v1.07h-7.25v0a3.85,3.85,0,0,0,.35,1.1,2.69,2.69,0,0,0,.59.77,2.89,2.89,0,0,0,.89.55,3,3,0,0,0,1.11.19,4.06,4.06,0,0,0,1.58-.32,3.12,3.12,0,0,0,1.23-.94l1.3,1.34a4.61,4.61,0,0,1-1.63,1.35,5.48,5.48,0,0,1-2.64.6A5.84,5.84,0,0,1,208.28,40.5Zm1-8.35a2.06,2.06,0,0,0-.71.49,2.92,2.92,0,0,0-.53.77,3.81,3.81,0,0,0-.3,1h4.7v-.2a2.34,2.34,0,0,0-.16-.86,2,2,0,0,0-.44-.72,2.22,2.22,0,0,0-.71-.48,2.43,2.43,0,0,0-1-.18A2.3,2.3,0,0,0,209.28,32.15Z" transform="translate(-0.93 -2.7)" style="fill:#fff"/><path d="M217.43,30.13h2.29l.16,1.48a4.06,4.06,0,0,1,.46-.55,4.42,4.42,0,0,1,.53-.44,3.71,3.71,0,0,1,2.21-.68,4.36,4.36,0,0,1,1.47.23,3,3,0,0,1,1.16.74,3.68,3.68,0,0,1,.74,1.31,6.39,6.39,0,0,1,.26,1.93V40.7h-2.52V34.19a3.61,3.61,0,0,0-.14-1.07,1.67,1.67,0,0,0-.42-.67,1.75,1.75,0,0,0-.66-.35,3.91,3.91,0,0,0-.88-.09,3,3,0,0,0-.76.09,2.08,2.08,0,0,0-.62.29,1.9,1.9,0,0,0-.41.34,2.53,2.53,0,0,0-.34.45V40.7h-2.53Z" transform="translate(-0.93 -2.7)" style="fill:#fff"/><path d="M234.27,30.13h4V32h-4V36.8a3,3,0,0,0,.14,1,1.48,1.48,0,0,0,.38.61,1.38,1.38,0,0,0,.6.34,2.78,2.78,0,0,0,.78.1l.62,0c.22,0,.43,0,.63-.09l.56-.08.43-.1.26,1.75a3.72,3.72,0,0,1-.63.27c-.25.08-.51.14-.79.2s-.57.09-.87.12-.61,0-.91,0a4.9,4.9,0,0,1-1.52-.22,2.9,2.9,0,0,1-1.17-.71,3,3,0,0,1-.77-1.2,5.09,5.09,0,0,1-.27-1.76V32h-2.49V30.13h2.49V27.55h2.53Z" transform="translate(-0.93 -2.7)" style="fill:#fff"/><path d="M247.94,40.23c0-.18-.08-.36-.11-.56a3.53,3.53,0,0,1-.53.48,4.32,4.32,0,0,1-.67.38,3.67,3.67,0,0,1-.81.26,4,4,0,0,1-.93.1,4.72,4.72,0,0,1-1.5-.23,3.45,3.45,0,0,1-1.16-.66,2.86,2.86,0,0,1-.76-1,2.89,2.89,0,0,1-.27-1.25,3.38,3.38,0,0,1,.35-1.56,2.82,2.82,0,0,1,1-1.11,4.7,4.7,0,0,1,1.52-.62,9.13,9.13,0,0,1,2.06-.21h1.61v-.66a2,2,0,0,0-.13-.72,1.41,1.41,0,0,0-.38-.53,1.71,1.71,0,0,0-.65-.36,2.73,2.73,0,0,0-.89-.13,2.36,2.36,0,0,0-.79.11,1.45,1.45,0,0,0-.55.3,1,1,0,0,0-.3.42,1.42,1.42,0,0,0-.1.55h-2.53a2.74,2.74,0,0,1,.3-1.25,3.27,3.27,0,0,1,.86-1.05A4.31,4.31,0,0,1,244,30.2a6,6,0,0,1,1.86-.26,6.58,6.58,0,0,1,1.76.22,4.58,4.58,0,0,1,1.42.69,3.23,3.23,0,0,1,.92,1.15,3.57,3.57,0,0,1,.35,1.61v4.61a7.48,7.48,0,0,0,.1,1.34,3.57,3.57,0,0,0,.31,1v.17h-2.58A2.32,2.32,0,0,1,247.94,40.23ZM246.2,38.8a2.77,2.77,0,0,0,.68-.28,2.28,2.28,0,0,0,.52-.39,2,2,0,0,0,.35-.44V35.8H246.3a5.12,5.12,0,0,0-1.2.13,2.34,2.34,0,0,0-.81.37,1.37,1.37,0,0,0-.42.54,1.57,1.57,0,0,0-.15.68,1.47,1.47,0,0,0,.11.56,1.12,1.12,0,0,0,.32.45,1.7,1.7,0,0,0,.52.27,2.28,2.28,0,0,0,.72.1A2.9,2.9,0,0,0,246.2,38.8Z" transform="translate(-0.93 -2.7)" style="fill:#fff"/><path d="M258.27,30.13h4V32h-4V36.8a3,3,0,0,0,.14,1,1.48,1.48,0,0,0,.38.61,1.36,1.36,0,0,0,.61.34,2.66,2.66,0,0,0,.77.1l.63,0c.22,0,.43,0,.63-.09l.55-.08.43-.1.27,1.75a3.85,3.85,0,0,1-.64.27c-.25.08-.51.14-.79.2s-.57.09-.87.12-.61,0-.9,0a4.85,4.85,0,0,1-1.52-.22,3,3,0,0,1-1.18-.71,3.07,3.07,0,0,1-.77-1.2,5.1,5.1,0,0,1-.26-1.76V32h-2.5V30.13h2.5V27.55h2.52Z" transform="translate(-0.93 -2.7)" style="fill:#fff"/><path d="M271.75,30.13v8.5h3V40.7h-8.67V38.63h3.13V32.21h-3.13V30.13Zm-2.65-3.27a1.4,1.4,0,0,1,.31-.44,1.13,1.13,0,0,1,.45-.27,1.64,1.64,0,0,1,.6-.1,1.45,1.45,0,0,1,1,.33,1.29,1.29,0,0,1,.12,1.76,1.27,1.27,0,0,1-.89.41,1.38,1.38,0,0,1-.57.07,1.36,1.36,0,0,1-.56-.18,1.06,1.06,0,0,1-.42-.42,1.33,1.33,0,0,1-.14-.6A1.43,1.43,0,0,1,269.1,26.86Z" transform="translate(-0.93 -2.7)" style="fill:#fff"/><path d="M277.38,33.18a4.84,4.84,0,0,1,1-1.7,4.32,4.32,0,0,1,1.55-1.13,4.92,4.92,0,0,1,2.08-.41,5,5,0,0,1,2.1.41,4.48,4.48,0,0,1,1.57,1.13,5.13,5.13,0,0,1,1,1.7,6.45,6.45,0,0,1,.34,2.14v.2a6.36,6.36,0,0,1-.34,2.14,5.08,5.08,0,0,1-1,1.71,4.45,4.45,0,0,1-1.56,1.13,5.09,5.09,0,0,1-2.09.4,5.21,5.21,0,0,1-2.1-.4,4.32,4.32,0,0,1-1.55-1.13,4.79,4.79,0,0,1-1-1.71,6.36,6.36,0,0,1-.34-2.14v-.2A6.45,6.45,0,0,1,277.38,33.18Zm2.32,3.64a3.23,3.23,0,0,0,.44,1,2.07,2.07,0,0,0,.76.74,2.44,2.44,0,0,0,2.19,0,2.12,2.12,0,0,0,.75-.74,3.45,3.45,0,0,0,.43-1,6,6,0,0,0,.14-1.3v-.2a5.84,5.84,0,0,0-.14-1.28,3.74,3.74,0,0,0-.43-1.06A2,2,0,0,0,282,32a2.12,2.12,0,0,0-1.09.26,2.18,2.18,0,0,0-.75.73A3.48,3.48,0,0,0,279.7,34a5.84,5.84,0,0,0-.14,1.28v.2A6,6,0,0,0,279.7,36.82Z" transform="translate(-0.93 -2.7)" style="fill:#fff"/><path d="M289.45,30.13h2.28l.16,1.48a5,5,0,0,1,.46-.55,4.42,4.42,0,0,1,.53-.44,4,4,0,0,1,1-.51,3.78,3.78,0,0,1,1.18-.17,4.36,4.36,0,0,1,1.47.23,3,3,0,0,1,1.16.74,3.54,3.54,0,0,1,.74,1.31,6.09,6.09,0,0,1,.26,1.93V40.7H296.2V34.19a3.61,3.61,0,0,0-.14-1.07,1.67,1.67,0,0,0-.42-.67,1.75,1.75,0,0,0-.66-.35,3.91,3.91,0,0,0-.88-.09,3,3,0,0,0-.76.09,2.08,2.08,0,0,0-.62.29,1.9,1.9,0,0,0-.41.34,2.09,2.09,0,0,0-.33.45V40.7h-2.53Z" transform="translate(-0.93 -2.7)" style="fill:#fff"/><circle cx="215.06" cy="63.17" r="12.51" style="fill:#fff"/><circle cx="304.41" cy="118.7" r="12.51" transform="translate(4.3 247.32) rotate(-45)" style="fill:#fff"/><path d="M266.33,154.19v5.41h-2.55V145.38h4.65a7.48,7.48,0,0,1,2.08.28,4.76,4.76,0,0,1,1.62.82,3.42,3.42,0,0,1,1,1.33,4.32,4.32,0,0,1,.37,1.86,4.41,4.41,0,0,1-.19,1.35,3.65,3.65,0,0,1-.51,1.07,3.94,3.94,0,0,1-.83.85,5.82,5.82,0,0,1-1.06.63l3.05,5.91v.12h-2.73l-2.69-5.41Zm2.12-2.08a3.25,3.25,0,0,0,1.12-.18,2.1,2.1,0,0,0,.82-.52,1.9,1.9,0,0,0,.44-.69,2.59,2.59,0,0,0,.15-.91,2.8,2.8,0,0,0-.18-1,1.86,1.86,0,0,0-.53-.75,2.48,2.48,0,0,0-.79-.42,3.41,3.41,0,0,0-1.05-.15h-2.1v4.66Z" transform="translate(-0.93 -2.7)" style="fill:#fff"/><path d="M278.7,159.4a4.83,4.83,0,0,1-1.68-1.09,4.73,4.73,0,0,1-1.09-1.61,5.33,5.33,0,0,1-.38-2v-.39a6.1,6.1,0,0,1,.39-2.23,5.1,5.1,0,0,1,1.07-1.73,4.81,4.81,0,0,1,1.6-1.1,4.91,4.91,0,0,1,2-.4,5.17,5.17,0,0,1,2,.38,4.24,4.24,0,0,1,1.49,1.07,4.46,4.46,0,0,1,.92,1.64,6.78,6.78,0,0,1,.32,2.12v1.07H278.1v0a3.77,3.77,0,0,0,.35,1.09,2.44,2.44,0,0,0,.59.77,2.82,2.82,0,0,0,.89.55,3.08,3.08,0,0,0,1.11.2,3.89,3.89,0,0,0,1.58-.33,3,3,0,0,0,1.23-.93l1.3,1.33a4.44,4.44,0,0,1-1.63,1.36,5.45,5.45,0,0,1-2.64.6A5.64,5.64,0,0,1,278.7,159.4Zm1-8.34a1.93,1.93,0,0,0-.71.49,2.67,2.67,0,0,0-.52.77,3.85,3.85,0,0,0-.31,1h4.71v-.19a2.31,2.31,0,0,0-.17-.86,2,2,0,0,0-.44-.72,2.1,2.1,0,0,0-.71-.49,2.43,2.43,0,0,0-1-.18A2.3,2.3,0,0,0,279.7,151.06Z" transform="translate(-0.93 -2.7)" style="fill:#fff"/><path d="M294.16,144.6v12.93h3.12v2.07h-8.92v-2.07h3.26V146.68h-3.26V144.6Z" transform="translate(-0.93 -2.7)" style="fill:#fff"/><path d="M302.7,159.4a4.93,4.93,0,0,1-1.68-1.09,4.57,4.57,0,0,1-1.08-1.61,5.14,5.14,0,0,1-.39-2v-.39a6.1,6.1,0,0,1,.39-2.23,5.26,5.26,0,0,1,1.07-1.73,5,5,0,0,1,3.59-1.5,5.14,5.14,0,0,1,2,.38,4.28,4.28,0,0,1,1.5,1.07,4.6,4.6,0,0,1,.92,1.64,6.79,6.79,0,0,1,.31,2.12v1.07H302.1v0a4.11,4.11,0,0,0,.35,1.09,2.59,2.59,0,0,0,.59.77,2.82,2.82,0,0,0,.89.55,3.08,3.08,0,0,0,1.11.2,3.86,3.86,0,0,0,1.58-.33,3,3,0,0,0,1.24-.93l1.29,1.33a4.4,4.4,0,0,1-1.62,1.36,5.48,5.48,0,0,1-2.64.6A5.73,5.73,0,0,1,302.7,159.4Zm1-8.34a1.93,1.93,0,0,0-.71.49,2.67,2.67,0,0,0-.52.77,4.27,4.27,0,0,0-.31,1h4.71v-.19a2.3,2.3,0,0,0-.16-.86,2.2,2.2,0,0,0-.45-.72,2.06,2.06,0,0,0-.7-.49,2.45,2.45,0,0,0-1-.18A2.34,2.34,0,0,0,303.7,151.06Z" transform="translate(-0.93 -2.7)" style="fill:#fff"/><path d="M318.36,159.14a5,5,0,0,1-.1-.56,4.14,4.14,0,0,1-.54.47,3.36,3.36,0,0,1-.67.39,3.67,3.67,0,0,1-.81.26,4,4,0,0,1-.93.1,4.45,4.45,0,0,1-1.5-.24,3.27,3.27,0,0,1-1.16-.65,2.86,2.86,0,0,1-.76-1,3,3,0,0,1-.27-1.26,3.37,3.37,0,0,1,.35-1.55,2.75,2.75,0,0,1,1-1.11,4.48,4.48,0,0,1,1.52-.62,9.13,9.13,0,0,1,2.06-.21h1.61v-.67a1.8,1.8,0,0,0-.13-.71,1.36,1.36,0,0,0-.38-.54,2,2,0,0,0-.65-.36,3,3,0,0,0-.89-.13,2.69,2.69,0,0,0-.79.11,1.34,1.34,0,0,0-.55.31.91.91,0,0,0-.3.42,1.4,1.4,0,0,0-.1.54h-2.53a2.7,2.7,0,0,1,.3-1.24,3.07,3.07,0,0,1,.86-1,4.31,4.31,0,0,1,1.38-.73,6,6,0,0,1,1.86-.27,6.52,6.52,0,0,1,1.76.23,4.17,4.17,0,0,1,1.42.69,3.28,3.28,0,0,1,.93,1.15,3.66,3.66,0,0,1,.34,1.6v4.61a7.4,7.4,0,0,0,.1,1.34,3.64,3.64,0,0,0,.31,1v.16h-2.58A2.22,2.22,0,0,1,318.36,159.14Zm-1.74-1.44a2.77,2.77,0,0,0,.68-.28,2.25,2.25,0,0,0,.52-.38,2.29,2.29,0,0,0,.35-.45v-1.88h-1.45a4.63,4.63,0,0,0-1.2.13,2.17,2.17,0,0,0-.81.37,1.37,1.37,0,0,0-.42.54,1.51,1.51,0,0,0-.15.68,1.47,1.47,0,0,0,.11.56,1.16,1.16,0,0,0,.32.44,1.5,1.5,0,0,0,.52.27,2.27,2.27,0,0,0,.72.11A2.88,2.88,0,0,0,316.62,157.7Z" transform="translate(-0.93 -2.7)" style="fill:#fff"/><path d="M330.6,156.26a1.05,1.05,0,0,0-.4-.38,4.06,4.06,0,0,0-.78-.31,10.6,10.6,0,0,0-1.21-.28,11.75,11.75,0,0,1-1.69-.47,5.11,5.11,0,0,1-1.3-.67,2.76,2.76,0,0,1-.85-.89,2.31,2.31,0,0,1-.3-1.19,2.7,2.7,0,0,1,.3-1.24,3.07,3.07,0,0,1,.89-1,4.29,4.29,0,0,1,1.4-.71,6.26,6.26,0,0,1,1.85-.26,6.73,6.73,0,0,1,1.93.26,4.52,4.52,0,0,1,1.46.71,3,3,0,0,1,.91,1.08,2.91,2.91,0,0,1,.32,1.34h-2.52a1.32,1.32,0,0,0-.11-.53,1.38,1.38,0,0,0-.31-.46,2,2,0,0,0-.68-.39,3,3,0,0,0-1-.14,3.39,3.39,0,0,0-.9.1,1.67,1.67,0,0,0-.63.29,1.18,1.18,0,0,0-.35.39,1,1,0,0,0-.12.48,1,1,0,0,0,.1.45,1,1,0,0,0,.37.38,2.81,2.81,0,0,0,.69.31,8.17,8.17,0,0,0,1.12.24,13.54,13.54,0,0,1,1.77.42,5.09,5.09,0,0,1,1.39.63,3,3,0,0,1,.91.93,2.44,2.44,0,0,1,.32,1.27,2.58,2.58,0,0,1-.33,1.29,3.36,3.36,0,0,1-.94,1,5,5,0,0,1-1.47.66,7.13,7.13,0,0,1-1.91.24,6.26,6.26,0,0,1-2.07-.31,4.67,4.67,0,0,1-1.5-.82,3.28,3.28,0,0,1-.93-1.12,2.86,2.86,0,0,1-.32-1.29h2.43a1.57,1.57,0,0,0,.25.78,1.61,1.61,0,0,0,.55.52,2.18,2.18,0,0,0,.76.29,4.28,4.28,0,0,0,.87.09,3.73,3.73,0,0,0,1-.11,2,2,0,0,0,.69-.29,1.18,1.18,0,0,0,.34-.37.93.93,0,0,0,.12-.46A.88.88,0,0,0,330.6,156.26Z" transform="translate(-0.93 -2.7)" style="fill:#fff"/><path d="M338.71,159.4a4.83,4.83,0,0,1-1.68-1.09,4.73,4.73,0,0,1-1.09-1.61,5.33,5.33,0,0,1-.38-2v-.39a6.1,6.1,0,0,1,.39-2.23,5.1,5.1,0,0,1,1.07-1.73,4.81,4.81,0,0,1,1.6-1.1,4.91,4.91,0,0,1,2-.4,5.17,5.17,0,0,1,2,.38,4.24,4.24,0,0,1,1.49,1.07,4.46,4.46,0,0,1,.92,1.64,6.78,6.78,0,0,1,.32,2.12v1.07h-7.26v0a3.77,3.77,0,0,0,.35,1.09,2.44,2.44,0,0,0,.59.77,2.72,2.72,0,0,0,.89.55,3.08,3.08,0,0,0,1.11.2,3.89,3.89,0,0,0,1.58-.33,3,3,0,0,0,1.23-.93l1.3,1.33a4.53,4.53,0,0,1-1.63,1.36,5.45,5.45,0,0,1-2.64.6A5.64,5.64,0,0,1,338.71,159.4Zm1-8.34a1.93,1.93,0,0,0-.71.49,2.67,2.67,0,0,0-.52.77,3.85,3.85,0,0,0-.31,1h4.71v-.19a2.31,2.31,0,0,0-.17-.86,2,2,0,0,0-.44-.72,2.1,2.1,0,0,0-.71-.49,2.43,2.43,0,0,0-1-.18A2.3,2.3,0,0,0,339.71,151.06Z" transform="translate(-0.93 -2.7)" style="fill:#fff"/><path d="M324.64,12.64a2,2,0,0,0-.51-.66,3.92,3.92,0,0,0-.87-.52A9.65,9.65,0,0,0,322,11a10.78,10.78,0,0,1-2-.74,5.93,5.93,0,0,1-1.44-1,3.86,3.86,0,0,1-.9-1.21,3.41,3.41,0,0,1-.31-1.48A3.41,3.41,0,0,1,317.8,5a3.71,3.71,0,0,1,1.06-1.24A5.09,5.09,0,0,1,320.42,3a6.72,6.72,0,0,1,1.93-.27,6.11,6.11,0,0,1,2,.32,4.67,4.67,0,0,1,1.57.9,4.05,4.05,0,0,1,1.41,3.13h-2.5a2.75,2.75,0,0,0-.2-.93,2.09,2.09,0,0,0-.47-.72,2.17,2.17,0,0,0-.78-.47,2.87,2.87,0,0,0-1.06-.18,3.31,3.31,0,0,0-1,.14,2.41,2.41,0,0,0-.75.38,1.72,1.72,0,0,0-.48.6,1.77,1.77,0,0,0-.17.77,1.43,1.43,0,0,0,.22.79,2,2,0,0,0,.62.6,4.37,4.37,0,0,0,.94.49,10.24,10.24,0,0,0,1.18.38,12.9,12.9,0,0,1,1.44.52,7,7,0,0,1,1.26.73,4.85,4.85,0,0,1,1.28,1.4,3.49,3.49,0,0,1,.47,1.87,3.53,3.53,0,0,1-.38,1.66,3.65,3.65,0,0,1-1.06,1.22,4.86,4.86,0,0,1-1.57.75,7.25,7.25,0,0,1-4-.07,5.55,5.55,0,0,1-1.79-.94,4.48,4.48,0,0,1-1.12-1.41,4.09,4.09,0,0,1-.43-1.87h2.52a3,3,0,0,0,.25,1.11,2.22,2.22,0,0,0,1.5,1.23,4.16,4.16,0,0,0,1.15.15,3.78,3.78,0,0,0,1-.12,2.81,2.81,0,0,0,.76-.36,1.71,1.71,0,0,0,.49-.58,1.61,1.61,0,0,0,.18-.76A1.91,1.91,0,0,0,324.64,12.64Z" transform="translate(-0.93 -2.7)" style="fill:#fff"/><path d="M336.25,15.66a4,4,0,0,1-1.3,1.23,3.26,3.26,0,0,1-1.69.45,4.55,4.55,0,0,1-1.51-.26,2.84,2.84,0,0,1-1.16-.81,3.89,3.89,0,0,1-.75-1.4,6.88,6.88,0,0,1-.27-2V6.56h2.53v6.28a5.34,5.34,0,0,0,.1,1.15,1.93,1.93,0,0,0,.32.75,1.26,1.26,0,0,0,.56.41,2.55,2.55,0,0,0,.83.12,3.6,3.6,0,0,0,.85-.1,2.48,2.48,0,0,0,.66-.28,1.9,1.9,0,0,0,.42-.38,2.53,2.53,0,0,0,.31-.49V6.57h2.54V17.14h-2.3Z" transform="translate(-0.93 -2.7)" style="fill:#fff"/><path d="M341.53,6.57h2.33L344,7.64a3.57,3.57,0,0,1,.47-.48,3.53,3.53,0,0,1,.55-.37,3.24,3.24,0,0,1,.81-.3,4.07,4.07,0,0,1,1-.1,3.92,3.92,0,0,1,1.78.39,3.76,3.76,0,0,1,1.29,1.09,5.2,5.2,0,0,1,.8,1.71,8.29,8.29,0,0,1,.27,2.18V12a8.07,8.07,0,0,1-.27,2.13,5.29,5.29,0,0,1-.8,1.69,3.6,3.6,0,0,1-3.07,1.54,3.92,3.92,0,0,1-1-.12,3,3,0,0,1-.85-.33,2.69,2.69,0,0,1-.44-.31,4.61,4.61,0,0,1-.4-.37v5h-2.52Zm6.68,3.9a3.6,3.6,0,0,0-.4-1.06,2.19,2.19,0,0,0-.72-.7,2,2,0,0,0-1-.25,3.16,3.16,0,0,0-.64.06,2.08,2.08,0,0,0-.53.2,2.13,2.13,0,0,0-.47.37,1.92,1.92,0,0,0-.35.51v4.55a2.45,2.45,0,0,0,.76.85,2.53,2.53,0,0,0,.55.23,3.13,3.13,0,0,0,.7.08A2,2,0,0,0,347.1,15a2.13,2.13,0,0,0,.71-.72,3.4,3.4,0,0,0,.4-1.07,5.88,5.88,0,0,0,.13-1.29v-.2A5.88,5.88,0,0,0,348.21,10.47Z" transform="translate(-0.93 -2.7)" style="fill:#fff"/><path d="M353.53,6.59h2.33l.1,1.07a3.07,3.07,0,0,1,.46-.49,3.39,3.39,0,0,1,1.36-.66,4.06,4.06,0,0,1,1-.11,3.92,3.92,0,0,1,1.78.39,3.79,3.79,0,0,1,1.29,1.1,5,5,0,0,1,.8,1.7,8,8,0,0,1,.27,2.19V12a8.07,8.07,0,0,1-.27,2.13,5.35,5.35,0,0,1-.8,1.7,3.66,3.66,0,0,1-3.06,1.54,4,4,0,0,1-1-.12,3.76,3.76,0,0,1-.85-.33,3.47,3.47,0,0,1-.44-.31c-.13-.12-.27-.24-.4-.38v5h-2.52Zm6.68,3.9a3.25,3.25,0,0,0-.4-1.06,2.09,2.09,0,0,0-.72-.7,2,2,0,0,0-1-.26,2.56,2.56,0,0,0-.64.07,2.07,2.07,0,0,0-.53.19,2.84,2.84,0,0,0-.47.37,2.7,2.7,0,0,0-.35.51v4.55a2.39,2.39,0,0,0,.33.48,2,2,0,0,0,.44.37,1.72,1.72,0,0,0,.55.23,2.5,2.5,0,0,0,.69.09,2,2,0,0,0,1.05-.27,2.07,2.07,0,0,0,.71-.73,3.35,3.35,0,0,0,.41-1.06,6.65,6.65,0,0,0,.12-1.29v-.21A5.29,5.29,0,0,0,360.21,10.49Z" transform="translate(-0.93 -2.7)" style="fill:#fff"/><path d="M365.44,9.66a4.88,4.88,0,0,1,1-1.71A4.53,4.53,0,0,1,368,6.82a5.62,5.62,0,0,1,4.19,0A4.54,4.54,0,0,1,373.71,8a5.17,5.17,0,0,1,1,1.71A6.61,6.61,0,0,1,375,11.8V12a6.67,6.67,0,0,1-.33,2.14,4.88,4.88,0,0,1-1,1.7A4.32,4.32,0,0,1,372.14,17a5.09,5.09,0,0,1-2.09.4A5,5,0,0,1,368,17a4.29,4.29,0,0,1-1.55-1.13,4.84,4.84,0,0,1-1-1.7A6.71,6.71,0,0,1,365.1,12v-.21A6.34,6.34,0,0,1,365.44,9.66Zm2.32,3.64a3.31,3.31,0,0,0,.43,1,2.15,2.15,0,0,0,.76.74,2.28,2.28,0,0,0,1.11.26,2.21,2.21,0,0,0,1.08-.26,2.1,2.1,0,0,0,.75-.73,3.27,3.27,0,0,0,.43-1.06,5.34,5.34,0,0,0,.14-1.3v-.2a5.34,5.34,0,0,0-.14-1.28,3.46,3.46,0,0,0-.42-1.06,2.1,2.1,0,0,0-.75-.73,2.24,2.24,0,0,0-1.1-.26,2.13,2.13,0,0,0-1.1.26,2.1,2.1,0,0,0-.75.73,3.48,3.48,0,0,0-.44,1.06,5.75,5.75,0,0,0-.14,1.27V12A6,6,0,0,0,367.76,13.3Z" transform="translate(-0.93 -2.7)" style="fill:#fff"/><path d="M386.07,6.51a6,6,0,0,1,.84.19l-.37,2.51A8.15,8.15,0,0,0,385.46,9a9.57,9.57,0,0,0-1-.07,4.46,4.46,0,0,0-1,.11,2.67,2.67,0,0,0-.79.32,2.45,2.45,0,0,0-.67.57,2.9,2.9,0,0,0-.46.81v6.43h-2.53V6.62h2.36l.1,1.47,0,.24A5,5,0,0,1,383,6.94a4,4,0,0,1,2-.51A9.65,9.65,0,0,1,386.07,6.51Z" transform="translate(-0.93 -2.7)" style="fill:#fff"/><path d="M394.34,6.64h4V8.52h-4v4.79a3,3,0,0,0,.13,1,1.48,1.48,0,0,0,.38.61,1.38,1.38,0,0,0,.61.35,3.06,3.06,0,0,0,.77.1c.2,0,.41,0,.63,0l.63-.08c.19,0,.38-.05.55-.09l.43-.09.27,1.74a3.43,3.43,0,0,1-.64.28c-.25.07-.51.14-.79.19s-.57.09-.87.12-.61.05-.91.05a5.21,5.21,0,0,1-1.52-.23,3,3,0,0,1-1.17-.71,3.07,3.07,0,0,1-.77-1.2,5.16,5.16,0,0,1-.26-1.77v-5h-2.49V6.64h2.49V4.06h2.53Z" transform="translate(-0.93 -2.7)" style="fill:#fff"/><polygon points="31 245.76 25.64 240.38 18.18 241.74 21.64 234.99 18.04 228.31 25.53 229.51 30.77 224.02 31.94 231.52 38.78 234.81 32.01 238.24 31 245.76" style="fill:#fff"/><polygon points="116.49 239.61 108.91 241.17 105.89 248.3 102.07 241.56 94.35 240.9 99.57 235.18 97.82 227.64 104.88 230.84 111.51 226.84 110.64 234.54 116.49 239.61" style="fill:#fff"/><polygon points="255.8 213.26 257.31 205.92 252.12 200.51 259.57 199.68 263.12 193.07 266.21 199.9 273.59 201.23 268.05 206.28 269.06 213.71 262.55 210 255.8 213.26" style="fill:#fff"/><polygon points="309.68 62.13 300.77 63.08 296.51 70.96 292.85 62.78 284.05 61.16 290.69 55.16 289.51 46.28 297.28 50.74 305.36 46.88 303.51 55.64 309.68 62.13" style="fill:#fff"/><polygon points="239.77 132.66 233.44 130.71 228.24 134.83 228.14 128.2 222.62 124.53 228.88 122.38 230.67 116 234.65 121.3 241.27 121.02 237.46 126.44 239.77 132.66" style="fill:#fff"/><polygon points="182.12 210.58 181.44 201.45 173.53 196.83 182.01 193.36 183.95 184.41 189.87 191.4 198.98 190.49 194.16 198.28 197.85 206.66 188.95 204.49 182.12 210.58" style="fill:#fff"/><polygon points="145.89 92.62 149.06 87.54 146.67 82.04 152.49 83.49 156.97 79.52 157.4 85.5 162.56 88.54 157 90.79 155.71 96.64 151.85 92.05 145.89 92.62" style="fill:#fff"/><circle cx="357.17" cy="40.11" r="9.78" style="fill:#fff"/><circle cx="357.17" cy="40.11" r="15.42" style="fill:none;stroke:#fff;stroke-miterlimit:10;stroke-width:3px"/></svg>