<svg xmlns="http://www.w3.org/2000/svg" viewBox="0 0 989.88 249.26"><circle cx="47.08" cy="206.46" r="12.51" style="fill:#fff"/><circle cx="280.65" cy="51.23" r="12.51" style="fill:#fff"/><circle cx="437.45" cy="185.3" r="12.51" style="fill:#fff"/><path d="M48,207.75q3,.18,6,.3" transform="translate(-0.93 -2.11)" style="fill:none;stroke:#fff;stroke-linecap:round;stroke-miterlimit:10;stroke-width:5px"/><path d="M66.08,208.36c41.81.36,74.05-6.72,95.34-13.1,31.39-9.4,39.6-17.46,43.88-25.07,13.68-24.34-11.92-45.67-2.51-72.73,12.55-36.07,79.31-59.3,114.11-37.61,16.31,10.17,24.43,29.49,32.6,48.9,12.31,29.27,7.25,40.21,20.06,55.17,16.2,18.92,41.58,21.61,52,22.71,29.27,3.09,72.79-5.66,84.7-32.74,9.11-20.74-8.88-32.69,0-60.19,8.5-26.34,33-40,42.18-44.42,27.43-13.05,61.5-11,83.52,5,11.86,8.6,8.66,12.86,33.54,43.21,14.87,18.16,22.91,28,35.1,37.62,7.44,5.89,34.77,27,74,30.09,30.32,2.42,53.06-7.07,72.24-15.35,45.42-19.59,76.54-50.36,96-74.74" transform="translate(-0.93 -2.11)" style="fill:none;stroke:#fff;stroke-linecap:round;stroke-miterlimit:10;stroke-width:5px;stroke-dasharray:12.078184127807617,12.078184127807617"/><path d="M946.52,70.32c1.26-1.64,2.45-3.24,3.6-4.8" transform="translate(-0.93 -2.11)" style="fill:none;stroke:#fff;stroke-linecap:round;stroke-miterlimit:10;stroke-width:5px"/><path d="M8.59,242.62a2.06,2.06,0,0,0-.5-.66,4.26,4.26,0,0,0-.88-.52A9.65,9.65,0,0,0,6,241a10.79,10.79,0,0,1-2-.73,6.23,6.23,0,0,1-1.44-1,4,4,0,0,1-.9-1.21,3.44,3.44,0,0,1-.31-1.48A3.53,3.53,0,0,1,1.74,235a3.71,3.71,0,0,1,1.06-1.24A4.73,4.73,0,0,1,4.37,233a6.6,6.6,0,0,1,1.92-.28,6.06,6.06,0,0,1,2,.32,4.58,4.58,0,0,1,1.57.9,4,4,0,0,1,1,1.37,4.12,4.12,0,0,1,.38,1.76H8.77a3,3,0,0,0-.2-.93,2.09,2.09,0,0,0-.47-.72,2.3,2.3,0,0,0-.79-.47,2.88,2.88,0,0,0-1.06-.17,3.37,3.37,0,0,0-1,.13,2.41,2.41,0,0,0-.75.38,1.72,1.72,0,0,0-.48.6,1.77,1.77,0,0,0-.16.77,1.46,1.46,0,0,0,.22.8,1.88,1.88,0,0,0,.62.6,4.58,4.58,0,0,0,.94.48c.36.14.75.27,1.18.39a11.14,11.14,0,0,1,1.44.51,6.48,6.48,0,0,1,1.26.73,4.73,4.73,0,0,1,1.28,1.4,3.56,3.56,0,0,1,.48,1.87,3.45,3.45,0,0,1-.39,1.66,3.54,3.54,0,0,1-1.06,1.22,4.71,4.71,0,0,1-1.56.75,7.16,7.16,0,0,1-1.94.25A6.69,6.69,0,0,1,4.27,247,5.27,5.27,0,0,1,2.48,246a4.5,4.5,0,0,1-1.13-1.4,4.09,4.09,0,0,1-.42-1.87H3.45a2.93,2.93,0,0,0,.25,1.12,2.1,2.1,0,0,0,.6.78,2.54,2.54,0,0,0,.9.45,4.59,4.59,0,0,0,1.15.14,3.7,3.7,0,0,0,1-.12,2.5,2.5,0,0,0,.77-.37,1.56,1.56,0,0,0,.48-.57,1.61,1.61,0,0,0,.18-.76A1.88,1.88,0,0,0,8.59,242.62Z" transform="translate(-0.93 -2.11)" style="fill:#fff"/><path d="M18.28,236.53h4v1.88h-4v4.79a2.93,2.93,0,0,0,.14,1,1.48,1.48,0,0,0,.38.61,1.4,1.4,0,0,0,.6.35,3.21,3.21,0,0,0,.78.09l.63,0,.63-.08L22,245l.43-.1.27,1.75a4.25,4.25,0,0,1-.64.27c-.25.08-.51.14-.79.2s-.57.09-.87.12-.61,0-.91,0a4.9,4.9,0,0,1-1.52-.22,3,3,0,0,1-1.17-.7,3.19,3.19,0,0,1-.77-1.21,5,5,0,0,1-.27-1.76v-5H13.26v-1.88h2.49V234h2.53Z" transform="translate(-0.93 -2.11)" style="fill:#fff"/><path d="M34,236.42a4.56,4.56,0,0,1,.84.18l-.37,2.51a10.18,10.18,0,0,0-1.08-.19,9.51,9.51,0,0,0-1-.06,4.4,4.4,0,0,0-1,.1,2.57,2.57,0,0,0-.79.33,2.49,2.49,0,0,0-.68.57,3,3,0,0,0-.46.8v6.44H26.89V236.53h2.36l.11,1.48,0,.24a4.77,4.77,0,0,1,1.54-1.4,4,4,0,0,1,2-.51A6.59,6.59,0,0,1,34,236.42Z" transform="translate(-0.93 -2.11)" style="fill:#fff"/><path d="M44,246.63a3.09,3.09,0,0,1-.11-.56,3.64,3.64,0,0,1-1.2.86,4.81,4.81,0,0,1-.81.27,4.76,4.76,0,0,1-.94.09,4.46,4.46,0,0,1-1.5-.23,3.72,3.72,0,0,1-1.16-.65,3,3,0,0,1-.75-1,2.89,2.89,0,0,1-.27-1.25,3.34,3.34,0,0,1,.34-1.55,2.92,2.92,0,0,1,1-1.12,4.7,4.7,0,0,1,1.52-.62,9.13,9.13,0,0,1,2.06-.21h1.61V240a1.73,1.73,0,0,0-.13-.71,1.36,1.36,0,0,0-.38-.54,1.64,1.64,0,0,0-.65-.36,2.65,2.65,0,0,0-.89-.13,2.69,2.69,0,0,0-.79.11,1.45,1.45,0,0,0-.55.3,1,1,0,0,0-.3.43,1.33,1.33,0,0,0-.1.54H37.44a2.74,2.74,0,0,1,.3-1.25,3.4,3.4,0,0,1,.86-1,4.25,4.25,0,0,1,1.39-.72,5.88,5.88,0,0,1,1.86-.27,6.12,6.12,0,0,1,1.75.23,4.25,4.25,0,0,1,1.42.68A3.37,3.37,0,0,1,46,238.4a3.57,3.57,0,0,1,.34,1.61v4.61a7.4,7.4,0,0,0,.1,1.34,3.57,3.57,0,0,0,.31,1v.17H44.12A2.34,2.34,0,0,1,44,246.63Zm-1.74-1.43a2.87,2.87,0,0,0,.67-.28,2.33,2.33,0,0,0,.52-.38,2,2,0,0,0,.35-.45v-1.88H42.31a5.29,5.29,0,0,0-1.2.12,2.34,2.34,0,0,0-.81.37,1.37,1.37,0,0,0-.42.54,1.56,1.56,0,0,0-.14.68,1.52,1.52,0,0,0,.1.57,1.19,1.19,0,0,0,.33.44,1.64,1.64,0,0,0,.51.27,2.3,2.3,0,0,0,.73.1A3,3,0,0,0,42.22,245.2Z" transform="translate(-0.93 -2.11)" style="fill:#fff"/><path d="M54.29,236.53h4v1.88h-4v4.79a3,3,0,0,0,.13,1,1.59,1.59,0,0,0,.38.61,1.44,1.44,0,0,0,.61.35,3.07,3.07,0,0,0,.77.09l.63,0,.63-.08L58,245c.18,0,.32-.07.44-.1l.26,1.75a3.52,3.52,0,0,1-.64.27,7.37,7.37,0,0,1-.78.2c-.28.05-.58.09-.88.12s-.6,0-.9,0a4.9,4.9,0,0,1-1.52-.22,3.11,3.11,0,0,1-1.18-.7,3.17,3.17,0,0,1-.76-1.21,5,5,0,0,1-.27-1.76v-5H49.27v-1.88h2.49V234h2.53Z" transform="translate(-0.93 -2.11)" style="fill:#fff"/><path d="M64.3,246.9a5.24,5.24,0,0,1-1.68-1.09,4.87,4.87,0,0,1-1.09-1.62,5.31,5.31,0,0,1-.38-2v-.39a6.16,6.16,0,0,1,.39-2.24,5.21,5.21,0,0,1,1.07-1.72,5,5,0,0,1,1.6-1.11,5.08,5.08,0,0,1,2-.39,5,5,0,0,1,2,.38,4.26,4.26,0,0,1,1.5,1.06,4.56,4.56,0,0,1,.91,1.65,6.72,6.72,0,0,1,.32,2.11v1.08H63.7v0a4.23,4.23,0,0,0,.35,1.09,2.56,2.56,0,0,0,.59.77,3,3,0,0,0,.89.55,3.08,3.08,0,0,0,1.11.19,3.88,3.88,0,0,0,1.58-.32,3,3,0,0,0,1.23-.94l1.3,1.34a4.57,4.57,0,0,1-1.62,1.35,5.49,5.49,0,0,1-2.65.6A5.87,5.87,0,0,1,64.3,246.9Zm1-8.35a2.06,2.06,0,0,0-.71.49,2.82,2.82,0,0,0-.52.77,3.81,3.81,0,0,0-.31,1h4.71v-.2a2.57,2.57,0,0,0-.16-.86,2.2,2.2,0,0,0-.45-.72,2.12,2.12,0,0,0-.71-.48,2.4,2.4,0,0,0-1-.18A2.3,2.3,0,0,0,65.3,238.55Z" transform="translate(-0.93 -2.11)" style="fill:#fff"/><path d="M73.47,239.54a5.08,5.08,0,0,1,.85-1.71,3.8,3.8,0,0,1,3.12-1.49,4.09,4.09,0,0,1,1,.11,3,3,0,0,1,.85.34,2.69,2.69,0,0,1,.49.34,2.46,2.46,0,0,1,.41.44l.11-1h2.3v10.26a4.77,4.77,0,0,1-.36,1.9,3.94,3.94,0,0,1-1,1.4,4.43,4.43,0,0,1-1.55.87,6.25,6.25,0,0,1-2,.3,5.39,5.39,0,0,1-1-.1,5.45,5.45,0,0,1-1.08-.3,5.51,5.51,0,0,1-1-.53,3.24,3.24,0,0,1-.83-.78L74.94,248a4.48,4.48,0,0,0,.6.56,3.33,3.33,0,0,0,.64.39,3.26,3.26,0,0,0,.69.22,3.38,3.38,0,0,0,.72.08,3.31,3.31,0,0,0,1.08-.17,2.16,2.16,0,0,0,.79-.51,2,2,0,0,0,.47-.75,3.19,3.19,0,0,0,.16-1v-.68a3.25,3.25,0,0,1-.42.41,2.85,2.85,0,0,1-.46.31,3.48,3.48,0,0,1-.82.31,4.16,4.16,0,0,1-2.73-.29,4,4,0,0,1-1.34-1.12,5.12,5.12,0,0,1-.85-1.7,7.31,7.31,0,0,1-.3-2.13v-.2A7.6,7.6,0,0,1,73.47,239.54Zm2.37,3.68a3.09,3.09,0,0,0,.43,1.05,2,2,0,0,0,.73.7,2.08,2.08,0,0,0,1.06.25,2.84,2.84,0,0,0,.68-.07,2.11,2.11,0,0,0,.56-.22,2,2,0,0,0,.45-.37,2.36,2.36,0,0,0,.34-.47v-4.55a2.23,2.23,0,0,0-.37-.51,1.68,1.68,0,0,0-.48-.36,2.07,2.07,0,0,0-.53-.19,2.53,2.53,0,0,0-.63-.07,2,2,0,0,0-1.06.26,2.07,2.07,0,0,0-.74.7,3.44,3.44,0,0,0-.44,1.07,5.89,5.89,0,0,0-.14,1.3v.2A5.77,5.77,0,0,0,75.84,243.22Z" transform="translate(-0.93 -2.11)" style="fill:#fff"/><path d="M86.29,251.32c-.19,0-.4-.08-.61-.14l.33-1.94h.44l.4,0a1,1,0,0,0,.59-.2,2.39,2.39,0,0,0,.45-.45,2.94,2.94,0,0,0,.29-.4c.07-.1.14-.23.22-.37l.64-1.21-4.49-10.11h2.77l2.52,6.32.34,1.12.42-1.09,2.48-6.35h2.79l-5.36,12.16a7.46,7.46,0,0,1-.46.87,4.38,4.38,0,0,1-.7.87,3.68,3.68,0,0,1-1,.66,3.28,3.28,0,0,1-1.39.28A4.43,4.43,0,0,1,86.29,251.32Z" transform="translate(-0.93 -2.11)" style="fill:#fff"/><path d="M250.2,26.09a4.46,4.46,0,0,1-2.6,2.39,5.73,5.73,0,0,1-2,.33,5.2,5.2,0,0,1-1.62-.24,4.47,4.47,0,0,1-1.33-.66,4.74,4.74,0,0,1-1-1,5.61,5.61,0,0,1-.71-1.27,7.21,7.21,0,0,1-.43-1.49,9.35,9.35,0,0,1-.15-1.7V20.53a9.36,9.36,0,0,1,.14-1.61,7.18,7.18,0,0,1,.41-1.45,5.56,5.56,0,0,1,.78-1.42A5.35,5.35,0,0,1,242.85,15a4.57,4.57,0,0,1,1.26-.6,5.2,5.2,0,0,1,1.51-.21,6,6,0,0,1,2,.33,4.26,4.26,0,0,1,1.53,1,4.37,4.37,0,0,1,1,1.48,6.94,6.94,0,0,1,.47,2h-2.54a5.59,5.59,0,0,0-.21-1.12,2.45,2.45,0,0,0-.47-.84,1.91,1.91,0,0,0-.75-.52,3.24,3.24,0,0,0-1.09-.17,2.65,2.65,0,0,0-.71.09,1.86,1.86,0,0,0-.58.29,2.25,2.25,0,0,0-.67.7,4,4,0,0,0-.43,1,5.73,5.73,0,0,0-.19,1,10.71,10.71,0,0,0-.06,1.16v1.95a10.28,10.28,0,0,0,.09,1.42,6,6,0,0,0,.27,1.16,3.17,3.17,0,0,0,.34.69,2.37,2.37,0,0,0,.46.53,2.24,2.24,0,0,0,.65.34,2.57,2.57,0,0,0,.82.12,3,3,0,0,0,1-.16,1.75,1.75,0,0,0,.76-.47,2.18,2.18,0,0,0,.5-.79,4,4,0,0,0,.24-1.12h2.54A5.47,5.47,0,0,1,250.2,26.09Z" transform="translate(-0.93 -2.11)" style="fill:#fff"/><path d="M253,21.09a4.81,4.81,0,0,1,1-1.71,4.28,4.28,0,0,1,1.54-1.13,5.56,5.56,0,0,1,4.19,0,4.54,4.54,0,0,1,1.56,1.13,4.93,4.93,0,0,1,1,1.71,6.61,6.61,0,0,1,.33,2.13v.21a6.71,6.71,0,0,1-.33,2.14,5,5,0,0,1-1,1.7,4.41,4.41,0,0,1-1.55,1.13,5.13,5.13,0,0,1-2.09.41,5.22,5.22,0,0,1-2.11-.41,4.28,4.28,0,0,1-1.54-1.13,4.86,4.86,0,0,1-1-1.7,6.71,6.71,0,0,1-.33-2.14v-.21A6.61,6.61,0,0,1,253,21.09Zm2.33,3.63a3.27,3.27,0,0,0,.43,1.06,2.12,2.12,0,0,0,.76.73,2.17,2.17,0,0,0,1.11.26,2.06,2.06,0,0,0,1.08-.26,2.12,2.12,0,0,0,.76-.73,3.51,3.51,0,0,0,.42-1.06,5.86,5.86,0,0,0,.14-1.29v-.21a5.75,5.75,0,0,0-.14-1.27,3.61,3.61,0,0,0-.42-1.06,2.15,2.15,0,0,0-.76-.74,2.44,2.44,0,0,0-2.19,0,2.15,2.15,0,0,0-.76.74,3.37,3.37,0,0,0-.43,1.06,5.75,5.75,0,0,0-.14,1.27v.21A5.86,5.86,0,0,0,255.28,24.72Z" transform="translate(-0.93 -2.11)" style="fill:#fff"/><path d="M265,18h2.29l.15,1.49a3.58,3.58,0,0,1,.47-.55,3.24,3.24,0,0,1,.53-.45,3.46,3.46,0,0,1,1-.5,3.85,3.85,0,0,1,1.19-.18,4.52,4.52,0,0,1,1.46.23,2.91,2.91,0,0,1,1.16.75,3.29,3.29,0,0,1,.74,1.3,6.14,6.14,0,0,1,.27,1.94V28.6h-2.52V22.1a3.24,3.24,0,0,0-.15-1.07,1.54,1.54,0,0,0-.42-.67,1.41,1.41,0,0,0-.66-.35,3.3,3.3,0,0,0-.87-.1,2.66,2.66,0,0,0-.77.1,2.06,2.06,0,0,0-.62.28,2.24,2.24,0,0,0-.41.35,3,3,0,0,0-.33.44V28.6H265Z" transform="translate(-0.93 -2.11)" style="fill:#fff"/><path d="M282.46,26.65a2.43,2.43,0,0,0,.68-.35,1.6,1.6,0,0,0,.45-.55,1.27,1.27,0,0,0,.16-.7h2.38a3.17,3.17,0,0,1-.34,1.49,3.79,3.79,0,0,1-1,1.18,4.59,4.59,0,0,1-1.42.8,5,5,0,0,1-1.7.29,5.11,5.11,0,0,1-2.14-.42A4.24,4.24,0,0,1,278,27.24a4.87,4.87,0,0,1-.93-1.69,6.33,6.33,0,0,1-.32-2.07v-.31a6.69,6.69,0,0,1,.31-2.07,5,5,0,0,1,.94-1.7,4.39,4.39,0,0,1,1.53-1.14,5.11,5.11,0,0,1,2.14-.42,5.46,5.46,0,0,1,1.79.29,4.36,4.36,0,0,1,1.41.82,3.61,3.61,0,0,1,.93,1.28,4,4,0,0,1,.31,1.65h-2.38a1.82,1.82,0,0,0-.14-.77,1.65,1.65,0,0,0-.43-.63,1.8,1.8,0,0,0-.67-.43,2.2,2.2,0,0,0-.86-.16,2.08,2.08,0,0,0-1.13.28,2,2,0,0,0-.72.74,2.86,2.86,0,0,0-.39,1.05,6.81,6.81,0,0,0-.11,1.21v.31a6.12,6.12,0,0,0,.11,1.23,3,3,0,0,0,.39,1.05,2,2,0,0,0,.71.74,2.25,2.25,0,0,0,1.15.27A2.63,2.63,0,0,0,282.46,26.65Z" transform="translate(-0.93 -2.11)" style="fill:#fff"/><path d="M291.87,28.4a5.08,5.08,0,0,1-1.68-1.09,4.73,4.73,0,0,1-1.09-1.61,5.36,5.36,0,0,1-.38-2V23.3a6.07,6.07,0,0,1,.39-2.23,5.1,5.1,0,0,1,1.07-1.73,5,5,0,0,1,1.6-1.11,5.08,5.08,0,0,1,2-.39,5.17,5.17,0,0,1,2,.38,4.26,4.26,0,0,1,1.5,1.06,4.56,4.56,0,0,1,.91,1.65,6.76,6.76,0,0,1,.32,2.11v1.08h-7.26v0a3.88,3.88,0,0,0,.35,1.09,2.56,2.56,0,0,0,.59.77,2.82,2.82,0,0,0,.89.55,3.08,3.08,0,0,0,1.11.2,3.89,3.89,0,0,0,1.58-.33,3,3,0,0,0,1.23-.93l1.3,1.33a4.59,4.59,0,0,1-1.62,1.36,5.49,5.49,0,0,1-2.65.6A5.87,5.87,0,0,1,291.87,28.4Zm1-8.34a2,2,0,0,0-.71.48,2.87,2.87,0,0,0-.52.78,3.74,3.74,0,0,0-.31,1H296v-.19a2.52,2.52,0,0,0-.16-.86,2.36,2.36,0,0,0-.45-.73,2.12,2.12,0,0,0-.71-.48,2.4,2.4,0,0,0-1-.18A2.3,2.3,0,0,0,292.87,20.06Z" transform="translate(-0.93 -2.11)" style="fill:#fff"/><path d="M301.06,18h2.32l.1,1.07a3.05,3.05,0,0,1,.47-.48A3.09,3.09,0,0,1,305.3,18a4.12,4.12,0,0,1,.95-.11,3.92,3.92,0,0,1,1.78.39,3.69,3.69,0,0,1,1.3,1.09,5.2,5.2,0,0,1,.8,1.71,8.29,8.29,0,0,1,.27,2.18v.22a7.94,7.94,0,0,1-.27,2.12,5.24,5.24,0,0,1-.79,1.7,3.83,3.83,0,0,1-1.3,1.14,3.79,3.79,0,0,1-1.77.41,4.05,4.05,0,0,1-1-.12,3.87,3.87,0,0,1-.84-.33A2.88,2.88,0,0,1,304,28a3.55,3.55,0,0,1-.4-.38v5h-2.52Zm6.68,3.89a3.29,3.29,0,0,0-.41-1.05,2,2,0,0,0-.71-.71,2,2,0,0,0-1.05-.25,2.64,2.64,0,0,0-.65.07,2,2,0,0,0-.52.19,2.2,2.2,0,0,0-.47.37,2,2,0,0,0-.35.51V25.6a2.36,2.36,0,0,0,.32.48,2,2,0,0,0,.44.37,1.72,1.72,0,0,0,.55.23,2.53,2.53,0,0,0,.7.09,1.94,1.94,0,0,0,1-.27,2.07,2.07,0,0,0,.71-.73,3.41,3.41,0,0,0,.41-1.07,6.55,6.55,0,0,0,.12-1.28v-.21A5.94,5.94,0,0,0,307.74,21.92Z" transform="translate(-0.93 -2.11)" style="fill:#fff"/><path d="M317.86,18h4v1.88h-4V24.7a3,3,0,0,0,.14,1,1.55,1.55,0,0,0,.38.61,1.46,1.46,0,0,0,.61.34,3.06,3.06,0,0,0,.77.1c.2,0,.41,0,.63,0l.63-.08.55-.09a2.76,2.76,0,0,0,.43-.1l.27,1.75a2.86,2.86,0,0,1-.64.27,6.08,6.08,0,0,1-.79.2q-.42.08-.87.12c-.31,0-.61,0-.91,0a4.89,4.89,0,0,1-1.52-.23,3,3,0,0,1-1.17-.7,3.07,3.07,0,0,1-.77-1.2,5.15,5.15,0,0,1-.27-1.77v-5h-2.49V18h2.49V15.46h2.53Z" transform="translate(-0.93 -2.11)" style="fill:#fff"/><path d="M403.65,213.81h3.6A6.81,6.81,0,0,1,409,214a5.89,5.89,0,0,1,1.52.64,4.82,4.82,0,0,1,1.19.91,5.81,5.81,0,0,1,.89,1.21,6.21,6.21,0,0,1,.63,1.64,7.9,7.9,0,0,1,.22,1.92v1.15a8.37,8.37,0,0,1-.2,1.84,6.61,6.61,0,0,1-.59,1.6,6.39,6.39,0,0,1-.88,1.23,5.49,5.49,0,0,1-1.11,1,5.94,5.94,0,0,1-1.54.67,6.6,6.6,0,0,1-1.81.23h-3.71ZM406.22,226h1.14a3.51,3.51,0,0,0,1.05-.14,3.22,3.22,0,0,0,.86-.4,3,3,0,0,0,.73-.7,3.91,3.91,0,0,0,.53-1,5.27,5.27,0,0,0,.27-1,9.06,9.06,0,0,0,.11-1.22v-1.17a8.91,8.91,0,0,0-.11-1.19,4.81,4.81,0,0,0-.28-1,3.89,3.89,0,0,0-.59-1,3,3,0,0,0-.86-.74,3.42,3.42,0,0,0-.83-.33,3.84,3.84,0,0,0-1-.12h-1Z" transform="translate(-0.93 -2.11)" style="fill:#fff"/><path d="M418.66,227.82a5.06,5.06,0,0,1-1.68-1.08,4.7,4.7,0,0,1-1.08-1.62,5.14,5.14,0,0,1-.39-2v-.39a6.1,6.1,0,0,1,.39-2.23,5.11,5.11,0,0,1,1.07-1.72,4.64,4.64,0,0,1,1.61-1.11,4.83,4.83,0,0,1,2-.4,5.14,5.14,0,0,1,2,.38,4.28,4.28,0,0,1,1.5,1.07,4.6,4.6,0,0,1,.92,1.64,7.09,7.09,0,0,1,.31,2.12v1.07h-7.26v0a4.11,4.11,0,0,0,.35,1.09,2.77,2.77,0,0,0,.59.78,3,3,0,0,0,.89.54,3.08,3.08,0,0,0,1.11.2,4,4,0,0,0,1.58-.32,3.08,3.08,0,0,0,1.24-.94l1.29,1.34a4.48,4.48,0,0,1-1.62,1.35,5.48,5.48,0,0,1-2.64.6A5.73,5.73,0,0,1,418.66,227.82Zm1-8.34a1.93,1.93,0,0,0-.71.49,2.67,2.67,0,0,0-.52.77,4.27,4.27,0,0,0-.31,1h4.71v-.19a2.34,2.34,0,0,0-.16-.86,2.14,2.14,0,0,0-1.15-1.21,2.45,2.45,0,0,0-1-.18A2.3,2.3,0,0,0,419.66,219.48Z" transform="translate(-0.93 -2.11)" style="fill:#fff"/><path d="M434.56,224.68a1.13,1.13,0,0,0-.4-.38,4.35,4.35,0,0,0-.78-.31,11.14,11.14,0,0,0-1.21-.28,11.4,11.4,0,0,1-1.69-.47,5.26,5.26,0,0,1-1.3-.66,2.89,2.89,0,0,1-.85-.9,2.21,2.21,0,0,1-.31-1.18,2.75,2.75,0,0,1,.31-1.25,3.07,3.07,0,0,1,.89-1,4.29,4.29,0,0,1,1.4-.71,6.22,6.22,0,0,1,1.85-.26,6.78,6.78,0,0,1,1.93.26,4.62,4.62,0,0,1,1.46.71,3.23,3.23,0,0,1,.91,1.08,2.91,2.91,0,0,1,.32,1.34h-2.52a1.36,1.36,0,0,0-.11-.53,1.39,1.39,0,0,0-.31-.45,1.93,1.93,0,0,0-.69-.4,3.24,3.24,0,0,0-1-.14,3.52,3.52,0,0,0-.91.1,1.83,1.83,0,0,0-.63.29,1.14,1.14,0,0,0-.34.39,1,1,0,0,0-.12.48.92.92,0,0,0,.46.83,2.74,2.74,0,0,0,.7.31,7.85,7.85,0,0,0,1.12.24,13.54,13.54,0,0,1,1.77.42,5.77,5.77,0,0,1,1.39.63,2.84,2.84,0,0,1,.9.93,2.37,2.37,0,0,1,.33,1.28,2.62,2.62,0,0,1-.34,1.29,3.17,3.17,0,0,1-.93,1,5,5,0,0,1-1.47.66,7.19,7.19,0,0,1-1.91.24,6.26,6.26,0,0,1-2.07-.31,4.82,4.82,0,0,1-1.51-.81A3.4,3.4,0,0,1,428,226a2.86,2.86,0,0,1-.32-1.29h2.42a1.76,1.76,0,0,0,.26.79,1.59,1.59,0,0,0,.55.51,2.32,2.32,0,0,0,.76.3,5,5,0,0,0,.87.08,4.28,4.28,0,0,0,1-.1,2.21,2.21,0,0,0,.69-.3,1.18,1.18,0,0,0,.34-.37.9.9,0,0,0,.11-.46A.87.87,0,0,0,434.56,224.68Z" transform="translate(-0.93 -2.11)" style="fill:#fff"/><path d="M446.13,217.46V226h3V228h-8.67V226h3.13v-6.41h-3.13v-2.08Zm-2.65-3.27a1.25,1.25,0,0,1,.31-.44,1.28,1.28,0,0,1,.45-.28,1.89,1.89,0,0,1,.6-.09,1.45,1.45,0,0,1,1,.33,1.2,1.2,0,0,1,.41.87,1.22,1.22,0,0,1-.29.89,1.31,1.31,0,0,1-.89.41,1.57,1.57,0,0,1-.57.07,1.47,1.47,0,0,1-.56-.18,1.06,1.06,0,0,1-.42-.42,1.25,1.25,0,0,1-.14-.61A1.42,1.42,0,0,1,443.48,214.19Z" transform="translate(-0.93 -2.11)" style="fill:#fff"/><path d="M451.83,220.47a5.08,5.08,0,0,1,.85-1.71,3.8,3.8,0,0,1,1.35-1.11,3.92,3.92,0,0,1,1.78-.39,4.08,4.08,0,0,1,1,.12,2.83,2.83,0,0,1,.84.33,3.39,3.39,0,0,1,.5.34,2.85,2.85,0,0,1,.41.44l.11-1H461v10.25a5,5,0,0,1-.35,1.9,3.85,3.85,0,0,1-1,1.4,4.29,4.29,0,0,1-1.55.88,6.6,6.6,0,0,1-2,.29,6.19,6.19,0,0,1-1-.09,6.27,6.27,0,0,1-1.08-.31,4.9,4.9,0,0,1-1-.52,3.63,3.63,0,0,1-.83-.78l1.16-1.54a3.86,3.86,0,0,0,.59.56,4.07,4.07,0,0,0,.65.4,3.37,3.37,0,0,0,.68.22,3.51,3.51,0,0,0,.72.07A3.22,3.22,0,0,0,457,230a2.05,2.05,0,0,0,.8-.5,1.9,1.9,0,0,0,.46-.75,3,3,0,0,0,.16-1v-.67a3.09,3.09,0,0,1-.41.4,3.46,3.46,0,0,1-.46.32,4.08,4.08,0,0,1-.83.31,4.15,4.15,0,0,1-1,.11,3.77,3.77,0,0,1-1.76-.41,4,4,0,0,1-1.35-1.11,5.37,5.37,0,0,1-.85-1.71,7.54,7.54,0,0,1-.29-2.12v-.21A7.9,7.9,0,0,1,451.83,220.47Zm2.38,3.68a3.13,3.13,0,0,0,.43,1,2,2,0,0,0,.72.71,2.21,2.21,0,0,0,1.06.25,3.58,3.58,0,0,0,.69-.07,2.43,2.43,0,0,0,.55-.22,2.34,2.34,0,0,0,.45-.37,2.25,2.25,0,0,0,.34-.47v-4.55a2.18,2.18,0,0,0-.36-.52,1.75,1.75,0,0,0-.49-.35,2,2,0,0,0-.52-.2,3.22,3.22,0,0,0-.64-.07,2.11,2.11,0,0,0-1.06.26,2.15,2.15,0,0,0-.73.71,3.25,3.25,0,0,0-.44,1.06,6,6,0,0,0-.14,1.3v.21A5.29,5.29,0,0,0,454.21,224.15Z" transform="translate(-0.93 -2.11)" style="fill:#fff"/><path d="M463.83,217.46h2.28l.16,1.48a4.06,4.06,0,0,1,.46-.55,4,4,0,0,1,1.56-.95,3.79,3.79,0,0,1,1.18-.18,4.36,4.36,0,0,1,1.47.24,2.92,2.92,0,0,1,1.16.74,3.46,3.46,0,0,1,.74,1.31,6.39,6.39,0,0,1,.26,1.93V228h-2.52v-6.5a3.56,3.56,0,0,0-.14-1.07,1.49,1.49,0,0,0-1.08-1,3.87,3.87,0,0,0-.88-.1,3,3,0,0,0-.76.1,2.34,2.34,0,0,0-.62.28,2.3,2.3,0,0,0-.41.35,2.46,2.46,0,0,0-.34.44V228h-2.52Z" transform="translate(-0.93 -2.11)" style="fill:#fff"/><path d="M513.59,2.89V5h-2.91V15h2.91v2.07h-8.3V15h2.83V5h-2.83V2.89Z" transform="translate(-0.93 -2.11)" style="fill:#fff"/><path d="M518.48,7.76a2.58,2.58,0,0,1,.83-1,2.11,2.11,0,0,1,1.28-.38,2.4,2.4,0,0,1,.69.09,1.4,1.4,0,0,1,.53.27,1.6,1.6,0,0,1,.3.33,2.15,2.15,0,0,1,.21.43,1.94,1.94,0,0,1,.32-.42,1.7,1.7,0,0,1,.38-.33,1.93,1.93,0,0,1,.58-.27,2.37,2.37,0,0,1,.72-.1,2.25,2.25,0,0,1,.9.17,1.84,1.84,0,0,1,.74.54,2.72,2.72,0,0,1,.48,1,5.55,5.55,0,0,1,.17,1.45v7.62H524.3V9.48a1.85,1.85,0,0,0-.07-.51,1,1,0,0,0-.19-.34.63.63,0,0,0-.27-.16,1,1,0,0,0-.34-.05.9.9,0,0,0-.34.05,1.23,1.23,0,0,0-.26.12,1.12,1.12,0,0,0-.18.2.66.66,0,0,0-.11.24v8.08h-2.26V9.47a1.88,1.88,0,0,0-.06-.51.85.85,0,0,0-.16-.33.61.61,0,0,0-.28-.16.9.9,0,0,0-.34-.05,1,1,0,0,0-.36.06.81.81,0,0,0-.28.17.62.62,0,0,0-.15.2c0,.08-.08.16-.12.24v8h-2.31V6.54h2.18Z" transform="translate(-0.93 -2.11)" style="fill:#fff"/><path d="M528.92,6.54h2.33l.1,1.07a3.12,3.12,0,0,1,.47-.49,2.82,2.82,0,0,1,.54-.36,3.24,3.24,0,0,1,.81-.3,3.59,3.59,0,0,1,1-.11,3.92,3.92,0,0,1,1.78.39,3.78,3.78,0,0,1,1.3,1.09,5.4,5.4,0,0,1,.8,1.71,8.24,8.24,0,0,1,.27,2.18v.21a8,8,0,0,1-.27,2.13,5.45,5.45,0,0,1-.79,1.7,3.9,3.9,0,0,1-1.3,1.13,3.67,3.67,0,0,1-1.77.41,4,4,0,0,1-1-.11,4,4,0,0,1-.85-.33c-.15-.1-.3-.2-.44-.31s-.27-.24-.4-.38v5h-2.52Zm6.69,3.89a3.2,3.2,0,0,0-.41-1,2,2,0,0,0-.71-.71,2,2,0,0,0-1-.25,2.64,2.64,0,0,0-.65.07,2.22,2.22,0,0,0-.53.19,2.41,2.41,0,0,0-.46.37,2.34,2.34,0,0,0-.36.51v4.55a2.39,2.39,0,0,0,.33.48,2,2,0,0,0,.44.37,1.72,1.72,0,0,0,.55.23,2.54,2.54,0,0,0,.7.08,1.94,1.94,0,0,0,1-.27,2,2,0,0,0,.71-.72,3.17,3.17,0,0,0,.4-1.07,5.88,5.88,0,0,0,.13-1.29v-.2A5.88,5.88,0,0,0,535.61,10.43Z" transform="translate(-0.93 -2.11)" style="fill:#fff"/><path d="M547.21,2.11V15h3.11v2.07h-8.91V15h3.25V4.19h-3.25V2.11Z" transform="translate(-0.93 -2.11)" style="fill:#fff"/><path d="M555.75,16.91a5,5,0,0,1-1.69-1.09A4.61,4.61,0,0,1,553,14.2a5.12,5.12,0,0,1-.38-2v-.39A6.28,6.28,0,0,1,553,9.58a5.32,5.32,0,0,1,1.07-1.73,4.89,4.89,0,0,1,3.6-1.5,5,5,0,0,1,2,.38,4.26,4.26,0,0,1,1.5,1.06,4.74,4.74,0,0,1,.92,1.65,6.72,6.72,0,0,1,.31,2.11v1.08h-7.25v0a4.25,4.25,0,0,0,.34,1.09,2.93,2.93,0,0,0,.59.77,2.76,2.76,0,0,0,.9.55,3,3,0,0,0,1.1.19,3.9,3.9,0,0,0,1.59-.32A3,3,0,0,0,560.9,14l1.3,1.34a4.61,4.61,0,0,1-1.63,1.35,5.48,5.48,0,0,1-2.64.6A5.84,5.84,0,0,1,555.75,16.91Zm1-8.35a2.31,2.31,0,0,0-.71.49,3.06,3.06,0,0,0-.52.77,4.21,4.21,0,0,0-.31,1h4.71v-.2a2.25,2.25,0,0,0-.16-.85,2.41,2.41,0,0,0-.44-.73,2.34,2.34,0,0,0-.71-.48,2.43,2.43,0,0,0-1-.18A2.35,2.35,0,0,0,556.74,8.56Z" transform="translate(-0.93 -2.11)" style="fill:#fff"/><path d="M566.48,7.76a2.6,2.6,0,0,1,.84-1,2.09,2.09,0,0,1,1.28-.38,2.45,2.45,0,0,1,.69.09,1.36,1.36,0,0,1,.52.27,1.4,1.4,0,0,1,.31.33,2.15,2.15,0,0,1,.21.43,2.34,2.34,0,0,1,.69-.75,2.11,2.11,0,0,1,.59-.27,2.3,2.3,0,0,1,.71-.1,2.27,2.27,0,0,1,.91.17,1.75,1.75,0,0,1,.73.54,2.73,2.73,0,0,1,.49,1,5.55,5.55,0,0,1,.17,1.45v7.62H572.3V9.48a1.88,1.88,0,0,0-.06-.51,1,1,0,0,0-.19-.34.63.63,0,0,0-.27-.16,1,1,0,0,0-.35-.05.88.88,0,0,0-.33.05,1,1,0,0,0-.26.12,1.12,1.12,0,0,0-.18.2.66.66,0,0,0-.11.24v8.08h-2.26V9.47a1.88,1.88,0,0,0-.06-.51.85.85,0,0,0-.16-.33.61.61,0,0,0-.28-.16.93.93,0,0,0-.34-.05,1,1,0,0,0-.36.06.73.73,0,0,0-.28.17.83.83,0,0,0-.16.2,2.56,2.56,0,0,0-.11.24v8h-2.31V6.54h2.18Z" transform="translate(-0.93 -2.11)" style="fill:#fff"/><path d="M579.75,16.91a5,5,0,0,1-1.68-1.09A4.77,4.77,0,0,1,577,14.2a5.31,5.31,0,0,1-.38-2v-.39A6.07,6.07,0,0,1,577,9.58a4.89,4.89,0,0,1,2.67-2.84,5.08,5.08,0,0,1,2-.39,5,5,0,0,1,2,.38,4.22,4.22,0,0,1,1.49,1.06,4.58,4.58,0,0,1,.92,1.65,6.72,6.72,0,0,1,.32,2.11v1.08h-7.26v0a3.88,3.88,0,0,0,.35,1.09,2.56,2.56,0,0,0,.59.77,2.82,2.82,0,0,0,.89.55,3.08,3.08,0,0,0,1.11.19,3.88,3.88,0,0,0,1.58-.32A3,3,0,0,0,584.9,14l1.3,1.34a4.61,4.61,0,0,1-1.63,1.35,5.45,5.45,0,0,1-2.64.6A5.84,5.84,0,0,1,579.75,16.91Zm1-8.35a2.2,2.2,0,0,0-.71.49,2.82,2.82,0,0,0-.52.77,3.81,3.81,0,0,0-.31,1h4.71v-.2a2.26,2.26,0,0,0-.17-.85,2.07,2.07,0,0,0-.44-.73,2.22,2.22,0,0,0-.71-.48,2.43,2.43,0,0,0-1-.18A2.3,2.3,0,0,0,580.75,8.56Z" transform="translate(-0.93 -2.11)" style="fill:#fff"/><path d="M588.91,6.54h2.28L591.35,8a3.53,3.53,0,0,1,.46-.55,3.72,3.72,0,0,1,.53-.45,4,4,0,0,1,1-.51,4.1,4.1,0,0,1,1.18-.17,4.62,4.62,0,0,1,1.47.23,3.07,3.07,0,0,1,1.16.74,3.54,3.54,0,0,1,.74,1.31,6.46,6.46,0,0,1,.26,1.94v6.54h-2.52v-6.5a3.56,3.56,0,0,0-.14-1.07,1.54,1.54,0,0,0-.42-.67,1.51,1.51,0,0,0-.66-.35,3.38,3.38,0,0,0-.88-.1,2.59,2.59,0,0,0-.76.1,2.06,2.06,0,0,0-.62.28,2,2,0,0,0-.41.35,2.46,2.46,0,0,0-.34.44v7.52h-2.52Z" transform="translate(-0.93 -2.11)" style="fill:#fff"/><path d="M605.74,6.54h4V8.42h-4v4.79a2.93,2.93,0,0,0,.14,1,1.42,1.42,0,0,0,.38.61,1.4,1.4,0,0,0,.6.35,3.21,3.21,0,0,0,.78.09l.63,0,.63-.08.55-.09.43-.1.27,1.75a3.42,3.42,0,0,1-.64.27,6.08,6.08,0,0,1-.79.2q-.42.08-.87.12c-.31,0-.61,0-.91,0a4.9,4.9,0,0,1-1.52-.22,2.89,2.89,0,0,1-1.17-.7,3.22,3.22,0,0,1-.77-1.2,5.15,5.15,0,0,1-.27-1.77v-5h-2.49V6.54h2.49V4h2.53Z" transform="translate(-0.93 -2.11)" style="fill:#fff"/><path d="M619.41,16.65a4.82,4.82,0,0,1-.1-.57,4.2,4.2,0,0,1-.54.48,3.9,3.9,0,0,1-.67.38,4.27,4.27,0,0,1-.81.27,4.59,4.59,0,0,1-.93.09,4.46,4.46,0,0,1-1.5-.23,3.43,3.43,0,0,1-1.16-.65,2.92,2.92,0,0,1-1-2.26,3.34,3.34,0,0,1,.35-1.55,2.84,2.84,0,0,1,1-1.12,4.7,4.7,0,0,1,1.52-.62,9.13,9.13,0,0,1,2.06-.21h1.61V10a1.76,1.76,0,0,0-.13-.71,1.36,1.36,0,0,0-.38-.54,1.71,1.71,0,0,0-.65-.36,3,3,0,0,0-1.68,0,1.45,1.45,0,0,0-.55.3,1,1,0,0,0-.3.43,1.33,1.33,0,0,0-.1.54H612.9a2.74,2.74,0,0,1,.3-1.25,3.27,3.27,0,0,1,.86-1.05,4.5,4.5,0,0,1,1.38-.72,6,6,0,0,1,1.86-.27,6.15,6.15,0,0,1,1.76.23,4.17,4.17,0,0,1,1.42.69,3.25,3.25,0,0,1,.93,1.14,3.7,3.7,0,0,1,.34,1.61v4.61a7.4,7.4,0,0,0,.1,1.34,3.46,3.46,0,0,0,.31,1v.17h-2.58A2.46,2.46,0,0,1,619.41,16.65Zm-1.74-1.44a2.77,2.77,0,0,0,.68-.28,2.58,2.58,0,0,0,.52-.38,2.29,2.29,0,0,0,.35-.45V12.22h-1.45a5.17,5.17,0,0,0-1.2.12,2.34,2.34,0,0,0-.81.37,1.37,1.37,0,0,0-.42.54,1.58,1.58,0,0,0-.15.69,1.51,1.51,0,0,0,.11.56,1.16,1.16,0,0,0,.32.44,1.7,1.7,0,0,0,.52.27,2.28,2.28,0,0,0,.72.1A2.9,2.9,0,0,0,617.67,15.21Z" transform="translate(-0.93 -2.11)" style="fill:#fff"/><path d="M629.75,6.54h4V8.42h-4v4.79a3,3,0,0,0,.13,1,1.42,1.42,0,0,0,.38.61,1.38,1.38,0,0,0,.61.35,3.07,3.07,0,0,0,.77.09l.63,0,.63-.08.55-.09.44-.1.26,1.75a3.16,3.16,0,0,1-.64.27,5.69,5.69,0,0,1-.79.2q-.42.08-.87.12c-.3,0-.6,0-.9,0a4.85,4.85,0,0,1-1.52-.22,3,3,0,0,1-1.18-.7,3.22,3.22,0,0,1-.77-1.2,5.42,5.42,0,0,1-.26-1.77v-5h-2.49V6.54h2.49V4h2.53Z" transform="translate(-0.93 -2.11)" style="fill:#fff"/><path d="M643.22,6.54V15h3v2.07h-8.67V15h3.13V8.62h-3.13V6.54Zm-2.65-3.27a1.52,1.52,0,0,1,.31-.44,1.13,1.13,0,0,1,.45-.27,1.64,1.64,0,0,1,.6-.1,1.45,1.45,0,0,1,1,.33,1.2,1.2,0,0,1,.41.87,1.2,1.2,0,0,1-.29.89,1.27,1.27,0,0,1-.89.41,1.21,1.21,0,0,1-.56.07,1.23,1.23,0,0,1-.57-.18,1,1,0,0,1-.42-.42,1.33,1.33,0,0,1-.14-.6A1.47,1.47,0,0,1,640.57,3.27Z" transform="translate(-0.93 -2.11)" style="fill:#fff"/><path d="M648.85,9.59a4.84,4.84,0,0,1,1-1.7,4.32,4.32,0,0,1,1.55-1.13,4.94,4.94,0,0,1,2.09-.41,5,5,0,0,1,2.1.41,4.54,4.54,0,0,1,1.56,1.13,5.13,5.13,0,0,1,1,1.7,6.45,6.45,0,0,1,.34,2.14v.2a6.46,6.46,0,0,1-.34,2.15,5.13,5.13,0,0,1-1,1.7,4.45,4.45,0,0,1-1.56,1.13,5.08,5.08,0,0,1-2.08.4,5.22,5.22,0,0,1-2.11-.4,4.41,4.41,0,0,1-1.55-1.13,4.84,4.84,0,0,1-1-1.7,6.46,6.46,0,0,1-.34-2.15v-.2A6.45,6.45,0,0,1,648.85,9.59Zm2.33,3.64a3.07,3.07,0,0,0,.43,1.06,2.21,2.21,0,0,0,.76.73,2.17,2.17,0,0,0,1.11.26,2.11,2.11,0,0,0,1.08-.26,2.18,2.18,0,0,0,.75-.73,3.51,3.51,0,0,0,.43-1.06,5.89,5.89,0,0,0,.14-1.3v-.2a5.84,5.84,0,0,0-.14-1.28,3.74,3.74,0,0,0-.43-1.06,2.18,2.18,0,0,0-.75-.73,2.46,2.46,0,0,0-2.2,0,2.27,2.27,0,0,0-.75.73,3.24,3.24,0,0,0-.43,1.06,5.28,5.28,0,0,0-.15,1.28v.2A5.33,5.33,0,0,0,651.18,13.23Z" transform="translate(-0.93 -2.11)" style="fill:#fff"/><path d="M660.92,6.54h2.28L663.36,8a4.19,4.19,0,0,1,.46-.55,4.36,4.36,0,0,1,.53-.45,4,4,0,0,1,1-.51,4.1,4.1,0,0,1,1.18-.17,4.58,4.58,0,0,1,1.47.23,3.07,3.07,0,0,1,1.16.74,3.54,3.54,0,0,1,.74,1.31,6.16,6.16,0,0,1,.26,1.94v6.54h-2.52v-6.5a3.27,3.27,0,0,0-.14-1.07,1.54,1.54,0,0,0-.42-.67,1.41,1.41,0,0,0-.66-.35,3.38,3.38,0,0,0-.88-.1,2.59,2.59,0,0,0-.76.1,2.06,2.06,0,0,0-.62.28,2,2,0,0,0-.41.35,2,2,0,0,0-.33.44v7.52h-2.53Z" transform="translate(-0.93 -2.11)" style="fill:#fff"/><circle cx="586.53" cy="39.64" r="12.51" style="fill:#fff"/><circle cx="782.54" cy="166.07" r="12.51" transform="translate(110.84 599.87) rotate(-45)" style="fill:#fff"/><path d="M744.46,200.83v5.41h-2.55V192h4.65a7.12,7.12,0,0,1,2.08.28,4.74,4.74,0,0,1,1.62.81,3.57,3.57,0,0,1,1,1.33,4.4,4.4,0,0,1,.37,1.87,4.45,4.45,0,0,1-.19,1.35,3.44,3.44,0,0,1-.52,1.07,3.68,3.68,0,0,1-.82.85,5.27,5.27,0,0,1-1.06.62l3,5.91v.13H749.4l-2.69-5.41Zm2.12-2.08a3.25,3.25,0,0,0,1.12-.18,2.22,2.22,0,0,0,.82-.52,1.9,1.9,0,0,0,.44-.69,2.65,2.65,0,0,0,.15-.92,2.84,2.84,0,0,0-.18-1,1.83,1.83,0,0,0-.53-.74,2.3,2.3,0,0,0-.79-.42,3.41,3.41,0,0,0-1.05-.15h-2.1v4.66Z" transform="translate(-0.93 -2.11)" style="fill:#fff"/><path d="M756.83,206a5,5,0,0,1-1.69-1.09,4.65,4.65,0,0,1-1.08-1.62,5.31,5.31,0,0,1-.38-2v-.39a6.07,6.07,0,0,1,.39-2.23,4.81,4.81,0,0,1,2.67-2.84,5.08,5.08,0,0,1,2-.39,4.92,4.92,0,0,1,2,.38,4.26,4.26,0,0,1,1.5,1.06,4.58,4.58,0,0,1,.92,1.65,6.77,6.77,0,0,1,.31,2.11v1.08h-7.25v0a3.88,3.88,0,0,0,.35,1.09,2.56,2.56,0,0,0,.59.77,2.72,2.72,0,0,0,.89.55,3,3,0,0,0,1.11.19,3.88,3.88,0,0,0,1.58-.32,3,3,0,0,0,1.23-.94l1.3,1.34a4.61,4.61,0,0,1-1.63,1.35,5.48,5.48,0,0,1-2.64.6A5.84,5.84,0,0,1,756.83,206Zm1-8.35a2.2,2.2,0,0,0-.71.49,3,3,0,0,0-.53.77,3.81,3.81,0,0,0-.3,1H761v-.2a2.29,2.29,0,0,0-.16-.85,2.07,2.07,0,0,0-.44-.73,2.22,2.22,0,0,0-.71-.48,2.43,2.43,0,0,0-1-.18A2.3,2.3,0,0,0,757.83,197.69Z" transform="translate(-0.93 -2.11)" style="fill:#fff"/><path d="M772.29,191.24v12.93h3.12v2.07h-8.92v-2.07h3.25V193.32h-3.25v-2.08Z" transform="translate(-0.93 -2.11)" style="fill:#fff"/><path d="M780.83,206a5.08,5.08,0,0,1-1.68-1.09,4.68,4.68,0,0,1-1.09-1.62,5.31,5.31,0,0,1-.38-2v-.39a6.07,6.07,0,0,1,.39-2.23,5.16,5.16,0,0,1,1.07-1.73,4.93,4.93,0,0,1,1.61-1.11,5.41,5.41,0,0,1,4,0,4.26,4.26,0,0,1,1.5,1.06,4.74,4.74,0,0,1,.92,1.65,7.07,7.07,0,0,1,.31,2.11v1.08h-7.26v0a4.23,4.23,0,0,0,.35,1.09,2.73,2.73,0,0,0,.59.77,2.82,2.82,0,0,0,.89.55,3.08,3.08,0,0,0,1.11.19,3.85,3.85,0,0,0,1.58-.32,2.9,2.9,0,0,0,1.23-.94l1.3,1.34a4.48,4.48,0,0,1-1.62,1.35,5.48,5.48,0,0,1-2.64.6A5.89,5.89,0,0,1,780.83,206Zm1-8.35a2.2,2.2,0,0,0-.71.49,3,3,0,0,0-.52.77,4.21,4.21,0,0,0-.31,1H785v-.2a2.51,2.51,0,0,0-.16-.85,2.25,2.25,0,0,0-.45-.73,2.12,2.12,0,0,0-.71-.48,2.4,2.4,0,0,0-1-.18A2.3,2.3,0,0,0,781.83,197.69Z" transform="translate(-0.93 -2.11)" style="fill:#fff"/><path d="M796.49,205.78c0-.18-.08-.37-.11-.57a3.53,3.53,0,0,1-.53.48,4.32,4.32,0,0,1-.67.38,4.27,4.27,0,0,1-.81.27,4.59,4.59,0,0,1-.93.09,4.46,4.46,0,0,1-1.5-.23,3.43,3.43,0,0,1-1.16-.65,3,3,0,0,1-1-2.26,3.34,3.34,0,0,1,.35-1.55,2.84,2.84,0,0,1,1-1.12,4.7,4.7,0,0,1,1.52-.62,9.13,9.13,0,0,1,2.06-.21h1.61v-.66a2,2,0,0,0-.13-.71,1.36,1.36,0,0,0-.38-.54,1.71,1.71,0,0,0-.65-.36,2.73,2.73,0,0,0-.89-.13,2.64,2.64,0,0,0-.79.11,1.45,1.45,0,0,0-.55.3,1,1,0,0,0-.3.43,1.33,1.33,0,0,0-.1.54H790a2.74,2.74,0,0,1,.3-1.25,3.27,3.27,0,0,1,.86-1.05,4.5,4.5,0,0,1,1.38-.72,6,6,0,0,1,1.86-.27,6.19,6.19,0,0,1,1.76.23,4.17,4.17,0,0,1,1.42.69,3.12,3.12,0,0,1,.92,1.14,3.57,3.57,0,0,1,.35,1.61v4.61a7.4,7.4,0,0,0,.1,1.34,3.46,3.46,0,0,0,.31,1v.17h-2.58A2.22,2.22,0,0,1,796.49,205.78Zm-1.74-1.44a2.77,2.77,0,0,0,.68-.28,2.58,2.58,0,0,0,.52-.38,2.29,2.29,0,0,0,.35-.45v-1.88h-1.45a5.17,5.17,0,0,0-1.2.12,2.34,2.34,0,0,0-.81.37,1.44,1.44,0,0,0-.42.54,1.58,1.58,0,0,0-.15.69,1.47,1.47,0,0,0,.11.56,1.16,1.16,0,0,0,.32.44,1.7,1.7,0,0,0,.52.27,2.28,2.28,0,0,0,.72.1A2.9,2.9,0,0,0,794.75,204.34Z" transform="translate(-0.93 -2.11)" style="fill:#fff"/><path d="M808.73,202.89a1.12,1.12,0,0,0-.4-.37,3.71,3.71,0,0,0-.78-.31,10.89,10.89,0,0,0-1.21-.29,11.43,11.43,0,0,1-1.69-.46,5.45,5.45,0,0,1-1.3-.67,2.76,2.76,0,0,1-.85-.89,2.34,2.34,0,0,1-.3-1.19,2.67,2.67,0,0,1,.3-1.24,3.2,3.2,0,0,1,.89-1,4.48,4.48,0,0,1,1.4-.7,6,6,0,0,1,1.85-.26,6.44,6.44,0,0,1,1.93.26,4.72,4.72,0,0,1,1.46.7,3.33,3.33,0,0,1,.91,1.08,3,3,0,0,1,.32,1.35h-2.52a1.41,1.41,0,0,0-.11-.54,1.45,1.45,0,0,0-.31-.45,2.08,2.08,0,0,0-.69-.39,3,3,0,0,0-1-.15,3.35,3.35,0,0,0-.9.11,1.67,1.67,0,0,0-.63.28,1.18,1.18,0,0,0-.35.39,1.06,1.06,0,0,0,0,.94.93.93,0,0,0,.37.37,2.63,2.63,0,0,0,.69.32,8.17,8.17,0,0,0,1.12.24,15.43,15.43,0,0,1,1.77.41,5.77,5.77,0,0,1,1.39.63,2.84,2.84,0,0,1,.9.93,2.41,2.41,0,0,1,.33,1.28,2.49,2.49,0,0,1-.34,1.29,3.2,3.2,0,0,1-.93,1,5,5,0,0,1-1.47.66,7.2,7.2,0,0,1-1.91.23,6.54,6.54,0,0,1-2.07-.3,4.83,4.83,0,0,1-1.51-.82,3.37,3.37,0,0,1-.92-1.12,2.86,2.86,0,0,1-.32-1.29h2.43a1.57,1.57,0,0,0,.25.78,1.61,1.61,0,0,0,.55.52,2.56,2.56,0,0,0,.76.29,4.43,4.43,0,0,0,1.87,0,2.21,2.21,0,0,0,.69-.29,1.21,1.21,0,0,0,.34-.38.89.89,0,0,0,.12-.45A.91.91,0,0,0,808.73,202.89Z" transform="translate(-0.93 -2.11)" style="fill:#fff"/><path d="M816.84,206a5,5,0,0,1-1.69-1.09,4.65,4.65,0,0,1-1.08-1.62,5.31,5.31,0,0,1-.38-2v-.39a6.07,6.07,0,0,1,.39-2.23,4.81,4.81,0,0,1,2.67-2.84,5.08,5.08,0,0,1,2-.39,4.92,4.92,0,0,1,2,.38,4.26,4.26,0,0,1,1.5,1.06,4.58,4.58,0,0,1,.92,1.65,6.77,6.77,0,0,1,.31,2.11v1.08h-7.25v0a4.25,4.25,0,0,0,.34,1.09,2.77,2.77,0,0,0,.6.77,2.72,2.72,0,0,0,.89.55,3,3,0,0,0,1.11.19,3.88,3.88,0,0,0,1.58-.32,3,3,0,0,0,1.23-.94l1.3,1.34a4.61,4.61,0,0,1-1.63,1.35,5.48,5.48,0,0,1-2.64.6A5.84,5.84,0,0,1,816.84,206Zm1-8.35a2.16,2.16,0,0,0-.7.49,3,3,0,0,0-.53.77,3.81,3.81,0,0,0-.3,1H821v-.2a2.29,2.29,0,0,0-.16-.85,2.07,2.07,0,0,0-.44-.73,2.22,2.22,0,0,0-.71-.48,2.43,2.43,0,0,0-1-.18A2.35,2.35,0,0,0,817.83,197.69Z" transform="translate(-0.93 -2.11)" style="fill:#fff"/><path d="M916.71,36.2a2,2,0,0,0-.51-.66,3.92,3.92,0,0,0-.87-.52,9.31,9.31,0,0,0-1.24-.43,11,11,0,0,1-2-.74,5.93,5.93,0,0,1-1.44-1,3.86,3.86,0,0,1-.9-1.21,3.64,3.64,0,0,1,.08-3.11,3.71,3.71,0,0,1,1.06-1.24,5,5,0,0,1,1.56-.79,6.67,6.67,0,0,1,1.93-.27,6,6,0,0,1,2,.32,4.79,4.79,0,0,1,1.58.9,4.05,4.05,0,0,1,1.41,3.14h-2.5a2.75,2.75,0,0,0-.2-.93,2.09,2.09,0,0,0-.47-.72,2.17,2.17,0,0,0-.78-.47,2.91,2.91,0,0,0-1.06-.18,3.31,3.31,0,0,0-1,.14,2.41,2.41,0,0,0-.75.38,1.72,1.72,0,0,0-.48.6,1.77,1.77,0,0,0-.17.77,1.4,1.4,0,0,0,.22.79,2,2,0,0,0,.62.6,4.37,4.37,0,0,0,.94.49,10.24,10.24,0,0,0,1.18.38,12.9,12.9,0,0,1,1.44.52,7.41,7.41,0,0,1,1.26.73,4.85,4.85,0,0,1,1.28,1.4,3.58,3.58,0,0,1,.47,1.87,3.53,3.53,0,0,1-.38,1.66A3.68,3.68,0,0,1,918,39.86a4.71,4.71,0,0,1-1.56.75,7.16,7.16,0,0,1-1.94.25,7,7,0,0,1-2.08-.32,5.45,5.45,0,0,1-1.79-.94,4.56,4.56,0,0,1-1.12-1.4,4.17,4.17,0,0,1-.43-1.88h2.52a2.84,2.84,0,0,0,.25,1.11,2.33,2.33,0,0,0,.6.78,2.25,2.25,0,0,0,.9.45,4.16,4.16,0,0,0,1.15.15,3.84,3.84,0,0,0,1-.12,2.81,2.81,0,0,0,.76-.36,1.71,1.71,0,0,0,.49-.58,1.6,1.6,0,0,0,.17-.76A1.76,1.76,0,0,0,916.71,36.2Z" transform="translate(-0.93 -2.11)" style="fill:#fff"/><path d="M928.32,39.22a4.11,4.11,0,0,1-1.3,1.23,3.26,3.26,0,0,1-1.69.45,4.31,4.31,0,0,1-1.51-.26,2.84,2.84,0,0,1-1.16-.81,3.89,3.89,0,0,1-.75-1.4,6.88,6.88,0,0,1-.27-2V30.12h2.53V36.4a5.5,5.5,0,0,0,.1,1.16,1.75,1.75,0,0,0,.32.74,1.26,1.26,0,0,0,.56.41,2.55,2.55,0,0,0,.83.12,3.6,3.6,0,0,0,.85-.1,2.19,2.19,0,0,0,.66-.28,2.49,2.49,0,0,0,.42-.38,2.26,2.26,0,0,0,.31-.49V30.13h2.54V40.7h-2.3Z" transform="translate(-0.93 -2.11)" style="fill:#fff"/><path d="M933.6,30.14h2.33L936,31.2a3.57,3.57,0,0,1,.47-.48,3.53,3.53,0,0,1,.55-.37,3.24,3.24,0,0,1,.81-.3,4.07,4.07,0,0,1,.95-.1,3.85,3.85,0,0,1,1.77.39,3.63,3.63,0,0,1,1.3,1.1,5,5,0,0,1,.8,1.7,8.29,8.29,0,0,1,.27,2.18v.22a8.07,8.07,0,0,1-.27,2.13,5.29,5.29,0,0,1-.8,1.69,3.6,3.6,0,0,1-3.07,1.54,4.44,4.44,0,0,1-1-.11,3.36,3.36,0,0,1-.85-.34,2.69,2.69,0,0,1-.44-.31,4.61,4.61,0,0,1-.4-.37v5h-2.52ZM940.28,34a3.43,3.43,0,0,0-.4-1.05,2.12,2.12,0,0,0-.72-.71,2,2,0,0,0-1-.25,3.16,3.16,0,0,0-.64.06,2.08,2.08,0,0,0-.53.2,2.13,2.13,0,0,0-.47.37,1.92,1.92,0,0,0-.35.51v4.55a2.23,2.23,0,0,0,.76.85,2.12,2.12,0,0,0,.55.23,3.13,3.13,0,0,0,.7.08,2,2,0,0,0,1-.27,2,2,0,0,0,.71-.72,3.4,3.4,0,0,0,.4-1.07,5.88,5.88,0,0,0,.13-1.29v-.2A5.88,5.88,0,0,0,940.28,34Z" transform="translate(-0.93 -2.11)" style="fill:#fff"/><path d="M945.6,30.15h2.33l.09,1.07a3.57,3.57,0,0,1,.47-.48,3.31,3.31,0,0,1,.55-.37,3.24,3.24,0,0,1,.81-.3,4.06,4.06,0,0,1,.95-.11,3.92,3.92,0,0,1,1.78.39,3.79,3.79,0,0,1,1.29,1.1,4.92,4.92,0,0,1,.8,1.71,8.24,8.24,0,0,1,.27,2.18v.21a8.07,8.07,0,0,1-.27,2.13,5.25,5.25,0,0,1-.8,1.7,3.66,3.66,0,0,1-3.06,1.54,4,4,0,0,1-1-.12,3.76,3.76,0,0,1-.85-.33,3.47,3.47,0,0,1-.44-.31,4.75,4.75,0,0,1-.4-.38v5h-2.51Zm6.68,3.9a3.25,3.25,0,0,0-.4-1.06,2.09,2.09,0,0,0-.72-.7,2,2,0,0,0-1-.26,2.56,2.56,0,0,0-.64.07,2.07,2.07,0,0,0-.53.19,2.84,2.84,0,0,0-.47.37,2.3,2.3,0,0,0-.35.51v4.55a2.39,2.39,0,0,0,.33.48,2.16,2.16,0,0,0,.43.37,1.78,1.78,0,0,0,.56.23,2.5,2.5,0,0,0,.69.09,2,2,0,0,0,1-.27,2.07,2.07,0,0,0,.71-.73,3.35,3.35,0,0,0,.41-1.06,6.58,6.58,0,0,0,.12-1.29v-.21A5.85,5.85,0,0,0,952.28,34.05Z" transform="translate(-0.93 -2.11)" style="fill:#fff"/><path d="M957.5,33.22a5.06,5.06,0,0,1,1-1.71A4.53,4.53,0,0,1,960,30.38a5.13,5.13,0,0,1,2.09-.4,5,5,0,0,1,2.1.41,4.54,4.54,0,0,1,1.56,1.13,5.17,5.17,0,0,1,1,1.71,6.65,6.65,0,0,1,.33,2.13v.21a6.67,6.67,0,0,1-.33,2.14,4.88,4.88,0,0,1-1,1.7,4.32,4.32,0,0,1-1.56,1.13,5.69,5.69,0,0,1-4.19,0,4.44,4.44,0,0,1-1.55-1.13,5,5,0,0,1-1-1.71,6.67,6.67,0,0,1-.33-2.14v-.21A6.61,6.61,0,0,1,957.5,33.22Zm2.33,3.64a3.31,3.31,0,0,0,.43,1,2.15,2.15,0,0,0,.76.74,2.28,2.28,0,0,0,1.11.26,2.21,2.21,0,0,0,1.08-.26,2.1,2.1,0,0,0,.75-.73,3.51,3.51,0,0,0,.43-1.06,5.86,5.86,0,0,0,.14-1.29v-.21a5.21,5.21,0,0,0-.14-1.27A3.36,3.36,0,0,0,964,33a2.21,2.21,0,0,0-.75-.74,2.26,2.26,0,0,0-1.1-.26,2.13,2.13,0,0,0-1.1.26,2,2,0,0,0-.75.73,3.48,3.48,0,0,0-.44,1.06,5.75,5.75,0,0,0-.14,1.27v.21A6,6,0,0,0,959.83,36.86Z" transform="translate(-0.93 -2.11)" style="fill:#fff"/><path d="M978.14,30.07a6,6,0,0,1,.84.19l-.37,2.51a10.18,10.18,0,0,0-1.08-.19,9.57,9.57,0,0,0-1-.07,4.46,4.46,0,0,0-1,.11,2.67,2.67,0,0,0-.79.32,2.45,2.45,0,0,0-.67.57,2.9,2.9,0,0,0-.46.81v6.43H971V30.18h2.36l.1,1.47,0,.24a4.88,4.88,0,0,1,1.55-1.39,3.75,3.75,0,0,1,2-.51A7.87,7.87,0,0,1,978.14,30.07Z" transform="translate(-0.93 -2.11)" style="fill:#fff"/><path d="M986.41,30.2h4v1.87h-4v4.79a3,3,0,0,0,.13,1,1.52,1.52,0,0,0,.38.62,1.46,1.46,0,0,0,.61.34,3.06,3.06,0,0,0,.77.1,4.64,4.64,0,0,0,.63,0l.63-.08c.19,0,.38-.05.55-.09l.43-.09.27,1.74a3.43,3.43,0,0,1-.64.28,6.09,6.09,0,0,1-.79.19q-.42.07-.87.12c-.31,0-.61,0-.91,0a5.21,5.21,0,0,1-1.52-.23,2.9,2.9,0,0,1-1.17-.71,3.07,3.07,0,0,1-.77-1.2,5.16,5.16,0,0,1-.26-1.77v-5h-2.49V30.2h2.49V27.62h2.53Z" transform="translate(-0.93 -2.11)" style="fill:#fff"/><polygon points="136.27 149.28 127.28 140.25 114.74 142.54 120.55 131.2 114.5 119.98 127.09 122 135.88 112.79 137.85 125.38 149.34 130.9 137.97 136.66 136.27 149.28" style="fill:#fff"/><polygon points="183.79 72.95 171.11 71.72 162.9 81.46 160.15 69.02 148.34 64.23 159.33 57.77 160.24 45.06 169.78 53.51 182.14 50.45 177.05 62.13 183.79 72.95" style="fill:#fff"/><polygon points="279.28 125.94 272.61 130.59 272.67 138.73 266.18 133.82 258.46 136.39 261.12 128.7 256.3 122.16 264.43 122.31 269.16 115.7 271.53 123.48 279.28 125.94" style="fill:#fff"/><polygon points="330.92 179.16 319.72 174.49 309.53 181.07 310.5 168.98 301.1 161.32 312.9 158.51 317.27 147.2 323.59 157.56 335.7 158.22 327.81 167.43 330.92 179.16" style="fill:#fff"/><polygon points="625.95 145.07 608.89 148.57 602.1 164.61 593.5 149.47 576.15 147.97 587.89 135.11 583.96 118.14 599.82 125.34 614.73 116.36 612.79 133.66 625.95 145.07" style="fill:#fff"/><polygon points="455.8 116.33 445.49 120.17 442.8 130.84 435.97 122.21 424.99 122.95 431.08 113.79 426.98 103.58 437.58 106.54 446.02 99.49 446.48 110.48 455.8 116.33" style="fill:#fff"/><polygon points="385.92 47.88 387.43 40.54 382.24 35.13 389.69 34.3 393.23 27.69 396.32 34.52 403.7 35.85 398.16 40.9 399.18 48.33 392.67 44.62 385.92 47.88" style="fill:#fff"/><polygon points="756.84 70.11 744.54 71.42 738.65 82.3 733.6 71.01 721.43 68.77 730.61 60.47 728.98 48.2 739.71 54.37 750.87 49.03 748.32 61.14 756.84 70.11" style="fill:#fff"/><polygon points="756.59 124.15 756.38 113.83 747.75 108.16 757.5 104.76 760.23 94.81 766.47 103.03 776.78 102.54 770.89 111.02 774.53 120.68 764.65 117.7 756.59 124.15" style="fill:#fff"/><polygon points="799.13 86.38 790.38 83.7 783.2 89.38 783.05 80.23 775.43 75.16 784.09 72.19 786.55 63.37 792.05 70.69 801.2 70.31 795.94 77.8 799.13 86.38" style="fill:#fff"/><polygon points="902.05 175.58 901.38 166.44 893.47 161.83 901.95 158.36 903.89 149.41 909.81 156.4 918.92 155.49 914.1 163.28 917.78 171.66 908.89 169.48 902.05 175.58" style="fill:#fff"/><circle cx="949.19" cy="64.65" r="9.78" style="fill:#fff"/><circle cx="949.19" cy="64.65" r="15.42" style="fill:none;stroke:#fff;stroke-miterlimit:10;stroke-width:3px"/></svg>