<svg xmlns="http://www.w3.org/2000/svg" viewBox="0 0 551.86 246.37"><circle cx="53.08" cy="202.23" r="12.51" style="fill:#fff"/><circle cx="164.73" cy="60.42" r="12.51" style="fill:#fff"/><circle cx="257.09" cy="184.52" r="12.51" style="fill:#fff"/><path d="M57.31,204.29c2-.21,3.95-.45,5.95-.73" transform="translate(-0.93 -2.89)" style="fill:none;stroke:#fff;stroke-linecap:round;stroke-miterlimit:10;stroke-width:5px"/><path d="M75.2,201.44c16.65-3.69,32.35-10.66,38.5-24.1,10.82-23.63-17.73-45.76-8.79-72.94C114.6,74.94,164,52.61,191.3,66.64c37.91,19.51,11.8,98.55,49.38,116.53,25,12,66.23-8.5,69.31-28.54,3.29-21.45-38.85-32-39.25-63.83-.23-18.24,13.31-38.28,32.22-45,13.74-4.86,29.5-2.42,41,5,18,11.57,13.61,27.57,31.87,46.1,11.49,11.66,27.82,20.15,42.6,21.86,26.94,3.13,56-15.38,75.68-46.25" transform="translate(-0.93 -2.89)" style="fill:none;stroke:#fff;stroke-linecap:round;stroke-miterlimit:10;stroke-width:5px;stroke-dasharray:12.131143569946289,12.131143569946289"/><path d="M497.27,67.32c1-1.72,2-3.47,2.89-5.25" transform="translate(-0.93 -2.89)" style="fill:none;stroke:#fff;stroke-linecap:round;stroke-miterlimit:10;stroke-width:5px"/><path d="M8.59,240.62a2.06,2.06,0,0,0-.5-.66,4.26,4.26,0,0,0-.88-.52A9.65,9.65,0,0,0,6,239a10.79,10.79,0,0,1-2-.73,6.23,6.23,0,0,1-1.44-1,4,4,0,0,1-.9-1.21,3.44,3.44,0,0,1-.31-1.48A3.53,3.53,0,0,1,1.74,233a3.71,3.71,0,0,1,1.06-1.24A4.73,4.73,0,0,1,4.37,231a6.28,6.28,0,0,1,1.92-.28,6.06,6.06,0,0,1,2,.32,4.58,4.58,0,0,1,1.57.9,4,4,0,0,1,1,1.37,4.12,4.12,0,0,1,.38,1.76H8.77a3,3,0,0,0-.2-.93,2.09,2.09,0,0,0-.47-.72,2.3,2.3,0,0,0-.79-.47,2.87,2.87,0,0,0-1.06-.18,3.36,3.36,0,0,0-1,.14,2.41,2.41,0,0,0-.75.38,1.72,1.72,0,0,0-.48.6,1.77,1.77,0,0,0-.16.77,1.46,1.46,0,0,0,.22.8,1.88,1.88,0,0,0,.62.6,4.58,4.58,0,0,0,.94.48c.36.14.75.27,1.18.39a11.14,11.14,0,0,1,1.44.51,6.48,6.48,0,0,1,1.26.73,4.73,4.73,0,0,1,1.28,1.4,3.56,3.56,0,0,1,.48,1.87,3.48,3.48,0,0,1-.39,1.66,3.54,3.54,0,0,1-1.06,1.22,4.71,4.71,0,0,1-1.56.75,7.16,7.16,0,0,1-1.94.25A6.69,6.69,0,0,1,4.27,245,5.27,5.27,0,0,1,2.48,244a4.5,4.5,0,0,1-1.13-1.4,4.09,4.09,0,0,1-.42-1.87H3.45a2.93,2.93,0,0,0,.25,1.12,2.1,2.1,0,0,0,.6.78,2.54,2.54,0,0,0,.9.45,4.59,4.59,0,0,0,1.15.14,3.7,3.7,0,0,0,1-.12,2.5,2.5,0,0,0,.77-.37,1.56,1.56,0,0,0,.48-.57,1.61,1.61,0,0,0,.18-.76A1.88,1.88,0,0,0,8.59,240.62Z" transform="translate(-0.93 -2.89)" style="fill:#fff"/><path d="M18.28,234.53h4v1.88h-4v4.79a2.93,2.93,0,0,0,.14,1,1.48,1.48,0,0,0,.38.61,1.4,1.4,0,0,0,.6.35,3.21,3.21,0,0,0,.78.09l.63,0,.63-.08L22,243l.43-.1.27,1.75a4.25,4.25,0,0,1-.64.27c-.25.08-.51.14-.79.2s-.57.09-.87.12-.61,0-.91,0a4.9,4.9,0,0,1-1.52-.22,3,3,0,0,1-1.17-.7,3.19,3.19,0,0,1-.77-1.21,5,5,0,0,1-.27-1.76v-5H13.26v-1.88h2.49V232h2.53Z" transform="translate(-0.93 -2.89)" style="fill:#fff"/><path d="M34,234.41a5.4,5.4,0,0,1,.84.19l-.37,2.51a8.15,8.15,0,0,0-1.08-.19,9.51,9.51,0,0,0-1-.06,4.4,4.4,0,0,0-1,.1,2.35,2.35,0,0,0-.79.33,2.49,2.49,0,0,0-.68.57,3,3,0,0,0-.46.8v6.44H26.89V234.53h2.36l.11,1.48,0,.24a4.77,4.77,0,0,1,1.54-1.4,4,4,0,0,1,2-.51A7.87,7.87,0,0,1,34,234.41Z" transform="translate(-0.93 -2.89)" style="fill:#fff"/><path d="M44,244.63a3.27,3.27,0,0,1-.11-.56,3.64,3.64,0,0,1-1.2.86,4.81,4.81,0,0,1-.81.27,4.76,4.76,0,0,1-.94.09,4.46,4.46,0,0,1-1.5-.23,3.55,3.55,0,0,1-1.16-.66,2.84,2.84,0,0,1-.75-1,2.89,2.89,0,0,1-.27-1.25,3.34,3.34,0,0,1,.34-1.55,2.92,2.92,0,0,1,1-1.12,4.7,4.7,0,0,1,1.52-.62,9.13,9.13,0,0,1,2.06-.21h1.61V238a1.73,1.73,0,0,0-.13-.71,1.36,1.36,0,0,0-.38-.54,1.64,1.64,0,0,0-.65-.36,2.65,2.65,0,0,0-.89-.13,2.69,2.69,0,0,0-.79.11,1.45,1.45,0,0,0-.55.3,1,1,0,0,0-.3.43,1.33,1.33,0,0,0-.1.54H37.44a2.74,2.74,0,0,1,.3-1.25,3.4,3.4,0,0,1,.86-1A4.46,4.46,0,0,1,40,234.6a6.19,6.19,0,0,1,1.86-.26,6.12,6.12,0,0,1,1.75.23,4.25,4.25,0,0,1,1.42.68A3.37,3.37,0,0,1,46,236.4a3.57,3.57,0,0,1,.34,1.61v4.61a7.4,7.4,0,0,0,.1,1.34,3.57,3.57,0,0,0,.31,1v.17H44.12A2.34,2.34,0,0,1,44,244.63Zm-1.74-1.43a2.87,2.87,0,0,0,.67-.28,2.08,2.08,0,0,0,.52-.39,1.73,1.73,0,0,0,.35-.44v-1.88H42.31a5.29,5.29,0,0,0-1.2.12,2.34,2.34,0,0,0-.81.37,1.37,1.37,0,0,0-.42.54,1.56,1.56,0,0,0-.14.68,1.52,1.52,0,0,0,.1.57,1.19,1.19,0,0,0,.33.44,1.64,1.64,0,0,0,.51.27,2.3,2.3,0,0,0,.73.1A3,3,0,0,0,42.22,243.2Z" transform="translate(-0.93 -2.89)" style="fill:#fff"/><path d="M54.29,234.53h4v1.88h-4v4.79a3,3,0,0,0,.13,1,1.59,1.59,0,0,0,.38.61,1.44,1.44,0,0,0,.61.35,3.07,3.07,0,0,0,.77.09l.63,0,.63-.08L58,243l.44-.1.26,1.75a3.52,3.52,0,0,1-.64.27,7.37,7.37,0,0,1-.78.2c-.28.05-.58.09-.88.12s-.6,0-.9,0a4.9,4.9,0,0,1-1.52-.22,3.11,3.11,0,0,1-1.18-.7,3.17,3.17,0,0,1-.76-1.21,5,5,0,0,1-.27-1.76v-5H49.27v-1.88h2.49V232h2.53Z" transform="translate(-0.93 -2.89)" style="fill:#fff"/><path d="M64.3,244.9a5.24,5.24,0,0,1-1.68-1.09,4.87,4.87,0,0,1-1.09-1.62,5.31,5.31,0,0,1-.38-2v-.39a6.16,6.16,0,0,1,.39-2.24,5.21,5.21,0,0,1,1.07-1.72,4.84,4.84,0,0,1,1.6-1.11,5.08,5.08,0,0,1,2-.39,5,5,0,0,1,2,.38,4.26,4.26,0,0,1,1.5,1.06,4.56,4.56,0,0,1,.91,1.65,6.72,6.72,0,0,1,.32,2.11v1.08H63.7v0a4.19,4.19,0,0,0,.35,1.1,2.69,2.69,0,0,0,.59.77,3,3,0,0,0,.89.55,3.08,3.08,0,0,0,1.11.19,4.06,4.06,0,0,0,1.58-.32,3,3,0,0,0,1.23-.94l1.3,1.34a4.57,4.57,0,0,1-1.62,1.35,5.49,5.49,0,0,1-2.65.6A5.87,5.87,0,0,1,64.3,244.9Zm1-8.35a2.06,2.06,0,0,0-.71.49,2.82,2.82,0,0,0-.52.77,3.81,3.81,0,0,0-.31,1h4.71v-.2a2.57,2.57,0,0,0-.16-.86,2.2,2.2,0,0,0-.45-.72,2.12,2.12,0,0,0-.71-.48,2.4,2.4,0,0,0-1-.18A2.3,2.3,0,0,0,65.3,236.55Z" transform="translate(-0.93 -2.89)" style="fill:#fff"/><path d="M73.47,237.54a5.08,5.08,0,0,1,.85-1.71,3.83,3.83,0,0,1,1.34-1.1,4,4,0,0,1,1.78-.39,4.09,4.09,0,0,1,1,.11,3,3,0,0,1,.85.34,2.69,2.69,0,0,1,.49.34,2.46,2.46,0,0,1,.41.44l.11-1h2.3v10.26a4.8,4.8,0,0,1-.36,1.9,3.94,3.94,0,0,1-1,1.4,4.43,4.43,0,0,1-1.55.87,6.25,6.25,0,0,1-2,.3,5.39,5.39,0,0,1-1-.1,6.22,6.22,0,0,1-1.08-.3,5.51,5.51,0,0,1-1-.53,3.42,3.42,0,0,1-.83-.78L74.94,246a4.48,4.48,0,0,0,.6.56,3.33,3.33,0,0,0,.64.39,3.26,3.26,0,0,0,.69.22,3.38,3.38,0,0,0,.72.08,3.31,3.31,0,0,0,1.08-.17,2.16,2.16,0,0,0,.79-.51,2,2,0,0,0,.47-.75,3.21,3.21,0,0,0,.16-1v-.67a3.25,3.25,0,0,1-.42.41,2.85,2.85,0,0,1-.46.31,3.48,3.48,0,0,1-.82.31,4.16,4.16,0,0,1-2.73-.29,4.12,4.12,0,0,1-1.34-1.12,5.12,5.12,0,0,1-.85-1.7,7.31,7.31,0,0,1-.3-2.13v-.2A7.6,7.6,0,0,1,73.47,237.54Zm2.37,3.68a3.09,3.09,0,0,0,.43,1.05,2.13,2.13,0,0,0,.73.7,2.08,2.08,0,0,0,1.06.25,2.84,2.84,0,0,0,.68-.07,2.11,2.11,0,0,0,.56-.22,2,2,0,0,0,.45-.37,2.36,2.36,0,0,0,.34-.47v-4.55a2.23,2.23,0,0,0-.37-.51,1.68,1.68,0,0,0-.48-.36,2.07,2.07,0,0,0-.53-.19,2.53,2.53,0,0,0-.63-.07,2,2,0,0,0-1.06.26,2.07,2.07,0,0,0-.74.7,3.44,3.44,0,0,0-.44,1.07,5.89,5.89,0,0,0-.14,1.3v.2A5.77,5.77,0,0,0,75.84,241.22Z" transform="translate(-0.93 -2.89)" style="fill:#fff"/><path d="M91.77,234.53V243h3v2.07H86.08V243h3.14v-6.42H86.08v-2.08Zm-2.65-3.27a1.23,1.23,0,0,1,.3-.44,1.24,1.24,0,0,1,.46-.27,1.64,1.64,0,0,1,.6-.1,1.45,1.45,0,0,1,1,.33,1.16,1.16,0,0,1,.4.87,1.2,1.2,0,0,1-.28.89,1.27,1.27,0,0,1-.9.41,1.33,1.33,0,0,1-.56.07,1.19,1.19,0,0,1-.56-.18,1.06,1.06,0,0,1-.42-.42,1.21,1.21,0,0,1-.15-.6A1.43,1.43,0,0,1,89.12,231.26Z" transform="translate(-0.93 -2.89)" style="fill:#fff"/><path d="M100.31,244.9a5.18,5.18,0,0,1-1.69-1.09,4.7,4.7,0,0,1-1.08-1.62,5.31,5.31,0,0,1-.38-2v-.39a6.38,6.38,0,0,1,.38-2.24,5.38,5.38,0,0,1,1.07-1.72,4.88,4.88,0,0,1,1.61-1.11,5,5,0,0,1,2-.39,5,5,0,0,1,2,.38,4.26,4.26,0,0,1,1.5,1.06,4.58,4.58,0,0,1,.92,1.65,6.72,6.72,0,0,1,.31,2.11v1.08H99.71v0a4.21,4.21,0,0,0,.34,1.1,3.1,3.1,0,0,0,.59.77,2.94,2.94,0,0,0,.9.55,3,3,0,0,0,1.11.19,4.06,4.06,0,0,0,1.58-.32,3,3,0,0,0,1.23-.94l1.3,1.34a4.61,4.61,0,0,1-1.63,1.35,5.48,5.48,0,0,1-2.64.6A5.84,5.84,0,0,1,100.31,244.9Zm1-8.35a2,2,0,0,0-.7.49,2.85,2.85,0,0,0-.53.77,3.81,3.81,0,0,0-.3,1h4.7v-.2a2.34,2.34,0,0,0-.16-.86,2.18,2.18,0,0,0-.44-.72,2.22,2.22,0,0,0-.71-.48,2.43,2.43,0,0,0-1-.18A2.35,2.35,0,0,0,101.3,236.55Z" transform="translate(-0.93 -2.89)" style="fill:#fff"/><path d="M127.57,33.89V38.2H125V24h2.57v6.61l1.3-1.73L132.48,24h3.12l-4.83,6.28,5,7.94h-3l-3.68-6Z" transform="translate(-0.93 -2.89)" style="fill:#fff"/><path d="M137,30.69A4.9,4.9,0,0,1,138,29a4.4,4.4,0,0,1,1.54-1.13,5.56,5.56,0,0,1,4.19,0A4.67,4.67,0,0,1,145.3,29a5,5,0,0,1,1,1.71,6.61,6.61,0,0,1,.33,2.13V33a6.67,6.67,0,0,1-.33,2.14,5,5,0,0,1-1,1.71A4.38,4.38,0,0,1,143.75,38a5.56,5.56,0,0,1-4.19,0A4.21,4.21,0,0,1,138,36.88a4.9,4.9,0,0,1-1-1.71A6.67,6.67,0,0,1,136.7,33v-.21A6.61,6.61,0,0,1,137,30.69Zm2.33,3.64a3.32,3.32,0,0,0,.44,1.05,2,2,0,0,0,.75.73,2.17,2.17,0,0,0,1.11.27,2.06,2.06,0,0,0,1.08-.27,2.12,2.12,0,0,0,.76-.73,3.3,3.3,0,0,0,.42-1.05,5.46,5.46,0,0,0,.14-1.3v-.21a5.21,5.21,0,0,0-.14-1.27,3.36,3.36,0,0,0-.42-1.06,2.11,2.11,0,0,0-1.86-1,2.1,2.1,0,0,0-1.09.27,2,2,0,0,0-.75.73,3.38,3.38,0,0,0-.44,1.06,5.75,5.75,0,0,0-.14,1.27V33A6,6,0,0,0,139.36,34.33Z" transform="translate(-0.93 -2.89)" style="fill:#fff"/><path d="M149.1,27.64h2.29l.15,1.48a5,5,0,0,1,.47-.55,3.18,3.18,0,0,1,.53-.44,3.26,3.26,0,0,1,1-.51,3.9,3.9,0,0,1,1.19-.18,4.36,4.36,0,0,1,1.47.24,2.82,2.82,0,0,1,1.15.74,3.47,3.47,0,0,1,.75,1.31,6.39,6.39,0,0,1,.26,1.93V38.2h-2.52V31.7a3.24,3.24,0,0,0-.15-1.07,1.43,1.43,0,0,0-.42-.67,1.41,1.41,0,0,0-.66-.35,3.25,3.25,0,0,0-.87-.1,2.66,2.66,0,0,0-.77.1,2.18,2.18,0,0,0-.62.28,2.71,2.71,0,0,0-.41.35,3,3,0,0,0-.33.44V38.2H149.1Z" transform="translate(-0.93 -2.89)" style="fill:#fff"/><path d="M170.65,36.17v2H160.9V36.6l6-6.9H161V27.64h9.34v1.55l-6.05,7Z" transform="translate(-0.93 -2.89)" style="fill:#fff"/><path d="M176,38a4.93,4.93,0,0,1-1.68-1.09,4.73,4.73,0,0,1-1.09-1.61,5.33,5.33,0,0,1-.38-2V32.9a6.1,6.1,0,0,1,.39-2.23A5.11,5.11,0,0,1,174.26,29a4.7,4.7,0,0,1,1.6-1.11,4.91,4.91,0,0,1,2-.4,5.17,5.17,0,0,1,2,.38,4.28,4.28,0,0,1,1.5,1.07,4.6,4.6,0,0,1,.92,1.64,7.09,7.09,0,0,1,.31,2.12v1.07h-7.26v0a4.11,4.11,0,0,0,.35,1.09,2.77,2.77,0,0,0,.59.78,3,3,0,0,0,.89.54,3.08,3.08,0,0,0,1.11.2,4.06,4.06,0,0,0,1.58-.32,3,3,0,0,0,1.23-.94l1.3,1.34a4.48,4.48,0,0,1-1.62,1.35,5.48,5.48,0,0,1-2.64.6A5.7,5.7,0,0,1,176,38Zm1-8.34a1.93,1.93,0,0,0-.71.49,2.67,2.67,0,0,0-.52.77,4.27,4.27,0,0,0-.31,1h4.71v-.19a2.57,2.57,0,0,0-.16-.86,2.2,2.2,0,0,0-.45-.72,2.14,2.14,0,0,0-.71-.49,2.4,2.4,0,0,0-1-.18A2.3,2.3,0,0,0,177,29.66Z" transform="translate(-0.93 -2.89)" style="fill:#fff"/><path d="M185.14,27.64h2.32l.1,1.06a3.05,3.05,0,0,1,.47-.48,4,4,0,0,1,.54-.37,3.39,3.39,0,0,1,.81-.3,4.12,4.12,0,0,1,1-.11,3.89,3.89,0,0,1,1.78.39,3.72,3.72,0,0,1,1.3,1.1,5,5,0,0,1,.8,1.7,8.29,8.29,0,0,1,.27,2.18V33a8.07,8.07,0,0,1-.27,2.13,5.44,5.44,0,0,1-.79,1.7,3.8,3.8,0,0,1-1.3,1.13,3.73,3.73,0,0,1-1.77.41,3.92,3.92,0,0,1-1-.12,3.76,3.76,0,0,1-.85-.33,2.32,2.32,0,0,1-.44-.31,4.61,4.61,0,0,1-.4-.37v5h-2.52Zm6.68,3.88a3.53,3.53,0,0,0-.4-1.05,2.09,2.09,0,0,0-.72-.7,2,2,0,0,0-1-.26,3.24,3.24,0,0,0-.65.07,2,2,0,0,0-.52.2,1.87,1.87,0,0,0-.47.37,1.8,1.8,0,0,0-.35.5v4.56a2.59,2.59,0,0,0,.32.47,2.27,2.27,0,0,0,.44.38,2,2,0,0,0,.55.22,2.53,2.53,0,0,0,.7.09,1.94,1.94,0,0,0,1-.27,2.1,2.1,0,0,0,.72-.73,3.6,3.6,0,0,0,.4-1.06A6.73,6.73,0,0,0,192,33v-.21A6,6,0,0,0,191.82,31.52Z" transform="translate(-0.93 -2.89)" style="fill:#fff"/><path d="M201.94,27.64h4v1.87h-4v4.8a3,3,0,0,0,.14,1,1.48,1.48,0,0,0,.38.61,1.36,1.36,0,0,0,.61.34,2.66,2.66,0,0,0,.77.1,4.64,4.64,0,0,0,.63,0l.63-.08a4.51,4.51,0,0,0,.55-.09l.43-.09.27,1.74a3.16,3.16,0,0,1-.64.28,6.09,6.09,0,0,1-.79.19,7.93,7.93,0,0,1-.87.12c-.3,0-.61,0-.9,0a4.85,4.85,0,0,1-1.52-.23,3,3,0,0,1-1.18-.7,3.07,3.07,0,0,1-.77-1.2,5.15,5.15,0,0,1-.27-1.77v-5h-2.49V27.64h2.49V25.06h2.53Z" transform="translate(-0.93 -2.89)" style="fill:#fff"/><path d="M223.29,213.75h3.61a6.72,6.72,0,0,1,1.78.23,6.15,6.15,0,0,1,1.53.63,5.06,5.06,0,0,1,1.18.92,6.24,6.24,0,0,1,.9,1.21,7,7,0,0,1,.63,1.64,8.42,8.42,0,0,1,.22,1.92v1.15a7.86,7.86,0,0,1-.21,1.84,5.9,5.9,0,0,1-1.46,2.83,5,5,0,0,1-1.12.94,5.57,5.57,0,0,1-1.53.68A7.09,7.09,0,0,1,227,228h-3.71Zm2.57,12.17H227a3.86,3.86,0,0,0,1.05-.14,2.9,2.9,0,0,0,.87-.41,3.16,3.16,0,0,0,.73-.69,3.81,3.81,0,0,0,.53-1,5.72,5.72,0,0,0,.27-1,9.27,9.27,0,0,0,.1-1.22v-1.17a8.8,8.8,0,0,0-.1-1.19,6.32,6.32,0,0,0-.28-1,4,4,0,0,0-.59-1,3.09,3.09,0,0,0-.87-.74,3.35,3.35,0,0,0-.82-.33,3.49,3.49,0,0,0-1-.13h-1Z" transform="translate(-0.93 -2.89)" style="fill:#fff"/><path d="M238.31,227.77a4.87,4.87,0,0,1-1.69-1.09,4.57,4.57,0,0,1-1.08-1.61,5.36,5.36,0,0,1-.38-2v-.39a6.28,6.28,0,0,1,.38-2.23,5.43,5.43,0,0,1,1.07-1.73,4.86,4.86,0,0,1,1.61-1.1,4.91,4.91,0,0,1,2-.4,5.12,5.12,0,0,1,2,.38,4.16,4.16,0,0,1,1.5,1.07,4.46,4.46,0,0,1,.92,1.64,6.79,6.79,0,0,1,.31,2.12v1.07h-7.25v0a4.13,4.13,0,0,0,.34,1.09,2.63,2.63,0,0,0,.6.77,2.72,2.72,0,0,0,.89.55,3,3,0,0,0,1.11.2,3.89,3.89,0,0,0,1.58-.33,3,3,0,0,0,1.23-.93l1.3,1.33a4.53,4.53,0,0,1-1.63,1.36,5.48,5.48,0,0,1-2.64.6A5.64,5.64,0,0,1,238.31,227.77Zm1-8.34a1.89,1.89,0,0,0-.7.49,2.7,2.7,0,0,0-.53.77,3.73,3.73,0,0,0-.3,1h4.7v-.19a2.3,2.3,0,0,0-.16-.86,2.33,2.33,0,0,0-.44-.73,2.22,2.22,0,0,0-.71-.48,2.43,2.43,0,0,0-1-.18A2.35,2.35,0,0,0,239.3,219.43Z" transform="translate(-0.93 -2.89)" style="fill:#fff"/><path d="M254.21,224.63a1.09,1.09,0,0,0-.41-.38,3.81,3.81,0,0,0-.78-.31,10.6,10.6,0,0,0-1.21-.28,11.75,11.75,0,0,1-1.69-.47,5.11,5.11,0,0,1-1.3-.67,2.87,2.87,0,0,1-.85-.89,2.31,2.31,0,0,1-.3-1.19,2.59,2.59,0,0,1,.31-1.24,3,3,0,0,1,.88-1,4.29,4.29,0,0,1,1.4-.71,6.26,6.26,0,0,1,1.85-.26,6.85,6.85,0,0,1,1.94.26,4.56,4.56,0,0,1,1.45.71,3,3,0,0,1,.91,1.08,2.91,2.91,0,0,1,.32,1.34h-2.52a1.17,1.17,0,0,0-.11-.53,1.38,1.38,0,0,0-.31-.46,1.93,1.93,0,0,0-.68-.39,3,3,0,0,0-1-.14,3.49,3.49,0,0,0-.9.1,1.67,1.67,0,0,0-.63.29,1.18,1.18,0,0,0-.35.39,1,1,0,0,0,0,.93,1,1,0,0,0,.37.38,2.81,2.81,0,0,0,.69.31,8,8,0,0,0,1.13.24,13.77,13.77,0,0,1,1.76.42,5,5,0,0,1,1.39.63,3.06,3.06,0,0,1,.91.92,2.51,2.51,0,0,1,.32,1.28,2.58,2.58,0,0,1-.33,1.29,3.24,3.24,0,0,1-.94,1,4.75,4.75,0,0,1-1.47.66,7.13,7.13,0,0,1-1.91.24,6.53,6.53,0,0,1-2.07-.31,4.67,4.67,0,0,1-1.5-.82,3.4,3.4,0,0,1-.93-1.12,2.85,2.85,0,0,1-.31-1.29h2.42a1.57,1.57,0,0,0,.25.78,1.7,1.7,0,0,0,.55.52,2.37,2.37,0,0,0,.77.29,4.12,4.12,0,0,0,.86.09,3.73,3.73,0,0,0,1-.11,2.21,2.21,0,0,0,.69-.29,1.11,1.11,0,0,0,.34-.38.89.89,0,0,0,.12-.45A1,1,0,0,0,254.21,224.63Z" transform="translate(-0.93 -2.89)" style="fill:#fff"/><path d="M265.77,217.41v8.49h3V228h-8.67V225.9h3.14v-6.41h-3.14v-2.08Zm-2.64-3.28a1.32,1.32,0,0,1,.3-.44,1.54,1.54,0,0,1,.45-.27,1.89,1.89,0,0,1,.6-.1,1.44,1.44,0,0,1,1,.34,1.29,1.29,0,0,1,.11,1.75,1.27,1.27,0,0,1-.89.41,1.34,1.34,0,0,1-.56.08,1.47,1.47,0,0,1-.56-.18,1,1,0,0,1-.42-.42,1.28,1.28,0,0,1-.15-.61A1.47,1.47,0,0,1,263.13,214.13Z" transform="translate(-0.93 -2.89)" style="fill:#fff"/><path d="M271.48,220.41a5.08,5.08,0,0,1,.85-1.71,3.8,3.8,0,0,1,3.12-1.49,4.62,4.62,0,0,1,1,.11,3.36,3.36,0,0,1,.85.34,3.3,3.3,0,0,1,.49.34,3.51,3.51,0,0,1,.42.44l.1-1h2.3v10.25a4.77,4.77,0,0,1-.36,1.9,3.85,3.85,0,0,1-1,1.4,4.28,4.28,0,0,1-1.55.87,6.25,6.25,0,0,1-2,.3,5.39,5.39,0,0,1-1-.1,5.18,5.18,0,0,1-1.07-.3,5.29,5.29,0,0,1-1-.53,3.24,3.24,0,0,1-.83-.78l1.16-1.53a4.48,4.48,0,0,0,.6.56,3,3,0,0,0,1.33.62,3.38,3.38,0,0,0,.72.07,3.31,3.31,0,0,0,1.08-.17,2.14,2.14,0,0,0,.79-.5,2.17,2.17,0,0,0,.47-.76,3.15,3.15,0,0,0,.16-1V227a3.25,3.25,0,0,1-.42.41,2.91,2.91,0,0,1-.46.32,3.47,3.47,0,0,1-.82.3,3.74,3.74,0,0,1-1,.12,3.77,3.77,0,0,1-1.76-.41,4,4,0,0,1-1.34-1.12,5.12,5.12,0,0,1-.85-1.7,7.19,7.19,0,0,1-.3-2.12v-.21A7.65,7.65,0,0,1,271.48,220.41Zm2.37,3.68a3.09,3.09,0,0,0,.43,1,2,2,0,0,0,.73.7,2.08,2.08,0,0,0,1.06.26,2.82,2.82,0,0,0,.68-.08,2.11,2.11,0,0,0,.56-.22,2,2,0,0,0,.45-.36,2.43,2.43,0,0,0,.34-.48v-4.55a2.78,2.78,0,0,0-.37-.51,1.89,1.89,0,0,0-.48-.36,2.07,2.07,0,0,0-.53-.19,2.53,2.53,0,0,0-.63-.07,2,2,0,0,0-1.8,1,3.38,3.38,0,0,0-.44,1.06,6,6,0,0,0-.14,1.3v.21A5.68,5.68,0,0,0,273.85,224.09Z" transform="translate(-0.93 -2.89)" style="fill:#fff"/><path d="M283.47,217.41h2.28l.16,1.48a4.19,4.19,0,0,1,.46-.55,3.79,3.79,0,0,1,.54-.45,3.46,3.46,0,0,1,1-.5,3.83,3.83,0,0,1,1.18-.18,4.53,4.53,0,0,1,1.47.23,2.91,2.91,0,0,1,1.16.75,3.26,3.26,0,0,1,.74,1.31,6,6,0,0,1,.27,1.93V228h-2.52v-6.5a3.24,3.24,0,0,0-.15-1.07,1.6,1.6,0,0,0-.42-.67,1.41,1.41,0,0,0-.66-.35,3.35,3.35,0,0,0-.87-.1,2.66,2.66,0,0,0-.77.1,2.06,2.06,0,0,0-.62.28,2,2,0,0,0-.41.35,3,3,0,0,0-.33.44V228h-2.53Z" transform="translate(-0.93 -2.89)" style="fill:#fff"/><path d="M272.19,12.35a6.07,6.07,0,0,1-.33,2.07,4.29,4.29,0,0,1-.94,1.56,4.16,4.16,0,0,1-1.5,1,5.5,5.5,0,0,1-2,.34,5.09,5.09,0,0,1-1.92-.34A4.19,4.19,0,0,1,264,16a4.39,4.39,0,0,1-.95-1.56,5.93,5.93,0,0,1-.34-2.08V2.89h2.53l0,9.46a5.71,5.71,0,0,0,.15,1.25,2.62,2.62,0,0,0,.43.92,1.59,1.59,0,0,0,.65.53,2.13,2.13,0,0,0,.9.18,2.25,2.25,0,0,0,1-.19,1.69,1.69,0,0,0,.69-.55,2.66,2.66,0,0,0,.44-.91,5,5,0,0,0,.16-1.23V2.89h2.51Z" transform="translate(-0.93 -2.89)" style="fill:#fff"/><path d="M276.49,7.76a2.52,2.52,0,0,1,.84-1,2.09,2.09,0,0,1,1.28-.38,2.38,2.38,0,0,1,.68.09,1.33,1.33,0,0,1,.53.27,1.18,1.18,0,0,1,.3.33,1.74,1.74,0,0,1,.22.43,1.9,1.9,0,0,1,.31-.42,2.3,2.3,0,0,1,.38-.33,2,2,0,0,1,.59-.27,2.54,2.54,0,0,1,1.62.07,1.81,1.81,0,0,1,.73.54,2.73,2.73,0,0,1,.49,1,5.55,5.55,0,0,1,.17,1.45v7.62h-2.32V9.48a1.53,1.53,0,0,0-.07-.51.85.85,0,0,0-.18-.34.61.61,0,0,0-.28-.16.9.9,0,0,0-.34-.05.88.88,0,0,0-.33.05.89.89,0,0,0-.26.12.67.67,0,0,0-.18.2.9.9,0,0,0-.12.24v8.08H278.3V9.47a1.88,1.88,0,0,0-.06-.51.74.74,0,0,0-.17-.33.57.57,0,0,0-.27-.16.93.93,0,0,0-.34-.05,1,1,0,0,0-.36.06.85.85,0,0,0-.29.17.62.62,0,0,0-.15.2,2.56,2.56,0,0,0-.11.24v8h-2.31V6.54h2.17Z" transform="translate(-0.93 -2.89)" style="fill:#fff"/><path d="M293.65,13.76a1.12,1.12,0,0,0-.4-.37,3.71,3.71,0,0,0-.78-.31,10.37,10.37,0,0,0-1.21-.29,11.78,11.78,0,0,1-1.69-.46,5.45,5.45,0,0,1-1.3-.67,2.76,2.76,0,0,1-.85-.89,2.34,2.34,0,0,1-.3-1.19,2.67,2.67,0,0,1,.3-1.24,3.2,3.2,0,0,1,.89-1,4.48,4.48,0,0,1,1.4-.7,6,6,0,0,1,1.85-.26,6.39,6.39,0,0,1,1.93.26,4.72,4.72,0,0,1,1.46.7,3.21,3.21,0,0,1,.91,1.08,3,3,0,0,1,.32,1.35h-2.52a1.41,1.41,0,0,0-.11-.54,1.45,1.45,0,0,0-.31-.45,2,2,0,0,0-.68-.39,3,3,0,0,0-1-.15,3.35,3.35,0,0,0-.9.11,1.67,1.67,0,0,0-.63.28,1.18,1.18,0,0,0-.35.39,1.06,1.06,0,0,0,0,.94.93.93,0,0,0,.37.37,2.8,2.8,0,0,0,.69.32,8.17,8.17,0,0,0,1.12.24,15.43,15.43,0,0,1,1.77.41,5.77,5.77,0,0,1,1.39.63,3,3,0,0,1,.91.93,2.51,2.51,0,0,1,.32,1.28,2.58,2.58,0,0,1-.33,1.29,3.36,3.36,0,0,1-.94,1,5,5,0,0,1-1.47.66,7.57,7.57,0,0,1-1.91.23,6.54,6.54,0,0,1-2.07-.3,4.83,4.83,0,0,1-1.51-.82,3.37,3.37,0,0,1-.92-1.12,2.86,2.86,0,0,1-.32-1.29h2.43a1.57,1.57,0,0,0,.25.78,1.61,1.61,0,0,0,.55.52,2.66,2.66,0,0,0,.76.29,4.28,4.28,0,0,0,.87.09,4.19,4.19,0,0,0,1-.11,2.21,2.21,0,0,0,.69-.29,1.21,1.21,0,0,0,.34-.38.89.89,0,0,0,.12-.45A.91.91,0,0,0,293.65,13.76Z" transform="translate(-0.93 -2.89)" style="fill:#fff"/><path d="M301.76,16.91a5,5,0,0,1-1.68-1.09A4.77,4.77,0,0,1,299,14.2a5.31,5.31,0,0,1-.38-2v-.39A6.07,6.07,0,0,1,299,9.58a4.89,4.89,0,0,1,2.67-2.84,5.08,5.08,0,0,1,2-.39,5,5,0,0,1,2,.38,4.31,4.31,0,0,1,1.49,1.06,4.58,4.58,0,0,1,.92,1.65,6.72,6.72,0,0,1,.32,2.11v1.08h-7.26v0a3.88,3.88,0,0,0,.35,1.09,2.56,2.56,0,0,0,.59.77,2.72,2.72,0,0,0,.89.55,3,3,0,0,0,1.11.19,3.88,3.88,0,0,0,1.58-.32,3,3,0,0,0,1.23-.94l1.3,1.34a4.61,4.61,0,0,1-1.63,1.35,5.45,5.45,0,0,1-2.64.6A5.84,5.84,0,0,1,301.76,16.91Zm1-8.35a2.2,2.2,0,0,0-.71.49,2.82,2.82,0,0,0-.52.77,3.81,3.81,0,0,0-.31,1h4.7v-.2a2.25,2.25,0,0,0-.16-.85,2.07,2.07,0,0,0-.44-.73,2.22,2.22,0,0,0-.71-.48,2.43,2.43,0,0,0-1-.18A2.3,2.3,0,0,0,302.76,8.56Z" transform="translate(-0.93 -2.89)" style="fill:#fff"/><path d="M315.75,6.54h3.95V8.42h-3.95v4.79a2.69,2.69,0,0,0,.14,1,1.33,1.33,0,0,0,.38.61,1.4,1.4,0,0,0,.6.35,3.13,3.13,0,0,0,.77.09q.32,0,.63,0l.63-.08.56-.09.43-.1.26,1.75a2.93,2.93,0,0,1-.64.27,5.55,5.55,0,0,1-.78.2c-.28.05-.57.09-.88.12s-.6,0-.9,0a4.9,4.9,0,0,1-1.52-.22,3,3,0,0,1-1.18-.7,3.2,3.2,0,0,1-.76-1.2,5.15,5.15,0,0,1-.27-1.77v-5h-2.49V6.54h2.49V4h2.53Z" transform="translate(-0.93 -2.89)" style="fill:#fff"/><path d="M332.46,15.08v2h-9.75v-1.6l6-6.91h-5.87V6.54h9.34V8.1l-6.05,7Z" transform="translate(-0.93 -2.89)" style="fill:#fff"/><path d="M341.68,15.63a3.94,3.94,0,0,1-1.3,1.24,3.35,3.35,0,0,1-1.69.44,4.31,4.31,0,0,1-1.51-.25,2.84,2.84,0,0,1-1.16-.81,3.67,3.67,0,0,1-.75-1.4,6.84,6.84,0,0,1-.27-2V6.54h2.53v6.28a5.34,5.34,0,0,0,.1,1.15,1.79,1.79,0,0,0,.32.75,1.21,1.21,0,0,0,.56.41,2.57,2.57,0,0,0,.83.11,3.63,3.63,0,0,0,.85-.09,2.2,2.2,0,0,0,.66-.29,2.13,2.13,0,0,0,.42-.38,2.71,2.71,0,0,0,.31-.49V6.54h2.54V17.11h-2.3Z" transform="translate(-0.93 -2.89)" style="fill:#fff"/><path d="M346.92,6.54h2.29L349.36,8a4.24,4.24,0,0,1,.47-.55,3.24,3.24,0,0,1,.53-.45,3.75,3.75,0,0,1,1-.51,4.17,4.17,0,0,1,1.19-.17,4.62,4.62,0,0,1,1.47.23,3,3,0,0,1,1.15.74,3.4,3.4,0,0,1,.74,1.31,6.14,6.14,0,0,1,.27,1.94v6.54h-2.52v-6.5a3.24,3.24,0,0,0-.15-1.07,1.54,1.54,0,0,0-.42-.67,1.41,1.41,0,0,0-.66-.35,3.3,3.3,0,0,0-.87-.1,2.66,2.66,0,0,0-.77.1,2.06,2.06,0,0,0-.62.28,2.24,2.24,0,0,0-.41.35,3,3,0,0,0-.33.44v7.52h-2.53Z" transform="translate(-0.93 -2.89)" style="fill:#fff"/><path d="M358.93,9.55a5.27,5.27,0,0,1,.85-1.71,3.94,3.94,0,0,1,1.34-1.1,4,4,0,0,1,1.79-.39,4.62,4.62,0,0,1,1,.11,2.85,2.85,0,0,1,.84.34,2.76,2.76,0,0,1,.5.34,2.85,2.85,0,0,1,.41.44l.11-1h2.29V16.8a5,5,0,0,1-.35,1.9,3.94,3.94,0,0,1-1,1.4,4.43,4.43,0,0,1-1.55.87,6.29,6.29,0,0,1-2,.3,5.31,5.31,0,0,1-1-.1,5.45,5.45,0,0,1-1.08-.3,4.94,4.94,0,0,1-1-.53,3.24,3.24,0,0,1-.83-.78L360.41,18a4.42,4.42,0,0,0,.59.56,3.39,3.39,0,0,0,.65.39,2.84,2.84,0,0,0,.68.22,3.53,3.53,0,0,0,.72.08,3.22,3.22,0,0,0,1.08-.17,2.2,2.2,0,0,0,.8-.51,2,2,0,0,0,.46-.75,2.93,2.93,0,0,0,.16-1v-.68a4,4,0,0,1-.41.41,3.37,3.37,0,0,1-.46.31,3.16,3.16,0,0,1-.83.31,3.72,3.72,0,0,1-1,.11,3.84,3.84,0,0,1-1.77-.4,4,4,0,0,1-1.34-1.12,5.32,5.32,0,0,1-.85-1.7,7.67,7.67,0,0,1-.29-2.13v-.2A8,8,0,0,1,358.93,9.55Zm2.38,3.68a3.09,3.09,0,0,0,.43,1,2,2,0,0,0,.72.7,2.1,2.1,0,0,0,1.06.25,2.93,2.93,0,0,0,.69-.07,2,2,0,0,0,.55-.22,2,2,0,0,0,.45-.36,2.08,2.08,0,0,0,.34-.48V9.55a2.12,2.12,0,0,0-.36-.51,1.6,1.6,0,0,0-.49-.36,2,2,0,0,0-.52-.19,2.62,2.62,0,0,0-.64-.07,2,2,0,0,0-1.06.26,2.22,2.22,0,0,0-.73.7,3.3,3.3,0,0,0-.44,1.07,6,6,0,0,0-.14,1.3V12A5.18,5.18,0,0,0,361.31,13.23Z" transform="translate(-0.93 -2.89)" style="fill:#fff"/><circle cx="314.54" cy="39.4" r="12.51" style="fill:#fff"/><circle cx="418.39" cy="119.4" r="12.51" transform="translate(37.18 327.93) rotate(-45)" style="fill:#fff"/><path d="M380.31,154.89v5.41h-2.55V146.09h4.65a7.54,7.54,0,0,1,2.08.27,5,5,0,0,1,1.62.82,3.51,3.51,0,0,1,1,1.33,4.47,4.47,0,0,1,.36,1.86,4.69,4.69,0,0,1-.18,1.35,3.67,3.67,0,0,1-.52,1.07,3.9,3.9,0,0,1-.82.85,5.82,5.82,0,0,1-1.06.63l3,5.91v.12h-2.72l-2.7-5.41Zm2.12-2.08a3.19,3.19,0,0,0,1.11-.18,2.14,2.14,0,0,0,.83-.52,1.88,1.88,0,0,0,.43-.69,2.38,2.38,0,0,0,.16-.91,2.8,2.8,0,0,0-.18-1,2,2,0,0,0-.54-.75,2.38,2.38,0,0,0-.79-.42,3.31,3.31,0,0,0-1-.14h-2.1v4.65Z" transform="translate(-0.93 -2.89)" style="fill:#fff"/><path d="M392.68,160.1A5,5,0,0,1,391,159a4.7,4.7,0,0,1-1.08-1.62,5.14,5.14,0,0,1-.38-2V155a6.11,6.11,0,0,1,.38-2.23,5.27,5.27,0,0,1,1.07-1.72,4.74,4.74,0,0,1,1.61-1.11,4.88,4.88,0,0,1,2-.4,5.12,5.12,0,0,1,2,.38,4.28,4.28,0,0,1,1.5,1.07,4.6,4.6,0,0,1,.92,1.64,6.79,6.79,0,0,1,.31,2.12v1.07h-7.25v0a4.13,4.13,0,0,0,.34,1.09,3,3,0,0,0,.59.78,2.92,2.92,0,0,0,.9.54,3,3,0,0,0,1.1.2,4.07,4.07,0,0,0,1.59-.32,3.12,3.12,0,0,0,1.23-.94l1.3,1.34a4.61,4.61,0,0,1-1.63,1.35,5.48,5.48,0,0,1-2.64.6A5.64,5.64,0,0,1,392.68,160.1Zm1-8.34a2,2,0,0,0-.71.49,2.89,2.89,0,0,0-.52.77,4.27,4.27,0,0,0-.31,1h4.71v-.19a2.37,2.37,0,0,0-.6-1.58,2.37,2.37,0,0,0-.71-.49,2.43,2.43,0,0,0-1-.18A2.35,2.35,0,0,0,393.67,151.76Z" transform="translate(-0.93 -2.89)" style="fill:#fff"/><path d="M408.14,145.3v12.93h3.11v2.07h-8.91v-2.07h3.25V147.38h-3.25V145.3Z" transform="translate(-0.93 -2.89)" style="fill:#fff"/><path d="M416.68,160.1A5,5,0,0,1,415,159a4.87,4.87,0,0,1-1.09-1.62,5.33,5.33,0,0,1-.38-2V155a6.1,6.1,0,0,1,.39-2.23,5,5,0,0,1,1.07-1.72,4.7,4.7,0,0,1,1.6-1.11,4.91,4.91,0,0,1,2-.4,5.17,5.17,0,0,1,2,.38A4.34,4.34,0,0,1,422.1,151a4.46,4.46,0,0,1,.92,1.64,6.79,6.79,0,0,1,.31,2.12v1.07h-7.25v0a3.77,3.77,0,0,0,.35,1.09,2.6,2.6,0,0,0,.59.78,2.87,2.87,0,0,0,.89.54,3,3,0,0,0,1.11.2,4.06,4.06,0,0,0,1.58-.32,3.12,3.12,0,0,0,1.23-.94l1.3,1.34a4.61,4.61,0,0,1-1.63,1.35,5.45,5.45,0,0,1-2.64.6A5.64,5.64,0,0,1,416.68,160.1Zm1-8.34a1.93,1.93,0,0,0-.71.49,2.67,2.67,0,0,0-.52.77,3.85,3.85,0,0,0-.31,1h4.7v-.19a2.34,2.34,0,0,0-.16-.86,2,2,0,0,0-.44-.72,2.25,2.25,0,0,0-.71-.49,2.43,2.43,0,0,0-1-.18A2.3,2.3,0,0,0,417.68,151.76Z" transform="translate(-0.93 -2.89)" style="fill:#fff"/><path d="M432.34,159.84a5,5,0,0,1-.11-.56,2.76,2.76,0,0,1-.54.47,3.59,3.59,0,0,1-.66.39,4.4,4.4,0,0,1-1.75.36,4.81,4.81,0,0,1-1.5-.23,3.4,3.4,0,0,1-1.15-.66,2.86,2.86,0,0,1-.76-1,3,3,0,0,1-.27-1.26,3.37,3.37,0,0,1,.34-1.55,2.85,2.85,0,0,1,1-1.11,4.6,4.6,0,0,1,1.52-.62,9,9,0,0,1,2-.21h1.61v-.67a2,2,0,0,0-.12-.71,1.47,1.47,0,0,0-.38-.54,2.14,2.14,0,0,0-.65-.36,3.06,3.06,0,0,0-.9-.12,2.59,2.59,0,0,0-.78.1,1.67,1.67,0,0,0-.56.31,1.15,1.15,0,0,0-.3.42,1.62,1.62,0,0,0-.1.54h-2.52a2.69,2.69,0,0,1,.29-1.24,3.1,3.1,0,0,1,.87-1.05,4.21,4.21,0,0,1,1.38-.73,5.88,5.88,0,0,1,1.86-.27,6.57,6.57,0,0,1,1.76.23,4,4,0,0,1,1.41.69,3.37,3.37,0,0,1,.93,1.15,3.52,3.52,0,0,1,.34,1.6v4.61a7.51,7.51,0,0,0,.11,1.35,3.69,3.69,0,0,0,.3,1v.16H432.5A2.24,2.24,0,0,1,432.34,159.84Zm-1.74-1.44a2.68,2.68,0,0,0,.67-.27,2.14,2.14,0,0,0,.53-.39,2.17,2.17,0,0,0,.34-.44v-1.89H430.7a4.63,4.63,0,0,0-1.2.13,2.17,2.17,0,0,0-.81.37,1.49,1.49,0,0,0-.43.54,1.69,1.69,0,0,0-.14.68,1.47,1.47,0,0,0,.11.56,1.28,1.28,0,0,0,.32.45,1.49,1.49,0,0,0,.52.26,2.27,2.27,0,0,0,.72.11A3,3,0,0,0,430.6,158.4Z" transform="translate(-0.93 -2.89)" style="fill:#fff"/><path d="M444.58,157a1.09,1.09,0,0,0-.41-.38,3.94,3.94,0,0,0-.77-.31,10.84,10.84,0,0,0-1.22-.28,11.75,11.75,0,0,1-1.69-.47,5,5,0,0,1-1.3-.67,3,3,0,0,1-.85-.89,2.31,2.31,0,0,1-.3-1.19,2.62,2.62,0,0,1,.31-1.24,3,3,0,0,1,.88-1,4.39,4.39,0,0,1,1.4-.71,6.33,6.33,0,0,1,1.86-.26,6.78,6.78,0,0,1,1.93.26,4.46,4.46,0,0,1,1.45.71,3.15,3.15,0,0,1,.92,1.08,2.9,2.9,0,0,1,.31,1.34h-2.52a1.32,1.32,0,0,0-.1-.53,1.55,1.55,0,0,0-.31-.46,2.08,2.08,0,0,0-.69-.39,3.24,3.24,0,0,0-1-.14,3.52,3.52,0,0,0-.91.1,1.67,1.67,0,0,0-.63.29,1.14,1.14,0,0,0-.34.39.91.91,0,0,0-.13.48,1,1,0,0,0,.11.45.92.92,0,0,0,.36.38,2.74,2.74,0,0,0,.7.31,7.85,7.85,0,0,0,1.12.24,15.37,15.37,0,0,1,1.77.42,5.52,5.52,0,0,1,1.38.63,2.88,2.88,0,0,1,.91.93,2.36,2.36,0,0,1,.32,1.28,2.63,2.63,0,0,1-.33,1.29,3.1,3.1,0,0,1-.94,1,4.75,4.75,0,0,1-1.47.66,7.08,7.08,0,0,1-1.91.24,6.26,6.26,0,0,1-2.07-.31,4.76,4.76,0,0,1-1.5-.81,3.4,3.4,0,0,1-.92-1.13,2.86,2.86,0,0,1-.32-1.29h2.42a1.6,1.6,0,0,0,.8,1.3,2.47,2.47,0,0,0,.77.3,4.91,4.91,0,0,0,.86.08,4.17,4.17,0,0,0,1-.1,2,2,0,0,0,.69-.3,1.22,1.22,0,0,0,.35-.37,1,1,0,0,0,.11-.46A1,1,0,0,0,444.58,157Z" transform="translate(-0.93 -2.89)" style="fill:#fff"/><path d="M452.69,160.1A5,5,0,0,1,451,159a4.7,4.7,0,0,1-1.08-1.62,5.14,5.14,0,0,1-.38-2V155a6.11,6.11,0,0,1,.38-2.23,5.27,5.27,0,0,1,1.07-1.72,4.74,4.74,0,0,1,1.61-1.11,4.87,4.87,0,0,1,2-.4,5.14,5.14,0,0,1,2,.38,4.28,4.28,0,0,1,1.5,1.07,4.6,4.6,0,0,1,.92,1.64,6.79,6.79,0,0,1,.31,2.12v1.07h-7.26v0a4.51,4.51,0,0,0,.35,1.09,2.77,2.77,0,0,0,.59.78,2.92,2.92,0,0,0,.9.54,3,3,0,0,0,1.1.2,4.1,4.1,0,0,0,1.59-.32,3.12,3.12,0,0,0,1.23-.94l1.3,1.34a4.61,4.61,0,0,1-1.63,1.35,5.48,5.48,0,0,1-2.64.6A5.64,5.64,0,0,1,452.69,160.1Zm1-8.34a2,2,0,0,0-.71.49,2.89,2.89,0,0,0-.52.77,4.27,4.27,0,0,0-.31,1h4.71v-.19a2.37,2.37,0,0,0-.6-1.58,2.37,2.37,0,0,0-.71-.49,2.43,2.43,0,0,0-1-.18A2.35,2.35,0,0,0,453.68,151.76Z" transform="translate(-0.93 -2.89)" style="fill:#fff"/><path d="M447.52,23.47h4.66a8.64,8.64,0,0,1,2,.23,5,5,0,0,1,1.6.71,3.19,3.19,0,0,1,1,1.21,3.58,3.58,0,0,1,.36,1.72,3.2,3.2,0,0,1-.22,1.17,2.8,2.8,0,0,1-.61,1,3.24,3.24,0,0,1-.56.47,5.08,5.08,0,0,1-.7.36h0a3.61,3.61,0,0,1,1.1.49,2.82,2.82,0,0,1,.71.71,3.07,3.07,0,0,1,.47.94,3.84,3.84,0,0,1,.15,1.07,4.19,4.19,0,0,1-.37,1.8,3.63,3.63,0,0,1-1,1.31,4.77,4.77,0,0,1-1.58.78,7.2,7.2,0,0,1-2,.27H447.5Zm2.54,12.15h2.51a3.68,3.68,0,0,0,1-.15,2.44,2.44,0,0,0,.75-.4,1.93,1.93,0,0,0,.5-.67,2.07,2.07,0,0,0,.18-.88,2.84,2.84,0,0,0-.13-.9,1.74,1.74,0,0,0-.44-.68,1.82,1.82,0,0,0-.71-.44,3.39,3.39,0,0,0-1-.16h-2.63Zm2.15-6.16a3.57,3.57,0,0,0,1.08-.15,1.87,1.87,0,0,0,.8-.43,1.63,1.63,0,0,0,.42-.58,1.87,1.87,0,0,0,.15-.78,2.22,2.22,0,0,0-.13-.81,1.41,1.41,0,0,0-.39-.56,1.85,1.85,0,0,0-.81-.43,3.91,3.91,0,0,0-1.13-.15h-2.12v3.9Z" transform="translate(-0.93 -2.89)" style="fill:#fff"/><path d="M462.45,37.51a5,5,0,0,1-1.68-1.09,4.87,4.87,0,0,1-1.09-1.62,5.13,5.13,0,0,1-.37-2V32.4a6.32,6.32,0,0,1,.38-2.23,5.13,5.13,0,0,1,1.08-1.72,4.84,4.84,0,0,1,1.6-1.11,5.08,5.08,0,0,1,2-.39,5.17,5.17,0,0,1,2,.38,4.28,4.28,0,0,1,1.5,1.07,4.72,4.72,0,0,1,.91,1.65,6.72,6.72,0,0,1,.31,2.11v1.08h-7.26v0a4.23,4.23,0,0,0,.35,1.09,2.73,2.73,0,0,0,.59.77,2.82,2.82,0,0,0,.89.55,3.08,3.08,0,0,0,1.11.2,4.06,4.06,0,0,0,1.58-.32,3.12,3.12,0,0,0,1.23-.94L468.9,36a4.52,4.52,0,0,1-1.63,1.35,5.48,5.48,0,0,1-2.64.6A5.84,5.84,0,0,1,462.45,37.51Zm1-8.34a2,2,0,0,0-.71.48,2.85,2.85,0,0,0-.53.77,4.21,4.21,0,0,0-.31,1h4.71v-.2a2.34,2.34,0,0,0-.16-.86,2.18,2.18,0,0,0-.44-.72,2.1,2.1,0,0,0-.71-.49,2.43,2.43,0,0,0-1-.18A2.3,2.3,0,0,0,463.46,29.17Z" transform="translate(-0.93 -2.89)" style="fill:#fff"/><path d="M476.45,27.16h4V29h-3.95v4.79a3,3,0,0,0,.14,1,1.48,1.48,0,0,0,.38.61,1.4,1.4,0,0,0,.6.35,3.19,3.19,0,0,0,.77.09q.32,0,.63,0l.63-.08.56-.09a3.07,3.07,0,0,0,.43-.1l.26,1.75a2.93,2.93,0,0,1-.64.28,7.43,7.43,0,0,1-.78.19c-.28,0-.58.09-.88.12s-.6,0-.9,0a4.9,4.9,0,0,1-1.52-.22,3,3,0,0,1-1.18-.71,3.05,3.05,0,0,1-.76-1.2,5.15,5.15,0,0,1-.27-1.77V29h-2.49V27.15h2.49V24.58h2.52Z" transform="translate(-0.93 -2.89)" style="fill:#fff"/><path d="M492.18,27.06a5.69,5.69,0,0,1,.84.19l-.37,2.51a8.15,8.15,0,0,0-1.08-.19,7.61,7.61,0,0,0-1.05-.07,4.46,4.46,0,0,0-1,.11,2.79,2.79,0,0,0-.79.32,2.45,2.45,0,0,0-.67.57,2.9,2.9,0,0,0-.46.81v6.43h-2.53V27.17h2.36l.1,1.48,0,.24a5,5,0,0,1,1.55-1.4,4,4,0,0,1,2-.51A7.83,7.83,0,0,1,492.18,27.06Z" transform="translate(-0.93 -2.89)" style="fill:#fff"/><path d="M498.45,37.56a5.1,5.1,0,0,1-1.68-1.1,4.57,4.57,0,0,1-1.08-1.61,5.36,5.36,0,0,1-.38-2v-.39a6.07,6.07,0,0,1,.39-2.23,5.27,5.27,0,0,1,1.07-1.72,4.74,4.74,0,0,1,1.61-1.11,5.08,5.08,0,0,1,2-.39,5,5,0,0,1,2,.38,4.16,4.16,0,0,1,1.5,1.07,4.6,4.6,0,0,1,.92,1.64,7.09,7.09,0,0,1,.31,2.12v1.07h-7.26v0a4.34,4.34,0,0,0,.34,1.1,3.1,3.1,0,0,0,.59.77,3.15,3.15,0,0,0,.9.55,3,3,0,0,0,1.11.19,3.88,3.88,0,0,0,1.58-.32,3,3,0,0,0,1.23-.93l1.3,1.34a4.61,4.61,0,0,1-1.63,1.35,5.47,5.47,0,0,1-2.64.59A5.93,5.93,0,0,1,498.45,37.56Zm1-8.35a1.93,1.93,0,0,0-.71.49,2.67,2.67,0,0,0-.52.77,4.27,4.27,0,0,0-.31,1h4.71V31.3a2.52,2.52,0,0,0-.16-.86,2.25,2.25,0,0,0-.45-.73,2.18,2.18,0,0,0-.7-.48,2.43,2.43,0,0,0-1-.18A2.35,2.35,0,0,0,499.46,29.21Z" transform="translate(-0.93 -2.89)" style="fill:#fff"/><path d="M514.37,36.3a3.91,3.91,0,0,1-1.3,1.23,3.26,3.26,0,0,1-1.69.45,4.22,4.22,0,0,1-1.5-.26,2.81,2.81,0,0,1-1.17-.81,3.89,3.89,0,0,1-.75-1.4,6.88,6.88,0,0,1-.27-2V27.2h2.53v6.28a6.26,6.26,0,0,0,.1,1.16,1.88,1.88,0,0,0,.32.74,1.23,1.23,0,0,0,.57.41,2.47,2.47,0,0,0,.83.12,3.12,3.12,0,0,0,.84-.1,2.19,2.19,0,0,0,.66-.28,1.9,1.9,0,0,0,.42-.38,2.26,2.26,0,0,0,.31-.49V27.21h2.54V37.78h-2.3Z" transform="translate(-0.93 -2.89)" style="fill:#fff"/><path d="M526.37,36.32a3.84,3.84,0,0,1-1.29,1.22,3.33,3.33,0,0,1-1.7.45,4.22,4.22,0,0,1-1.5-.25,2.65,2.65,0,0,1-1.16-.82,3.68,3.68,0,0,1-.76-1.4,6.53,6.53,0,0,1-.26-2V27.22h2.53V33.5a5.34,5.34,0,0,0,.11,1.15,1.74,1.74,0,0,0,.31.74,1.11,1.11,0,0,0,.57.41,2.51,2.51,0,0,0,.83.12,3.61,3.61,0,0,0,.84-.09,2.2,2.2,0,0,0,.66-.29,1.69,1.69,0,0,0,.42-.38,2.51,2.51,0,0,0,.32-.48V27.22h2.53V37.79h-2.29Z" transform="translate(-0.93 -2.89)" style="fill:#fff"/><path d="M531.63,27.23h2.28l.16,1.49a3.53,3.53,0,0,1,.46-.55,4.36,4.36,0,0,1,.53-.45,3.64,3.64,0,0,1,1-.5,3.83,3.83,0,0,1,1.18-.18,4.28,4.28,0,0,1,1.47.24,3,3,0,0,1,1.16.74,3.54,3.54,0,0,1,.74,1.31,6.46,6.46,0,0,1,.26,1.94v6.54h-2.52V31.3a3.28,3.28,0,0,0-.15-1.07,1.55,1.55,0,0,0-.41-.67,1.62,1.62,0,0,0-.66-.35,3.87,3.87,0,0,0-.88-.1,2.59,2.59,0,0,0-.76.1,2.06,2.06,0,0,0-.62.28,2.3,2.3,0,0,0-.42.35,3,3,0,0,0-.33.44V37.8h-2.53Z" transform="translate(-0.93 -2.89)" style="fill:#fff"/><path d="M543.63,30.25a5.13,5.13,0,0,1,.86-1.7,3.86,3.86,0,0,1,1.34-1.11,3.94,3.94,0,0,1,1.78-.38,4,4,0,0,1,1,.11,2.91,2.91,0,0,1,.85.34,3.3,3.3,0,0,1,.49.34,3.51,3.51,0,0,1,.42.44l.1-1h2.3V37.51a4.77,4.77,0,0,1-.36,1.9,3.85,3.85,0,0,1-1,1.4,4.52,4.52,0,0,1-1.55.87,6.34,6.34,0,0,1-2,.3,6.27,6.27,0,0,1-1-.1,7.25,7.25,0,0,1-1.08-.3,5.48,5.48,0,0,1-1-.53,3.7,3.7,0,0,1-.84-.79l1.17-1.53a4.38,4.38,0,0,0,.59.56,3.46,3.46,0,0,0,.65.4,3.37,3.37,0,0,0,.68.22,3.53,3.53,0,0,0,.72.08,3.22,3.22,0,0,0,1.08-.17,2.07,2.07,0,0,0,.8-.51,1.9,1.9,0,0,0,.46-.75,2.89,2.89,0,0,0,.17-1v-.68a3.25,3.25,0,0,1-.42.41,3.76,3.76,0,0,1-.46.32,3.47,3.47,0,0,1-.82.3,4.16,4.16,0,0,1-2.73-.29,4.14,4.14,0,0,1-1.34-1.12,5.17,5.17,0,0,1-.85-1.71,7.2,7.2,0,0,1-.29-2.12v-.21A8,8,0,0,1,543.63,30.25ZM546,33.94a3.25,3.25,0,0,0,.43,1,2,2,0,0,0,1.79,1,2.84,2.84,0,0,0,.68-.07,2.11,2.11,0,0,0,.56-.22,2,2,0,0,0,.45-.36,2.43,2.43,0,0,0,.34-.48V30.26a2.78,2.78,0,0,0-.37-.51,1.68,1.68,0,0,0-.48-.36,2.07,2.07,0,0,0-.53-.19,2.53,2.53,0,0,0-.63-.07,2.08,2.08,0,0,0-1.06.25,2.18,2.18,0,0,0-.74.71,3.44,3.44,0,0,0-.44,1.07,5.86,5.86,0,0,0-.14,1.29v.21A5.85,5.85,0,0,0,546,33.94Z" transform="translate(-0.93 -2.89)" style="fill:#fff"/><polygon points="57.92 118.45 52.56 113.08 45.1 114.44 48.56 107.69 44.96 101.01 52.45 102.21 57.69 96.72 58.86 104.22 65.7 107.5 58.93 110.94 57.92 118.45" style="fill:#fff"/><polygon points="86.21 73 78.66 72.27 73.78 78.07 72.14 70.66 65.11 67.81 71.65 63.96 72.19 56.4 77.87 61.43 85.23 59.6 82.2 66.56 86.21 73" style="fill:#fff"/><polygon points="177.16 130.02 165.93 132.33 161.47 142.88 155.8 132.92 144.38 131.93 152.11 123.46 149.52 112.3 159.96 117.03 169.78 111.12 168.5 122.51 177.16 130.02" style="fill:#fff"/><polygon points="262.54 149.41 264.06 142.07 258.87 136.66 266.32 135.83 269.86 129.22 272.95 136.05 280.33 137.38 274.79 142.43 275.81 149.85 269.29 146.15 262.54 149.41" style="fill:#fff"/><polygon points="414.23 61.37 405.32 62.32 401.06 70.19 397.4 62.02 388.59 60.4 395.24 54.39 394.06 45.51 401.82 49.98 409.9 46.12 408.05 54.88 414.23 61.37" style="fill:#fff"/><polygon points="444.83 73.15 438.5 71.2 433.3 75.32 433.2 68.69 427.68 65.03 433.94 62.87 435.73 56.49 439.71 61.79 446.33 61.51 442.52 66.94 444.83 73.15" style="fill:#fff"/><polygon points="320.9 104.23 320.22 95.1 312.31 90.48 320.79 87.02 322.74 78.07 328.65 85.06 337.76 84.15 332.94 91.93 336.63 100.32 327.73 98.14 320.9 104.23" style="fill:#fff"/><polygon points="476.38 120.36 479.56 115.27 477.17 109.78 482.98 111.22 487.47 107.25 487.89 113.23 493.06 116.27 487.5 118.52 486.2 124.37 482.35 119.78 476.38 120.36" style="fill:#fff"/><circle cx="499.24" cy="60.42" r="9.78" style="fill:#fff"/><circle cx="499.24" cy="60.42" r="15.42" style="fill:none;stroke:#fff;stroke-miterlimit:10;stroke-width:3px"/></svg>