<svg xmlns="http://www.w3.org/2000/svg" viewBox="0 0 1007.82 248.37"><circle cx="53.08" cy="205.68" r="12.51" style="fill:#fff"/><circle cx="286.65" cy="50.45" r="12.51" style="fill:#fff"/><circle cx="443.45" cy="184.52" r="12.51" style="fill:#fff"/><path d="M54,207.75c2,.12,4,.22,6,.3" transform="translate(-0.93 -2.89)" style="fill:none;stroke:#fff;stroke-linecap:round;stroke-miterlimit:10;stroke-width:5px"/><path d="M72.08,208.36c41.81.36,74.05-6.72,95.34-13.1,31.39-9.4,39.6-17.46,43.88-25.07,13.68-24.34-11.92-45.67-2.5-72.73,12.54-36.07,79.3-59.3,114.1-37.61,16.31,10.17,24.43,29.49,32.6,48.9,12.31,29.27,7.25,40.21,20.06,55.17,16.2,18.92,41.58,21.61,52,22.71,29.27,3.09,72.79-5.66,84.7-32.74,9.11-20.74-8.88-32.69,0-60.19,8.5-26.34,33-40,42.19-44.42,27.42-13.05,61.49-11,83.51,5,11.86,8.6,8.66,12.86,33.54,43.21,14.88,18.16,22.91,28,35.11,37.62,7.43,5.89,34.76,27,74,30.09,30.33,2.42,53.06-7.07,72.25-15.35,45.41-19.59,76.53-50.36,96-74.74" transform="translate(-0.93 -2.89)" style="fill:none;stroke:#fff;stroke-linecap:round;stroke-miterlimit:10;stroke-width:5px;stroke-dasharray:12.078184127807617,12.078184127807617"/><path d="M952.52,70.32q1.89-2.46,3.6-4.8" transform="translate(-0.93 -2.89)" style="fill:none;stroke:#fff;stroke-linecap:round;stroke-miterlimit:10;stroke-width:5px"/><path d="M8.59,242.62a2.06,2.06,0,0,0-.5-.66,4.26,4.26,0,0,0-.88-.52A9.65,9.65,0,0,0,6,241a10.79,10.79,0,0,1-2-.73,6.23,6.23,0,0,1-1.44-1,4,4,0,0,1-.9-1.21,3.44,3.44,0,0,1-.31-1.48A3.53,3.53,0,0,1,1.74,235a3.71,3.71,0,0,1,1.06-1.24A4.73,4.73,0,0,1,4.37,233a6.6,6.6,0,0,1,1.92-.28,6.06,6.06,0,0,1,2,.32,4.58,4.58,0,0,1,1.57.9,4,4,0,0,1,1,1.37,4.12,4.12,0,0,1,.38,1.76H8.77a3,3,0,0,0-.2-.93,2.09,2.09,0,0,0-.47-.72,2.3,2.3,0,0,0-.79-.47,2.88,2.88,0,0,0-1.06-.17,3.37,3.37,0,0,0-1,.13,2.41,2.41,0,0,0-.75.38,1.72,1.72,0,0,0-.48.6,1.77,1.77,0,0,0-.16.77,1.46,1.46,0,0,0,.22.8,1.88,1.88,0,0,0,.62.6,4.58,4.58,0,0,0,.94.48c.36.14.75.27,1.18.39a11.14,11.14,0,0,1,1.44.51,6.48,6.48,0,0,1,1.26.73,4.73,4.73,0,0,1,1.28,1.4,3.56,3.56,0,0,1,.48,1.87,3.45,3.45,0,0,1-.39,1.66,3.54,3.54,0,0,1-1.06,1.22,4.71,4.71,0,0,1-1.56.75,7.16,7.16,0,0,1-1.94.25A6.69,6.69,0,0,1,4.27,247,5.27,5.27,0,0,1,2.48,246a4.5,4.5,0,0,1-1.13-1.4,4.09,4.09,0,0,1-.42-1.87H3.45a2.93,2.93,0,0,0,.25,1.12,2.1,2.1,0,0,0,.6.78,2.54,2.54,0,0,0,.9.45,4.59,4.59,0,0,0,1.15.14,3.7,3.7,0,0,0,1-.12,2.5,2.5,0,0,0,.77-.37,1.56,1.56,0,0,0,.48-.57,1.61,1.61,0,0,0,.18-.76A1.88,1.88,0,0,0,8.59,242.62Z" transform="translate(-0.93 -2.89)" style="fill:#fff"/><path d="M18.28,236.53h4v1.88h-4v4.79a2.93,2.93,0,0,0,.14,1,1.48,1.48,0,0,0,.38.61,1.4,1.4,0,0,0,.6.35,3.21,3.21,0,0,0,.78.09l.63,0,.63-.08L22,245l.43-.1.27,1.75a4.25,4.25,0,0,1-.64.27c-.25.08-.51.14-.79.2s-.57.09-.87.12-.61,0-.91,0a4.9,4.9,0,0,1-1.52-.22,3,3,0,0,1-1.17-.7,3.19,3.19,0,0,1-.77-1.21,5,5,0,0,1-.27-1.76v-5H13.26v-1.88h2.49V234h2.53Z" transform="translate(-0.93 -2.89)" style="fill:#fff"/><path d="M34,236.42a4.56,4.56,0,0,1,.84.18l-.37,2.51a10.18,10.18,0,0,0-1.08-.19,9.51,9.51,0,0,0-1-.06,4.4,4.4,0,0,0-1,.1,2.57,2.57,0,0,0-.79.33,2.49,2.49,0,0,0-.68.57,3,3,0,0,0-.46.8v6.44H26.89V236.53h2.36l.11,1.48,0,.24a4.77,4.77,0,0,1,1.54-1.4,4,4,0,0,1,2-.51A6.59,6.59,0,0,1,34,236.42Z" transform="translate(-0.93 -2.89)" style="fill:#fff"/><path d="M44,246.63a3.09,3.09,0,0,1-.11-.56,3.64,3.64,0,0,1-1.2.86,4.81,4.81,0,0,1-.81.27,4.76,4.76,0,0,1-.94.09,4.46,4.46,0,0,1-1.5-.23,3.72,3.72,0,0,1-1.16-.65,3,3,0,0,1-.75-1,2.89,2.89,0,0,1-.27-1.25,3.34,3.34,0,0,1,.34-1.55,2.92,2.92,0,0,1,1-1.12,4.7,4.7,0,0,1,1.52-.62,9.13,9.13,0,0,1,2.06-.21h1.61V240a1.73,1.73,0,0,0-.13-.71,1.36,1.36,0,0,0-.38-.54,1.64,1.64,0,0,0-.65-.36,2.65,2.65,0,0,0-.89-.13,2.69,2.69,0,0,0-.79.11,1.45,1.45,0,0,0-.55.3,1,1,0,0,0-.3.43,1.33,1.33,0,0,0-.1.54H37.44a2.74,2.74,0,0,1,.3-1.25,3.4,3.4,0,0,1,.86-1,4.25,4.25,0,0,1,1.39-.72,5.88,5.88,0,0,1,1.86-.27,6.12,6.12,0,0,1,1.75.23,4.25,4.25,0,0,1,1.42.68A3.37,3.37,0,0,1,46,238.4a3.57,3.57,0,0,1,.34,1.61v4.61a7.4,7.4,0,0,0,.1,1.34,3.57,3.57,0,0,0,.31,1v.17H44.12A2.34,2.34,0,0,1,44,246.63Zm-1.74-1.43a2.87,2.87,0,0,0,.67-.28,2.33,2.33,0,0,0,.52-.38,2,2,0,0,0,.35-.45v-1.88H42.31a5.29,5.29,0,0,0-1.2.12,2.34,2.34,0,0,0-.81.37,1.37,1.37,0,0,0-.42.54,1.56,1.56,0,0,0-.14.68,1.52,1.52,0,0,0,.1.57,1.19,1.19,0,0,0,.33.44,1.64,1.64,0,0,0,.51.27,2.3,2.3,0,0,0,.73.1A3,3,0,0,0,42.22,245.2Z" transform="translate(-0.93 -2.89)" style="fill:#fff"/><path d="M54.29,236.53h4v1.88h-4v4.79a3,3,0,0,0,.13,1,1.59,1.59,0,0,0,.38.61,1.44,1.44,0,0,0,.61.35,3.07,3.07,0,0,0,.77.09l.63,0,.63-.08L58,245c.18,0,.32-.07.44-.1l.26,1.75a3.52,3.52,0,0,1-.64.27,7.37,7.37,0,0,1-.78.2c-.28.05-.58.09-.88.12s-.6,0-.9,0a4.9,4.9,0,0,1-1.52-.22,3.11,3.11,0,0,1-1.18-.7,3.17,3.17,0,0,1-.76-1.21,5,5,0,0,1-.27-1.76v-5H49.27v-1.88h2.49V234h2.53Z" transform="translate(-0.93 -2.89)" style="fill:#fff"/><path d="M64.3,246.9a5.24,5.24,0,0,1-1.68-1.09,4.87,4.87,0,0,1-1.09-1.62,5.31,5.31,0,0,1-.38-2v-.39a6.16,6.16,0,0,1,.39-2.24,5.21,5.21,0,0,1,1.07-1.72,5,5,0,0,1,1.6-1.11,5.08,5.08,0,0,1,2-.39,5,5,0,0,1,2,.38,4.26,4.26,0,0,1,1.5,1.06,4.56,4.56,0,0,1,.91,1.65,6.72,6.72,0,0,1,.32,2.11v1.08H63.7v0a4.23,4.23,0,0,0,.35,1.09,2.56,2.56,0,0,0,.59.77,3,3,0,0,0,.89.55,3.08,3.08,0,0,0,1.11.19,3.88,3.88,0,0,0,1.58-.32,3,3,0,0,0,1.23-.94l1.3,1.34a4.57,4.57,0,0,1-1.62,1.35,5.49,5.49,0,0,1-2.65.6A5.87,5.87,0,0,1,64.3,246.9Zm1-8.35a2.06,2.06,0,0,0-.71.49,2.82,2.82,0,0,0-.52.77,3.81,3.81,0,0,0-.31,1h4.71v-.2a2.57,2.57,0,0,0-.16-.86,2.2,2.2,0,0,0-.45-.72,2.12,2.12,0,0,0-.71-.48,2.4,2.4,0,0,0-1-.18A2.3,2.3,0,0,0,65.3,238.55Z" transform="translate(-0.93 -2.89)" style="fill:#fff"/><path d="M73.47,239.54a5.08,5.08,0,0,1,.85-1.71,3.8,3.8,0,0,1,3.12-1.49,4.09,4.09,0,0,1,1,.11,3,3,0,0,1,.85.34,2.69,2.69,0,0,1,.49.34,2.46,2.46,0,0,1,.41.44l.11-1h2.3v10.26a4.77,4.77,0,0,1-.36,1.9,3.94,3.94,0,0,1-1,1.4,4.43,4.43,0,0,1-1.55.87,6.25,6.25,0,0,1-2,.3,5.39,5.39,0,0,1-1-.1,5.45,5.45,0,0,1-1.08-.3,5.51,5.51,0,0,1-1-.53,3.24,3.24,0,0,1-.83-.78L74.94,248a4.48,4.48,0,0,0,.6.56,3.33,3.33,0,0,0,.64.39,3.26,3.26,0,0,0,.69.22,3.38,3.38,0,0,0,.72.08,3.31,3.31,0,0,0,1.08-.17,2.16,2.16,0,0,0,.79-.51,2,2,0,0,0,.47-.75,3.19,3.19,0,0,0,.16-1v-.68a3.25,3.25,0,0,1-.42.41,2.85,2.85,0,0,1-.46.31,3.48,3.48,0,0,1-.82.31,4.16,4.16,0,0,1-2.73-.29,4,4,0,0,1-1.34-1.12,5.12,5.12,0,0,1-.85-1.7,7.31,7.31,0,0,1-.3-2.13v-.2A7.6,7.6,0,0,1,73.47,239.54Zm2.37,3.68a3.09,3.09,0,0,0,.43,1.05,2,2,0,0,0,.73.7,2.08,2.08,0,0,0,1.06.25,2.84,2.84,0,0,0,.68-.07,2.11,2.11,0,0,0,.56-.22,2,2,0,0,0,.45-.37,2.36,2.36,0,0,0,.34-.47v-4.55a2.23,2.23,0,0,0-.37-.51,1.68,1.68,0,0,0-.48-.36,2.07,2.07,0,0,0-.53-.19,2.53,2.53,0,0,0-.63-.07,2,2,0,0,0-1.06.26,2.07,2.07,0,0,0-.74.7,3.44,3.44,0,0,0-.44,1.07,5.89,5.89,0,0,0-.14,1.3v.2A5.77,5.77,0,0,0,75.84,243.22Z" transform="translate(-0.93 -2.89)" style="fill:#fff"/><path d="M91.77,236.53V245h3v2.07H86.08V245h3.14v-6.42H86.08v-2.08Zm-2.65-3.27a1.23,1.23,0,0,1,.3-.44,1.24,1.24,0,0,1,.46-.27,1.64,1.64,0,0,1,.6-.1,1.45,1.45,0,0,1,1,.33,1.16,1.16,0,0,1,.4.87,1.2,1.2,0,0,1-.28.89,1.27,1.27,0,0,1-.9.41,1.33,1.33,0,0,1-.56.07,1.19,1.19,0,0,1-.56-.18,1,1,0,0,1-.42-.42,1.21,1.21,0,0,1-.15-.6A1.47,1.47,0,0,1,89.12,233.26Z" transform="translate(-0.93 -2.89)" style="fill:#fff"/><path d="M100.31,246.9a5.18,5.18,0,0,1-1.69-1.09,4.7,4.7,0,0,1-1.08-1.62,5.31,5.31,0,0,1-.38-2v-.39a6.38,6.38,0,0,1,.38-2.24,5.38,5.38,0,0,1,1.07-1.72,4.89,4.89,0,0,1,3.6-1.5,5,5,0,0,1,2,.38,4.26,4.26,0,0,1,1.5,1.06,4.58,4.58,0,0,1,.92,1.65,6.72,6.72,0,0,1,.31,2.11v1.08H99.71v0a4.25,4.25,0,0,0,.34,1.09,2.76,2.76,0,0,0,1.49,1.32,3,3,0,0,0,1.11.19,3.88,3.88,0,0,0,1.58-.32,3,3,0,0,0,1.23-.94l1.3,1.34a4.61,4.61,0,0,1-1.63,1.35,5.48,5.48,0,0,1-2.64.6A5.84,5.84,0,0,1,100.31,246.9Zm1-8.35a2,2,0,0,0-.7.49,2.85,2.85,0,0,0-.53.77,3.81,3.81,0,0,0-.3,1h4.7v-.2a2.34,2.34,0,0,0-.16-.86,2.18,2.18,0,0,0-.44-.72,2.22,2.22,0,0,0-.71-.48,2.43,2.43,0,0,0-1-.18A2.35,2.35,0,0,0,101.3,238.55Z" transform="translate(-0.93 -2.89)" style="fill:#fff"/><path d="M249.49,24.28V28.6h-2.57V14.38h2.57V21l1.3-1.72,3.61-4.88h3.12l-4.83,6.28,5,7.94h-3l-3.68-6Z" transform="translate(-0.93 -2.89)" style="fill:#fff"/><path d="M259,21.09a4.81,4.81,0,0,1,1-1.71,4.28,4.28,0,0,1,1.54-1.13,5.56,5.56,0,0,1,4.19,0,4.54,4.54,0,0,1,1.56,1.13,4.93,4.93,0,0,1,1,1.71,6.61,6.61,0,0,1,.33,2.13v.21a6.71,6.71,0,0,1-.33,2.14,5,5,0,0,1-1,1.7,4.41,4.41,0,0,1-1.55,1.13,5.56,5.56,0,0,1-4.19,0,4.23,4.23,0,0,1-1.55-1.13,4.86,4.86,0,0,1-1-1.7,6.71,6.71,0,0,1-.33-2.14v-.21A6.61,6.61,0,0,1,259,21.09Zm2.33,3.63a3.27,3.27,0,0,0,.43,1.06,2.12,2.12,0,0,0,.76.73,2.17,2.17,0,0,0,1.11.26,2.06,2.06,0,0,0,1.08-.26,2.12,2.12,0,0,0,.76-.73,3.51,3.51,0,0,0,.42-1.06,5.32,5.32,0,0,0,.14-1.29v-.21a5.21,5.21,0,0,0-.14-1.27,3.61,3.61,0,0,0-.42-1.06,2.15,2.15,0,0,0-.76-.74,2.44,2.44,0,0,0-2.19,0,2.15,2.15,0,0,0-.76.74,3.37,3.37,0,0,0-.43,1.06,5.75,5.75,0,0,0-.14,1.27v.21A5.86,5.86,0,0,0,261.28,24.72Z" transform="translate(-0.93 -2.89)" style="fill:#fff"/><path d="M271,18h2.29l.15,1.49a4.24,4.24,0,0,1,.47-.55,3.24,3.24,0,0,1,.53-.45,3.46,3.46,0,0,1,1-.5,3.9,3.9,0,0,1,1.19-.18,4.62,4.62,0,0,1,1.47.23,3,3,0,0,1,1.15.75,3.43,3.43,0,0,1,.75,1.3,6.46,6.46,0,0,1,.26,1.94V28.6h-2.52V22.1a3.24,3.24,0,0,0-.15-1.07,1.38,1.38,0,0,0-.42-.67,1.41,1.41,0,0,0-.66-.35,3.25,3.25,0,0,0-.87-.1,2.66,2.66,0,0,0-.77.1,2.18,2.18,0,0,0-.62.28,2.24,2.24,0,0,0-.41.35,3,3,0,0,0-.33.44V28.6H271Z" transform="translate(-0.93 -2.89)" style="fill:#fff"/><path d="M292.56,26.57v2h-9.74V27l6-6.9H283V18h9.34v1.56l-6.05,7Z" transform="translate(-0.93 -2.89)" style="fill:#fff"/><path d="M297.87,28.4a5.08,5.08,0,0,1-1.68-1.09,4.73,4.73,0,0,1-1.09-1.61,5.36,5.36,0,0,1-.38-2V23.3a6.07,6.07,0,0,1,.39-2.23,5.26,5.26,0,0,1,1.07-1.73,5,5,0,0,1,1.6-1.11,5.08,5.08,0,0,1,2-.39,5.17,5.17,0,0,1,2,.38,4.26,4.26,0,0,1,1.5,1.06,4.56,4.56,0,0,1,.91,1.65,6.76,6.76,0,0,1,.32,2.11v1.08h-7.26v0a4.23,4.23,0,0,0,.35,1.09,2.56,2.56,0,0,0,.59.77,2.82,2.82,0,0,0,.89.55,3.08,3.08,0,0,0,1.11.2,3.89,3.89,0,0,0,1.58-.33,3,3,0,0,0,1.23-.93l1.3,1.33a4.5,4.5,0,0,1-1.62,1.36,5.49,5.49,0,0,1-2.65.6A5.87,5.87,0,0,1,297.87,28.4Zm1-8.34a2,2,0,0,0-.71.48,2.87,2.87,0,0,0-.52.78,4.13,4.13,0,0,0-.31,1H302v-.19a2.52,2.52,0,0,0-.16-.86,2.36,2.36,0,0,0-.45-.73,2.12,2.12,0,0,0-.71-.48,2.4,2.4,0,0,0-1-.18A2.3,2.3,0,0,0,298.87,20.06Z" transform="translate(-0.93 -2.89)" style="fill:#fff"/><path d="M307.06,18h2.32l.1,1.07a3.05,3.05,0,0,1,.47-.48A3.09,3.09,0,0,1,311.3,18a4.12,4.12,0,0,1,.95-.11,3.89,3.89,0,0,1,1.78.39,3.69,3.69,0,0,1,1.3,1.09,5.2,5.2,0,0,1,.8,1.71,8.29,8.29,0,0,1,.27,2.18v.22a7.94,7.94,0,0,1-.27,2.12,5.24,5.24,0,0,1-.79,1.7,3.83,3.83,0,0,1-1.3,1.14,3.76,3.76,0,0,1-1.77.41,3.92,3.92,0,0,1-1-.12,3.76,3.76,0,0,1-.85-.33A2.88,2.88,0,0,1,310,28a3.55,3.55,0,0,1-.4-.38v5h-2.52Zm6.68,3.89a3.53,3.53,0,0,0-.4-1.05,2.12,2.12,0,0,0-.72-.71,2,2,0,0,0-1.05-.25,2.64,2.64,0,0,0-.65.07,2,2,0,0,0-.52.19,2.2,2.2,0,0,0-.47.37,2,2,0,0,0-.35.51V25.6a2.36,2.36,0,0,0,.32.48,2.22,2.22,0,0,0,.44.37,1.72,1.72,0,0,0,.55.23,2.53,2.53,0,0,0,.7.09,1.94,1.94,0,0,0,1-.27,2.1,2.1,0,0,0,.72-.73,3.66,3.66,0,0,0,.4-1.07,6.55,6.55,0,0,0,.12-1.28v-.21A5.94,5.94,0,0,0,313.74,21.92Z" transform="translate(-0.93 -2.89)" style="fill:#fff"/><path d="M323.86,18h4v1.88h-4V24.7a3,3,0,0,0,.14,1,1.55,1.55,0,0,0,.38.61,1.46,1.46,0,0,0,.61.34,3.06,3.06,0,0,0,.77.1c.2,0,.41,0,.63,0l.63-.08.55-.09a2.76,2.76,0,0,0,.43-.1l.27,1.75a2.68,2.68,0,0,1-.64.27,6.08,6.08,0,0,1-.79.2q-.42.08-.87.12c-.3,0-.61,0-.91,0a4.78,4.78,0,0,1-1.51-.23,2.92,2.92,0,0,1-1.18-.7,3.07,3.07,0,0,1-.77-1.2,5.15,5.15,0,0,1-.27-1.77v-5h-2.49V18h2.49V15.46h2.53Z" transform="translate(-0.93 -2.89)" style="fill:#fff"/><path d="M409.65,213.81h3.6A6.81,6.81,0,0,1,415,214a5.89,5.89,0,0,1,1.52.64,4.82,4.82,0,0,1,1.19.91,5.81,5.81,0,0,1,.89,1.21,6.21,6.21,0,0,1,.63,1.64,7.9,7.9,0,0,1,.22,1.92v1.15a7.81,7.81,0,0,1-.2,1.84,6.61,6.61,0,0,1-.59,1.6,6,6,0,0,1-.88,1.23,5.23,5.23,0,0,1-1.11,1,5.79,5.79,0,0,1-1.54.67,6.55,6.55,0,0,1-1.81.23h-3.71ZM412.22,226h1.14a3.51,3.51,0,0,0,1.05-.14,3,3,0,0,0,.86-.4,3,3,0,0,0,.73-.7,3.91,3.91,0,0,0,.53-1,5.27,5.27,0,0,0,.27-1,7.68,7.68,0,0,0,.11-1.22v-1.17a7.51,7.51,0,0,0-.11-1.19,4.81,4.81,0,0,0-.28-1,3.63,3.63,0,0,0-.59-1,3,3,0,0,0-.86-.74,3.42,3.42,0,0,0-.83-.33,3.84,3.84,0,0,0-1-.12h-1Z" transform="translate(-0.93 -2.89)" style="fill:#fff"/><path d="M424.66,227.82a5.06,5.06,0,0,1-1.68-1.08,4.7,4.7,0,0,1-1.08-1.62,5.14,5.14,0,0,1-.38-2v-.39a6.11,6.11,0,0,1,.38-2.23,5.27,5.27,0,0,1,1.07-1.72,4.74,4.74,0,0,1,1.61-1.11,4.83,4.83,0,0,1,2-.4,5.14,5.14,0,0,1,2,.38,4.28,4.28,0,0,1,1.5,1.07,4.6,4.6,0,0,1,.92,1.64,6.79,6.79,0,0,1,.31,2.12v1.07h-7.26v0a4.11,4.11,0,0,0,.35,1.09,2.77,2.77,0,0,0,.59.78,2.92,2.92,0,0,0,.9.54,3,3,0,0,0,1.1.2,4.1,4.1,0,0,0,1.59-.32,3.12,3.12,0,0,0,1.23-.94l1.29,1.34a4.48,4.48,0,0,1-1.62,1.35,5.48,5.48,0,0,1-2.64.6A5.73,5.73,0,0,1,424.66,227.82Zm1-8.34a1.93,1.93,0,0,0-.71.49,2.67,2.67,0,0,0-.52.77,4.27,4.27,0,0,0-.31,1h4.71v-.19a2.34,2.34,0,0,0-.16-.86,2.14,2.14,0,0,0-1.15-1.21,2.45,2.45,0,0,0-1-.18A2.34,2.34,0,0,0,425.66,219.48Z" transform="translate(-0.93 -2.89)" style="fill:#fff"/><path d="M440.56,224.68a1.13,1.13,0,0,0-.4-.38,4.35,4.35,0,0,0-.78-.31,11.14,11.14,0,0,0-1.21-.28,11.4,11.4,0,0,1-1.69-.47,5.45,5.45,0,0,1-1.3-.66,2.89,2.89,0,0,1-.85-.9,2.31,2.31,0,0,1-.31-1.18,2.75,2.75,0,0,1,.31-1.25,3.07,3.07,0,0,1,.89-1,4.29,4.29,0,0,1,1.4-.71,6.22,6.22,0,0,1,1.85-.26,6.73,6.73,0,0,1,1.93.26,4.52,4.52,0,0,1,1.46.71,3.23,3.23,0,0,1,.91,1.08,2.91,2.91,0,0,1,.32,1.34h-2.52a1.36,1.36,0,0,0-.11-.53,1.39,1.39,0,0,0-.31-.45,1.93,1.93,0,0,0-.69-.4,3.19,3.19,0,0,0-1-.14,3.52,3.52,0,0,0-.91.1,1.7,1.7,0,0,0-.62.29,1.18,1.18,0,0,0-.35.39,1,1,0,0,0-.12.48,1,1,0,0,0,.1.45,1,1,0,0,0,.37.38,2.65,2.65,0,0,0,.69.31,8.17,8.17,0,0,0,1.12.24,13.54,13.54,0,0,1,1.77.42,5.77,5.77,0,0,1,1.39.63,2.84,2.84,0,0,1,.9.93,2.37,2.37,0,0,1,.33,1.28,2.51,2.51,0,0,1-.34,1.29,3.17,3.17,0,0,1-.93,1,5,5,0,0,1-1.47.66,7.13,7.13,0,0,1-1.91.24,6.26,6.26,0,0,1-2.07-.31,4.82,4.82,0,0,1-1.51-.81A3.4,3.4,0,0,1,434,226a2.86,2.86,0,0,1-.32-1.29h2.43a1.64,1.64,0,0,0,.25.79,1.68,1.68,0,0,0,.55.51,2.32,2.32,0,0,0,.76.3,5,5,0,0,0,.87.08,4.28,4.28,0,0,0,1-.1,2.21,2.21,0,0,0,.69-.3,1.18,1.18,0,0,0,.34-.37.9.9,0,0,0,.12-.46A.88.88,0,0,0,440.56,224.68Z" transform="translate(-0.93 -2.89)" style="fill:#fff"/><path d="M452.13,217.46V226h3V228h-8.67V226h3.13v-6.41h-3.13v-2.08Zm-2.65-3.27a1.4,1.4,0,0,1,.31-.44,1.28,1.28,0,0,1,.45-.28,1.89,1.89,0,0,1,.6-.09,1.45,1.45,0,0,1,1,.33,1.2,1.2,0,0,1,.41.87,1.22,1.22,0,0,1-.29.89,1.31,1.31,0,0,1-.89.41,1.57,1.57,0,0,1-.57.07,1.53,1.53,0,0,1-.56-.18,1.06,1.06,0,0,1-.42-.42,1.37,1.37,0,0,1-.14-.61A1.42,1.42,0,0,1,449.48,214.19Z" transform="translate(-0.93 -2.89)" style="fill:#fff"/><path d="M457.83,220.47a5.08,5.08,0,0,1,.85-1.71,3.8,3.8,0,0,1,1.35-1.11,3.92,3.92,0,0,1,1.78-.39,4.08,4.08,0,0,1,1,.12,2.83,2.83,0,0,1,.84.33,3.39,3.39,0,0,1,.5.34,2.85,2.85,0,0,1,.41.44l.11-1H467v10.25a4.77,4.77,0,0,1-.35,1.9,3.85,3.85,0,0,1-1,1.4,4.29,4.29,0,0,1-1.55.88,6.6,6.6,0,0,1-2,.29,6.19,6.19,0,0,1-1-.09,6.27,6.27,0,0,1-1.08-.31,4.9,4.9,0,0,1-1-.52,3.63,3.63,0,0,1-.83-.78l1.16-1.54a4.38,4.38,0,0,0,.59.56,4.07,4.07,0,0,0,.65.4,3.37,3.37,0,0,0,.68.22,3.51,3.51,0,0,0,.72.07A3.22,3.22,0,0,0,463,230a2.05,2.05,0,0,0,.8-.5,1.9,1.9,0,0,0,.46-.75,3,3,0,0,0,.16-1v-.67a3.09,3.09,0,0,1-.41.4,3.46,3.46,0,0,1-.46.32,4,4,0,0,1-.82.31,4.3,4.3,0,0,1-1,.11,3.77,3.77,0,0,1-1.76-.41,4,4,0,0,1-1.35-1.11,5.37,5.37,0,0,1-.85-1.71,7.54,7.54,0,0,1-.29-2.12v-.21A7.9,7.9,0,0,1,457.83,220.47Zm2.38,3.68a3.13,3.13,0,0,0,.43,1,2.12,2.12,0,0,0,.72.71,2.21,2.21,0,0,0,1.06.25,3.49,3.49,0,0,0,.69-.07,2.43,2.43,0,0,0,.55-.22,2.34,2.34,0,0,0,.45-.37,2.25,2.25,0,0,0,.34-.47v-4.55a2.18,2.18,0,0,0-.36-.52,1.75,1.75,0,0,0-.49-.35,2,2,0,0,0-.52-.2,3.22,3.22,0,0,0-.64-.07,2.11,2.11,0,0,0-1.06.26,2.15,2.15,0,0,0-.73.71,3.48,3.48,0,0,0-.44,1.06,6,6,0,0,0-.14,1.3v.21A5.84,5.84,0,0,0,460.21,224.15Z" transform="translate(-0.93 -2.89)" style="fill:#fff"/><path d="M469.83,217.46h2.28l.16,1.48a4.06,4.06,0,0,1,.46-.55,4,4,0,0,1,1.56-.95,3.79,3.79,0,0,1,1.18-.18,4.36,4.36,0,0,1,1.47.24,2.85,2.85,0,0,1,1.16.74,3.46,3.46,0,0,1,.74,1.31,6.09,6.09,0,0,1,.26,1.93V228h-2.52v-6.5a3.56,3.56,0,0,0-.14-1.07,1.6,1.6,0,0,0-.42-.67,1.5,1.5,0,0,0-.66-.35,3.87,3.87,0,0,0-.88-.1,3,3,0,0,0-.76.1,2.34,2.34,0,0,0-.62.28,2.3,2.3,0,0,0-.41.35,2.46,2.46,0,0,0-.34.44V228h-2.52Z" transform="translate(-0.93 -2.89)" style="fill:#fff"/><path d="M550.18,12.35a6.07,6.07,0,0,1-.33,2.07,4.29,4.29,0,0,1-.94,1.56,4.07,4.07,0,0,1-1.5,1,5.5,5.5,0,0,1-2,.34,5.09,5.09,0,0,1-1.92-.34A4.19,4.19,0,0,1,542,16a4.39,4.39,0,0,1-1-1.56,5.93,5.93,0,0,1-.34-2.08V2.89h2.53l0,9.46a5.71,5.71,0,0,0,.15,1.25,2.62,2.62,0,0,0,.43.92,1.59,1.59,0,0,0,.65.53,2.13,2.13,0,0,0,.9.18,2.25,2.25,0,0,0,1-.19,1.69,1.69,0,0,0,.69-.55,2.49,2.49,0,0,0,.44-.91,5,5,0,0,0,.16-1.23V2.89h2.51Z" transform="translate(-0.93 -2.89)" style="fill:#fff"/><path d="M554.48,7.76a2.52,2.52,0,0,1,.84-1,2.09,2.09,0,0,1,1.28-.38,2.38,2.38,0,0,1,.68.09,1.33,1.33,0,0,1,.53.27,1.18,1.18,0,0,1,.3.33,1.74,1.74,0,0,1,.22.43,1.9,1.9,0,0,1,.31-.42,2.3,2.3,0,0,1,.38-.33,2,2,0,0,1,.59-.27,2.54,2.54,0,0,1,1.62.07,1.81,1.81,0,0,1,.73.54,2.73,2.73,0,0,1,.49,1,5.55,5.55,0,0,1,.17,1.45v7.62H560.3V9.48a1.53,1.53,0,0,0-.07-.51.85.85,0,0,0-.18-.34.61.61,0,0,0-.28-.16.9.9,0,0,0-.34-.05.88.88,0,0,0-.33.05,1,1,0,0,0-.26.12,1.12,1.12,0,0,0-.18.2.9.9,0,0,0-.12.24v8.08h-2.25V9.47a1.88,1.88,0,0,0-.06-.51.74.74,0,0,0-.17-.33.57.57,0,0,0-.27-.16.93.93,0,0,0-.34-.05,1,1,0,0,0-.36.06.85.85,0,0,0-.29.17.8.8,0,0,0-.15.2,2.56,2.56,0,0,0-.11.24v8h-2.31V6.54h2.17Z" transform="translate(-0.93 -2.89)" style="fill:#fff"/><path d="M571.64,13.76a1.12,1.12,0,0,0-.4-.37,3.5,3.5,0,0,0-.78-.31,10.37,10.37,0,0,0-1.21-.29,11.78,11.78,0,0,1-1.69-.46,5.45,5.45,0,0,1-1.3-.67,2.76,2.76,0,0,1-.85-.89,2.34,2.34,0,0,1-.3-1.19,2.67,2.67,0,0,1,.3-1.24,3.2,3.2,0,0,1,.89-1,4.48,4.48,0,0,1,1.4-.7,6,6,0,0,1,1.85-.26,6.39,6.39,0,0,1,1.93.26,4.72,4.72,0,0,1,1.46.7,3.21,3.21,0,0,1,.91,1.08,3,3,0,0,1,.32,1.35h-2.52a1.41,1.41,0,0,0-.11-.54,1.45,1.45,0,0,0-.31-.45,2,2,0,0,0-.68-.39,3,3,0,0,0-1-.15,3.35,3.35,0,0,0-.9.11,1.67,1.67,0,0,0-.63.28,1.18,1.18,0,0,0-.35.39,1.06,1.06,0,0,0,0,.94.93.93,0,0,0,.37.37,2.8,2.8,0,0,0,.69.32,8.17,8.17,0,0,0,1.12.24,15.43,15.43,0,0,1,1.77.41,5.77,5.77,0,0,1,1.39.63,3,3,0,0,1,.91.93,2.51,2.51,0,0,1,.32,1.28,2.58,2.58,0,0,1-.33,1.29,3.36,3.36,0,0,1-.94,1,5,5,0,0,1-1.47.66,7.57,7.57,0,0,1-1.91.23,6.54,6.54,0,0,1-2.07-.3,4.67,4.67,0,0,1-1.5-.82,3.28,3.28,0,0,1-.93-1.12,2.86,2.86,0,0,1-.32-1.29h2.43a1.57,1.57,0,0,0,.25.78,1.61,1.61,0,0,0,.55.52,2.66,2.66,0,0,0,.76.29,4.28,4.28,0,0,0,.87.09,4.19,4.19,0,0,0,1-.11,2.21,2.21,0,0,0,.69-.29,1.21,1.21,0,0,0,.34-.38.89.89,0,0,0,.12-.45A.91.91,0,0,0,571.64,13.76Z" transform="translate(-0.93 -2.89)" style="fill:#fff"/><path d="M579.75,16.91a5,5,0,0,1-1.68-1.09A4.77,4.77,0,0,1,577,14.2a5.31,5.31,0,0,1-.38-2v-.39A6.07,6.07,0,0,1,577,9.58a4.89,4.89,0,0,1,2.67-2.84,5.08,5.08,0,0,1,2-.39,5,5,0,0,1,2,.38,4.22,4.22,0,0,1,1.49,1.06,4.58,4.58,0,0,1,.92,1.65,6.72,6.72,0,0,1,.32,2.11v1.08h-7.26v0a3.88,3.88,0,0,0,.35,1.09,2.56,2.56,0,0,0,.59.77,2.82,2.82,0,0,0,.89.55,3.08,3.08,0,0,0,1.11.19,3.88,3.88,0,0,0,1.58-.32A3,3,0,0,0,584.9,14l1.3,1.34a4.61,4.61,0,0,1-1.63,1.35,5.45,5.45,0,0,1-2.64.6A5.84,5.84,0,0,1,579.75,16.91Zm1-8.35a2.2,2.2,0,0,0-.71.49,2.82,2.82,0,0,0-.52.77,3.81,3.81,0,0,0-.31,1h4.71v-.2a2.26,2.26,0,0,0-.17-.85,2.07,2.07,0,0,0-.44-.73,2.22,2.22,0,0,0-.71-.48,2.43,2.43,0,0,0-1-.18A2.3,2.3,0,0,0,580.75,8.56Z" transform="translate(-0.93 -2.89)" style="fill:#fff"/><path d="M593.74,6.54h4V8.42h-4v4.79a2.69,2.69,0,0,0,.14,1,1.33,1.33,0,0,0,.38.61,1.4,1.4,0,0,0,.6.35,3.13,3.13,0,0,0,.77.09q.32,0,.63,0l.63-.08.56-.09.43-.1.26,1.75a2.93,2.93,0,0,1-.64.27,5.55,5.55,0,0,1-.78.2c-.28.05-.57.09-.88.12s-.6,0-.9,0a4.9,4.9,0,0,1-1.52-.22,2.89,2.89,0,0,1-1.17-.7,3.1,3.1,0,0,1-.77-1.2,5.15,5.15,0,0,1-.27-1.77v-5h-2.49V6.54h2.49V4h2.53Z" transform="translate(-0.93 -2.89)" style="fill:#fff"/><path d="M610.45,15.08v2H600.7v-1.6l6-6.91h-5.87V6.54h9.34V8.1l-6,7Z" transform="translate(-0.93 -2.89)" style="fill:#fff"/><path d="M619.67,15.63a3.94,3.94,0,0,1-1.3,1.24,3.35,3.35,0,0,1-1.69.44,4.31,4.31,0,0,1-1.51-.25,2.84,2.84,0,0,1-1.16-.81,3.81,3.81,0,0,1-.75-1.4,6.84,6.84,0,0,1-.27-2V6.54h2.53v6.28a5.34,5.34,0,0,0,.1,1.15,1.79,1.79,0,0,0,.32.75,1.21,1.21,0,0,0,.56.41,2.57,2.57,0,0,0,.83.11,3.63,3.63,0,0,0,.85-.09,2.2,2.2,0,0,0,.66-.29,2.13,2.13,0,0,0,.42-.38,2.71,2.71,0,0,0,.31-.49V6.54h2.54V17.11h-2.3Z" transform="translate(-0.93 -2.89)" style="fill:#fff"/><path d="M624.91,6.54h2.29L627.35,8a4.24,4.24,0,0,1,.47-.55,3.24,3.24,0,0,1,.53-.45,3.75,3.75,0,0,1,1-.51,4.23,4.23,0,0,1,1.19-.17,4.62,4.62,0,0,1,1.47.23,3,3,0,0,1,1.15.74,3.4,3.4,0,0,1,.74,1.31,6.14,6.14,0,0,1,.27,1.94v6.54h-2.52v-6.5a3.24,3.24,0,0,0-.15-1.07,1.54,1.54,0,0,0-.42-.67,1.41,1.41,0,0,0-.66-.35,3.25,3.25,0,0,0-.87-.1,2.66,2.66,0,0,0-.77.1,2.06,2.06,0,0,0-.62.28,2.24,2.24,0,0,0-.41.35,3,3,0,0,0-.33.44v7.52h-2.53Z" transform="translate(-0.93 -2.89)" style="fill:#fff"/><path d="M636.92,9.55a5.27,5.27,0,0,1,.85-1.71,3.84,3.84,0,0,1,3.13-1.49,4.62,4.62,0,0,1,1,.11,2.85,2.85,0,0,1,.84.34,2.76,2.76,0,0,1,.5.34,2.85,2.85,0,0,1,.41.44l.11-1h2.29V16.8a5,5,0,0,1-.35,1.9,3.94,3.94,0,0,1-1,1.4,4.43,4.43,0,0,1-1.55.87,6.29,6.29,0,0,1-2,.3,5.31,5.31,0,0,1-1-.1,5.45,5.45,0,0,1-1.08-.3,4.94,4.94,0,0,1-1-.53,3.24,3.24,0,0,1-.83-.78L638.4,18a4.42,4.42,0,0,0,.59.56,3.39,3.39,0,0,0,.65.39,2.84,2.84,0,0,0,.68.22,3.53,3.53,0,0,0,.72.08,3.22,3.22,0,0,0,1.08-.17,2.2,2.2,0,0,0,.8-.51,2,2,0,0,0,.46-.75,2.93,2.93,0,0,0,.16-1v-.68a4,4,0,0,1-.41.41,3.37,3.37,0,0,1-.46.31,3.23,3.23,0,0,1-.82.31,3.85,3.85,0,0,1-1,.11,3.77,3.77,0,0,1-1.76-.4,3.94,3.94,0,0,1-1.35-1.12,5.32,5.32,0,0,1-.85-1.7,7.67,7.67,0,0,1-.29-2.13v-.2A8,8,0,0,1,636.92,9.55Zm2.38,3.68a3.09,3.09,0,0,0,.43,1,2,2,0,0,0,.72.7,2.1,2.1,0,0,0,1.06.25,2.93,2.93,0,0,0,.69-.07,2,2,0,0,0,.55-.22,2,2,0,0,0,.45-.36,2.08,2.08,0,0,0,.34-.48V9.55a2.12,2.12,0,0,0-.36-.51,1.6,1.6,0,0,0-.49-.36,2,2,0,0,0-.52-.19,2.62,2.62,0,0,0-.64-.07,2,2,0,0,0-1.06.26,2.22,2.22,0,0,0-.73.7,3.54,3.54,0,0,0-.44,1.07,6,6,0,0,0-.14,1.3V12A5.18,5.18,0,0,0,639.3,13.23Z" transform="translate(-0.93 -2.89)" style="fill:#fff"/><circle cx="592.53" cy="38.86" r="12.51" style="fill:#fff"/><circle cx="788.54" cy="166.07" r="12.51" transform="translate(112.6 603.34) rotate(-45)" style="fill:#fff"/><path d="M750.46,200.83v5.41h-2.55V192h4.65a7.12,7.12,0,0,1,2.08.28,4.74,4.74,0,0,1,1.62.81,3.57,3.57,0,0,1,1,1.33,4.4,4.4,0,0,1,.37,1.87,4.45,4.45,0,0,1-.19,1.35,3.65,3.65,0,0,1-.51,1.07,3.94,3.94,0,0,1-.83.85,5.27,5.27,0,0,1-1.06.62l3,5.91v.13H755.4l-2.69-5.41Zm2.12-2.08a3.25,3.25,0,0,0,1.12-.18,2.22,2.22,0,0,0,.82-.52,1.9,1.9,0,0,0,.44-.69,2.65,2.65,0,0,0,.15-.92,2.84,2.84,0,0,0-.18-1,1.83,1.83,0,0,0-.53-.74,2.3,2.3,0,0,0-.79-.42,3.41,3.41,0,0,0-1.05-.15h-2.1v4.66Z" transform="translate(-0.93 -2.89)" style="fill:#fff"/><path d="M762.83,206a5,5,0,0,1-1.68-1.09,4.68,4.68,0,0,1-1.09-1.62,5.31,5.31,0,0,1-.38-2v-.39a6.07,6.07,0,0,1,.39-2.23,4.89,4.89,0,0,1,2.67-2.84,5.08,5.08,0,0,1,2-.39,5,5,0,0,1,2,.38,4.22,4.22,0,0,1,1.49,1.06,4.58,4.58,0,0,1,.92,1.65,6.76,6.76,0,0,1,.32,2.11v1.08h-7.26v0a3.88,3.88,0,0,0,.35,1.09,2.56,2.56,0,0,0,.59.77,2.82,2.82,0,0,0,.89.55,3.08,3.08,0,0,0,1.11.19,3.88,3.88,0,0,0,1.58-.32,3,3,0,0,0,1.23-.94l1.3,1.34a4.52,4.52,0,0,1-1.63,1.35,5.45,5.45,0,0,1-2.64.6A5.84,5.84,0,0,1,762.83,206Zm1-8.35a2.2,2.2,0,0,0-.71.49,3,3,0,0,0-.52.77,3.81,3.81,0,0,0-.31,1H767v-.2a2.3,2.3,0,0,0-.17-.85,2.07,2.07,0,0,0-.44-.73,2.22,2.22,0,0,0-.71-.48,2.43,2.43,0,0,0-1-.18A2.3,2.3,0,0,0,763.83,197.69Z" transform="translate(-0.93 -2.89)" style="fill:#fff"/><path d="M778.29,191.24v12.93h3.12v2.07h-8.92v-2.07h3.26V193.32h-3.26v-2.08Z" transform="translate(-0.93 -2.89)" style="fill:#fff"/><path d="M786.83,206a5.08,5.08,0,0,1-1.68-1.09,4.52,4.52,0,0,1-1.08-1.62,5.13,5.13,0,0,1-.39-2v-.39a6.07,6.07,0,0,1,.39-2.23,5.16,5.16,0,0,1,1.07-1.73,4.89,4.89,0,0,1,3.59-1.5,5,5,0,0,1,2,.38,4.26,4.26,0,0,1,1.5,1.06,4.74,4.74,0,0,1,.92,1.65,6.77,6.77,0,0,1,.31,2.11v1.08h-7.26v0a4.23,4.23,0,0,0,.35,1.09,2.73,2.73,0,0,0,.59.77,2.82,2.82,0,0,0,.89.55,3.08,3.08,0,0,0,1.11.19,3.85,3.85,0,0,0,1.58-.32,3,3,0,0,0,1.24-.94l1.29,1.34a4.48,4.48,0,0,1-1.62,1.35,5.48,5.48,0,0,1-2.64.6A5.93,5.93,0,0,1,786.83,206Zm1-8.35a2.2,2.2,0,0,0-.71.49,3,3,0,0,0-.52.77,4.21,4.21,0,0,0-.31,1H791v-.2a2.29,2.29,0,0,0-.16-.85,2.25,2.25,0,0,0-.45-.73,2.18,2.18,0,0,0-.7-.48,2.48,2.48,0,0,0-1-.18A2.33,2.33,0,0,0,787.83,197.69Z" transform="translate(-0.93 -2.89)" style="fill:#fff"/><path d="M802.49,205.78a4.82,4.82,0,0,1-.1-.57,4.2,4.2,0,0,1-.54.48,3.9,3.9,0,0,1-.67.38,4.27,4.27,0,0,1-.81.27,4.59,4.59,0,0,1-.93.09,4.46,4.46,0,0,1-1.5-.23,3.43,3.43,0,0,1-1.16-.65,3,3,0,0,1-1-2.26,3.34,3.34,0,0,1,.35-1.55,2.84,2.84,0,0,1,1-1.12,4.7,4.7,0,0,1,1.52-.62,9.13,9.13,0,0,1,2.06-.21h1.61v-.66a1.76,1.76,0,0,0-.13-.71,1.36,1.36,0,0,0-.38-.54,1.71,1.71,0,0,0-.65-.36,3,3,0,0,0-1.68,0,1.45,1.45,0,0,0-.55.3,1,1,0,0,0-.3.43,1.33,1.33,0,0,0-.1.54H796a2.74,2.74,0,0,1,.3-1.25,3.27,3.27,0,0,1,.86-1.05,4.5,4.5,0,0,1,1.38-.72,6,6,0,0,1,1.86-.27,6.15,6.15,0,0,1,1.76.23,4.17,4.17,0,0,1,1.42.69,3.25,3.25,0,0,1,.93,1.14,3.7,3.7,0,0,1,.34,1.61v4.61a7.4,7.4,0,0,0,.1,1.34,3.46,3.46,0,0,0,.31,1v.17h-2.58A2.22,2.22,0,0,1,802.49,205.78Zm-1.74-1.44a2.77,2.77,0,0,0,.68-.28,2.58,2.58,0,0,0,.52-.38,2.29,2.29,0,0,0,.35-.45v-1.88h-1.45a5.17,5.17,0,0,0-1.2.12,2.34,2.34,0,0,0-.81.37,1.44,1.44,0,0,0-.42.54,1.58,1.58,0,0,0-.15.69,1.47,1.47,0,0,0,.11.56,1.16,1.16,0,0,0,.32.44,1.7,1.7,0,0,0,.52.27,2.28,2.28,0,0,0,.72.1A2.9,2.9,0,0,0,800.75,204.34Z" transform="translate(-0.93 -2.89)" style="fill:#fff"/><path d="M814.73,202.89a1.12,1.12,0,0,0-.4-.37,3.5,3.5,0,0,0-.78-.31,10.37,10.37,0,0,0-1.21-.29,11.78,11.78,0,0,1-1.69-.46,5.45,5.45,0,0,1-1.3-.67,2.76,2.76,0,0,1-.85-.89,2.34,2.34,0,0,1-.3-1.19,2.67,2.67,0,0,1,.3-1.24,3.2,3.2,0,0,1,.89-1,4.48,4.48,0,0,1,1.4-.7,6,6,0,0,1,1.85-.26,6.39,6.39,0,0,1,1.93.26,4.72,4.72,0,0,1,1.46.7,3.21,3.21,0,0,1,.91,1.08,3,3,0,0,1,.32,1.35h-2.52a1.41,1.41,0,0,0-.11-.54,1.45,1.45,0,0,0-.31-.45,2,2,0,0,0-.68-.39,3,3,0,0,0-1-.15,3.35,3.35,0,0,0-.9.11,1.67,1.67,0,0,0-.63.28,1.18,1.18,0,0,0-.35.39,1.06,1.06,0,0,0,0,.94.93.93,0,0,0,.37.37,2.8,2.8,0,0,0,.69.32,8.17,8.17,0,0,0,1.12.24,15.43,15.43,0,0,1,1.77.41,5.77,5.77,0,0,1,1.39.63,3,3,0,0,1,.91.93,2.51,2.51,0,0,1,.32,1.28,2.58,2.58,0,0,1-.33,1.29,3.36,3.36,0,0,1-.94,1,5,5,0,0,1-1.47.66,7.14,7.14,0,0,1-1.91.23,6.54,6.54,0,0,1-2.07-.3,4.83,4.83,0,0,1-1.51-.82,3.37,3.37,0,0,1-.92-1.12,2.86,2.86,0,0,1-.32-1.29h2.43a1.57,1.57,0,0,0,.25.78,1.61,1.61,0,0,0,.55.52,2.66,2.66,0,0,0,.76.29,4.28,4.28,0,0,0,.87.09,4.19,4.19,0,0,0,1-.11,2.21,2.21,0,0,0,.69-.29,1.21,1.21,0,0,0,.34-.38.89.89,0,0,0,.12-.45A.91.91,0,0,0,814.73,202.89Z" transform="translate(-0.93 -2.89)" style="fill:#fff"/><path d="M822.84,206a5,5,0,0,1-1.68-1.09,4.68,4.68,0,0,1-1.09-1.62,5.31,5.31,0,0,1-.38-2v-.39a6.07,6.07,0,0,1,.39-2.23,4.89,4.89,0,0,1,2.67-2.84,5.08,5.08,0,0,1,2-.39,5,5,0,0,1,2,.38,4.31,4.31,0,0,1,1.49,1.06,4.58,4.58,0,0,1,.92,1.65,6.76,6.76,0,0,1,.32,2.11v1.08h-7.26v0a3.88,3.88,0,0,0,.35,1.09,2.56,2.56,0,0,0,.59.77,2.72,2.72,0,0,0,.89.55,3,3,0,0,0,1.11.19,3.88,3.88,0,0,0,1.58-.32,3,3,0,0,0,1.23-.94l1.3,1.34a4.61,4.61,0,0,1-1.63,1.35,5.45,5.45,0,0,1-2.64.6A5.84,5.84,0,0,1,822.84,206Zm1-8.35a2.2,2.2,0,0,0-.71.49,3,3,0,0,0-.52.77,3.81,3.81,0,0,0-.31,1H827v-.2a2.29,2.29,0,0,0-.16-.85,2.07,2.07,0,0,0-.44-.73,2.22,2.22,0,0,0-.71-.48,2.43,2.43,0,0,0-1-.18A2.3,2.3,0,0,0,823.84,197.69Z" transform="translate(-0.93 -2.89)" style="fill:#fff"/><path d="M903.48,26.44h4.65a8,8,0,0,1,2,.24,4.88,4.88,0,0,1,1.6.7,3.39,3.39,0,0,1,1,1.21,3.74,3.74,0,0,1,.36,1.73,3.52,3.52,0,0,1-.22,1.17,2.88,2.88,0,0,1-.62,1,2.49,2.49,0,0,1-.55.47,3.63,3.63,0,0,1-.71.36h0a3.51,3.51,0,0,1,1.1.5,2.86,2.86,0,0,1,.72.71,2.94,2.94,0,0,1,.46.94,3.79,3.79,0,0,1,.15,1.07,4.25,4.25,0,0,1-.36,1.8,3.52,3.52,0,0,1-1,1.3,4.55,4.55,0,0,1-1.57.79,7.64,7.64,0,0,1-2,.26h-5ZM906,38.59h2.51a3,3,0,0,0,1-.15,2.18,2.18,0,0,0,.76-.39,2.1,2.1,0,0,0,.5-.68,2.21,2.21,0,0,0,.17-.87,2.31,2.31,0,0,0-.13-.9,1.76,1.76,0,0,0-.43-.69,1.85,1.85,0,0,0-.72-.43,3.38,3.38,0,0,0-1-.17H906Zm2.14-6.16a4.41,4.41,0,0,0,1.09-.15,1.94,1.94,0,0,0,.79-.43,1.79,1.79,0,0,0,.43-.58,1.94,1.94,0,0,0,.15-.78,2.21,2.21,0,0,0-.14-.81,1.45,1.45,0,0,0-.39-.57,2,2,0,0,0-.81-.43,4.76,4.76,0,0,0-1.13-.15H906v3.9Z" transform="translate(-0.93 -2.89)" style="fill:#fff"/><path d="M918.4,40.47a4.93,4.93,0,0,1-1.68-1.09,4.57,4.57,0,0,1-1.08-1.61,5.36,5.36,0,0,1-.38-2v-.39a6.07,6.07,0,0,1,.39-2.23,5.26,5.26,0,0,1,1.07-1.73,4.93,4.93,0,0,1,3.6-1.49,5,5,0,0,1,2,.38,4.16,4.16,0,0,1,1.5,1.07,4.6,4.6,0,0,1,.92,1.64,7.09,7.09,0,0,1,.31,2.12V36.2h-7.25v0a4.13,4.13,0,0,0,.34,1.09,3,3,0,0,0,.59.78,3.15,3.15,0,0,0,.9.55,3,3,0,0,0,1.1.19,3.9,3.9,0,0,0,1.59-.32,3,3,0,0,0,1.23-.93l1.3,1.34a4.61,4.61,0,0,1-1.63,1.35,5.59,5.59,0,0,1-2.64.59A5.7,5.7,0,0,1,918.4,40.47Zm1-8.34a1.93,1.93,0,0,0-.71.49,2.67,2.67,0,0,0-.52.77,3.85,3.85,0,0,0-.31,1h4.71v-.19a2.52,2.52,0,0,0-.16-.86,2.25,2.25,0,0,0-.45-.73,2.18,2.18,0,0,0-.7-.48,2.45,2.45,0,0,0-1-.18A2.33,2.33,0,0,0,919.41,32.13Z" transform="translate(-0.93 -2.89)" style="fill:#fff"/><path d="M932.41,30.13h4V32h-4v4.8a3,3,0,0,0,.13,1,1.48,1.48,0,0,0,.38.61,1.36,1.36,0,0,0,.61.34,2.66,2.66,0,0,0,.77.1l.63,0c.22,0,.43,0,.63-.09l.55-.08.44-.1.26,1.75a3.85,3.85,0,0,1-.64.27c-.25.08-.51.14-.79.2s-.57.09-.87.12-.61,0-.91,0a4.78,4.78,0,0,1-1.51-.23,2.92,2.92,0,0,1-1.18-.7,3.22,3.22,0,0,1-.77-1.2,5.42,5.42,0,0,1-.26-1.77V32h-2.49V30.12h2.49V27.54h2.53Z" transform="translate(-0.93 -2.89)" style="fill:#fff"/><path d="M948.14,30a4.07,4.07,0,0,1,.84.19l-.38,2.5c-.35-.08-.71-.14-1.08-.19a9.47,9.47,0,0,0-1-.06,4.43,4.43,0,0,0-1,.1,2.68,2.68,0,0,0-.79.33,2.49,2.49,0,0,0-.68.57,3,3,0,0,0-.46.8v6.44H941V30.14h2.35l.11,1.47,0,.25a4.88,4.88,0,0,1,1.54-1.4,4,4,0,0,1,2-.51A7.83,7.83,0,0,1,948.14,30Z" transform="translate(-0.93 -2.89)" style="fill:#fff"/><path d="M954.41,40.52a5,5,0,0,1-1.68-1.09,4.87,4.87,0,0,1-1.09-1.62,5.32,5.32,0,0,1-.37-2v-.39a6.32,6.32,0,0,1,.38-2.23,5.23,5.23,0,0,1,1.08-1.72,5,5,0,0,1,1.6-1.11,5.08,5.08,0,0,1,2-.39,5.17,5.17,0,0,1,2,.38,4.41,4.41,0,0,1,1.5,1.07,4.72,4.72,0,0,1,.91,1.65,6.72,6.72,0,0,1,.31,2.11v1.08h-7.26v0a4.23,4.23,0,0,0,.35,1.09,2.73,2.73,0,0,0,.59.77,2.82,2.82,0,0,0,.89.55,3.08,3.08,0,0,0,1.11.2,4.06,4.06,0,0,0,1.58-.32,3,3,0,0,0,1.23-.94l1.3,1.34a4.52,4.52,0,0,1-1.63,1.35,5.48,5.48,0,0,1-2.64.6A5.84,5.84,0,0,1,954.41,40.52Zm1-8.34a2,2,0,0,0-.71.48,2.9,2.9,0,0,0-.53.78,3.63,3.63,0,0,0-.3,1h4.7v-.2a2.34,2.34,0,0,0-.16-.86,2.18,2.18,0,0,0-.44-.72,2.25,2.25,0,0,0-.71-.49,2.43,2.43,0,0,0-1-.18A2.3,2.3,0,0,0,955.42,32.18Z" transform="translate(-0.93 -2.89)" style="fill:#fff"/><path d="M970.32,39.27A4,4,0,0,1,969,40.5a3.39,3.39,0,0,1-1.7.44,4.29,4.29,0,0,1-1.5-.25,2.71,2.71,0,0,1-1.16-.82,3.68,3.68,0,0,1-.76-1.4,7.18,7.18,0,0,1-.26-2V30.17h2.53v6.28a5.4,5.4,0,0,0,.1,1.15,1.88,1.88,0,0,0,.31.74,1.11,1.11,0,0,0,.57.41,2.55,2.55,0,0,0,.83.12,3.76,3.76,0,0,0,.85-.09,2.2,2.2,0,0,0,.66-.29,2.13,2.13,0,0,0,.42-.38,3,3,0,0,0,.31-.48V30.17h2.54l0,10.56h-2.29Z" transform="translate(-0.93 -2.89)" style="fill:#fff"/><path d="M982.33,39.28a4.11,4.11,0,0,1-1.3,1.23,3.29,3.29,0,0,1-1.69.45,4.31,4.31,0,0,1-1.51-.26,2.84,2.84,0,0,1-1.16-.81,3.74,3.74,0,0,1-.75-1.4,6.84,6.84,0,0,1-.27-2.05V30.18h2.53v6.28a5.5,5.5,0,0,0,.1,1.16,1.75,1.75,0,0,0,.32.74,1.21,1.21,0,0,0,.56.41,2.55,2.55,0,0,0,.83.12,3.15,3.15,0,0,0,.85-.1,2.19,2.19,0,0,0,.66-.28,2.13,2.13,0,0,0,.42-.38,2.26,2.26,0,0,0,.31-.49V30.19h2.54V40.76h-2.3Z" transform="translate(-0.93 -2.89)" style="fill:#fff"/><path d="M987.58,30.2h2.29l.15,1.48a4.13,4.13,0,0,1,.47-.55,4,4,0,0,1,1.55-.95,4.23,4.23,0,0,1,1.19-.17,4.62,4.62,0,0,1,1.47.23,3,3,0,0,1,1.15.75,3.33,3.33,0,0,1,.74,1.31,6.09,6.09,0,0,1,.26,1.93v6.54h-2.52v-6.5a3.27,3.27,0,0,0-.14-1.07,1.54,1.54,0,0,0-.42-.67,1.41,1.41,0,0,0-.66-.35,3.35,3.35,0,0,0-.87-.1,3.07,3.07,0,0,0-.77.09,2.08,2.08,0,0,0-.62.29,1.9,1.9,0,0,0-.41.34,3.07,3.07,0,0,0-.33.45v7.52h-2.53Z" transform="translate(-0.93 -2.89)" style="fill:#fff"/><path d="M999.59,33.22a5.27,5.27,0,0,1,.85-1.71,3.84,3.84,0,0,1,3.13-1.49,4.62,4.62,0,0,1,1,.11,3.15,3.15,0,0,1,.84.34,2.81,2.81,0,0,1,.5.35,2.46,2.46,0,0,1,.41.44l.11-1h2.29V40.48a4.77,4.77,0,0,1-.36,1.9,3.94,3.94,0,0,1-1,1.4,4.43,4.43,0,0,1-1.55.87,6.25,6.25,0,0,1-2,.29,5.31,5.31,0,0,1-1-.1,5.45,5.45,0,0,1-1.08-.3,5.51,5.51,0,0,1-1-.53,3.24,3.24,0,0,1-.83-.78l1.16-1.53a4.48,4.48,0,0,0,.6.56,3,3,0,0,0,1.33.62,3.38,3.38,0,0,0,.72.07,3.06,3.06,0,0,0,1.08-.17,2,2,0,0,0,.79-.5,1.92,1.92,0,0,0,.47-.75,3,3,0,0,0,.16-1v-.67a3.85,3.85,0,0,1-.41.4,3.55,3.55,0,0,1-.47.32,4,4,0,0,1-.82.31,4.21,4.21,0,0,1-1,.11,3.82,3.82,0,0,1-1.77-.41,4,4,0,0,1-1.34-1.12,5.32,5.32,0,0,1-.85-1.7,7.67,7.67,0,0,1-.29-2.13v-.2A7.6,7.6,0,0,1,999.59,33.22ZM1002,36.9a3.09,3.09,0,0,0,.43,1.05,2,2,0,0,0,.72.7,2.11,2.11,0,0,0,1.06.26,2.93,2.93,0,0,0,.69-.07,2.43,2.43,0,0,0,.55-.22,2.34,2.34,0,0,0,.45-.37,2.73,2.73,0,0,0,.35-.47V33.23a2.22,2.22,0,0,0-.37-.52,1.7,1.7,0,0,0-.48-.35,2,2,0,0,0-.52-.2,3.22,3.22,0,0,0-.64-.07,2.11,2.11,0,0,0-1.06.26,2.18,2.18,0,0,0-.74.71,3.37,3.37,0,0,0-.43,1.06,5.39,5.39,0,0,0-.15,1.3v.2A5.7,5.7,0,0,0,1002,36.9Z" transform="translate(-0.93 -2.89)" style="fill:#fff"/><polygon points="142.27 148.5 133.28 139.47 120.74 141.76 126.55 130.42 120.5 119.2 133.09 121.22 141.88 112 143.85 124.6 155.34 130.12 143.97 135.88 142.27 148.5" style="fill:#fff"/><polygon points="189.79 72.17 177.11 70.93 168.9 80.68 166.15 68.24 154.35 63.45 165.33 56.99 166.24 44.28 175.78 52.73 188.15 49.67 183.05 61.35 189.79 72.17" style="fill:#fff"/><polygon points="285.28 125.16 278.61 129.81 278.67 137.95 272.18 133.04 264.46 135.61 267.12 127.92 262.3 121.38 270.43 121.53 275.16 114.92 277.53 122.7 285.28 125.16" style="fill:#fff"/><polygon points="336.92 178.38 325.72 173.71 315.53 180.29 316.5 168.2 307.1 160.54 318.9 157.73 323.28 146.42 329.59 156.78 341.71 157.44 333.81 166.65 336.92 178.38" style="fill:#fff"/><polygon points="631.95 144.29 614.89 147.79 608.1 163.83 599.5 148.69 582.15 147.19 593.89 134.33 589.96 117.36 605.82 124.56 620.74 115.58 618.79 132.88 631.95 144.29" style="fill:#fff"/><polygon points="461.8 115.55 451.49 119.39 448.8 130.06 441.97 121.43 430.99 122.17 437.08 113.01 432.98 102.8 443.58 105.76 452.02 98.71 452.48 109.7 461.8 115.55" style="fill:#fff"/><polygon points="391.92 47.1 393.43 39.76 388.24 34.35 395.69 33.52 399.23 26.91 402.32 33.74 409.7 35.07 404.16 40.12 405.18 47.54 398.67 43.84 391.92 47.1" style="fill:#fff"/><polygon points="762.84 69.33 750.54 70.64 744.65 81.52 739.6 70.22 727.43 67.98 736.61 59.69 734.98 47.42 745.71 53.59 756.87 48.25 754.32 60.36 762.84 69.33" style="fill:#fff"/><polygon points="762.6 123.36 762.38 113.05 753.75 107.38 763.5 103.98 766.23 94.02 772.47 102.25 782.78 101.76 776.89 110.24 780.53 119.9 770.65 116.92 762.6 123.36" style="fill:#fff"/><polygon points="805.13 85.6 796.38 82.92 789.2 88.6 789.05 79.45 781.43 74.38 790.09 71.41 792.55 62.59 798.05 69.91 807.2 69.53 801.94 77.02 805.13 85.6" style="fill:#fff"/><polygon points="908.06 174.79 907.38 165.66 899.47 161.05 907.95 157.58 909.89 148.63 915.81 155.62 924.92 154.71 920.1 162.5 923.79 170.88 914.89 168.7 908.06 174.79" style="fill:#fff"/><circle cx="955.19" cy="63.87" r="9.78" style="fill:#fff"/><circle cx="955.19" cy="63.87" r="15.42" style="fill:none;stroke:#fff;stroke-miterlimit:10;stroke-width:3px"/></svg>