<?xml version="1.0" standalone="no"?>
<!DOCTYPE svg PUBLIC "-//W3C//DTD SVG 20010904//EN"
 "http://www.w3.org/TR/2001/REC-SVG-20010904/DTD/svg10.dtd">
<svg version="1.0" xmlns="http://www.w3.org/2000/svg"
 width="413.000000pt" height="413.000000pt" viewBox="0 0 413.000000 413.000000"
 preserveAspectRatio="xMidYMid meet">
<metadata>
Created by potrace 1.14, written by Peter Selinger 2001-2017
</metadata>
<g transform="translate(0.000000,413.000000) scale(0.100000,-0.100000)"
fill="#000000" stroke="none">
<path d="M753 3349 l-543 -530 0 -652 0 -651 52 50 c166 159 2125 2069 2238
2180 l135 134 -670 0 -670 -1 -542 -530z"/>
<path d="M2063 3041 l-612 -596 -1 -487 0 -488 501 0 501 0 114 112 114 113
-2 971 -3 971 -612 -596z"/>
<path d="M2880 2279 l0 -381 58 51 c31 28 208 199 392 381 l335 329 -392 1
-393 0 0 -381z"/>
<path d="M2814 1549 c-604 -589 -1148 -1120 -1209 -1180 l-110 -109 672 0 671
0 541 527 541 527 0 653 c0 359 -2 653 -4 653 -1 0 -498 -482 -1102 -1071z"/>
</g>
</svg>
