<svg xmlns="http://www.w3.org/2000/svg" viewBox="0 0 351.95 167.69"><defs><style>.cls-1{fill:#fff;fill-rule:evenodd;}</style></defs><g id="Ebene_2" data-name="Ebene 2"><g id="Ebene_1-2" data-name="Ebene 1"><path class="cls-1" d="M208.19,60.32v.54c0,.79.89,1.3,1.63,1.3,1.22,0,2.17-1.7,2.17-3V58.9c0-.75-.14-1.95-.87-1.95-.53,0-2.93,2.56-2.93,3.37Zm-151.36.1v.33a1.59,1.59,0,0,0,1.41,1.52c1.49,0,2.5-1.72,2.5-3.15,0-.7-.22-2.17-.87-2.17h-.11c-.57,0-2.93,2.7-2.93,3.47Zm87,8.81v.65c0,1.77,6.5.87,8.14.87h4.68c1.37,0,3.58.23,3.58-1.09v-.87a1,1,0,0,0-1-1h-5.43a46.85,46.85,0,0,0-5.5.16c-1.46.26-4.49-.37-4.49,1.26ZM352,76.94v-.43c-.17-.2-.13-.33-.44-.33h-.11c-.12,0-1.74,1.69-2,1.93a13.66,13.66,0,0,1-2.21,1.7c-1,.68-3.91,2.46-5.37,2.46a9.6,9.6,0,0,0,1.31-4.67l0-1.53-.57-5.76V68.47c0-2.92,4-2.59,4-4.57v-.32a1.48,1.48,0,0,0-1.3-1.63,5,5,0,0,0-4,2.54c-.62,1-.36,1.07-1.41,1.85A20.21,20.21,0,0,0,338.18,68a81.14,81.14,0,0,1-7.28,5.87c-1.1.83-2.61,2-3.59,2.93-.57.54-1.2,1-1.74,1.53a6.42,6.42,0,0,0-.83.8c-.35.71-.2.45-.85.89-2.6,1.73-5.47,3.49-9.76,3.49-.56,0-1.3-.27-1.3-.76,0-1.67,1.94-4,2.72-5.1a12.05,12.05,0,0,1,1.95-2c.76-.56,1.74-.9,1.74-2.17v-.11c0-1.69-.87-2.67-.87-4.35v-.22c0-1.41,1.41-2,1.41-3v-.43a1.2,1.2,0,0,0-1.19-1.09c-.78,0-5.42,4.79-6,5.61-1.12,1.51-4.35,4.38-5.85,5.88a22.9,22.9,0,0,1-7.1,4.53,33.52,33.52,0,0,1-9.83,1.91h-.32a11.78,11.78,0,0,1-4-.69c-.84-.34-2.32-1.38-2.32-2.35a4.67,4.67,0,0,1,1.24-2.67,28.12,28.12,0,0,1,2.87-1.15c1.88-.74,3.77-1.66,5.65-2.39,1.69-.66,3.82-1.67,5.45-2.49,1.35-.67,4.13-2,4.13-3.91V66.4c0-.31-.72-.87-1-.87h-2.07c-6.15,0-19.23,8.07-19.23,13.91v.33c0,3.46,4.1,4.78,7.72,4.78h1.52a46.65,46.65,0,0,0,8.65-1.78,26.24,26.24,0,0,0,6.76-3.67A54.45,54.45,0,0,0,310.25,74c1.09-1.09,4.28-4.46,5.3-5.14l-.12,0,.66,4c-.26.39-1.57,1.73-2,2.15a29,29,0,0,0-1.9,2.23c-1,1.14-2.53,3.81-2.53,5.84v.22c0,1.64,1.79,2.71,3.47,2.71h1.53c4.95,0,11.11-5.46,13.93-8,1.27-1.14,11.35-9.73,12-9.92l-.3,4.13V73.9c0,2,.34,3.31-.25,5a5.6,5.6,0,0,1-2.14,3.29c-.56-.13-3-1-3.26-1-1.42,0-3.26.56-3.26,1.85v1.09c0,1.1,1.64,1.95,2.83,1.95H336c1.48,0,3.78-.89,4.35-1.74a19.45,19.45,0,0,0,3.76-.91,10.21,10.21,0,0,0,3-1.76,22.52,22.52,0,0,0,2.48-2.3A28.87,28.87,0,0,1,352,76.94Zm-65.42-3c.66-1,4.32-3.43,5.58-4.09,1.47-.78,5.17-2.32,7.25-2.32h.54c-.33,1.23-11.36,5.94-13.37,6.41ZM202.87,34c3-2.35,6.07-4.75,9.36-3.85-2.2,2.35-5.61,3.3-9.36,3.85ZM165.05,83.46A39.05,39.05,0,0,1,168,77.05a57.45,57.45,0,0,1,3.8-5.54,27.57,27.57,0,0,1,4.75-4.59c.92-.7,4.79-3.33,5.79-3.56-.28,1.06-7,9.25-8.18,10.51-1.48,1.63-7.57,9.19-9.1,9.59Zm2.28-41.4c0-.72,3-3,3.72-3.46a25.29,25.29,0,0,1,4.76-2.41,32.29,32.29,0,0,1,11.84-2.39c2.23,0,4.66-.22,7-.22s4.59-.44,6.63-.54c1.15-.06,1.56-.78,2.26-1.33a22.28,22.28,0,0,1,2.15-1.43,9.77,9.77,0,0,1,5.15-1.92h1a2.08,2.08,0,0,1,2.28,2c0,2.16-3.49,3.21-5.23,3.79-1.5.5-5.42,1.75-7.16,1.75,0,0-3.22,4.46-3.63,5.07a53.5,53.5,0,0,0-3.18,5.4c-1,2-2,3.75-3,5.69A60.07,60.07,0,0,0,189,57.71c.79-.19,2.42-.74,3.29-1.06,1.05-.37,2.15-.66,3.29-.94,1.52-.38,5.49-1.7,6.89-1.7h.11a.67.67,0,0,1,.76.76V55a45.27,45.27,0,0,1-2.69,4.59,7.83,7.83,0,0,0-.94,2.75c-.17.86.11,2.66-.93,2.66h-.65c-.67,0-.76-1.23-.76-2,0-2.81,1-4.08,1.52-6.08-.65.31-2.56.61-3.44.91-1.11.37-2.18.67-3.26,1.09-1.81.7-4.74,1.48-5.88,2.81-2.63,3.05-4.9,6.75-7.39,10s-4.86,6.94-7.66,9.72c-1.24,1.23-8,8-9.43,8h-.21c-.72,0-1.42-.38-1.42-1.08V88c0-.62,3-6.94,3.48-7.83a60.91,60.91,0,0,1,4.17-7.12A34.66,34.66,0,0,1,179.54,62.2c1.26-.66,2.38-1.35,3.66-2,2-1,1.86-.67,3.11-2.55,1.51-2.27,2.75-4.75,4.1-7.2s2.59-4.92,4-7.32c.7-1.21,1.35-2.34,2.13-3.52.33-.5,2.27-3.12,2.33-3.32-2.88,0-6,.32-9.13.32a71.69,71.69,0,0,0-8.91.54,26.87,26.87,0,0,0-7.28,2.18,25.75,25.75,0,0,0-3.09,1.7c-.79.52-2,1.67-3,1.67a1.72,1.72,0,0,1-.11-.54v-.11Zm-46,36.3c0-4.91,12.77-26,15.56-30.3,1.55-2.38,3.15-4.55,4.67-6.85s3.48-4.21,5.11-6.3c1.17-1.5,10.36-11.22,11.61-11.22h.32c.71,0,1.09.7,1.09,1.41v.55c0,7.92-13.9,22.43-18.55,27.09-1.93,1.92-3.72,3.82-5.66,5.76s-3.91,3.57-5.39,6c-2.1,3.45-6.69,10.87-6.69,16,0,1.61.79,2.61,2.39,2.61H126c3.77,0,9.51-6.09,10.33-6.09.27,0,.65.24.65.55s-4.48,4.25-5.13,4.76c-1.65,1.3-3.81,3.17-6.71,3.17h-.11c-3.47,0-3.92-2-3.92-5.43-.94.63-2.26,2.22-3.43,3.08A8.11,8.11,0,0,1,113,85c-2.94,0-4.68-1.54-4.68-4.35v-.11c0-2,.77-2.78,1.09-4.13-1.22.82-2.43,2-3.76,2.87s-2.55,1.65-4,2.54c-2,1.28-6.39,3.5-9.54,3.5a2.87,2.87,0,0,1-3-3.15v-.11a3.21,3.21,0,0,1,.22-1c-.88.47-2.5,2.07-3.61,2.81a9.29,9.29,0,0,1-4.65,1.65H81c-3.06,0-5-1.48-5-4.57,0-1.89,1.49-3.79,2.37-4.91a44.32,44.32,0,0,0,3.07-4.21h-.33c-1.17,0-5.67,2.27-6.63,2.82a59.46,59.46,0,0,0-5.58,3.87c-1.68,1.23-8.91,8.41-10.39,8.41H57.7a.62.62,0,0,1-.55-.54v-.54c0-.65,2.29-2.89,2.8-3.4a40,40,0,0,0,2.84-3.25c.76-1,5.23-6,5.23-6.94,0-.15-.15-.22-.33-.22-.82,0-4.07,2.89-4.75,3.51s-1.56,1.24-2.23,1.9a25.89,25.89,0,0,1-2.09,1.92c-.58.37-.71.23-1.28.8-.41.41-.66.59-1.08,1-.77.69-1.4,1.19-2.17,1.85-1.07.92-3.66,2.64-5.52,2.64H47.48c-2.17,0-4.23-1.35-4.23-3.48V81.4c0-2.88,3.34-6.87,4.65-8.82.83-1.25,4.91-7.26,6.21-7.26a1.4,1.4,0,0,1,1.09,1.19v.11c0,.82-4.09,5.85-4.78,6.84s-4.24,6.19-4.24,7.4v.43a1.92,1.92,0,0,0,1.85,2h1c5.51,0,16.23-13.59,20.31-13.59h.22c1,0,2.07.59,2.07,1.52v.22c0,1.68-2.19,4.14-2.39,4.89,1-.52,2.31-1.54,3.34-2.19s2.31-1.36,3.5-2,6-3.37,7.61-3.37h.65c.82,0,1.63.28,1.63,1.09v.44C86,72.19,79.1,78,79.1,81v.77c0,.8,1.84,1.41,2.83,1.41h.22c2.06,0,5.61-2.74,7-3.78A14.35,14.35,0,0,0,92,76.86a14.89,14.89,0,0,1,2.71-2.61c2.87-2.27,9.78-6.65,14.65-6.65.13,0,.33.22.33.43v.22c0,.41-2.16,1-2.68,1.13a29.27,29.27,0,0,0-2.74,1.06,34.64,34.64,0,0,0-5,2.53c-2,1.22-7.22,5.08-7.22,7.89v.21a.82.82,0,0,0,.87.87h1.85c3,0,10.52-4.7,12.74-6.17a32.75,32.75,0,0,0,5.11-4.34c.78-.78,1.51-1.6,2.22-2.45.48-.56,1.52-2.36,2.31-2.36.46,0,.77.53.77,1v.11c0,.62-1.65,2.25-2.1,2.69a14.42,14.42,0,0,0-2,2.63c-.75,1.29-2.72,4.94-2.72,6.74v1.41c0,1.3,1.33,2,2.61,2h.21c3,0,5.56-3.48,7.5-4.78Zm12.39-20.22c.86-.57,5.7-5.76,6.71-6.87S143,49,143.82,47.88c.66-.88,2.41-2.78,3.22-3.62a86,86,0,0,0,6-7.62c1.46-1.92,4.55-6,4.55-9.14-1.7.89-5.33,5.14-6.88,6.7a78.63,78.63,0,0,0-6.1,7.49,91,91,0,0,0-5.57,8c-.91,1.59-4.93,7.22-5.25,8.44Zm43.9,109.55c-.64-.55-.9-.29-1.5-1.22a3.33,3.33,0,0,1-.57-2.15V164c0-6.14,6.81-21.05,9.2-25.79a208.16,208.16,0,0,1,12.84-22,109,109,0,0,1,7.49-10c.68-.79,1.32-1.56,2-2.38s1.47-1.53,2-2.31c1.15-1.55,3.14-3.11,4.17-4.52a51,51,0,0,1,4.43-4.37c1.45-1.45,3-2.75,4.56-4.14.69-.62,1.87-1.29,2.19-2.15.38-1.07.79-2.11,1.2-3.14a64.88,64.88,0,0,0,2.5-6.2c-1.11.59-2.18,1.57-3.36,2.18s-2.29,1.18-3.63,1.81a23.4,23.4,0,0,1-9.09,1.88c-1.65,0-3.9-1.16-4-2.61-2.14,1.44-5,4.79-8.47,4.79h-.33c-2.3,0-4.56-1.13-4.56-3.37v-.87c0-2.74,3.28-6.82,4.6-8.65.9-1.23,4.82-7,6.15-7a1.4,1.4,0,0,1,1.09,1.19v.11c0,.81-4,5.54-4.72,6.59s-4.19,6-4.19,7v1.08a1.81,1.81,0,0,0,1.85,1.53h1.3c1.39,0,3.73-1.66,4.67-2.29.7-.46,1.37-.91,2.05-1.43,1.2-.9.7-.73,1.47-1.89,1.53-2.29,5.25-4.54,7.86-5.84a84.81,84.81,0,0,1,9.72-4c1.6-.57,9.15-3.06,10.63-3.06.13,0,.33.22.33.43v.33c0,.24-.09.24-.22.44-1,0-6.29,1.79-7.4,2.16-2.48.81-4.66,1.71-7,2.6-2.73,1.07-11,4.91-11,8.06v.65c0,2.12,5,1.09,6.27.62A23.94,23.94,0,0,0,224,76.86a29.17,29.17,0,0,0,4.57-3.69c.71-.72,1.31-1.43,2-2.12s1.28-2,2.09-2a1.36,1.36,0,0,1,1.09,1.2v.21c0,.71-1.55,2.51-2,3a21.86,21.86,0,0,0-1.4,3.49c-.42,1.29-2.52,6.31-2.59,7.19a55.57,55.57,0,0,0,9.63-5.92c1.73-1.28,2.17-2.67,3.32-4.49,1-1.62,1.92-3.15,3-4.74,2-3.08,4.15-6.27,6.37-9.17s4.55-6,6.49-8.94a12.13,12.13,0,0,0-3.94.84c-.77.31-2.9,1.48-3.23,1.55v.22c.71,0,3,.22,3,.87,0,.88-3.33,1.19-4.45,1.19s-2.5-.26-2.5-1.19c0-2.86,8.6-5.44,12.39-5.44.91-.61,10.8-15.57,12.38-17.82,2.07-2.94,4.09-6,6.24-8.87.87-1.17,6.23-7.65,7.35-7.65H284a.82.82,0,0,1,.87.87v.33c0,2.54-9.75,14.49-11.6,17-1.43,1.91-12.09,15.38-12.3,16.17h.43c3.87,0,8.61,1.17,12,1.84s8.37,1.75,12.06,1.75a44.5,44.5,0,0,1,3.76-5.91c.73-1,3.62-4.74,4.6-4.74h.11a1.27,1.27,0,0,1,1.09,1v.11c0,.63-3.14,3.93-3.71,4.65a44.24,44.24,0,0,0-3.35,5h2.93a25.15,25.15,0,0,0,9.3-1.34c1-.34,7.56-2.9,7.65-2.9.48,0,1.09.81,1.09,1.31s-2.34,2.19-2.94,2.5c-1.34.69-2.24,1-3.69,1.63a31.59,31.59,0,0,1-9.24,1.41H291l-4.67-.13c-.17.65-4.5,7.27-5.25,8.57-1.68,2.89-3.38,5.71-5.12,8.58a93.81,93.81,0,0,1-5.47,8.22c-.9,1.19-5.46,6.93-6.76,6.93h-.44a1.36,1.36,0,0,1-1-1.09c0-1.31,2.25-2.85,3.07-3.67a40.11,40.11,0,0,0,3.11-3.52A74.53,74.53,0,0,0,274,71.29c1.62-2.77,3.46-5.46,5.11-8.25.76-1.3,4.77-7.42,5-8.27-3.74,0-8.29-1.47-11.65-2s-7.83-2-11.6-2h-1.2c-.38,0-7,9.29-7.78,10.37-.9,1.25-7.26,10.09-7.43,10.72,2.3-1.55,9.17-7.61,12.17-7.61h.11c1.08,0,2.07,1.66,2.07,2.72a17.14,17.14,0,0,1-1.15,5.26,26.31,26.31,0,0,0-1.24,5.17v1.41c0,1.43,1.38,3,2.6,3h.33c3.22,0,8.35-5.21,9.24-5.21a1.53,1.53,0,0,1,.54.11c.07.3.11.18.11.43s-4.48,4.09-5,4.48c-1.25,1-4.08,3.24-6.11,3.24-3.33,0-5.21-2.89-5.21-6.2,0-1.74.9-4,1.28-5.45.3-1.14,1.43-4.26,1.43-5.31v-.43a1.73,1.73,0,0,0-.1-.54c-1.59,0-9.54,6.26-11.09,7.39A33.58,33.58,0,0,0,239.89,79c-.69.81-3.24,5.24-3.88,5.24h-.44a1,1,0,0,1-.76-.76c0-1.17.93-2,1.09-2.6-1.74,1.16-3.45,2.52-5.26,3.75-.91.62-1.79,1.27-2.65,1.92-1.14.85-1.65.78-2.23,2.23-.82,2-1.76,4.36-2.72,6.3-.87,1.75-2.1,4.4-2.77,6.13-.81,2.08-2.1,4.09-2.91,6.12s-2,4.14-3,6c-2,4-4.21,7.83-6.15,11.77-.89,1.8-2.16,4.15-3.21,5.81-1.15,1.82-2.15,3.93-3.24,5.79s-2.27,4-3.19,5.83-2.16,3.77-3.19,5.72a78.77,78.77,0,0,1-7.14,10.79,48.29,48.29,0,0,1-4.22,4.8c-.77.77-1.54,1.43-2.28,2.17a6.1,6.1,0,0,1-1.31,1c-.42.24-1.28.51-1.49.69Zm1.84-4.46c2.05,0,3.23-1.86,4.27-3S186,157.6,187,156.3s2-2.68,3.1-4.07,1.92-2.86,2.95-4.23c2-2.66,3.73-5.91,5.54-8.81s3.62-6.2,5.13-9.21c1.58-3.17,3.09-6.41,4.7-9.64s3.25-6.54,4.61-9.74c.65-1.55,1.56-3.36,2.31-4.86s1.48-3.29,2.28-4.89,1.48-3.29,2.29-4.89c.41-.82,2.12-4.22,2.28-4.89a42.14,42.14,0,0,0-3.72,3.45c-1.21,1.21-2.5,2.28-3.7,3.48a85.33,85.33,0,0,0-6.9,7.33c-4.32,5.47-8,10.74-11.87,16.61a171.7,171.7,0,0,0-10.43,18.15,88.78,88.78,0,0,0-4.25,10c-.87,2.44-2.81,8.38-2.81,11.43v.65a1.09,1.09,0,0,0,1,1.08ZM0,33.58c.33-.52.06-3.87.24-4.75a7,7,0,0,1,1.61-3.4,11.88,11.88,0,0,1,1.93-6.87c1.09-1.49,2.87-3.45,5.35-3.45H10V16c0,.21-.52.78-.65,1C6.72,17,3.8,20.29,3.8,23v.54c0,2.19,0,1.17-.66,2.93C3,27,1.68,28.38,1.71,28.91l.14,1.41c.26-.3.29-.59.52-.89s.52-.44.68-.74c.38-.75-.28-.32.63-.77.48-.24.19-.52.51-1a11.25,11.25,0,0,1,1.16-1.77A6.67,6.67,0,0,0,6.15,23c.22-.64.65-1.65.76-2.06s0-.69.26-1.15.34-.21.59-.94c.45-1.37,2.2-1.89,4-1.89a4.14,4.14,0,0,1,2.71.87,3.7,3.7,0,0,1,1.31,2.39v.11c0,.82-.81,4.35-1.2,4.35s-.52-.22-1.09-.22h-.21c-.43,0-1.44,1.12-1.63,1.42.89,0,2.2.45,3,.2s.79-1.37,2.08-1.4v.43c0,.73-2.07,2.18-2.6,2.18h-.87c-1.83,0-1.92-.41-2.94-1.09a2.75,2.75,0,0,0-.21.65,3.62,3.62,0,0,0,.94,1.88c.17.16,1.49,1.43,1.49,1.44.48.69.56,1.17,1.41,1.53,1.26.54.84.5,1.76,1.18A25.69,25.69,0,0,0,19.34,35c.86.45,3.16,1.6,3.37,2.5.9-.07,3.83-2.87,4.35-3.58s1.25-1.35,1.78-2.13,1-1.66,1.53-2.57l-.49-.74-.87.11h-.22c-.49,0-.47-.26-1.19-.33a1,1,0,0,1-1-.56c-.3-.46-.15-.55-.59-.93a1.34,1.34,0,0,1-.59-.93c-.15-.73.15-.63-.27-1.25a2.4,2.4,0,0,1-.52-1c-.14-1.06.39-2.18-.76-2.28V21c0-.35.21-.4.54-.43a1.48,1.48,0,0,0,.11-.54v-.44c0-1.14-1-1.92-1.45-3s-.23-3.15-.94-3.63c-.62.33-.77.26-.59,1.24a12,12,0,0,1,.15,1.91,1.18,1.18,0,0,1-1.3-1c-1.44,0-1.18-1.73-1-2.85.27-1.68-1.61-1.73-1.61-2.7V9.45c0-.57,1.41-.77,1.41-2.06a3.93,3.93,0,0,0-.48-1.15,1.4,1.4,0,0,0-1.15-.59c-1,0-1.62.69-2.74.85a4.37,4.37,0,0,0-1.5.24,2.1,2.1,0,0,1-1.52.32c-.08.16-1,2-1,2.07,0,.55.53.58.82.91s.42.78.81,1.05c0,.71.36,1.56.34,1.95l-.13,1.63c-.26.39-.14.76-.54.76H12c-.38,0-.78-.61-1.3-.65.22-.34.65-.76.65-1.3v-.66c0-1.46-1.09-1.09-1.09-3.15C9.87,10.06,9.39,11,9,11.54c-.45.68-.89,1.14-1.37,1.78-.35.48-2.7,3.2-3.11,3.2H4.35c-.5,0-2-.74-2-1.2,0-.06,3.07-3.15,3.37-3.37a12.1,12.1,0,0,0,3-3.69c0-2.46,1.45-2.68,3.3-3.33,1.59-.55,3.17-1.56,5.07-1.56A1.52,1.52,0,0,0,15.86,2a5.57,5.57,0,0,0-2.48.34c-.35.24-1.23,1.29-1.54,1.29h-.32A.62.62,0,0,1,11,3V2.93C11,2,13.54.87,14.67.87h3.26c1.57,0,2.31,1.21,3.26,1.85.82,0,1.37.07,1.41.86.08,1.28.22.84.61,1.79.57,1.37-1.15,1.78-1.15,3.22-.26.17-.76.33-.76.65v.11c0,.72.52.67.87,1.19-.07.27-.33.86-.33,1s.12.23.21.14L26,11.19l.65,0L28,11.3V10.11c0-.89-.05-2.83.76-2.83h.55c.29,0,1.08.3,1.08.54s-.36.3-.43.88.17.69.13,1.3L30,11.52a14.72,14.72,0,0,0,2.79-.9A26.08,26.08,0,0,1,35.4,9.43a19.7,19.7,0,0,1,6.43-1.06A11.4,11.4,0,0,0,45,3.8a3.19,3.19,0,0,1,1.48-2.32c.44-.3.75-.49,1.16-.8S48.55.31,48.9,0h1c.18.11,1.54.4,2,.56a7.16,7.16,0,0,1,1.49.89c.41.31,2.22,2.1,2.22,2.57V5c0,2.94-3,3.71-5,4.71a18.12,18.12,0,0,1-3.2,1.68,8.74,8.74,0,0,1-2.27.13c-.82,0-1,.43-1.58.81-2.36,1.59-3,2.86-6.68,3-2,.07-5.2,2.18-7.49,2.18h-1l-1.52-.22-.09.44c.73,1.4.49,1.23.76,3s.69,1.63,1,2.81c.41,1.53.17,1.54,1.78,2a5,5,0,0,1,1.5.45c.47.25.65.51,1.34.51h.65l3.47-.38.34.05,3.48,0c.52-.08.68.14.86.48l2.07.13.65,0c.69,0,1.13-.12,1.63-.11.83,0,.66.35,1.09.66,2.28-1.53,7.38-2.57,10.67-3.13,4.15-.7,7-1.77,11.71-2.09,2.23-.15,3.35-1.31,5.06-1.89A34,34,0,0,0,79.54,18c.74-.38,1.46-.82,2.25-1.23A3.31,3.31,0,0,1,83,16.26a2.49,2.49,0,0,0,1.22-.42c.74-.63,2.66-3.78,3.06-3.78a1.51,1.51,0,0,1,1.26.81c0,.06.37,1.57.37,1.58v1c0,1.33-3.19,3.77-3.87,5.48-.39,1-.34,3.34-.88,3.79s-3.33,0-4.27,0c-1.51,0-7.61,2.56-8.44,3.29a6.33,6.33,0,0,1-3.93,1.94,19.29,19.29,0,0,1-2.51.42c-1.22,0-1.09.44-2.5.44-1.14.76-2.48,1.93-3.52,2.56-1.49.9-2.93.89-5,1.13a5.71,5.71,0,0,0-4.21,1.87c-.89.88-.16,3.23-1.33,4.65-1.69,2.08-6.25,2.28-6.89,5.17a25.22,25.22,0,0,0-.28,2.77,9.75,9.75,0,0,1-.72,2.32c-.49,2,0,3.33-2.65,3.33l-1.11,2.37a30.31,30.31,0,0,0,3.4-1.06c1-.21,2.39-.69,3.45-1,1.54-.46,5.26-1.83,7-1.83h.65c.39,0,.38.13.76.22,0,.8-1,1.65-1.42,2.39A16.7,16.7,0,0,0,49.29,58a18.63,18.63,0,0,0-.94,2.76c-.25,1,0,2.61-1.08,2.61H46.18l-.26-1.52,0-1.52c0-1.58,1.42-2.59,1.42-4V56C45.44,56,40,58.35,38.26,59a16.1,16.1,0,0,0-2.12.91c-1,.65-.71.87-1.12,1.93a11.44,11.44,0,0,0-1,5c0,1.83.87,3.19.87,5.21v.33c0,1.49-.55,2.8-.54,4.35,0,1.72-.21,3-.22,4.56l0,3.37,0,.54c0,1.62,2.06,3.35,2.06,4.46v.11c0,1.51-1.7,1.87-2.87,2.34-2,.8-1.66.64-2.6,2.51s-2.54,5.15-5.17,5.15H25c-.62,0-1.63-.75-1.63-1.42S24.9,96,25.29,95.61c1.19-1.2,1.22-1.16,1.22-3.45a27.22,27.22,0,0,1,.35-4.33c.2-1.24.85-1.58.85-3.71v-.76c0-1.38-.21-3.24-.33-4.79-.09-1.29-.55-3.27-.54-4.56s-.05-3.47-.11-5-.65-3.18-.65-4.35v-.87A19.39,19.39,0,0,1,27,59.67a22.69,22.69,0,0,0,.54-4.46V52.06c-.62-.15-1.3-.11-1.3-.87v-.76a4.45,4.45,0,0,1,.32-1.31v-.65c0-2.46-2.89-3.11-3-6.2-.12-2.51-2.26-4.23-3.85-5.39-1.86-1.35-3.74-2.3-5.65-3.58A16.16,16.16,0,0,1,11.56,31C11,30.26,10.21,29,9.67,28.36,9.1,30.82,4.82,37.6,2.39,37.6H1.74c-2.1,0-1.29-2-1.74-2.71V33.58ZM44.77,10.65a5.55,5.55,0,0,0,.76.11h.11a19.36,19.36,0,0,0,2.5-.87c.72-.44,1.15-1.12,2-1.52S54,6.37,54,5.43C54,5,52.25,5,51.83,5c-.7.47-3.63,1.86-3.87,2.43-.5,1.19-.32,1.17-1.49,1.66a5.42,5.42,0,0,0-1.7,1.56Zm42.16,3.48c0,1.13-1.64,2.41-2.28,3.37.09.18.42.76.65.76S86.69,17,87,16.76A2.58,2.58,0,0,0,88,14.56c0-.27-.23-.65-.54-.65h-.11a.69.69,0,0,0-.43.22ZM56.07,28.26H56c-.38,0-2.59.5-3.07.62a8.7,8.7,0,0,0-2.38,1.31c-.62.49-1.19,1.23-1.86,1.84a11.66,11.66,0,0,0-1.35,2.32l-.14,1c.11.17.14.33.43.33h.55c.15-.57.39-.35,1-.46s.38-.37.72-.68l1.86-1.08c.23-.08,4.94-.28,5.47-.28a15.37,15.37,0,0,0,2.94-2.61h-.44c-.24,0-.23-.09-.43-.22-.43,0-1.74.3-1.74-.11,0-.89,3.05-.65,3.91-.65,2.39,0,5.69-.22,7.07-1.19,1.14-.81,3.86-2.58,5.54-2.72v-.87a3.15,3.15,0,0,0-.33-1.31h-.54c-.19,0-3.54,1.24-4,1.4a20.25,20.25,0,0,1-4.88.67,10.62,10.62,0,0,0-3.93,1.61c-1.74,1.17-1.77,1.11-4.21,1.11Zm-23.58,0c-.13.19-.22.19-.22.43v.11c0,.47.22.39.22.87v.22a34.66,34.66,0,0,1-3.5,5c-.86.85-3.65,3.42-4.81,3.77l.49.49a19.38,19.38,0,0,0,4.15-3.34,18.9,18.9,0,0,0,1.78-1.91c.19-.27,1.46-2.24,1.56-2.24.38,0,.16.19.66.32.14-.31.27-1.95.54-1.95.77,0,.43,1.42.43,2.06v.11a1.53,1.53,0,0,0,.55,1.3c.39-.74.14-3,1-3h.11c.38,0,.44.48.44.87s-.35,1.09.22,1.09,1.11-1.84,1.41-2.29c1.92,0,1.26-1,2.28-1H41a2.25,2.25,0,0,1,1.31.43c1.37,0,2.61,1,3.26,1a20.6,20.6,0,0,0,.65-2.39v-.33c0-1.12-2.19.33-2.72.33s-1.15-.55-2.6-.55c-1.21,0-2.24-.35-2.93-.31-2.29.1-3.13,1-5.44,1Zm-30,3.26-1-.55a5.79,5.79,0,0,0-.11.76v2.61c0,1.06.34,2,1.42,2,2.05,0,4.1-4.91,5.1-6.41A4,4,0,0,0,5.11,28c-1.34.89-.57.11-1.59,1.46a6.51,6.51,0,0,0-1,2Zm39,4c-.09.38-.22.36-.22.76V37a6.66,6.66,0,0,0,.56,1.5,4.25,4.25,0,0,1-.12,1.76c.51-.14.84-.8,1-1.3a1.2,1.2,0,0,0,1.2-1.2,2.43,2.43,0,0,0-2.39-2.17Zm-11,7.6c-.5.14-.54.58-.54,1.2v.11c0,2.41.38,4.13,2.83,4.13h1a1.54,1.54,0,0,0,.55-.11c0-.46.58-2.06,1-2.06s.24.08.44.21c0,1,.33,1,.33,2.28,0,.24.23.77.54.77,1,0,.29-2.18.76-2.18.76,0,.79,2.17,1.09,2.39.35-.26.29-.74.5-1.23s.69-.78.69-1v-.22c0-.61-2.18-2.07-2.75-2.35a9.31,9.31,0,0,1-1.73-.88c-.3-.27-1-1.44-1.17-1.44-.5,0-.22.31-.22.65v.33a1.48,1.48,0,0,1-.11.54h-.32A2,2,0,0,1,32,42.71l.12-1.63h-.54c0,1.09-.1,1.81-.1,2.94,0,1.81-.88-.65-1-.88ZM28.36,76.72c.05.5.05,2.83.54,2.83l.33,0,3,0c.25,0,.13,0,.44-.11V76.62a36.63,36.63,0,0,0-.53-5.46,10.59,10.59,0,0,0-.37-2.55,16.35,16.35,0,0,1-.62-2.43v-.76c0-1.2,2-5,2.54-5.93a38,38,0,0,0,2.56-5.91c0-.44-2.62-1.46-3.24-1.65a20.65,20.65,0,0,0-4.39-.52l.16,2.93,0,1A22.24,22.24,0,0,1,27.88,61c-.44,2-.17,4.13-.17,6.35a45.31,45.31,0,0,0,.35,6.28c.13.91.21,2,.3,3.06ZM25.54,98.46c2.13,0,3.31-2.64,4.23-4a2.85,2.85,0,0,0-1.84-1.09v.55c0,1.49-2.83,3.69-2.83,3.91v.33c0,.25.08.32.33.32Z"/></g></g></svg>