<svg xmlns="http://www.w3.org/2000/svg" viewBox="0 0 147.73 28.15"><defs><style>.cls-1{fill:#fff;}</style></defs><g id="Ebene_2" data-name="Ebene 2"><g id="Ebene_1-2" data-name="Ebene 1"><path class="cls-1" d="M4.36,6.82v3.62a2.12,2.12,0,0,1-.26,1.07,1.76,1.76,0,0,1-.76.69,2.73,2.73,0,0,1-1.16.23,2.29,2.29,0,0,1-1.59-.52A1.91,1.91,0,0,1,0,10.47V6.82H1.34V10.5c0,.6.3.91.84.91a.82.82,0,0,0,.63-.23A1.07,1.07,0,0,0,3,10.44V6.82ZM.6,6a.43.43,0,0,1,.16-.35.59.59,0,0,1,.41-.15.59.59,0,0,1,.41.15A.43.43,0,0,1,1.74,6a.46.46,0,0,1-.16.36.59.59,0,0,1-.41.15.59.59,0,0,1-.41-.15A.46.46,0,0,1,.6,6Zm2,0a.43.43,0,0,1,.16-.35.59.59,0,0,1,.41-.15.59.59,0,0,1,.41.15A.44.44,0,0,1,3.72,6a.48.48,0,0,1-.17.36.59.59,0,0,1-.41.15.59.59,0,0,1-.41-.15A.46.46,0,0,1,2.57,6Z"/><path class="cls-1" d="M9.62,10.34a2.55,2.55,0,0,1-.41,1.55A1.42,1.42,0,0,1,8,12.43a1.19,1.19,0,0,1-1-.5L7,12.36H5.82V6.52H7.1V8.58A1.16,1.16,0,0,1,8,8.17a1.4,1.4,0,0,1,1.19.55,2.57,2.57,0,0,1,.41,1.55Zm-1.28-.09a1.61,1.61,0,0,0-.16-.84.51.51,0,0,0-.48-.25.61.61,0,0,0-.6.33v1.63a.61.61,0,0,0,.61.32A.53.53,0,0,0,8.28,11,3.15,3.15,0,0,0,8.34,10.25Z"/><path class="cls-1" d="M12.85,12.43a2.13,2.13,0,0,1-1.53-.56,2,2,0,0,1-.58-1.47v-.11A2.45,2.45,0,0,1,11,9.18a1.76,1.76,0,0,1,.68-.75,2.15,2.15,0,0,1,1.07-.26,1.76,1.76,0,0,1,1.36.54,2.08,2.08,0,0,1,.51,1.5v.49H12a1,1,0,0,0,.3.55.88.88,0,0,0,.6.19,1.15,1.15,0,0,0,1-.42l.59.69a1.67,1.67,0,0,1-.68.53A2.34,2.34,0,0,1,12.85,12.43Zm-.14-3.27c-.38,0-.6.25-.67.74h1.29V9.8a.6.6,0,0,0-.15-.47A.61.61,0,0,0,12.71,9.16Z"/><path class="cls-1" d="M18.26,9.4l-.42,0a.75.75,0,0,0-.77.38v2.61H15.79V8.25H17l0,.52a1,1,0,0,1,1.26-.55Z"/><path class="cls-1" d="M21.55,11.2a.28.28,0,0,0-.17-.26,2.7,2.7,0,0,0-.65-.21,2.79,2.79,0,0,1-.79-.28,1.28,1.28,0,0,1-.47-.42,1,1,0,0,1-.16-.56,1.12,1.12,0,0,1,.46-.93A1.9,1.9,0,0,1,21,8.17a2.09,2.09,0,0,1,1.3.37,1.15,1.15,0,0,1,.5,1H21.51c0-.33-.17-.5-.52-.5a.52.52,0,0,0-.34.12.32.32,0,0,0-.13.27.31.31,0,0,0,.16.28,1.77,1.77,0,0,0,.54.18,4.26,4.26,0,0,1,.64.16,1.16,1.16,0,0,1,.93,1.14,1.09,1.09,0,0,1-.5.92,2.23,2.23,0,0,1-1.29.35,2.21,2.21,0,0,1-.95-.19,1.56,1.56,0,0,1-.64-.51,1.14,1.14,0,0,1-.23-.69h1.19a.49.49,0,0,0,.19.41.77.77,0,0,0,.47.14.6.6,0,0,0,.39-.11A.34.34,0,0,0,21.55,11.2Z"/><path class="cls-1" d="M26.05,12.43a2.13,2.13,0,0,1-1.53-.56,2,2,0,0,1-.58-1.47v-.11a2.45,2.45,0,0,1,.23-1.11,1.76,1.76,0,0,1,.68-.75,2.15,2.15,0,0,1,1.07-.26,1.76,1.76,0,0,1,1.36.54,2.08,2.08,0,0,1,.51,1.5v.49H25.24a1,1,0,0,0,.3.55.88.88,0,0,0,.6.19,1.15,1.15,0,0,0,.95-.42l.58.69a1.57,1.57,0,0,1-.67.53A2.34,2.34,0,0,1,26.05,12.43Zm-.14-3.27c-.38,0-.6.25-.67.74h1.29V9.8a.64.64,0,0,0-.15-.47A.61.61,0,0,0,25.91,9.16Z"/><path class="cls-1" d="M30.47,7.22v1h.67v.88h-.67V11a.51.51,0,0,0,.08.32.47.47,0,0,0,.33.09l.32,0v.91a2.46,2.46,0,0,1-.72.11,1.34,1.34,0,0,1-1-.31,1.28,1.28,0,0,1-.31-.95v-2h-.53V8.25h.53v-1Z"/><path class="cls-1" d="M33.83,11.37h1.88v1H32.22v-.72L34,9.23H32.3v-1h3.37v.69Z"/><path class="cls-1" d="M39.45,11.91a1.3,1.3,0,0,1-1.09.52,1.31,1.31,0,0,1-1-.39A1.66,1.66,0,0,1,37,10.91V8.25h1.28v2.67a.46.46,0,0,0,.52.52.65.65,0,0,0,.62-.31V8.25h1.29v4.11h-1.2Z"/><path class="cls-1" d="M43.25,8.25l0,.48a1.39,1.39,0,0,1,1.17-.56,1.19,1.19,0,0,1,1,.38,1.86,1.86,0,0,1,.33,1.16v2.65H44.47V9.76a.72.72,0,0,0-.13-.46.62.62,0,0,0-.46-.14.61.61,0,0,0-.55.29v2.91H42.05V8.25Z"/><path class="cls-1" d="M47,10.27a2.7,2.7,0,0,1,.21-1.1,1.63,1.63,0,0,1,.59-.74,1.55,1.55,0,0,1,.89-.26,1.22,1.22,0,0,1,1,.43l0-.35h1.16V12.2a1.69,1.69,0,0,1-.25.94,1.59,1.59,0,0,1-.73.62,2.75,2.75,0,0,1-1.11.21,2.26,2.26,0,0,1-.88-.17,1.55,1.55,0,0,1-.64-.44l.53-.75a1.17,1.17,0,0,0,.94.42c.57,0,.85-.29.85-.88V12a1.18,1.18,0,0,1-.93.4,1.48,1.48,0,0,1-1.21-.57A2.4,2.4,0,0,1,47,10.32Zm1.29.08a1.44,1.44,0,0,0,.19.8.59.59,0,0,0,.53.29.67.67,0,0,0,.6-.27V9.44A.64.64,0,0,0,49,9.16a.61.61,0,0,0-.54.3A1.68,1.68,0,0,0,48.27,10.35Z"/><path class="cls-1" d="M54.44,11.2a.3.3,0,0,0-.17-.26,2.87,2.87,0,0,0-.65-.21,2.79,2.79,0,0,1-.79-.28,1.24,1.24,0,0,1-.48-.42,1,1,0,0,1-.16-.56,1.13,1.13,0,0,1,.47-.93,1.89,1.89,0,0,1,1.22-.37,2.12,2.12,0,0,1,1.31.37,1.14,1.14,0,0,1,.49,1H54.4a.46.46,0,0,0-.52-.5.49.49,0,0,0-.34.12.33.33,0,0,0-.14.27.32.32,0,0,0,.17.28,1.69,1.69,0,0,0,.53.18,4.41,4.41,0,0,1,.65.16,1.16,1.16,0,0,1,.92,1.14,1.07,1.07,0,0,1-.5.92,2.21,2.21,0,0,1-1.29.35,2.16,2.16,0,0,1-.94-.19,1.6,1.6,0,0,1-.65-.51,1.21,1.21,0,0,1-.23-.69h1.2a.47.47,0,0,0,.19.41.77.77,0,0,0,.47.14.62.62,0,0,0,.39-.11A.34.34,0,0,0,54.44,11.2Z"/><path class="cls-1" d="M60.77,10.34a2.49,2.49,0,0,1-.42,1.55,1.4,1.4,0,0,1-1.18.54,1.2,1.2,0,0,1-1-.5l0,.43H57V6.52h1.28V8.58a1.17,1.17,0,0,1,.92-.41,1.4,1.4,0,0,1,1.19.55,2.51,2.51,0,0,1,.42,1.55Zm-1.29-.09a1.61,1.61,0,0,0-.16-.84.51.51,0,0,0-.48-.25.61.61,0,0,0-.6.33v1.63a.61.61,0,0,0,.61.32.53.53,0,0,0,.57-.44A3.15,3.15,0,0,0,59.48,10.25Z"/><path class="cls-1" d="M64.46,11.91a1.33,1.33,0,0,1-1.1.52,1.31,1.31,0,0,1-1-.39A1.66,1.66,0,0,1,62,10.91V8.25h1.28v2.67a.45.45,0,0,0,.51.52.68.68,0,0,0,.63-.31V8.25h1.28v4.11h-1.2ZM62.27,7.17a.48.48,0,0,1,.17-.36.56.56,0,0,1,.4-.14.57.57,0,0,1,.41.14.47.47,0,0,1,0,.72.58.58,0,0,1-.41.15.57.57,0,0,1-.4-.15A.48.48,0,0,1,62.27,7.17Zm2,0a.48.48,0,0,1,.17-.36.57.57,0,0,1,.41-.14.56.56,0,0,1,.4.14.47.47,0,0,1,0,.72.57.57,0,0,1-.4.15.58.58,0,0,1-.41-.15A.48.48,0,0,1,64.24,7.17Z"/><path class="cls-1" d="M69.56,9.4l-.42,0c-.41,0-.67.13-.78.38v2.61H67.08V8.25h1.2l0,.52a1,1,0,0,1,.9-.6,1,1,0,0,1,.36.05Z"/><path class="cls-1" d="M70.4,10.26a2.39,2.39,0,0,1,.24-1.09,1.74,1.74,0,0,1,.68-.74,2.11,2.11,0,0,1,1.06-.26,1.88,1.88,0,0,1,1.45.57,2.17,2.17,0,0,1,.53,1.56v0a2.13,2.13,0,0,1-.53,1.53,1.93,1.93,0,0,1-1.45.56,1.89,1.89,0,0,1-1.4-.52,2.06,2.06,0,0,1-.58-1.43Zm1.28.08a1.54,1.54,0,0,0,.18.84.58.58,0,0,0,.52.26c.46,0,.69-.35.7-1v-.13c0-.73-.23-1.1-.7-1.1s-.66.32-.7.95Z"/><path class="cls-1" d="M4.64,21.69H3.32V19.38h-2v2.31H0V16.16H1.35v2.2h2v-2.2H4.64Z"/><path class="cls-1" d="M8.42,21.69a1.06,1.06,0,0,1-.12-.37,1.2,1.2,0,0,1-1,.45,1.48,1.48,0,0,1-1-.35,1.13,1.13,0,0,1-.4-.89,1.15,1.15,0,0,1,.49-1,2.59,2.59,0,0,1,1.44-.34h.39V19c0-.38-.16-.57-.49-.57a.41.41,0,0,0-.46.46H6a1.15,1.15,0,0,1,.51-1,2.12,2.12,0,0,1,1.29-.37,1.87,1.87,0,0,1,1.25.38,1.33,1.33,0,0,1,.46,1.05v1.82a2,2,0,0,0,.18.87v.06Zm-.8-.83A.67.67,0,0,0,8,20.75a.56.56,0,0,0,.23-.23v-.65H7.87c-.45,0-.67.19-.67.6a.36.36,0,0,0,.12.28A.44.44,0,0,0,7.62,20.86Z"/><path class="cls-1" d="M13.4,18.74l-.42,0c-.41,0-.67.13-.78.38v2.6H10.92V17.58h1.2l0,.53a1,1,0,0,1,.9-.6,1.28,1.28,0,0,1,.36,0Z"/><path class="cls-1" d="M16.22,16.56v1h.67v.89h-.67v1.88a.44.44,0,0,0,.08.32.45.45,0,0,0,.33.1,1.45,1.45,0,0,0,.32,0v.92a2.46,2.46,0,0,1-.72.11,1.39,1.39,0,0,1-1-.31,1.29,1.29,0,0,1-.31-.95v-2h-.53v-.89h.53v-1Z"/><path class="cls-1" d="M19.28,17.58l0,.48a1.44,1.44,0,0,1,1.18-.55,1,1,0,0,1,1.05.62,1.35,1.35,0,0,1,1.21-.62c.83,0,1.26.5,1.28,1.51v2.67H22.76V19.1a.78.78,0,0,0-.11-.46.45.45,0,0,0-.39-.15.61.61,0,0,0-.56.34v2.86H20.42V19.11a.89.89,0,0,0-.1-.47.45.45,0,0,0-.4-.15.63.63,0,0,0-.56.34v2.86H18.08V17.58Z"/><path class="cls-1" d="M27.77,21.69a1.28,1.28,0,0,1-.13-.37,1.17,1.17,0,0,1-1,.45,1.48,1.48,0,0,1-1-.35,1.14,1.14,0,0,1-.41-.89,1.16,1.16,0,0,1,.5-1,2.56,2.56,0,0,1,1.43-.34h.4V19c0-.38-.17-.57-.49-.57a.41.41,0,0,0-.46.46H25.36a1.15,1.15,0,0,1,.51-1,2.12,2.12,0,0,1,1.29-.37,1.82,1.82,0,0,1,1.24.38,1.33,1.33,0,0,1,.47,1.05v1.82a2,2,0,0,0,.18.87v.06ZM27,20.86a.7.7,0,0,0,.4-.11.56.56,0,0,0,.23-.23v-.65h-.37c-.45,0-.67.19-.67.6a.39.39,0,0,0,.11.28A.44.44,0,0,0,27,20.86Z"/><path class="cls-1" d="M31.43,17.58l.05.48a1.38,1.38,0,0,1,1.17-.55,1.16,1.16,0,0,1,1,.38A1.85,1.85,0,0,1,33.94,19v2.65H32.65V19.1a.72.72,0,0,0-.12-.46.59.59,0,0,0-.46-.15.61.61,0,0,0-.56.3v2.9H30.23V17.58Z"/><path class="cls-1" d="M36.5,17.58l0,.48a1.38,1.38,0,0,1,1.17-.55,1.16,1.16,0,0,1,1,.38A1.85,1.85,0,0,1,39,19v2.65H37.72V19.1a.67.67,0,0,0-.13-.46.55.55,0,0,0-.45-.15.61.61,0,0,0-.56.3v2.9H35.3V17.58Z"/><path class="cls-1" d="M96.18,3.05a1.86,1.86,0,0,1,0,1.42l-.09.31a3,3,0,0,1-.91,1.45,2.18,2.18,0,0,1-1.42.5H93L94.3,2.54h.83A1.08,1.08,0,0,1,96.18,3.05Z"/><path class="cls-1" d="M100.35,4.23a.69.69,0,0,0-.7-.41,1.34,1.34,0,0,0-.93.4,2.62,2.62,0,0,0-.67,1.15,1.54,1.54,0,0,0,0,1.06.7.7,0,0,0,.7.4,1.36,1.36,0,0,0,1-.41,2.65,2.65,0,0,0,.66-1.13A1.48,1.48,0,0,0,100.35,4.23Zm0,0a.69.69,0,0,0-.7-.41,1.34,1.34,0,0,0-.93.4,2.62,2.62,0,0,0-.67,1.15,1.54,1.54,0,0,0,0,1.06.7.7,0,0,0,.7.4,1.36,1.36,0,0,0,1-.41,2.65,2.65,0,0,0,.66-1.13A1.48,1.48,0,0,0,100.35,4.23Zm0,0a.69.69,0,0,0-.7-.41,1.34,1.34,0,0,0-.93.4,2.62,2.62,0,0,0-.67,1.15,1.54,1.54,0,0,0,0,1.06.7.7,0,0,0,.7.4,1.36,1.36,0,0,0,1-.41,2.65,2.65,0,0,0,.66-1.13A1.48,1.48,0,0,0,100.35,4.23Zm0,0a.69.69,0,0,0-.7-.41,1.34,1.34,0,0,0-.93.4,2.62,2.62,0,0,0-.67,1.15,1.54,1.54,0,0,0,0,1.06.7.7,0,0,0,.7.4,1.36,1.36,0,0,0,1-.41,2.65,2.65,0,0,0,.66-1.13A1.48,1.48,0,0,0,100.35,4.23Zm0,0a.69.69,0,0,0-.7-.41,1.34,1.34,0,0,0-.93.4,2.62,2.62,0,0,0-.67,1.15,1.54,1.54,0,0,0,0,1.06.7.7,0,0,0,.7.4,1.36,1.36,0,0,0,1-.41,2.65,2.65,0,0,0,.66-1.13A1.48,1.48,0,0,0,100.35,4.23Zm12.55-.12a.63.63,0,0,0-.59-.29,1.24,1.24,0,0,0-.79.3,2.06,2.06,0,0,0-.6.84h2l0,0A1.16,1.16,0,0,0,112.9,4.11Zm0,0a.63.63,0,0,0-.59-.29,1.24,1.24,0,0,0-.79.3,2.06,2.06,0,0,0-.6.84h2l0,0A1.16,1.16,0,0,0,112.9,4.11Zm-12.55.12a.69.69,0,0,0-.7-.41,1.34,1.34,0,0,0-.93.4,2.62,2.62,0,0,0-.67,1.15,1.54,1.54,0,0,0,0,1.06.7.7,0,0,0,.7.4,1.36,1.36,0,0,0,1-.41,2.65,2.65,0,0,0,.66-1.13A1.48,1.48,0,0,0,100.35,4.23Zm0,0a.69.69,0,0,0-.7-.41,1.34,1.34,0,0,0-.93.4,2.62,2.62,0,0,0-.67,1.15,1.54,1.54,0,0,0,0,1.06.7.7,0,0,0,.7.4,1.36,1.36,0,0,0,1-.41,2.65,2.65,0,0,0,.66-1.13A1.48,1.48,0,0,0,100.35,4.23Zm12.55-.12a.63.63,0,0,0-.59-.29,1.24,1.24,0,0,0-.79.3,2.06,2.06,0,0,0-.6.84h2l0,0A1.16,1.16,0,0,0,112.9,4.11Zm0,0a.63.63,0,0,0-.59-.29,1.24,1.24,0,0,0-.79.3,2.06,2.06,0,0,0-.6.84h2l0,0A1.16,1.16,0,0,0,112.9,4.11Zm-12.55.12a.69.69,0,0,0-.7-.41,1.34,1.34,0,0,0-.93.4,2.62,2.62,0,0,0-.67,1.15,1.54,1.54,0,0,0,0,1.06.7.7,0,0,0,.7.4,1.36,1.36,0,0,0,1-.41,2.65,2.65,0,0,0,.66-1.13A1.48,1.48,0,0,0,100.35,4.23Zm0,0a.69.69,0,0,0-.7-.41,1.34,1.34,0,0,0-.93.4,2.62,2.62,0,0,0-.67,1.15,1.54,1.54,0,0,0,0,1.06.7.7,0,0,0,.7.4,1.36,1.36,0,0,0,1-.41,2.65,2.65,0,0,0,.66-1.13A1.48,1.48,0,0,0,100.35,4.23Zm12.55-.12a.63.63,0,0,0-.59-.29,1.24,1.24,0,0,0-.79.3,2.06,2.06,0,0,0-.6.84h2l0,0A1.16,1.16,0,0,0,112.9,4.11Zm18.4,0a.62.62,0,0,0-.59-.29,1.23,1.23,0,0,0-.78.3,2.06,2.06,0,0,0-.6.84h2v0A1.06,1.06,0,0,0,131.3,4.11Zm0,0a.62.62,0,0,0-.59-.29,1.23,1.23,0,0,0-.78.3,2.06,2.06,0,0,0-.6.84h2v0A1.06,1.06,0,0,0,131.3,4.11Zm-18.4,0a.63.63,0,0,0-.59-.29,1.24,1.24,0,0,0-.79.3,2.06,2.06,0,0,0-.6.84h2l0,0A1.16,1.16,0,0,0,112.9,4.11Zm-12.55.12a.69.69,0,0,0-.7-.41,1.34,1.34,0,0,0-.93.4,2.62,2.62,0,0,0-.67,1.15,1.54,1.54,0,0,0,0,1.06.7.7,0,0,0,.7.4,1.36,1.36,0,0,0,1-.41,2.65,2.65,0,0,0,.66-1.13A1.48,1.48,0,0,0,100.35,4.23Zm0,0a.69.69,0,0,0-.7-.41,1.34,1.34,0,0,0-.93.4,2.62,2.62,0,0,0-.67,1.15,1.54,1.54,0,0,0,0,1.06.7.7,0,0,0,.7.4,1.36,1.36,0,0,0,1-.41,2.65,2.65,0,0,0,.66-1.13A1.48,1.48,0,0,0,100.35,4.23Zm12.55-.12a.63.63,0,0,0-.59-.29,1.24,1.24,0,0,0-.79.3,2.06,2.06,0,0,0-.6.84h2l0,0A1.16,1.16,0,0,0,112.9,4.11Zm18.4,0a.62.62,0,0,0-.59-.29,1.23,1.23,0,0,0-.78.3,2.06,2.06,0,0,0-.6.84h2v0A1.06,1.06,0,0,0,131.3,4.11Zm0,0a.62.62,0,0,0-.59-.29,1.23,1.23,0,0,0-.78.3,2.06,2.06,0,0,0-.6.84h2v0A1.06,1.06,0,0,0,131.3,4.11Zm-18.4,0a.63.63,0,0,0-.59-.29,1.24,1.24,0,0,0-.79.3,2.06,2.06,0,0,0-.6.84h2l0,0A1.16,1.16,0,0,0,112.9,4.11Zm-12.55.12a.69.69,0,0,0-.7-.41,1.34,1.34,0,0,0-.93.4,2.62,2.62,0,0,0-.67,1.15,1.54,1.54,0,0,0,0,1.06.7.7,0,0,0,.7.4,1.36,1.36,0,0,0,1-.41,2.65,2.65,0,0,0,.66-1.13A1.48,1.48,0,0,0,100.35,4.23Zm0,0a.69.69,0,0,0-.7-.41,1.34,1.34,0,0,0-.93.4,2.62,2.62,0,0,0-.67,1.15,1.54,1.54,0,0,0,0,1.06.7.7,0,0,0,.7.4,1.36,1.36,0,0,0,1-.41,2.65,2.65,0,0,0,.66-1.13A1.48,1.48,0,0,0,100.35,4.23Zm12.55-.12a.63.63,0,0,0-.59-.29,1.24,1.24,0,0,0-.79.3,2.06,2.06,0,0,0-.6.84h2l0,0A1.16,1.16,0,0,0,112.9,4.11Zm18.4,0a.62.62,0,0,0-.59-.29,1.23,1.23,0,0,0-.78.3,2.06,2.06,0,0,0-.6.84h2v0A1.06,1.06,0,0,0,131.3,4.11Zm0,0a.62.62,0,0,0-.59-.29,1.23,1.23,0,0,0-.78.3,2.06,2.06,0,0,0-.6.84h2v0A1.06,1.06,0,0,0,131.3,4.11Zm-18.4,0a.63.63,0,0,0-.59-.29,1.24,1.24,0,0,0-.79.3,2.06,2.06,0,0,0-.6.84h2l0,0A1.16,1.16,0,0,0,112.9,4.11Zm-12.55.12a.69.69,0,0,0-.7-.41,1.34,1.34,0,0,0-.93.4,2.62,2.62,0,0,0-.67,1.15,1.54,1.54,0,0,0,0,1.06.7.7,0,0,0,.7.4,1.36,1.36,0,0,0,1-.41,2.65,2.65,0,0,0,.66-1.13A1.48,1.48,0,0,0,100.35,4.23Zm0,0a.69.69,0,0,0-.7-.41,1.34,1.34,0,0,0-.93.4,2.62,2.62,0,0,0-.67,1.15,1.54,1.54,0,0,0,0,1.06.7.7,0,0,0,.7.4,1.36,1.36,0,0,0,1-.41,2.65,2.65,0,0,0,.66-1.13A1.48,1.48,0,0,0,100.35,4.23Zm12.55-.12a.63.63,0,0,0-.59-.29,1.24,1.24,0,0,0-.79.3,2.06,2.06,0,0,0-.6.84h2l0,0A1.16,1.16,0,0,0,112.9,4.11Zm18.4,0a.62.62,0,0,0-.59-.29,1.23,1.23,0,0,0-.78.3,2.06,2.06,0,0,0-.6.84h2v0A1.06,1.06,0,0,0,131.3,4.11Zm0,0a.62.62,0,0,0-.59-.29,1.23,1.23,0,0,0-.78.3,2.06,2.06,0,0,0-.6.84h2v0A1.06,1.06,0,0,0,131.3,4.11Zm-18.4,0a.63.63,0,0,0-.59-.29,1.24,1.24,0,0,0-.79.3,2.06,2.06,0,0,0-.6.84h2l0,0A1.16,1.16,0,0,0,112.9,4.11Zm-12.55.12a.69.69,0,0,0-.7-.41,1.34,1.34,0,0,0-.93.4,2.62,2.62,0,0,0-.67,1.15,1.54,1.54,0,0,0,0,1.06.7.7,0,0,0,.7.4,1.36,1.36,0,0,0,1-.41,2.65,2.65,0,0,0,.66-1.13A1.48,1.48,0,0,0,100.35,4.23Zm0,0a.69.69,0,0,0-.7-.41,1.34,1.34,0,0,0-.93.4,2.62,2.62,0,0,0-.67,1.15,1.54,1.54,0,0,0,0,1.06.7.7,0,0,0,.7.4,1.36,1.36,0,0,0,1-.41,2.65,2.65,0,0,0,.66-1.13A1.48,1.48,0,0,0,100.35,4.23Zm12.55-.12a.63.63,0,0,0-.59-.29,1.24,1.24,0,0,0-.79.3,2.06,2.06,0,0,0-.6.84h2l0,0A1.16,1.16,0,0,0,112.9,4.11Zm18.4,0a.62.62,0,0,0-.59-.29,1.23,1.23,0,0,0-.78.3,2.06,2.06,0,0,0-.6.84h2v0A1.06,1.06,0,0,0,131.3,4.11Zm0,0a.62.62,0,0,0-.59-.29,1.23,1.23,0,0,0-.78.3,2.06,2.06,0,0,0-.6.84h2v0A1.06,1.06,0,0,0,131.3,4.11Zm-18.4,0a.63.63,0,0,0-.59-.29,1.24,1.24,0,0,0-.79.3,2.06,2.06,0,0,0-.6.84h2l0,0A1.16,1.16,0,0,0,112.9,4.11Zm-12.55.12a.69.69,0,0,0-.7-.41,1.34,1.34,0,0,0-.93.4,2.62,2.62,0,0,0-.67,1.15,1.54,1.54,0,0,0,0,1.06.7.7,0,0,0,.7.4,1.36,1.36,0,0,0,1-.41,2.65,2.65,0,0,0,.66-1.13A1.48,1.48,0,0,0,100.35,4.23Zm0,0a.69.69,0,0,0-.7-.41,1.34,1.34,0,0,0-.93.4,2.62,2.62,0,0,0-.67,1.15,1.54,1.54,0,0,0,0,1.06.7.7,0,0,0,.7.4,1.36,1.36,0,0,0,1-.41,2.65,2.65,0,0,0,.66-1.13A1.48,1.48,0,0,0,100.35,4.23Zm12.55-.12a.63.63,0,0,0-.59-.29,1.24,1.24,0,0,0-.79.3,2.06,2.06,0,0,0-.6.84h2l0,0A1.16,1.16,0,0,0,112.9,4.11Zm18.4,0a.62.62,0,0,0-.59-.29,1.23,1.23,0,0,0-.78.3,2.06,2.06,0,0,0-.6.84h2v0A1.06,1.06,0,0,0,131.3,4.11Zm0,0a.62.62,0,0,0-.59-.29,1.23,1.23,0,0,0-.78.3,2.06,2.06,0,0,0-.6.84h2v0A1.06,1.06,0,0,0,131.3,4.11Zm-18.4,0a.63.63,0,0,0-.59-.29,1.24,1.24,0,0,0-.79.3,2.06,2.06,0,0,0-.6.84h2l0,0A1.16,1.16,0,0,0,112.9,4.11Zm-12.55.12a.69.69,0,0,0-.7-.41,1.34,1.34,0,0,0-.93.4,2.62,2.62,0,0,0-.67,1.15,1.54,1.54,0,0,0,0,1.06.7.7,0,0,0,.7.4,1.36,1.36,0,0,0,1-.41,2.65,2.65,0,0,0,.66-1.13A1.48,1.48,0,0,0,100.35,4.23Zm0,0a.69.69,0,0,0-.7-.41,1.34,1.34,0,0,0-.93.4,2.62,2.62,0,0,0-.67,1.15,1.54,1.54,0,0,0,0,1.06.7.7,0,0,0,.7.4,1.36,1.36,0,0,0,1-.41,2.65,2.65,0,0,0,.66-1.13A1.48,1.48,0,0,0,100.35,4.23Zm12.55-.12a.63.63,0,0,0-.59-.29,1.24,1.24,0,0,0-.79.3,2.06,2.06,0,0,0-.6.84h2l0,0A1.16,1.16,0,0,0,112.9,4.11Zm18.4,0a.62.62,0,0,0-.59-.29,1.23,1.23,0,0,0-.78.3,2.06,2.06,0,0,0-.6.84h2v0A1.06,1.06,0,0,0,131.3,4.11Zm0,0a.62.62,0,0,0-.59-.29,1.23,1.23,0,0,0-.78.3,2.06,2.06,0,0,0-.6.84h2v0A1.06,1.06,0,0,0,131.3,4.11Zm-18.4,0a.63.63,0,0,0-.59-.29,1.24,1.24,0,0,0-.79.3,2.06,2.06,0,0,0-.6.84h2l0,0A1.16,1.16,0,0,0,112.9,4.11Zm-12.55.12a.69.69,0,0,0-.7-.41,1.34,1.34,0,0,0-.93.4,2.62,2.62,0,0,0-.67,1.15,1.54,1.54,0,0,0,0,1.06.7.7,0,0,0,.7.4,1.36,1.36,0,0,0,1-.41,2.65,2.65,0,0,0,.66-1.13A1.48,1.48,0,0,0,100.35,4.23Zm0,0a.69.69,0,0,0-.7-.41,1.34,1.34,0,0,0-.93.4,2.62,2.62,0,0,0-.67,1.15,1.54,1.54,0,0,0,0,1.06.7.7,0,0,0,.7.4,1.36,1.36,0,0,0,1-.41,2.65,2.65,0,0,0,.66-1.13A1.48,1.48,0,0,0,100.35,4.23Zm12.55-.12a.63.63,0,0,0-.59-.29,1.24,1.24,0,0,0-.79.3,2.06,2.06,0,0,0-.6.84h2l0,0A1.16,1.16,0,0,0,112.9,4.11Zm18.4,0a.62.62,0,0,0-.59-.29,1.23,1.23,0,0,0-.78.3,2.06,2.06,0,0,0-.6.84h2v0A1.06,1.06,0,0,0,131.3,4.11Zm0,0a.62.62,0,0,0-.59-.29,1.23,1.23,0,0,0-.78.3,2.06,2.06,0,0,0-.6.84h2v0A1.06,1.06,0,0,0,131.3,4.11Zm-18.4,0a.63.63,0,0,0-.59-.29,1.24,1.24,0,0,0-.79.3,2.06,2.06,0,0,0-.6.84h2l0,0A1.16,1.16,0,0,0,112.9,4.11Zm-12.55.12a.69.69,0,0,0-.7-.41,1.34,1.34,0,0,0-.93.4,2.62,2.62,0,0,0-.67,1.15,1.54,1.54,0,0,0,0,1.06.7.7,0,0,0,.7.4,1.36,1.36,0,0,0,1-.41,2.65,2.65,0,0,0,.66-1.13A1.48,1.48,0,0,0,100.35,4.23Zm0,0a.69.69,0,0,0-.7-.41,1.34,1.34,0,0,0-.93.4,2.62,2.62,0,0,0-.67,1.15,1.54,1.54,0,0,0,0,1.06.7.7,0,0,0,.7.4,1.36,1.36,0,0,0,1-.41,2.65,2.65,0,0,0,.66-1.13A1.48,1.48,0,0,0,100.35,4.23Zm12.55-.12a.63.63,0,0,0-.59-.29,1.24,1.24,0,0,0-.79.3,2.06,2.06,0,0,0-.6.84h2l0,0A1.16,1.16,0,0,0,112.9,4.11Zm18.4,0a.62.62,0,0,0-.59-.29,1.23,1.23,0,0,0-.78.3,2.06,2.06,0,0,0-.6.84h2v0A1.06,1.06,0,0,0,131.3,4.11Zm0,0a.62.62,0,0,0-.59-.29,1.23,1.23,0,0,0-.78.3,2.06,2.06,0,0,0-.6.84h2v0A1.06,1.06,0,0,0,131.3,4.11Zm-18.4,0a.63.63,0,0,0-.59-.29,1.24,1.24,0,0,0-.79.3,2.06,2.06,0,0,0-.6.84h2l0,0A1.16,1.16,0,0,0,112.9,4.11Zm-12.55.12a.69.69,0,0,0-.7-.41,1.34,1.34,0,0,0-.93.4,2.62,2.62,0,0,0-.67,1.15,1.54,1.54,0,0,0,0,1.06.7.7,0,0,0,.7.4,1.36,1.36,0,0,0,1-.41,2.65,2.65,0,0,0,.66-1.13A1.48,1.48,0,0,0,100.35,4.23Zm0,0a.69.69,0,0,0-.7-.41,1.34,1.34,0,0,0-.93.4,2.62,2.62,0,0,0-.67,1.15,1.54,1.54,0,0,0,0,1.06.7.7,0,0,0,.7.4,1.36,1.36,0,0,0,1-.41,2.65,2.65,0,0,0,.66-1.13A1.48,1.48,0,0,0,100.35,4.23Zm12.55-.12a.63.63,0,0,0-.59-.29,1.24,1.24,0,0,0-.79.3,2.06,2.06,0,0,0-.6.84h2l0,0A1.16,1.16,0,0,0,112.9,4.11Zm18.4,0a.62.62,0,0,0-.59-.29,1.23,1.23,0,0,0-.78.3,2.06,2.06,0,0,0-.6.84h2v0A1.06,1.06,0,0,0,131.3,4.11Zm0,0a.62.62,0,0,0-.59-.29,1.23,1.23,0,0,0-.78.3,2.06,2.06,0,0,0-.6.84h2v0A1.06,1.06,0,0,0,131.3,4.11Zm-18.4,0a.63.63,0,0,0-.59-.29,1.24,1.24,0,0,0-.79.3,2.06,2.06,0,0,0-.6.84h2l0,0A1.16,1.16,0,0,0,112.9,4.11Zm-12.55.12a.69.69,0,0,0-.7-.41,1.34,1.34,0,0,0-.93.4,2.62,2.62,0,0,0-.67,1.15,1.54,1.54,0,0,0,0,1.06.7.7,0,0,0,.7.4,1.36,1.36,0,0,0,1-.41,2.65,2.65,0,0,0,.66-1.13A1.48,1.48,0,0,0,100.35,4.23Zm0,0a.69.69,0,0,0-.7-.41,1.34,1.34,0,0,0-.93.4,2.62,2.62,0,0,0-.67,1.15,1.54,1.54,0,0,0,0,1.06.7.7,0,0,0,.7.4,1.36,1.36,0,0,0,1-.41,2.65,2.65,0,0,0,.66-1.13A1.48,1.48,0,0,0,100.35,4.23Zm12.55-.12a.63.63,0,0,0-.59-.29,1.24,1.24,0,0,0-.79.3,2.06,2.06,0,0,0-.6.84h2l0,0A1.16,1.16,0,0,0,112.9,4.11Zm18.4,0a.62.62,0,0,0-.59-.29,1.23,1.23,0,0,0-.78.3,2.06,2.06,0,0,0-.6.84h2v0A1.06,1.06,0,0,0,131.3,4.11Zm0,0a.62.62,0,0,0-.59-.29,1.23,1.23,0,0,0-.78.3,2.06,2.06,0,0,0-.6.84h2v0A1.06,1.06,0,0,0,131.3,4.11Zm-18.4,0a.63.63,0,0,0-.59-.29,1.24,1.24,0,0,0-.79.3,2.06,2.06,0,0,0-.6.84h2l0,0A1.16,1.16,0,0,0,112.9,4.11Zm-12.55.12a.69.69,0,0,0-.7-.41,1.34,1.34,0,0,0-.93.4,2.62,2.62,0,0,0-.67,1.15,1.54,1.54,0,0,0,0,1.06.7.7,0,0,0,.7.4,1.36,1.36,0,0,0,1-.41,2.65,2.65,0,0,0,.66-1.13A1.48,1.48,0,0,0,100.35,4.23Zm0,0a.69.69,0,0,0-.7-.41,1.34,1.34,0,0,0-.93.4,2.62,2.62,0,0,0-.67,1.15,1.54,1.54,0,0,0,0,1.06.7.7,0,0,0,.7.4,1.36,1.36,0,0,0,1-.41,2.65,2.65,0,0,0,.66-1.13A1.48,1.48,0,0,0,100.35,4.23Zm12.55-.12a.63.63,0,0,0-.59-.29,1.24,1.24,0,0,0-.79.3,2.06,2.06,0,0,0-.6.84h2l0,0A1.16,1.16,0,0,0,112.9,4.11Zm18.4,0a.62.62,0,0,0-.59-.29,1.23,1.23,0,0,0-.78.3,2.06,2.06,0,0,0-.6.84h2v0A1.06,1.06,0,0,0,131.3,4.11Zm0,0a.62.62,0,0,0-.59-.29,1.23,1.23,0,0,0-.78.3,2.06,2.06,0,0,0-.6.84h2v0A1.06,1.06,0,0,0,131.3,4.11Zm-18.4,0a.63.63,0,0,0-.59-.29,1.24,1.24,0,0,0-.79.3,2.06,2.06,0,0,0-.6.84h2l0,0A1.16,1.16,0,0,0,112.9,4.11Zm-12.55.12a.69.69,0,0,0-.7-.41,1.34,1.34,0,0,0-.93.4,2.62,2.62,0,0,0-.67,1.15,1.54,1.54,0,0,0,0,1.06.7.7,0,0,0,.7.4,1.36,1.36,0,0,0,1-.41,2.65,2.65,0,0,0,.66-1.13A1.48,1.48,0,0,0,100.35,4.23Zm0,0a.69.69,0,0,0-.7-.41,1.34,1.34,0,0,0-.93.4,2.62,2.62,0,0,0-.67,1.15,1.54,1.54,0,0,0,0,1.06.7.7,0,0,0,.7.4,1.36,1.36,0,0,0,1-.41,2.65,2.65,0,0,0,.66-1.13A1.48,1.48,0,0,0,100.35,4.23Zm12.55-.12a.63.63,0,0,0-.59-.29,1.24,1.24,0,0,0-.79.3,2.06,2.06,0,0,0-.6.84h2l0,0A1.16,1.16,0,0,0,112.9,4.11Zm18.4,0a.62.62,0,0,0-.59-.29,1.23,1.23,0,0,0-.78.3,2.06,2.06,0,0,0-.6.84h2v0A1.06,1.06,0,0,0,131.3,4.11Zm0,0a.62.62,0,0,0-.59-.29,1.23,1.23,0,0,0-.78.3,2.06,2.06,0,0,0-.6.84h2v0A1.06,1.06,0,0,0,131.3,4.11Zm-18.4,0a.63.63,0,0,0-.59-.29,1.24,1.24,0,0,0-.79.3,2.06,2.06,0,0,0-.6.84h2l0,0A1.16,1.16,0,0,0,112.9,4.11Zm-12.55.12a.69.69,0,0,0-.7-.41,1.34,1.34,0,0,0-.93.4,2.62,2.62,0,0,0-.67,1.15,1.54,1.54,0,0,0,0,1.06.7.7,0,0,0,.7.4,1.36,1.36,0,0,0,1-.41,2.65,2.65,0,0,0,.66-1.13A1.48,1.48,0,0,0,100.35,4.23Zm0,0a.69.69,0,0,0-.7-.41,1.34,1.34,0,0,0-.93.4,2.62,2.62,0,0,0-.67,1.15,1.54,1.54,0,0,0,0,1.06.7.7,0,0,0,.7.4,1.36,1.36,0,0,0,1-.41,2.65,2.65,0,0,0,.66-1.13A1.48,1.48,0,0,0,100.35,4.23Zm12.55-.12a.63.63,0,0,0-.59-.29,1.24,1.24,0,0,0-.79.3,2.06,2.06,0,0,0-.6.84h2l0,0A1.16,1.16,0,0,0,112.9,4.11Zm18.4,0a.62.62,0,0,0-.59-.29,1.23,1.23,0,0,0-.78.3,2.06,2.06,0,0,0-.6.84h2v0A1.06,1.06,0,0,0,131.3,4.11Zm0,0a.62.62,0,0,0-.59-.29,1.23,1.23,0,0,0-.78.3,2.06,2.06,0,0,0-.6.84h2v0A1.06,1.06,0,0,0,131.3,4.11Zm-18.4,0a.63.63,0,0,0-.59-.29,1.24,1.24,0,0,0-.79.3,2.06,2.06,0,0,0-.6.84h2l0,0A1.16,1.16,0,0,0,112.9,4.11Zm-12.55.12a.69.69,0,0,0-.7-.41,1.34,1.34,0,0,0-.93.4,2.62,2.62,0,0,0-.67,1.15,1.54,1.54,0,0,0,0,1.06.7.7,0,0,0,.7.4,1.36,1.36,0,0,0,1-.41,2.65,2.65,0,0,0,.66-1.13A1.48,1.48,0,0,0,100.35,4.23ZM84,0,81.24,8.88H145L147.73,0ZM96.87,4.46l-.1.34a4,4,0,0,1-.7,1.32A3.23,3.23,0,0,1,95,7a3.12,3.12,0,0,1-1.36.31H92.12L93.78,2h1.51a1.94,1.94,0,0,1,1.14.31,1.35,1.35,0,0,1,.55.88A2.65,2.65,0,0,1,96.87,4.46Zm4.13.86v0a3.22,3.22,0,0,1-.54,1,2.67,2.67,0,0,1-.86.72,2.22,2.22,0,0,1-1,.26,1.21,1.21,0,0,1-1.14-.57,1.83,1.83,0,0,1,0-1.49l0,0a3.1,3.1,0,0,1,.55-1,2.53,2.53,0,0,1,.86-.72,2.21,2.21,0,0,1,1-.26,1.22,1.22,0,0,1,1.14.56A1.86,1.86,0,0,1,101,5.32Zm.3,2,1.75-5.64h.68L102,7.31Zm8.16-2.66-.82,2.66H108l.81-2.62a.77.77,0,0,0,0-.64c-.09-.14-.28-.21-.59-.21a1.15,1.15,0,0,0-.7.23,1.33,1.33,0,0,0-.47.6l-.82,2.64h-.68l.8-2.6c.18-.58,0-.87-.58-.87a1.3,1.3,0,0,0-1.09.57l-.9,2.9h-.68l1.23-4h.65l-.12.44a2,2,0,0,1,1.34-.52c.55,0,.87.22.93.64a2.52,2.52,0,0,1,.66-.46,1.85,1.85,0,0,1,.81-.18C109.43,3.26,109.73,3.72,109.46,4.65Zm4,.59-.08.28h-2.7a1.21,1.21,0,0,0,0,1,.79.79,0,0,0,.73.36,1.38,1.38,0,0,0,.65-.15,2.09,2.09,0,0,0,.56-.39l.32.33a2.35,2.35,0,0,1-1.74.77,1.26,1.26,0,0,1-1.15-.54,1.66,1.66,0,0,1-.07-1.42l0-.12a3.24,3.24,0,0,1,.55-1.06,2.67,2.67,0,0,1,.86-.72,1.94,1.94,0,0,1,1-.27,1.09,1.09,0,0,1,1,.51A2,2,0,0,1,113.5,5.24Zm1.36,1.45q.06.12.3.12a2,2,0,0,0,.34,0l-.17.55a2.14,2.14,0,0,1-.54.08.64.64,0,0,1-.61-.28,1.05,1.05,0,0,1,0-.78L115,3.86h-.73l.17-.52h.72l.3-1h.68l-.3,1h.74l-.16.52h-.74l-.77,2.47A.56.56,0,0,0,114.86,6.69Zm5.07-2.19h-.68a.47.47,0,0,0-.09-.48.68.68,0,0,0-.53-.2A1.23,1.23,0,0,0,118,4a.73.73,0,0,0-.34.42.32.32,0,0,0,.08.38,1.85,1.85,0,0,0,.63.24,2.51,2.51,0,0,1,.74.27.79.79,0,0,1,.35.38.84.84,0,0,1,0,.54,1.51,1.51,0,0,1-.69.85,2.21,2.21,0,0,1-1.2.33,1.72,1.72,0,0,1-.8-.17.91.91,0,0,1-.43-.48,1,1,0,0,1,0-.65H117a.53.53,0,0,0,.11.54.81.81,0,0,0,.61.2,1.27,1.27,0,0,0,.66-.16.73.73,0,0,0,.37-.41.4.4,0,0,0-.08-.43,1.4,1.4,0,0,0-.64-.26,2.91,2.91,0,0,1-.74-.27.69.69,0,0,1-.33-.37.72.72,0,0,1,0-.5,1.52,1.52,0,0,1,.67-.83,2.1,2.1,0,0,1,1.16-.34,1.28,1.28,0,0,1,1,.35A.86.86,0,0,1,119.93,4.5Zm3.18,2.21a2.46,2.46,0,0,1-.73.49,2.08,2.08,0,0,1-.82.19,1.21,1.21,0,0,1-1.13-.55,1.9,1.9,0,0,1,0-1.48l0-.11a3.41,3.41,0,0,1,.53-1,2.63,2.63,0,0,1,.83-.7,2.26,2.26,0,0,1,1-.25,1.22,1.22,0,0,1,1,.4,1.15,1.15,0,0,1,.15,1h-.64a.78.78,0,0,0-.1-.63.67.67,0,0,0-.57-.25,1.28,1.28,0,0,0-.92.37,2.45,2.45,0,0,0-.62,1.08l0,.13a1.5,1.5,0,0,0,0,1.06.67.67,0,0,0,.69.37,1.23,1.23,0,0,0,.7-.22,1.2,1.2,0,0,0,.48-.55h.64A1.75,1.75,0,0,1,123.11,6.71Zm4.75-2-.81,2.63h-.68l.81-2.63a.79.79,0,0,0,0-.63.6.6,0,0,0-.54-.21A1.27,1.27,0,0,0,126,4a1.78,1.78,0,0,0-.53.46l-.88,2.83h-.68l1.75-5.64h.68l-.66,2.15A2,2,0,0,1,127,3.26C127.87,3.26,128.15,3.74,127.86,4.68Zm4,.84h-2.69a1.21,1.21,0,0,0,.05,1,.79.79,0,0,0,.73.36,1.44,1.44,0,0,0,.65-.15,2.27,2.27,0,0,0,.56-.39l.31.33a2.33,2.33,0,0,1-1.73.77,1.24,1.24,0,0,1-1.15-.54,1.62,1.62,0,0,1-.07-1.42l0-.12a3.06,3.06,0,0,1,.55-1.06,2.75,2.75,0,0,1,.85-.72,2,2,0,0,1,1-.27,1.07,1.07,0,0,1,1,.51,1.9,1.9,0,0,1,0,1.47ZM136,4.68l-.81,2.63h-.68l.82-2.63a.83.83,0,0,0,0-.63.6.6,0,0,0-.54-.21,1.27,1.27,0,0,0-.64.18,1.78,1.78,0,0,0-.53.46l-.87,2.83h-.68l1.23-4h.64l-.13.5a2,2,0,0,1,1.36-.58C136,3.26,136.28,3.74,136,4.68Zm-5.28-.86a1.23,1.23,0,0,0-.78.3,2.06,2.06,0,0,0-.6.84h2v0a1.06,1.06,0,0,0,0-.8A.62.62,0,0,0,130.71,3.82Zm-18.4,0a1.24,1.24,0,0,0-.79.3,2.06,2.06,0,0,0-.6.84h2l0,0a1.16,1.16,0,0,0,0-.8A.63.63,0,0,0,112.31,3.82Zm-12.66,0a1.34,1.34,0,0,0-.93.4,2.62,2.62,0,0,0-.67,1.15,1.54,1.54,0,0,0,0,1.06.7.7,0,0,0,.7.4,1.36,1.36,0,0,0,1-.41,2.65,2.65,0,0,0,.66-1.13,1.48,1.48,0,0,0,0-1.06A.69.69,0,0,0,99.65,3.82Zm.7.41a.69.69,0,0,0-.7-.41,1.34,1.34,0,0,0-.93.4,2.62,2.62,0,0,0-.67,1.15,1.54,1.54,0,0,0,0,1.06.7.7,0,0,0,.7.4,1.36,1.36,0,0,0,1-.41,2.65,2.65,0,0,0,.66-1.13A1.48,1.48,0,0,0,100.35,4.23Zm12.55-.12a.63.63,0,0,0-.59-.29,1.24,1.24,0,0,0-.79.3,2.06,2.06,0,0,0-.6.84h2l0,0A1.16,1.16,0,0,0,112.9,4.11Zm18.4,0a.62.62,0,0,0-.59-.29,1.23,1.23,0,0,0-.78.3,2.06,2.06,0,0,0-.6.84h2v0A1.06,1.06,0,0,0,131.3,4.11Zm0,0a.62.62,0,0,0-.59-.29,1.23,1.23,0,0,0-.78.3,2.06,2.06,0,0,0-.6.84h2v0A1.06,1.06,0,0,0,131.3,4.11Zm-18.4,0a.63.63,0,0,0-.59-.29,1.24,1.24,0,0,0-.79.3,2.06,2.06,0,0,0-.6.84h2l0,0A1.16,1.16,0,0,0,112.9,4.11Zm-12.55.12a.69.69,0,0,0-.7-.41,1.34,1.34,0,0,0-.93.4,2.62,2.62,0,0,0-.67,1.15,1.54,1.54,0,0,0,0,1.06.7.7,0,0,0,.7.4,1.36,1.36,0,0,0,1-.41,2.65,2.65,0,0,0,.66-1.13A1.48,1.48,0,0,0,100.35,4.23Zm0,0a.69.69,0,0,0-.7-.41,1.34,1.34,0,0,0-.93.4,2.62,2.62,0,0,0-.67,1.15,1.54,1.54,0,0,0,0,1.06.7.7,0,0,0,.7.4,1.36,1.36,0,0,0,1-.41,2.65,2.65,0,0,0,.66-1.13A1.48,1.48,0,0,0,100.35,4.23Zm12.55-.12a.63.63,0,0,0-.59-.29,1.24,1.24,0,0,0-.79.3,2.06,2.06,0,0,0-.6.84h2l0,0A1.16,1.16,0,0,0,112.9,4.11Zm18.4,0a.62.62,0,0,0-.59-.29,1.23,1.23,0,0,0-.78.3,2.06,2.06,0,0,0-.6.84h2v0A1.06,1.06,0,0,0,131.3,4.11Zm0,0a.62.62,0,0,0-.59-.29,1.23,1.23,0,0,0-.78.3,2.06,2.06,0,0,0-.6.84h2v0A1.06,1.06,0,0,0,131.3,4.11Zm-18.4,0a.63.63,0,0,0-.59-.29,1.24,1.24,0,0,0-.79.3,2.06,2.06,0,0,0-.6.84h2l0,0A1.16,1.16,0,0,0,112.9,4.11Zm-12.55.12a.69.69,0,0,0-.7-.41,1.34,1.34,0,0,0-.93.4,2.62,2.62,0,0,0-.67,1.15,1.54,1.54,0,0,0,0,1.06.7.7,0,0,0,.7.4,1.36,1.36,0,0,0,1-.41,2.65,2.65,0,0,0,.66-1.13A1.48,1.48,0,0,0,100.35,4.23Zm0,0a.69.69,0,0,0-.7-.41,1.34,1.34,0,0,0-.93.4,2.62,2.62,0,0,0-.67,1.15,1.54,1.54,0,0,0,0,1.06.7.7,0,0,0,.7.4,1.36,1.36,0,0,0,1-.41,2.65,2.65,0,0,0,.66-1.13A1.48,1.48,0,0,0,100.35,4.23Zm12.55-.12a.63.63,0,0,0-.59-.29,1.24,1.24,0,0,0-.79.3,2.06,2.06,0,0,0-.6.84h2l0,0A1.16,1.16,0,0,0,112.9,4.11Zm18.4,0a.62.62,0,0,0-.59-.29,1.23,1.23,0,0,0-.78.3,2.06,2.06,0,0,0-.6.84h2v0A1.06,1.06,0,0,0,131.3,4.11Zm0,0a.62.62,0,0,0-.59-.29,1.23,1.23,0,0,0-.78.3,2.06,2.06,0,0,0-.6.84h2v0A1.06,1.06,0,0,0,131.3,4.11Zm-18.4,0a.63.63,0,0,0-.59-.29,1.24,1.24,0,0,0-.79.3,2.06,2.06,0,0,0-.6.84h2l0,0A1.16,1.16,0,0,0,112.9,4.11Zm-12.55.12a.69.69,0,0,0-.7-.41,1.34,1.34,0,0,0-.93.4,2.62,2.62,0,0,0-.67,1.15,1.54,1.54,0,0,0,0,1.06.7.7,0,0,0,.7.4,1.36,1.36,0,0,0,1-.41,2.65,2.65,0,0,0,.66-1.13A1.48,1.48,0,0,0,100.35,4.23Zm0,0a.69.69,0,0,0-.7-.41,1.34,1.34,0,0,0-.93.4,2.62,2.62,0,0,0-.67,1.15,1.54,1.54,0,0,0,0,1.06.7.7,0,0,0,.7.4,1.36,1.36,0,0,0,1-.41,2.65,2.65,0,0,0,.66-1.13A1.48,1.48,0,0,0,100.35,4.23Zm12.55-.12a.63.63,0,0,0-.59-.29,1.24,1.24,0,0,0-.79.3,2.06,2.06,0,0,0-.6.84h2l0,0A1.16,1.16,0,0,0,112.9,4.11Zm18.4,0a.62.62,0,0,0-.59-.29,1.23,1.23,0,0,0-.78.3,2.06,2.06,0,0,0-.6.84h2v0A1.06,1.06,0,0,0,131.3,4.11Zm0,0a.62.62,0,0,0-.59-.29,1.23,1.23,0,0,0-.78.3,2.06,2.06,0,0,0-.6.84h2v0A1.06,1.06,0,0,0,131.3,4.11Zm-18.4,0a.63.63,0,0,0-.59-.29,1.24,1.24,0,0,0-.79.3,2.06,2.06,0,0,0-.6.84h2l0,0A1.16,1.16,0,0,0,112.9,4.11Zm-12.55.12a.69.69,0,0,0-.7-.41,1.34,1.34,0,0,0-.93.4,2.62,2.62,0,0,0-.67,1.15,1.54,1.54,0,0,0,0,1.06.7.7,0,0,0,.7.4,1.36,1.36,0,0,0,1-.41,2.65,2.65,0,0,0,.66-1.13A1.48,1.48,0,0,0,100.35,4.23Zm0,0a.69.69,0,0,0-.7-.41,1.34,1.34,0,0,0-.93.4,2.62,2.62,0,0,0-.67,1.15,1.54,1.54,0,0,0,0,1.06.7.7,0,0,0,.7.4,1.36,1.36,0,0,0,1-.41,2.65,2.65,0,0,0,.66-1.13A1.48,1.48,0,0,0,100.35,4.23Zm12.55-.12a.63.63,0,0,0-.59-.29,1.24,1.24,0,0,0-.79.3,2.06,2.06,0,0,0-.6.84h2l0,0A1.16,1.16,0,0,0,112.9,4.11Zm18.4,0a.62.62,0,0,0-.59-.29,1.23,1.23,0,0,0-.78.3,2.06,2.06,0,0,0-.6.84h2v0A1.06,1.06,0,0,0,131.3,4.11Zm0,0a.62.62,0,0,0-.59-.29,1.23,1.23,0,0,0-.78.3,2.06,2.06,0,0,0-.6.84h2v0A1.06,1.06,0,0,0,131.3,4.11Zm-18.4,0a.63.63,0,0,0-.59-.29,1.24,1.24,0,0,0-.79.3,2.06,2.06,0,0,0-.6.84h2l0,0A1.16,1.16,0,0,0,112.9,4.11Zm-12.55.12a.69.69,0,0,0-.7-.41,1.34,1.34,0,0,0-.93.4,2.62,2.62,0,0,0-.67,1.15,1.54,1.54,0,0,0,0,1.06.7.7,0,0,0,.7.4,1.36,1.36,0,0,0,1-.41,2.65,2.65,0,0,0,.66-1.13A1.48,1.48,0,0,0,100.35,4.23Zm0,0a.69.69,0,0,0-.7-.41,1.34,1.34,0,0,0-.93.4,2.62,2.62,0,0,0-.67,1.15,1.54,1.54,0,0,0,0,1.06.7.7,0,0,0,.7.4,1.36,1.36,0,0,0,1-.41,2.65,2.65,0,0,0,.66-1.13A1.48,1.48,0,0,0,100.35,4.23Zm12.55-.12a.63.63,0,0,0-.59-.29,1.24,1.24,0,0,0-.79.3,2.06,2.06,0,0,0-.6.84h2l0,0A1.16,1.16,0,0,0,112.9,4.11Zm18.4,0a.62.62,0,0,0-.59-.29,1.23,1.23,0,0,0-.78.3,2.06,2.06,0,0,0-.6.84h2v0A1.06,1.06,0,0,0,131.3,4.11Zm0,0a.62.62,0,0,0-.59-.29,1.23,1.23,0,0,0-.78.3,2.06,2.06,0,0,0-.6.84h2v0A1.06,1.06,0,0,0,131.3,4.11Zm-18.4,0a.63.63,0,0,0-.59-.29,1.24,1.24,0,0,0-.79.3,2.06,2.06,0,0,0-.6.84h2l0,0A1.16,1.16,0,0,0,112.9,4.11Zm-12.55.12a.69.69,0,0,0-.7-.41,1.34,1.34,0,0,0-.93.4,2.62,2.62,0,0,0-.67,1.15,1.54,1.54,0,0,0,0,1.06.7.7,0,0,0,.7.4,1.36,1.36,0,0,0,1-.41,2.65,2.65,0,0,0,.66-1.13A1.48,1.48,0,0,0,100.35,4.23Zm0,0a.69.69,0,0,0-.7-.41,1.34,1.34,0,0,0-.93.4,2.62,2.62,0,0,0-.67,1.15,1.54,1.54,0,0,0,0,1.06.7.7,0,0,0,.7.4,1.36,1.36,0,0,0,1-.41,2.65,2.65,0,0,0,.66-1.13A1.48,1.48,0,0,0,100.35,4.23Zm12.55-.12a.63.63,0,0,0-.59-.29,1.24,1.24,0,0,0-.79.3,2.06,2.06,0,0,0-.6.84h2l0,0A1.16,1.16,0,0,0,112.9,4.11Zm18.4,0a.62.62,0,0,0-.59-.29,1.23,1.23,0,0,0-.78.3,2.06,2.06,0,0,0-.6.84h2v0A1.06,1.06,0,0,0,131.3,4.11Zm0,0a.62.62,0,0,0-.59-.29,1.23,1.23,0,0,0-.78.3,2.06,2.06,0,0,0-.6.84h2v0A1.06,1.06,0,0,0,131.3,4.11Zm-18.4,0a.63.63,0,0,0-.59-.29,1.24,1.24,0,0,0-.79.3,2.06,2.06,0,0,0-.6.84h2l0,0A1.16,1.16,0,0,0,112.9,4.11Zm-12.55.12a.69.69,0,0,0-.7-.41,1.34,1.34,0,0,0-.93.4,2.62,2.62,0,0,0-.67,1.15,1.54,1.54,0,0,0,0,1.06.7.7,0,0,0,.7.4,1.36,1.36,0,0,0,1-.41,2.65,2.65,0,0,0,.66-1.13A1.48,1.48,0,0,0,100.35,4.23Zm0,0a.69.69,0,0,0-.7-.41,1.34,1.34,0,0,0-.93.4,2.62,2.62,0,0,0-.67,1.15,1.54,1.54,0,0,0,0,1.06.7.7,0,0,0,.7.4,1.36,1.36,0,0,0,1-.41,2.65,2.65,0,0,0,.66-1.13A1.48,1.48,0,0,0,100.35,4.23Zm12.55-.12a.63.63,0,0,0-.59-.29,1.24,1.24,0,0,0-.79.3,2.06,2.06,0,0,0-.6.84h2l0,0A1.16,1.16,0,0,0,112.9,4.11Zm18.4,0a.62.62,0,0,0-.59-.29,1.23,1.23,0,0,0-.78.3,2.06,2.06,0,0,0-.6.84h2v0A1.06,1.06,0,0,0,131.3,4.11Zm0,0a.62.62,0,0,0-.59-.29,1.23,1.23,0,0,0-.78.3,2.06,2.06,0,0,0-.6.84h2v0A1.06,1.06,0,0,0,131.3,4.11Zm-18.4,0a.63.63,0,0,0-.59-.29,1.24,1.24,0,0,0-.79.3,2.06,2.06,0,0,0-.6.84h2l0,0A1.16,1.16,0,0,0,112.9,4.11Zm-12.55.12a.69.69,0,0,0-.7-.41,1.34,1.34,0,0,0-.93.4,2.62,2.62,0,0,0-.67,1.15,1.54,1.54,0,0,0,0,1.06.7.7,0,0,0,.7.4,1.36,1.36,0,0,0,1-.41,2.65,2.65,0,0,0,.66-1.13A1.48,1.48,0,0,0,100.35,4.23Zm0,0a.69.69,0,0,0-.7-.41,1.34,1.34,0,0,0-.93.4,2.62,2.62,0,0,0-.67,1.15,1.54,1.54,0,0,0,0,1.06.7.7,0,0,0,.7.4,1.36,1.36,0,0,0,1-.41,2.65,2.65,0,0,0,.66-1.13A1.48,1.48,0,0,0,100.35,4.23Zm12.55-.12a.63.63,0,0,0-.59-.29,1.24,1.24,0,0,0-.79.3,2.06,2.06,0,0,0-.6.84h2l0,0A1.16,1.16,0,0,0,112.9,4.11Zm18.4,0a.62.62,0,0,0-.59-.29,1.23,1.23,0,0,0-.78.3,2.06,2.06,0,0,0-.6.84h2v0A1.06,1.06,0,0,0,131.3,4.11Zm0,0a.62.62,0,0,0-.59-.29,1.23,1.23,0,0,0-.78.3,2.06,2.06,0,0,0-.6.84h2v0A1.06,1.06,0,0,0,131.3,4.11Zm-18.4,0a.63.63,0,0,0-.59-.29,1.24,1.24,0,0,0-.79.3,2.06,2.06,0,0,0-.6.84h2l0,0A1.16,1.16,0,0,0,112.9,4.11Zm-12.55.12a.69.69,0,0,0-.7-.41,1.34,1.34,0,0,0-.93.4,2.62,2.62,0,0,0-.67,1.15,1.54,1.54,0,0,0,0,1.06.7.7,0,0,0,.7.4,1.36,1.36,0,0,0,1-.41,2.65,2.65,0,0,0,.66-1.13A1.48,1.48,0,0,0,100.35,4.23Zm0,0a.69.69,0,0,0-.7-.41,1.34,1.34,0,0,0-.93.4,2.62,2.62,0,0,0-.67,1.15,1.54,1.54,0,0,0,0,1.06.7.7,0,0,0,.7.4,1.36,1.36,0,0,0,1-.41,2.65,2.65,0,0,0,.66-1.13A1.48,1.48,0,0,0,100.35,4.23Zm12.55-.12a.63.63,0,0,0-.59-.29,1.24,1.24,0,0,0-.79.3,2.06,2.06,0,0,0-.6.84h2l0,0A1.16,1.16,0,0,0,112.9,4.11Zm18.4,0a.62.62,0,0,0-.59-.29,1.23,1.23,0,0,0-.78.3,2.06,2.06,0,0,0-.6.84h2v0A1.06,1.06,0,0,0,131.3,4.11Zm0,0a.62.62,0,0,0-.59-.29,1.23,1.23,0,0,0-.78.3,2.06,2.06,0,0,0-.6.84h2v0A1.06,1.06,0,0,0,131.3,4.11Zm-18.4,0a.63.63,0,0,0-.59-.29,1.24,1.24,0,0,0-.79.3,2.06,2.06,0,0,0-.6.84h2l0,0A1.16,1.16,0,0,0,112.9,4.11Zm-12.55.12a.69.69,0,0,0-.7-.41,1.34,1.34,0,0,0-.93.4,2.62,2.62,0,0,0-.67,1.15,1.54,1.54,0,0,0,0,1.06.7.7,0,0,0,.7.4,1.36,1.36,0,0,0,1-.41,2.65,2.65,0,0,0,.66-1.13A1.48,1.48,0,0,0,100.35,4.23Zm0,0a.69.69,0,0,0-.7-.41,1.34,1.34,0,0,0-.93.4,2.62,2.62,0,0,0-.67,1.15,1.54,1.54,0,0,0,0,1.06.7.7,0,0,0,.7.4,1.36,1.36,0,0,0,1-.41,2.65,2.65,0,0,0,.66-1.13A1.48,1.48,0,0,0,100.35,4.23Zm12.55-.12a.63.63,0,0,0-.59-.29,1.24,1.24,0,0,0-.79.3,2.06,2.06,0,0,0-.6.84h2l0,0A1.16,1.16,0,0,0,112.9,4.11Zm18.4,0a.62.62,0,0,0-.59-.29,1.23,1.23,0,0,0-.78.3,2.06,2.06,0,0,0-.6.84h2v0A1.06,1.06,0,0,0,131.3,4.11Zm0,0a.62.62,0,0,0-.59-.29,1.23,1.23,0,0,0-.78.3,2.06,2.06,0,0,0-.6.84h2v0A1.06,1.06,0,0,0,131.3,4.11Zm-18.4,0a.63.63,0,0,0-.59-.29,1.24,1.24,0,0,0-.79.3,2.06,2.06,0,0,0-.6.84h2l0,0A1.16,1.16,0,0,0,112.9,4.11Zm-12.55.12a.69.69,0,0,0-.7-.41,1.34,1.34,0,0,0-.93.4,2.62,2.62,0,0,0-.67,1.15,1.54,1.54,0,0,0,0,1.06.7.7,0,0,0,.7.4,1.36,1.36,0,0,0,1-.41,2.65,2.65,0,0,0,.66-1.13A1.48,1.48,0,0,0,100.35,4.23Zm0,0a.69.69,0,0,0-.7-.41,1.34,1.34,0,0,0-.93.4,2.62,2.62,0,0,0-.67,1.15,1.54,1.54,0,0,0,0,1.06.7.7,0,0,0,.7.4,1.36,1.36,0,0,0,1-.41,2.65,2.65,0,0,0,.66-1.13A1.48,1.48,0,0,0,100.35,4.23Zm12.55-.12a.63.63,0,0,0-.59-.29,1.24,1.24,0,0,0-.79.3,2.06,2.06,0,0,0-.6.84h2l0,0A1.16,1.16,0,0,0,112.9,4.11Zm18.4,0a.62.62,0,0,0-.59-.29,1.23,1.23,0,0,0-.78.3,2.06,2.06,0,0,0-.6.84h2v0A1.06,1.06,0,0,0,131.3,4.11Zm0,0a.62.62,0,0,0-.59-.29,1.23,1.23,0,0,0-.78.3,2.06,2.06,0,0,0-.6.84h2v0A1.06,1.06,0,0,0,131.3,4.11Zm-18.4,0a.63.63,0,0,0-.59-.29,1.24,1.24,0,0,0-.79.3,2.06,2.06,0,0,0-.6.84h2l0,0A1.16,1.16,0,0,0,112.9,4.11Zm-12.55.12a.69.69,0,0,0-.7-.41,1.34,1.34,0,0,0-.93.4,2.62,2.62,0,0,0-.67,1.15,1.54,1.54,0,0,0,0,1.06.7.7,0,0,0,.7.4,1.36,1.36,0,0,0,1-.41,2.65,2.65,0,0,0,.66-1.13A1.48,1.48,0,0,0,100.35,4.23Zm0,0a.69.69,0,0,0-.7-.41,1.34,1.34,0,0,0-.93.4,2.62,2.62,0,0,0-.67,1.15,1.54,1.54,0,0,0,0,1.06.7.7,0,0,0,.7.4,1.36,1.36,0,0,0,1-.41,2.65,2.65,0,0,0,.66-1.13A1.48,1.48,0,0,0,100.35,4.23Zm12.55-.12a.63.63,0,0,0-.59-.29,1.24,1.24,0,0,0-.79.3,2.06,2.06,0,0,0-.6.84h2l0,0A1.16,1.16,0,0,0,112.9,4.11Zm18.4,0a.62.62,0,0,0-.59-.29,1.23,1.23,0,0,0-.78.3,2.06,2.06,0,0,0-.6.84h2v0A1.06,1.06,0,0,0,131.3,4.11Zm0,0a.62.62,0,0,0-.59-.29,1.23,1.23,0,0,0-.78.3,2.06,2.06,0,0,0-.6.84h2v0A1.06,1.06,0,0,0,131.3,4.11Zm-18.4,0a.63.63,0,0,0-.59-.29,1.24,1.24,0,0,0-.79.3,2.06,2.06,0,0,0-.6.84h2l0,0A1.16,1.16,0,0,0,112.9,4.11Zm-12.55.12a.69.69,0,0,0-.7-.41,1.34,1.34,0,0,0-.93.4,2.62,2.62,0,0,0-.67,1.15,1.54,1.54,0,0,0,0,1.06.7.7,0,0,0,.7.4,1.36,1.36,0,0,0,1-.41,2.65,2.65,0,0,0,.66-1.13A1.48,1.48,0,0,0,100.35,4.23Zm0,0a.69.69,0,0,0-.7-.41,1.34,1.34,0,0,0-.93.4,2.62,2.62,0,0,0-.67,1.15,1.54,1.54,0,0,0,0,1.06.7.7,0,0,0,.7.4,1.36,1.36,0,0,0,1-.41,2.65,2.65,0,0,0,.66-1.13A1.48,1.48,0,0,0,100.35,4.23Zm12.55-.12a.63.63,0,0,0-.59-.29,1.24,1.24,0,0,0-.79.3,2.06,2.06,0,0,0-.6.84h2l0,0A1.16,1.16,0,0,0,112.9,4.11Zm0,0a.63.63,0,0,0-.59-.29,1.24,1.24,0,0,0-.79.3,2.06,2.06,0,0,0-.6.84h2l0,0A1.16,1.16,0,0,0,112.9,4.11Zm-12.55.12a.69.69,0,0,0-.7-.41,1.34,1.34,0,0,0-.93.4,2.62,2.62,0,0,0-.67,1.15,1.54,1.54,0,0,0,0,1.06.7.7,0,0,0,.7.4,1.36,1.36,0,0,0,1-.41,2.65,2.65,0,0,0,.66-1.13A1.48,1.48,0,0,0,100.35,4.23Zm0,0a.69.69,0,0,0-.7-.41,1.34,1.34,0,0,0-.93.4,2.62,2.62,0,0,0-.67,1.15,1.54,1.54,0,0,0,0,1.06.7.7,0,0,0,.7.4,1.36,1.36,0,0,0,1-.41,2.65,2.65,0,0,0,.66-1.13A1.48,1.48,0,0,0,100.35,4.23Zm12.55-.12a.63.63,0,0,0-.59-.29,1.24,1.24,0,0,0-.79.3,2.06,2.06,0,0,0-.6.84h2l0,0A1.16,1.16,0,0,0,112.9,4.11Zm0,0a.63.63,0,0,0-.59-.29,1.24,1.24,0,0,0-.79.3,2.06,2.06,0,0,0-.6.84h2l0,0A1.16,1.16,0,0,0,112.9,4.11Zm-12.55.12a.69.69,0,0,0-.7-.41,1.34,1.34,0,0,0-.93.4,2.62,2.62,0,0,0-.67,1.15,1.54,1.54,0,0,0,0,1.06.7.7,0,0,0,.7.4,1.36,1.36,0,0,0,1-.41,2.65,2.65,0,0,0,.66-1.13A1.48,1.48,0,0,0,100.35,4.23Zm0,0a.69.69,0,0,0-.7-.41,1.34,1.34,0,0,0-.93.4,2.62,2.62,0,0,0-.67,1.15,1.54,1.54,0,0,0,0,1.06.7.7,0,0,0,.7.4,1.36,1.36,0,0,0,1-.41,2.65,2.65,0,0,0,.66-1.13A1.48,1.48,0,0,0,100.35,4.23Zm12.55-.12a.63.63,0,0,0-.59-.29,1.24,1.24,0,0,0-.79.3,2.06,2.06,0,0,0-.6.84h2l0,0A1.16,1.16,0,0,0,112.9,4.11Zm0,0a.63.63,0,0,0-.59-.29,1.24,1.24,0,0,0-.79.3,2.06,2.06,0,0,0-.6.84h2l0,0A1.16,1.16,0,0,0,112.9,4.11Zm-12.55.12a.69.69,0,0,0-.7-.41,1.34,1.34,0,0,0-.93.4,2.62,2.62,0,0,0-.67,1.15,1.54,1.54,0,0,0,0,1.06.7.7,0,0,0,.7.4,1.36,1.36,0,0,0,1-.41,2.65,2.65,0,0,0,.66-1.13A1.48,1.48,0,0,0,100.35,4.23Zm0,0a.69.69,0,0,0-.7-.41,1.34,1.34,0,0,0-.93.4,2.62,2.62,0,0,0-.67,1.15,1.54,1.54,0,0,0,0,1.06.7.7,0,0,0,.7.4,1.36,1.36,0,0,0,1-.41,2.65,2.65,0,0,0,.66-1.13A1.48,1.48,0,0,0,100.35,4.23Zm0,0a.69.69,0,0,0-.7-.41,1.34,1.34,0,0,0-.93.4,2.62,2.62,0,0,0-.67,1.15,1.54,1.54,0,0,0,0,1.06.7.7,0,0,0,.7.4,1.36,1.36,0,0,0,1-.41,2.65,2.65,0,0,0,.66-1.13A1.48,1.48,0,0,0,100.35,4.23Zm0,0a.69.69,0,0,0-.7-.41,1.34,1.34,0,0,0-.93.4,2.62,2.62,0,0,0-.67,1.15,1.54,1.54,0,0,0,0,1.06.7.7,0,0,0,.7.4,1.36,1.36,0,0,0,1-.41,2.65,2.65,0,0,0,.66-1.13A1.48,1.48,0,0,0,100.35,4.23Zm0,0a.69.69,0,0,0-.7-.41,1.34,1.34,0,0,0-.93.4,2.62,2.62,0,0,0-.67,1.15,1.54,1.54,0,0,0,0,1.06.7.7,0,0,0,.7.4,1.36,1.36,0,0,0,1-.41,2.65,2.65,0,0,0,.66-1.13A1.48,1.48,0,0,0,100.35,4.23Z"/><path class="cls-1" d="M125.11,13.74a.62.62,0,0,0-.59-.28,1.21,1.21,0,0,0-.78.3,2,2,0,0,0-.61.84h2l0-.06A1.06,1.06,0,0,0,125.11,13.74Zm0,0a.62.62,0,0,0-.59-.28,1.21,1.21,0,0,0-.78.3,2,2,0,0,0-.61.84h2l0-.06A1.06,1.06,0,0,0,125.11,13.74Zm-10.12,0a.61.61,0,0,0-.59-.28,1.23,1.23,0,0,0-.78.3,1.94,1.94,0,0,0-.6.84h2v-.06A1.06,1.06,0,0,0,115,13.74Zm10.12,0a.62.62,0,0,0-.59-.28,1.21,1.21,0,0,0-.78.3,2,2,0,0,0-.61.84h2l0-.06A1.06,1.06,0,0,0,125.11,13.74Zm0,0a.62.62,0,0,0-.59-.28,1.21,1.21,0,0,0-.78.3,2,2,0,0,0-.61.84h2l0-.06A1.06,1.06,0,0,0,125.11,13.74Zm-10.12,0a.61.61,0,0,0-.59-.28,1.23,1.23,0,0,0-.78.3,1.94,1.94,0,0,0-.6.84h2v-.06A1.06,1.06,0,0,0,115,13.74Zm0,0a.61.61,0,0,0-.59-.28,1.23,1.23,0,0,0-.78.3,1.94,1.94,0,0,0-.6.84h2v-.06A1.06,1.06,0,0,0,115,13.74Zm10.12,0a.62.62,0,0,0-.59-.28,1.21,1.21,0,0,0-.78.3,2,2,0,0,0-.61.84h2l0-.06A1.06,1.06,0,0,0,125.11,13.74Zm0,0a.62.62,0,0,0-.59-.28,1.21,1.21,0,0,0-.78.3,2,2,0,0,0-.61.84h2l0-.06A1.06,1.06,0,0,0,125.11,13.74Zm-10.12,0a.61.61,0,0,0-.59-.28,1.23,1.23,0,0,0-.78.3,1.94,1.94,0,0,0-.6.84h2v-.06A1.06,1.06,0,0,0,115,13.74Zm-14.49.11a.63.63,0,0,0-.65-.38,1.43,1.43,0,0,0-1.16.63l-.53,1.72a.7.7,0,0,0,.78.62,1.19,1.19,0,0,0,.87-.38,2.68,2.68,0,0,0,.63-1.13A1.71,1.71,0,0,0,100.5,13.85Zm4.08-.11a.61.61,0,0,0-.59-.28,1.23,1.23,0,0,0-.78.3,2,2,0,0,0-.61.84h2v-.06A1.06,1.06,0,0,0,104.58,13.74Zm10.41,0a.61.61,0,0,0-.59-.28,1.23,1.23,0,0,0-.78.3,1.94,1.94,0,0,0-.6.84h2v-.06A1.06,1.06,0,0,0,115,13.74Zm10.12,0a.62.62,0,0,0-.59-.28,1.21,1.21,0,0,0-.78.3,2,2,0,0,0-.61.84h2l0-.06A1.06,1.06,0,0,0,125.11,13.74Zm0,0a.62.62,0,0,0-.59-.28,1.21,1.21,0,0,0-.78.3,2,2,0,0,0-.61.84h2l0-.06A1.06,1.06,0,0,0,125.11,13.74Zm-10.12,0a.61.61,0,0,0-.59-.28,1.23,1.23,0,0,0-.78.3,1.94,1.94,0,0,0-.6.84h2v-.06A1.06,1.06,0,0,0,115,13.74Zm-10.41,0a.61.61,0,0,0-.59-.28,1.23,1.23,0,0,0-.78.3,2,2,0,0,0-.61.84h2v-.06A1.06,1.06,0,0,0,104.58,13.74Zm-4.08.11a.63.63,0,0,0-.65-.38,1.43,1.43,0,0,0-1.16.63l-.53,1.72a.7.7,0,0,0,.78.62,1.19,1.19,0,0,0,.87-.38,2.68,2.68,0,0,0,.63-1.13A1.71,1.71,0,0,0,100.5,13.85Zm0,0a.63.63,0,0,0-.65-.38,1.43,1.43,0,0,0-1.16.63l-.53,1.72a.7.7,0,0,0,.78.62,1.19,1.19,0,0,0,.87-.38,2.68,2.68,0,0,0,.63-1.13A1.71,1.71,0,0,0,100.5,13.85Zm4.08-.11a.61.61,0,0,0-.59-.28,1.23,1.23,0,0,0-.78.3,2,2,0,0,0-.61.84h2v-.06A1.06,1.06,0,0,0,104.58,13.74Zm10.41,0a.61.61,0,0,0-.59-.28,1.23,1.23,0,0,0-.78.3,1.94,1.94,0,0,0-.6.84h2v-.06A1.06,1.06,0,0,0,115,13.74Zm10.12,0a.62.62,0,0,0-.59-.28,1.21,1.21,0,0,0-.78.3,2,2,0,0,0-.61.84h2l0-.06A1.06,1.06,0,0,0,125.11,13.74Zm0,0a.62.62,0,0,0-.59-.28,1.21,1.21,0,0,0-.78.3,2,2,0,0,0-.61.84h2l0-.06A1.06,1.06,0,0,0,125.11,13.74Zm-10.12,0a.61.61,0,0,0-.59-.28,1.23,1.23,0,0,0-.78.3,1.94,1.94,0,0,0-.6.84h2v-.06A1.06,1.06,0,0,0,115,13.74Zm-10.41,0a.61.61,0,0,0-.59-.28,1.23,1.23,0,0,0-.78.3,2,2,0,0,0-.61.84h2v-.06A1.06,1.06,0,0,0,104.58,13.74Zm-4.08.11a.63.63,0,0,0-.65-.38,1.43,1.43,0,0,0-1.16.63l-.53,1.72a.7.7,0,0,0,.78.62,1.19,1.19,0,0,0,.87-.38,2.68,2.68,0,0,0,.63-1.13A1.71,1.71,0,0,0,100.5,13.85Zm0,0a.63.63,0,0,0-.65-.38,1.43,1.43,0,0,0-1.16.63l-.53,1.72a.7.7,0,0,0,.78.62,1.19,1.19,0,0,0,.87-.38,2.68,2.68,0,0,0,.63-1.13A1.71,1.71,0,0,0,100.5,13.85Zm4.08-.11a.61.61,0,0,0-.59-.28,1.23,1.23,0,0,0-.78.3,2,2,0,0,0-.61.84h2v-.06A1.06,1.06,0,0,0,104.58,13.74Zm10.41,0a.61.61,0,0,0-.59-.28,1.23,1.23,0,0,0-.78.3,1.94,1.94,0,0,0-.6.84h2v-.06A1.06,1.06,0,0,0,115,13.74Zm10.12,0a.62.62,0,0,0-.59-.28,1.21,1.21,0,0,0-.78.3,2,2,0,0,0-.61.84h2l0-.06A1.06,1.06,0,0,0,125.11,13.74Zm0,0a.62.62,0,0,0-.59-.28,1.21,1.21,0,0,0-.78.3,2,2,0,0,0-.61.84h2l0-.06A1.06,1.06,0,0,0,125.11,13.74Zm-10.12,0a.61.61,0,0,0-.59-.28,1.23,1.23,0,0,0-.78.3,1.94,1.94,0,0,0-.6.84h2v-.06A1.06,1.06,0,0,0,115,13.74Zm-10.41,0a.61.61,0,0,0-.59-.28,1.23,1.23,0,0,0-.78.3,2,2,0,0,0-.61.84h2v-.06A1.06,1.06,0,0,0,104.58,13.74Zm-4.08.11a.63.63,0,0,0-.65-.38,1.43,1.43,0,0,0-1.16.63l-.53,1.72a.7.7,0,0,0,.78.62,1.19,1.19,0,0,0,.87-.38,2.68,2.68,0,0,0,.63-1.13A1.71,1.71,0,0,0,100.5,13.85Zm0,0a.63.63,0,0,0-.65-.38,1.43,1.43,0,0,0-1.16.63l-.53,1.72a.7.7,0,0,0,.78.62,1.19,1.19,0,0,0,.87-.38,2.68,2.68,0,0,0,.63-1.13A1.71,1.71,0,0,0,100.5,13.85Zm4.08-.11a.61.61,0,0,0-.59-.28,1.23,1.23,0,0,0-.78.3,2,2,0,0,0-.61.84h2v-.06A1.06,1.06,0,0,0,104.58,13.74Zm10.41,0a.61.61,0,0,0-.59-.28,1.23,1.23,0,0,0-.78.3,1.94,1.94,0,0,0-.6.84h2v-.06A1.06,1.06,0,0,0,115,13.74Zm10.12,0a.62.62,0,0,0-.59-.28,1.21,1.21,0,0,0-.78.3,2,2,0,0,0-.61.84h2l0-.06A1.06,1.06,0,0,0,125.11,13.74Zm0,0a.62.62,0,0,0-.59-.28,1.21,1.21,0,0,0-.78.3,2,2,0,0,0-.61.84h2l0-.06A1.06,1.06,0,0,0,125.11,13.74Zm-10.12,0a.61.61,0,0,0-.59-.28,1.23,1.23,0,0,0-.78.3,1.94,1.94,0,0,0-.6.84h2v-.06A1.06,1.06,0,0,0,115,13.74Zm-10.41,0a.61.61,0,0,0-.59-.28,1.23,1.23,0,0,0-.78.3,2,2,0,0,0-.61.84h2v-.06A1.06,1.06,0,0,0,104.58,13.74Zm-4.08.11a.63.63,0,0,0-.65-.38,1.43,1.43,0,0,0-1.16.63l-.53,1.72a.7.7,0,0,0,.78.62,1.19,1.19,0,0,0,.87-.38,2.68,2.68,0,0,0,.63-1.13A1.71,1.71,0,0,0,100.5,13.85Zm0,0a.63.63,0,0,0-.65-.38,1.43,1.43,0,0,0-1.16.63l-.53,1.72a.7.7,0,0,0,.78.62,1.19,1.19,0,0,0,.87-.38,2.68,2.68,0,0,0,.63-1.13A1.71,1.71,0,0,0,100.5,13.85Zm4.08-.11a.61.61,0,0,0-.59-.28,1.23,1.23,0,0,0-.78.3,2,2,0,0,0-.61.84h2v-.06A1.06,1.06,0,0,0,104.58,13.74Zm10.41,0a.61.61,0,0,0-.59-.28,1.23,1.23,0,0,0-.78.3,1.94,1.94,0,0,0-.6.84h2v-.06A1.06,1.06,0,0,0,115,13.74Zm10.12,0a.62.62,0,0,0-.59-.28,1.21,1.21,0,0,0-.78.3,2,2,0,0,0-.61.84h2l0-.06A1.06,1.06,0,0,0,125.11,13.74Zm0,0a.62.62,0,0,0-.59-.28,1.21,1.21,0,0,0-.78.3,2,2,0,0,0-.61.84h2l0-.06A1.06,1.06,0,0,0,125.11,13.74Zm-10.12,0a.61.61,0,0,0-.59-.28,1.23,1.23,0,0,0-.78.3,1.94,1.94,0,0,0-.6.84h2v-.06A1.06,1.06,0,0,0,115,13.74Zm-10.41,0a.61.61,0,0,0-.59-.28,1.23,1.23,0,0,0-.78.3,2,2,0,0,0-.61.84h2v-.06A1.06,1.06,0,0,0,104.58,13.74Zm-4.08.11a.63.63,0,0,0-.65-.38,1.43,1.43,0,0,0-1.16.63l-.53,1.72a.7.7,0,0,0,.78.62,1.19,1.19,0,0,0,.87-.38,2.68,2.68,0,0,0,.63-1.13A1.71,1.71,0,0,0,100.5,13.85Zm0,0a.63.63,0,0,0-.65-.38,1.43,1.43,0,0,0-1.16.63l-.53,1.72a.7.7,0,0,0,.78.62,1.19,1.19,0,0,0,.87-.38,2.68,2.68,0,0,0,.63-1.13A1.71,1.71,0,0,0,100.5,13.85Zm4.08-.11a.61.61,0,0,0-.59-.28,1.23,1.23,0,0,0-.78.3,2,2,0,0,0-.61.84h2v-.06A1.06,1.06,0,0,0,104.58,13.74Zm10.41,0a.61.61,0,0,0-.59-.28,1.23,1.23,0,0,0-.78.3,1.94,1.94,0,0,0-.6.84h2v-.06A1.06,1.06,0,0,0,115,13.74Zm10.12,0a.62.62,0,0,0-.59-.28,1.21,1.21,0,0,0-.78.3,2,2,0,0,0-.61.84h2l0-.06A1.06,1.06,0,0,0,125.11,13.74Zm0,0a.62.62,0,0,0-.59-.28,1.21,1.21,0,0,0-.78.3,2,2,0,0,0-.61.84h2l0-.06A1.06,1.06,0,0,0,125.11,13.74Zm-10.12,0a.61.61,0,0,0-.59-.28,1.23,1.23,0,0,0-.78.3,1.94,1.94,0,0,0-.6.84h2v-.06A1.06,1.06,0,0,0,115,13.74Zm-10.41,0a.61.61,0,0,0-.59-.28,1.23,1.23,0,0,0-.78.3,2,2,0,0,0-.61.84h2v-.06A1.06,1.06,0,0,0,104.58,13.74Zm-4.08.11a.63.63,0,0,0-.65-.38,1.43,1.43,0,0,0-1.16.63l-.53,1.72a.7.7,0,0,0,.78.62,1.19,1.19,0,0,0,.87-.38,2.68,2.68,0,0,0,.63-1.13A1.71,1.71,0,0,0,100.5,13.85Zm0,0a.63.63,0,0,0-.65-.38,1.43,1.43,0,0,0-1.16.63l-.53,1.72a.7.7,0,0,0,.78.62,1.19,1.19,0,0,0,.87-.38,2.68,2.68,0,0,0,.63-1.13A1.71,1.71,0,0,0,100.5,13.85Zm4.08-.11a.61.61,0,0,0-.59-.28,1.23,1.23,0,0,0-.78.3,2,2,0,0,0-.61.84h2v-.06A1.06,1.06,0,0,0,104.58,13.74Zm10.41,0a.61.61,0,0,0-.59-.28,1.23,1.23,0,0,0-.78.3,1.94,1.94,0,0,0-.6.84h2v-.06A1.06,1.06,0,0,0,115,13.74Zm10.12,0a.62.62,0,0,0-.59-.28,1.21,1.21,0,0,0-.78.3,2,2,0,0,0-.61.84h2l0-.06A1.06,1.06,0,0,0,125.11,13.74Zm0,0a.62.62,0,0,0-.59-.28,1.21,1.21,0,0,0-.78.3,2,2,0,0,0-.61.84h2l0-.06A1.06,1.06,0,0,0,125.11,13.74Zm-10.12,0a.61.61,0,0,0-.59-.28,1.23,1.23,0,0,0-.78.3,1.94,1.94,0,0,0-.6.84h2v-.06A1.06,1.06,0,0,0,115,13.74Zm-10.41,0a.61.61,0,0,0-.59-.28,1.23,1.23,0,0,0-.78.3,2,2,0,0,0-.61.84h2v-.06A1.06,1.06,0,0,0,104.58,13.74Zm-4.08.11a.63.63,0,0,0-.65-.38,1.43,1.43,0,0,0-1.16.63l-.53,1.72a.7.7,0,0,0,.78.62,1.19,1.19,0,0,0,.87-.38,2.68,2.68,0,0,0,.63-1.13A1.71,1.71,0,0,0,100.5,13.85Zm0,0a.63.63,0,0,0-.65-.38,1.43,1.43,0,0,0-1.16.63l-.53,1.72a.7.7,0,0,0,.78.62,1.19,1.19,0,0,0,.87-.38,2.68,2.68,0,0,0,.63-1.13A1.71,1.71,0,0,0,100.5,13.85Zm4.08-.11a.61.61,0,0,0-.59-.28,1.23,1.23,0,0,0-.78.3,2,2,0,0,0-.61.84h2v-.06A1.06,1.06,0,0,0,104.58,13.74Zm10.41,0a.61.61,0,0,0-.59-.28,1.23,1.23,0,0,0-.78.3,1.94,1.94,0,0,0-.6.84h2v-.06A1.06,1.06,0,0,0,115,13.74Zm10.12,0a.62.62,0,0,0-.59-.28,1.21,1.21,0,0,0-.78.3,2,2,0,0,0-.61.84h2l0-.06A1.06,1.06,0,0,0,125.11,13.74Zm0,0a.62.62,0,0,0-.59-.28,1.21,1.21,0,0,0-.78.3,2,2,0,0,0-.61.84h2l0-.06A1.06,1.06,0,0,0,125.11,13.74Zm-10.12,0a.61.61,0,0,0-.59-.28,1.23,1.23,0,0,0-.78.3,1.94,1.94,0,0,0-.6.84h2v-.06A1.06,1.06,0,0,0,115,13.74Zm-10.41,0a.61.61,0,0,0-.59-.28,1.23,1.23,0,0,0-.78.3,2,2,0,0,0-.61.84h2v-.06A1.06,1.06,0,0,0,104.58,13.74Zm-4.08.11a.63.63,0,0,0-.65-.38,1.43,1.43,0,0,0-1.16.63l-.53,1.72a.7.7,0,0,0,.78.62,1.19,1.19,0,0,0,.87-.38,2.68,2.68,0,0,0,.63-1.13A1.71,1.71,0,0,0,100.5,13.85Zm0,0a.63.63,0,0,0-.65-.38,1.43,1.43,0,0,0-1.16.63l-.53,1.72a.7.7,0,0,0,.78.62,1.19,1.19,0,0,0,.87-.38,2.68,2.68,0,0,0,.63-1.13A1.71,1.71,0,0,0,100.5,13.85Zm4.08-.11a.61.61,0,0,0-.59-.28,1.23,1.23,0,0,0-.78.3,2,2,0,0,0-.61.84h2v-.06A1.06,1.06,0,0,0,104.58,13.74Zm10.41,0a.61.61,0,0,0-.59-.28,1.23,1.23,0,0,0-.78.3,1.94,1.94,0,0,0-.6.84h2v-.06A1.06,1.06,0,0,0,115,13.74Zm10.12,0a.62.62,0,0,0-.59-.28,1.21,1.21,0,0,0-.78.3,2,2,0,0,0-.61.84h2l0-.06A1.06,1.06,0,0,0,125.11,13.74Zm0,0a.62.62,0,0,0-.59-.28,1.21,1.21,0,0,0-.78.3,2,2,0,0,0-.61.84h2l0-.06A1.06,1.06,0,0,0,125.11,13.74Zm-10.12,0a.61.61,0,0,0-.59-.28,1.23,1.23,0,0,0-.78.3,1.94,1.94,0,0,0-.6.84h2v-.06A1.06,1.06,0,0,0,115,13.74Zm-10.41,0a.61.61,0,0,0-.59-.28,1.23,1.23,0,0,0-.78.3,2,2,0,0,0-.61.84h2v-.06A1.06,1.06,0,0,0,104.58,13.74Zm-4.08.11a.63.63,0,0,0-.65-.38,1.43,1.43,0,0,0-1.16.63l-.53,1.72a.7.7,0,0,0,.78.62,1.19,1.19,0,0,0,.87-.38,2.68,2.68,0,0,0,.63-1.13A1.71,1.71,0,0,0,100.5,13.85ZM81,9.64l-2.75,8.88H142l2.75-8.88Zm15.48,1.13a.59.59,0,0,1,.19-.28.52.52,0,0,1,.33-.11.31.31,0,0,1,.27.11.34.34,0,0,1,0,.28.46.46,0,0,1-.19.28.47.47,0,0,1-.33.11.29.29,0,0,1-.27-.11A.37.37,0,0,1,96.49,10.77Zm-1.58,0a.61.61,0,0,1,.19-.28.47.47,0,0,1,.33-.11c.14,0,.22,0,.27.11a.33.33,0,0,1,0,.28.67.67,0,0,1-.19.28.53.53,0,0,1-.34.1c-.13,0-.22,0-.26-.1A.33.33,0,0,1,94.91,10.77Zm.88,5.7a2.62,2.62,0,0,1-1.45.54h-.19a1.52,1.52,0,0,1-1.25-.47,1.41,1.41,0,0,1-.13-1.31L93.9,11.6h.7l-1.12,3.62a1,1,0,0,0,0,.9.91.91,0,0,0,.81.32,1.59,1.59,0,0,0,1-.32,1.7,1.7,0,0,0,.59-.9l1.13-3.62h.7l-1.12,3.63A2.48,2.48,0,0,1,95.79,16.47Zm5.32-1.53,0,.06a3.26,3.26,0,0,1-.87,1.47,1.87,1.87,0,0,1-1.29.55,1,1,0,0,1-1-.53l-.18.46h-.62l1.74-5.65h.68l-.65,2.11a1.88,1.88,0,0,1,1.29-.51,1,1,0,0,1,1,.54A2.17,2.17,0,0,1,101.11,14.94Zm4,.21h-2.69a1.17,1.17,0,0,0,0,1,.76.76,0,0,0,.72.36,1.45,1.45,0,0,0,.66-.14,2.57,2.57,0,0,0,.56-.39l.31.32A2.34,2.34,0,0,1,103,17a1.28,1.28,0,0,1-1.15-.53,1.63,1.63,0,0,1-.06-1.42l0-.13a3.32,3.32,0,0,1,.56-1,2.67,2.67,0,0,1,.85-.73,2,2,0,0,1,1-.26,1.07,1.07,0,0,1,1,.51,1.92,1.92,0,0,1,0,1.46Zm1.79-1L106,17h-.67l1.22-4h.67l-.14.46a1.5,1.5,0,0,1,1.12-.53.52.52,0,0,1,.28,0l-.19.63a1.69,1.69,0,0,0-.33,0A1.26,1.26,0,0,0,106.89,14.12Zm4.82,0H111a.46.46,0,0,0-.09-.48.63.63,0,0,0-.53-.2,1.14,1.14,0,0,0-.63.16.77.77,0,0,0-.34.42.32.32,0,0,0,.08.37,1.85,1.85,0,0,0,.63.24,3.07,3.07,0,0,1,.74.27.79.79,0,0,1,.35.38.83.83,0,0,1,0,.54,1.53,1.53,0,0,1-.69.86,2.35,2.35,0,0,1-1.21.32,1.68,1.68,0,0,1-.79-.17.85.85,0,0,1-.43-.47,1,1,0,0,1,0-.66h.68a.53.53,0,0,0,.11.54.79.79,0,0,0,.61.2,1.41,1.41,0,0,0,.67-.15.73.73,0,0,0,.36-.42.4.4,0,0,0-.07-.43,1.45,1.45,0,0,0-.65-.26,2.52,2.52,0,0,1-.73-.26.79.79,0,0,1-.34-.37.81.81,0,0,1,0-.51,1.6,1.6,0,0,1,.67-.83,2.12,2.12,0,0,1,1.16-.33,1.25,1.25,0,0,1,1,.35A.87.87,0,0,1,111.71,14.14Zm3.89.73-.09.28h-2.69a1.21,1.21,0,0,0,.05,1,.79.79,0,0,0,.73.36,1.41,1.41,0,0,0,.65-.14,2.57,2.57,0,0,0,.56-.39l.31.32a2.33,2.33,0,0,1-1.73.77,1.26,1.26,0,0,1-1.15-.53,1.66,1.66,0,0,1-.07-1.42l0-.13a3.1,3.1,0,0,1,.55-1,2.7,2.7,0,0,1,.86-.73,1.93,1.93,0,0,1,1-.26,1.07,1.07,0,0,1,1,.51A1.87,1.87,0,0,1,115.6,14.87ZM117,16.32q.06.12.3.12a1.77,1.77,0,0,0,.34,0l-.17.55a2.18,2.18,0,0,1-.55.07.61.61,0,0,1-.6-.28,1.09,1.09,0,0,1,0-.78l.77-2.46h-.73l.17-.53h.72l.3-1h.68l-.3,1h.74l-.16.53h-.74L117,16A.5.5,0,0,0,117,16.32Zm4.38.07-.17.56H118l.16-.5,3.09-2.92H119.1l.18-.56h3l-.15.48L119,16.39Zm4.29-1.24h-2.69a1.17,1.17,0,0,0,0,1,.76.76,0,0,0,.72.36,1.45,1.45,0,0,0,.66-.14,2.51,2.51,0,0,0,.55-.39l.32.32a2.34,2.34,0,0,1-1.74.77,1.27,1.27,0,0,1-1.15-.53,1.66,1.66,0,0,1-.07-1.42l0-.13a3.29,3.29,0,0,1,.55-1,2.82,2.82,0,0,1,.86-.73,2,2,0,0,1,1-.26,1.08,1.08,0,0,1,1,.51,2,2,0,0,1,0,1.46Zm4.17-.83L129,17h-.68l.81-2.64a.75.75,0,0,0,0-.63c-.08-.14-.26-.21-.53-.21a1.21,1.21,0,0,0-.64.18,1.93,1.93,0,0,0-.53.46L126.54,17h-.68l1.23-4h.64l-.13.5A2,2,0,0,1,129,12.9C129.81,12.9,130.09,13.37,129.8,14.32Zm-5.28-.86a1.21,1.21,0,0,0-.78.3,2,2,0,0,0-.61.84h2l0-.06a1.06,1.06,0,0,0,0-.8A.62.62,0,0,0,124.52,13.46Zm-10.12,0a1.23,1.23,0,0,0-.78.3,1.94,1.94,0,0,0-.6.84h2v-.06a1.06,1.06,0,0,0,0-.8A.61.61,0,0,0,114.4,13.46Zm-10.41,0a1.23,1.23,0,0,0-.78.3,2,2,0,0,0-.61.84h2v-.06a1.06,1.06,0,0,0,0-.8A.61.61,0,0,0,104,13.46Zm-4.14,0a1.43,1.43,0,0,0-1.16.63l-.53,1.72a.7.7,0,0,0,.78.62,1.19,1.19,0,0,0,.87-.38,2.68,2.68,0,0,0,.63-1.13,1.71,1.71,0,0,0,.06-1.08A.63.63,0,0,0,99.85,13.47Zm.65.38a.63.63,0,0,0-.65-.38,1.43,1.43,0,0,0-1.16.63l-.53,1.72a.7.7,0,0,0,.78.62,1.19,1.19,0,0,0,.87-.38,2.68,2.68,0,0,0,.63-1.13A1.71,1.71,0,0,0,100.5,13.85Zm4.08-.11a.61.61,0,0,0-.59-.28,1.23,1.23,0,0,0-.78.3,2,2,0,0,0-.61.84h2v-.06A1.06,1.06,0,0,0,104.58,13.74Zm10.41,0a.61.61,0,0,0-.59-.28,1.23,1.23,0,0,0-.78.3,1.94,1.94,0,0,0-.6.84h2v-.06A1.06,1.06,0,0,0,115,13.74Zm10.12,0a.62.62,0,0,0-.59-.28,1.21,1.21,0,0,0-.78.3,2,2,0,0,0-.61.84h2l0-.06A1.06,1.06,0,0,0,125.11,13.74Zm0,0a.62.62,0,0,0-.59-.28,1.21,1.21,0,0,0-.78.3,2,2,0,0,0-.61.84h2l0-.06A1.06,1.06,0,0,0,125.11,13.74Zm-10.12,0a.61.61,0,0,0-.59-.28,1.23,1.23,0,0,0-.78.3,1.94,1.94,0,0,0-.6.84h2v-.06A1.06,1.06,0,0,0,115,13.74Zm-10.41,0a.61.61,0,0,0-.59-.28,1.23,1.23,0,0,0-.78.3,2,2,0,0,0-.61.84h2v-.06A1.06,1.06,0,0,0,104.58,13.74Zm-4.08.11a.63.63,0,0,0-.65-.38,1.43,1.43,0,0,0-1.16.63l-.53,1.72a.7.7,0,0,0,.78.62,1.19,1.19,0,0,0,.87-.38,2.68,2.68,0,0,0,.63-1.13A1.71,1.71,0,0,0,100.5,13.85Zm0,0a.63.63,0,0,0-.65-.38,1.43,1.43,0,0,0-1.16.63l-.53,1.72a.7.7,0,0,0,.78.62,1.19,1.19,0,0,0,.87-.38,2.68,2.68,0,0,0,.63-1.13A1.71,1.71,0,0,0,100.5,13.85Zm4.08-.11a.61.61,0,0,0-.59-.28,1.23,1.23,0,0,0-.78.3,2,2,0,0,0-.61.84h2v-.06A1.06,1.06,0,0,0,104.58,13.74Zm10.41,0a.61.61,0,0,0-.59-.28,1.23,1.23,0,0,0-.78.3,1.94,1.94,0,0,0-.6.84h2v-.06A1.06,1.06,0,0,0,115,13.74Zm10.12,0a.62.62,0,0,0-.59-.28,1.21,1.21,0,0,0-.78.3,2,2,0,0,0-.61.84h2l0-.06A1.06,1.06,0,0,0,125.11,13.74Zm0,0a.62.62,0,0,0-.59-.28,1.21,1.21,0,0,0-.78.3,2,2,0,0,0-.61.84h2l0-.06A1.06,1.06,0,0,0,125.11,13.74Zm-10.12,0a.61.61,0,0,0-.59-.28,1.23,1.23,0,0,0-.78.3,1.94,1.94,0,0,0-.6.84h2v-.06A1.06,1.06,0,0,0,115,13.74Zm-10.41,0a.61.61,0,0,0-.59-.28,1.23,1.23,0,0,0-.78.3,2,2,0,0,0-.61.84h2v-.06A1.06,1.06,0,0,0,104.58,13.74Zm-4.08.11a.63.63,0,0,0-.65-.38,1.43,1.43,0,0,0-1.16.63l-.53,1.72a.7.7,0,0,0,.78.62,1.19,1.19,0,0,0,.87-.38,2.68,2.68,0,0,0,.63-1.13A1.71,1.71,0,0,0,100.5,13.85Zm0,0a.63.63,0,0,0-.65-.38,1.43,1.43,0,0,0-1.16.63l-.53,1.72a.7.7,0,0,0,.78.62,1.19,1.19,0,0,0,.87-.38,2.68,2.68,0,0,0,.63-1.13A1.71,1.71,0,0,0,100.5,13.85Zm4.08-.11a.61.61,0,0,0-.59-.28,1.23,1.23,0,0,0-.78.3,2,2,0,0,0-.61.84h2v-.06A1.06,1.06,0,0,0,104.58,13.74Zm10.41,0a.61.61,0,0,0-.59-.28,1.23,1.23,0,0,0-.78.3,1.94,1.94,0,0,0-.6.84h2v-.06A1.06,1.06,0,0,0,115,13.74Zm10.12,0a.62.62,0,0,0-.59-.28,1.21,1.21,0,0,0-.78.3,2,2,0,0,0-.61.84h2l0-.06A1.06,1.06,0,0,0,125.11,13.74Zm0,0a.62.62,0,0,0-.59-.28,1.21,1.21,0,0,0-.78.3,2,2,0,0,0-.61.84h2l0-.06A1.06,1.06,0,0,0,125.11,13.74Zm-10.12,0a.61.61,0,0,0-.59-.28,1.23,1.23,0,0,0-.78.3,1.94,1.94,0,0,0-.6.84h2v-.06A1.06,1.06,0,0,0,115,13.74Zm-10.41,0a.61.61,0,0,0-.59-.28,1.23,1.23,0,0,0-.78.3,2,2,0,0,0-.61.84h2v-.06A1.06,1.06,0,0,0,104.58,13.74Zm-4.08.11a.63.63,0,0,0-.65-.38,1.43,1.43,0,0,0-1.16.63l-.53,1.72a.7.7,0,0,0,.78.62,1.19,1.19,0,0,0,.87-.38,2.68,2.68,0,0,0,.63-1.13A1.71,1.71,0,0,0,100.5,13.85Zm0,0a.63.63,0,0,0-.65-.38,1.43,1.43,0,0,0-1.16.63l-.53,1.72a.7.7,0,0,0,.78.62,1.19,1.19,0,0,0,.87-.38,2.68,2.68,0,0,0,.63-1.13A1.71,1.71,0,0,0,100.5,13.85Zm4.08-.11a.61.61,0,0,0-.59-.28,1.23,1.23,0,0,0-.78.3,2,2,0,0,0-.61.84h2v-.06A1.06,1.06,0,0,0,104.58,13.74Zm10.41,0a.61.61,0,0,0-.59-.28,1.23,1.23,0,0,0-.78.3,1.94,1.94,0,0,0-.6.84h2v-.06A1.06,1.06,0,0,0,115,13.74Zm10.12,0a.62.62,0,0,0-.59-.28,1.21,1.21,0,0,0-.78.3,2,2,0,0,0-.61.84h2l0-.06A1.06,1.06,0,0,0,125.11,13.74Zm0,0a.62.62,0,0,0-.59-.28,1.21,1.21,0,0,0-.78.3,2,2,0,0,0-.61.84h2l0-.06A1.06,1.06,0,0,0,125.11,13.74Zm-10.12,0a.61.61,0,0,0-.59-.28,1.23,1.23,0,0,0-.78.3,1.94,1.94,0,0,0-.6.84h2v-.06A1.06,1.06,0,0,0,115,13.74Zm-10.41,0a.61.61,0,0,0-.59-.28,1.23,1.23,0,0,0-.78.3,2,2,0,0,0-.61.84h2v-.06A1.06,1.06,0,0,0,104.58,13.74Zm-4.08.11a.63.63,0,0,0-.65-.38,1.43,1.43,0,0,0-1.16.63l-.53,1.72a.7.7,0,0,0,.78.62,1.19,1.19,0,0,0,.87-.38,2.68,2.68,0,0,0,.63-1.13A1.71,1.71,0,0,0,100.5,13.85Zm0,0a.63.63,0,0,0-.65-.38,1.43,1.43,0,0,0-1.16.63l-.53,1.72a.7.7,0,0,0,.78.62,1.19,1.19,0,0,0,.87-.38,2.68,2.68,0,0,0,.63-1.13A1.71,1.71,0,0,0,100.5,13.85Zm4.08-.11a.61.61,0,0,0-.59-.28,1.23,1.23,0,0,0-.78.3,2,2,0,0,0-.61.84h2v-.06A1.06,1.06,0,0,0,104.58,13.74Zm10.41,0a.61.61,0,0,0-.59-.28,1.23,1.23,0,0,0-.78.3,1.94,1.94,0,0,0-.6.84h2v-.06A1.06,1.06,0,0,0,115,13.74Zm10.12,0a.62.62,0,0,0-.59-.28,1.21,1.21,0,0,0-.78.3,2,2,0,0,0-.61.84h2l0-.06A1.06,1.06,0,0,0,125.11,13.74Zm0,0a.62.62,0,0,0-.59-.28,1.21,1.21,0,0,0-.78.3,2,2,0,0,0-.61.84h2l0-.06A1.06,1.06,0,0,0,125.11,13.74Zm-10.12,0a.61.61,0,0,0-.59-.28,1.23,1.23,0,0,0-.78.3,1.94,1.94,0,0,0-.6.84h2v-.06A1.06,1.06,0,0,0,115,13.74Zm-10.41,0a.61.61,0,0,0-.59-.28,1.23,1.23,0,0,0-.78.3,2,2,0,0,0-.61.84h2v-.06A1.06,1.06,0,0,0,104.58,13.74Zm-4.08.11a.63.63,0,0,0-.65-.38,1.43,1.43,0,0,0-1.16.63l-.53,1.72a.7.7,0,0,0,.78.62,1.19,1.19,0,0,0,.87-.38,2.68,2.68,0,0,0,.63-1.13A1.71,1.71,0,0,0,100.5,13.85Zm0,0a.63.63,0,0,0-.65-.38,1.43,1.43,0,0,0-1.16.63l-.53,1.72a.7.7,0,0,0,.78.62,1.19,1.19,0,0,0,.87-.38,2.68,2.68,0,0,0,.63-1.13A1.71,1.71,0,0,0,100.5,13.85Zm4.08-.11a.61.61,0,0,0-.59-.28,1.23,1.23,0,0,0-.78.3,2,2,0,0,0-.61.84h2v-.06A1.06,1.06,0,0,0,104.58,13.74Zm10.41,0a.61.61,0,0,0-.59-.28,1.23,1.23,0,0,0-.78.3,1.94,1.94,0,0,0-.6.84h2v-.06A1.06,1.06,0,0,0,115,13.74Zm10.12,0a.62.62,0,0,0-.59-.28,1.21,1.21,0,0,0-.78.3,2,2,0,0,0-.61.84h2l0-.06A1.06,1.06,0,0,0,125.11,13.74Zm0,0a.62.62,0,0,0-.59-.28,1.21,1.21,0,0,0-.78.3,2,2,0,0,0-.61.84h2l0-.06A1.06,1.06,0,0,0,125.11,13.74Zm-10.12,0a.61.61,0,0,0-.59-.28,1.23,1.23,0,0,0-.78.3,1.94,1.94,0,0,0-.6.84h2v-.06A1.06,1.06,0,0,0,115,13.74Zm-10.41,0a.61.61,0,0,0-.59-.28,1.23,1.23,0,0,0-.78.3,2,2,0,0,0-.61.84h2v-.06A1.06,1.06,0,0,0,104.58,13.74Zm-4.08.11a.63.63,0,0,0-.65-.38,1.43,1.43,0,0,0-1.16.63l-.53,1.72a.7.7,0,0,0,.78.62,1.19,1.19,0,0,0,.87-.38,2.68,2.68,0,0,0,.63-1.13A1.71,1.71,0,0,0,100.5,13.85Zm0,0a.63.63,0,0,0-.65-.38,1.43,1.43,0,0,0-1.16.63l-.53,1.72a.7.7,0,0,0,.78.62,1.19,1.19,0,0,0,.87-.38,2.68,2.68,0,0,0,.63-1.13A1.71,1.71,0,0,0,100.5,13.85Zm4.08-.11a.61.61,0,0,0-.59-.28,1.23,1.23,0,0,0-.78.3,2,2,0,0,0-.61.84h2v-.06A1.06,1.06,0,0,0,104.58,13.74Zm10.41,0a.61.61,0,0,0-.59-.28,1.23,1.23,0,0,0-.78.3,1.94,1.94,0,0,0-.6.84h2v-.06A1.06,1.06,0,0,0,115,13.74Zm10.12,0a.62.62,0,0,0-.59-.28,1.21,1.21,0,0,0-.78.3,2,2,0,0,0-.61.84h2l0-.06A1.06,1.06,0,0,0,125.11,13.74Zm0,0a.62.62,0,0,0-.59-.28,1.21,1.21,0,0,0-.78.3,2,2,0,0,0-.61.84h2l0-.06A1.06,1.06,0,0,0,125.11,13.74Zm-10.12,0a.61.61,0,0,0-.59-.28,1.23,1.23,0,0,0-.78.3,1.94,1.94,0,0,0-.6.84h2v-.06A1.06,1.06,0,0,0,115,13.74Zm-10.41,0a.61.61,0,0,0-.59-.28,1.23,1.23,0,0,0-.78.3,2,2,0,0,0-.61.84h2v-.06A1.06,1.06,0,0,0,104.58,13.74Zm-4.08.11a.63.63,0,0,0-.65-.38,1.43,1.43,0,0,0-1.16.63l-.53,1.72a.7.7,0,0,0,.78.62,1.19,1.19,0,0,0,.87-.38,2.68,2.68,0,0,0,.63-1.13A1.71,1.71,0,0,0,100.5,13.85Zm0,0a.63.63,0,0,0-.65-.38,1.43,1.43,0,0,0-1.16.63l-.53,1.72a.7.7,0,0,0,.78.62,1.19,1.19,0,0,0,.87-.38,2.68,2.68,0,0,0,.63-1.13A1.71,1.71,0,0,0,100.5,13.85Zm4.08-.11a.61.61,0,0,0-.59-.28,1.23,1.23,0,0,0-.78.3,2,2,0,0,0-.61.84h2v-.06A1.06,1.06,0,0,0,104.58,13.74Zm10.41,0a.61.61,0,0,0-.59-.28,1.23,1.23,0,0,0-.78.3,1.94,1.94,0,0,0-.6.84h2v-.06A1.06,1.06,0,0,0,115,13.74Zm10.12,0a.62.62,0,0,0-.59-.28,1.21,1.21,0,0,0-.78.3,2,2,0,0,0-.61.84h2l0-.06A1.06,1.06,0,0,0,125.11,13.74Zm0,0a.62.62,0,0,0-.59-.28,1.21,1.21,0,0,0-.78.3,2,2,0,0,0-.61.84h2l0-.06A1.06,1.06,0,0,0,125.11,13.74Zm-10.12,0a.61.61,0,0,0-.59-.28,1.23,1.23,0,0,0-.78.3,1.94,1.94,0,0,0-.6.84h2v-.06A1.06,1.06,0,0,0,115,13.74Zm-10.41,0a.61.61,0,0,0-.59-.28,1.23,1.23,0,0,0-.78.3,2,2,0,0,0-.61.84h2v-.06A1.06,1.06,0,0,0,104.58,13.74Zm-4.08.11a.63.63,0,0,0-.65-.38,1.43,1.43,0,0,0-1.16.63l-.53,1.72a.7.7,0,0,0,.78.62,1.19,1.19,0,0,0,.87-.38,2.68,2.68,0,0,0,.63-1.13A1.71,1.71,0,0,0,100.5,13.85Zm4.08-.11a.61.61,0,0,0-.59-.28,1.23,1.23,0,0,0-.78.3,2,2,0,0,0-.61.84h2v-.06A1.06,1.06,0,0,0,104.58,13.74Zm10.41,0a.61.61,0,0,0-.59-.28,1.23,1.23,0,0,0-.78.3,1.94,1.94,0,0,0-.6.84h2v-.06A1.06,1.06,0,0,0,115,13.74Zm10.12,0a.62.62,0,0,0-.59-.28,1.21,1.21,0,0,0-.78.3,2,2,0,0,0-.61.84h2l0-.06A1.06,1.06,0,0,0,125.11,13.74Zm0,0a.62.62,0,0,0-.59-.28,1.21,1.21,0,0,0-.78.3,2,2,0,0,0-.61.84h2l0-.06A1.06,1.06,0,0,0,125.11,13.74Zm-10.12,0a.61.61,0,0,0-.59-.28,1.23,1.23,0,0,0-.78.3,1.94,1.94,0,0,0-.6.84h2v-.06A1.06,1.06,0,0,0,115,13.74Zm-10.41,0a.61.61,0,0,0-.59-.28,1.23,1.23,0,0,0-.78.3,2,2,0,0,0-.61.84h2v-.06A1.06,1.06,0,0,0,104.58,13.74Zm10.41,0a.61.61,0,0,0-.59-.28,1.23,1.23,0,0,0-.78.3,1.94,1.94,0,0,0-.6.84h2v-.06A1.06,1.06,0,0,0,115,13.74Zm10.12,0a.62.62,0,0,0-.59-.28,1.21,1.21,0,0,0-.78.3,2,2,0,0,0-.61.84h2l0-.06A1.06,1.06,0,0,0,125.11,13.74Zm0,0a.62.62,0,0,0-.59-.28,1.21,1.21,0,0,0-.78.3,2,2,0,0,0-.61.84h2l0-.06A1.06,1.06,0,0,0,125.11,13.74Zm-10.12,0a.61.61,0,0,0-.59-.28,1.23,1.23,0,0,0-.78.3,1.94,1.94,0,0,0-.6.84h2v-.06A1.06,1.06,0,0,0,115,13.74Zm10.12,0a.62.62,0,0,0-.59-.28,1.21,1.21,0,0,0-.78.3,2,2,0,0,0-.61.84h2l0-.06A1.06,1.06,0,0,0,125.11,13.74Zm0,0a.62.62,0,0,0-.59-.28,1.21,1.21,0,0,0-.78.3,2,2,0,0,0-.61.84h2l0-.06A1.06,1.06,0,0,0,125.11,13.74Zm0,0a.62.62,0,0,0-.59-.28,1.21,1.21,0,0,0-.78.3,2,2,0,0,0-.61.84h2l0-.06A1.06,1.06,0,0,0,125.11,13.74Zm0,0a.62.62,0,0,0-.59-.28,1.21,1.21,0,0,0-.78.3,2,2,0,0,0-.61.84h2l0-.06A1.06,1.06,0,0,0,125.11,13.74Z"/><path class="cls-1" d="M86.72,22.32a1.86,1.86,0,0,1,0,1.42l-.1.31a2.91,2.91,0,0,1-.9,1.45,2.21,2.21,0,0,1-1.43.5h-.74l1.3-4.19h.82A1.09,1.09,0,0,1,86.72,22.32Z"/><path class="cls-1" d="M90.89,23.5a.71.71,0,0,0-.7-.41,1.35,1.35,0,0,0-.94.4,2.52,2.52,0,0,0-.66,1.15,1.49,1.49,0,0,0,0,1.06.7.7,0,0,0,.7.4,1.34,1.34,0,0,0,.94-.41,2.55,2.55,0,0,0,.66-1.13A1.54,1.54,0,0,0,90.89,23.5Zm0,0a.71.71,0,0,0-.7-.41,1.35,1.35,0,0,0-.94.4,2.52,2.52,0,0,0-.66,1.15,1.49,1.49,0,0,0,0,1.06.7.7,0,0,0,.7.4,1.34,1.34,0,0,0,.94-.41,2.55,2.55,0,0,0,.66-1.13A1.54,1.54,0,0,0,90.89,23.5Zm0,0a.71.71,0,0,0-.7-.41,1.35,1.35,0,0,0-.94.4,2.52,2.52,0,0,0-.66,1.15,1.49,1.49,0,0,0,0,1.06.7.7,0,0,0,.7.4,1.34,1.34,0,0,0,.94-.41,2.55,2.55,0,0,0,.66-1.13A1.54,1.54,0,0,0,90.89,23.5Zm0,0a.71.71,0,0,0-.7-.41,1.35,1.35,0,0,0-.94.4,2.52,2.52,0,0,0-.66,1.15,1.49,1.49,0,0,0,0,1.06.7.7,0,0,0,.7.4,1.34,1.34,0,0,0,.94-.41,2.55,2.55,0,0,0,.66-1.13A1.54,1.54,0,0,0,90.89,23.5Zm0,0a.71.71,0,0,0-.7-.41,1.35,1.35,0,0,0-.94.4,2.52,2.52,0,0,0-.66,1.15,1.49,1.49,0,0,0,0,1.06.7.7,0,0,0,.7.4,1.34,1.34,0,0,0,.94-.41,2.55,2.55,0,0,0,.66-1.13A1.54,1.54,0,0,0,90.89,23.5Zm18.68-.13a.62.62,0,0,0-.59-.28,1.24,1.24,0,0,0-.79.3,2.27,2.27,0,0,0-.6.84h2l0-.05A1.19,1.19,0,0,0,109.57,23.37Zm0,0a.62.62,0,0,0-.59-.28,1.24,1.24,0,0,0-.79.3,2.27,2.27,0,0,0-.6.84h2l0-.05A1.19,1.19,0,0,0,109.57,23.37Zm-18.68.13a.71.71,0,0,0-.7-.41,1.35,1.35,0,0,0-.94.4,2.52,2.52,0,0,0-.66,1.15,1.49,1.49,0,0,0,0,1.06.7.7,0,0,0,.7.4,1.34,1.34,0,0,0,.94-.41,2.55,2.55,0,0,0,.66-1.13A1.54,1.54,0,0,0,90.89,23.5Zm0,0a.71.71,0,0,0-.7-.41,1.35,1.35,0,0,0-.94.4,2.52,2.52,0,0,0-.66,1.15,1.49,1.49,0,0,0,0,1.06.7.7,0,0,0,.7.4,1.34,1.34,0,0,0,.94-.41,2.55,2.55,0,0,0,.66-1.13A1.54,1.54,0,0,0,90.89,23.5Zm18.68-.13a.62.62,0,0,0-.59-.28,1.24,1.24,0,0,0-.79.3,2.27,2.27,0,0,0-.6.84h2l0-.05A1.19,1.19,0,0,0,109.57,23.37Zm9.77,1.28c-.83,0-1.32.24-1.47.73a.5.5,0,0,0,0,.5.64.64,0,0,0,.5.18,1.45,1.45,0,0,0,.65-.16,1.6,1.6,0,0,0,.55-.43l.25-.82Zm0,0c-.83,0-1.32.24-1.47.73a.5.5,0,0,0,0,.5.64.64,0,0,0,.5.18,1.45,1.45,0,0,0,.65-.16,1.6,1.6,0,0,0,.55-.43l.25-.82Zm-9.77-1.28a.62.62,0,0,0-.59-.28,1.24,1.24,0,0,0-.79.3,2.27,2.27,0,0,0-.6.84h2l0-.05A1.19,1.19,0,0,0,109.57,23.37Zm-18.68.13a.71.71,0,0,0-.7-.41,1.35,1.35,0,0,0-.94.4,2.52,2.52,0,0,0-.66,1.15,1.49,1.49,0,0,0,0,1.06.7.7,0,0,0,.7.4,1.34,1.34,0,0,0,.94-.41,2.55,2.55,0,0,0,.66-1.13A1.54,1.54,0,0,0,90.89,23.5Zm0,0a.71.71,0,0,0-.7-.41,1.35,1.35,0,0,0-.94.4,2.52,2.52,0,0,0-.66,1.15,1.49,1.49,0,0,0,0,1.06.7.7,0,0,0,.7.4,1.34,1.34,0,0,0,.94-.41,2.55,2.55,0,0,0,.66-1.13A1.54,1.54,0,0,0,90.89,23.5Zm18.68-.13a.62.62,0,0,0-.59-.28,1.24,1.24,0,0,0-.79.3,2.27,2.27,0,0,0-.6.84h2l0-.05A1.19,1.19,0,0,0,109.57,23.37Zm9.77,1.28c-.83,0-1.32.24-1.47.73a.5.5,0,0,0,0,.5.64.64,0,0,0,.5.18,1.45,1.45,0,0,0,.65-.16,1.6,1.6,0,0,0,.55-.43l.25-.82Zm0,0c-.83,0-1.32.24-1.47.73a.5.5,0,0,0,0,.5.64.64,0,0,0,.5.18,1.45,1.45,0,0,0,.65-.16,1.6,1.6,0,0,0,.55-.43l.25-.82Zm-9.77-1.28a.62.62,0,0,0-.59-.28,1.24,1.24,0,0,0-.79.3,2.27,2.27,0,0,0-.6.84h2l0-.05A1.19,1.19,0,0,0,109.57,23.37Zm-18.68.13a.71.71,0,0,0-.7-.41,1.35,1.35,0,0,0-.94.4,2.52,2.52,0,0,0-.66,1.15,1.49,1.49,0,0,0,0,1.06.7.7,0,0,0,.7.4,1.34,1.34,0,0,0,.94-.41,2.55,2.55,0,0,0,.66-1.13A1.54,1.54,0,0,0,90.89,23.5Zm0,0a.71.71,0,0,0-.7-.41,1.35,1.35,0,0,0-.94.4,2.52,2.52,0,0,0-.66,1.15,1.49,1.49,0,0,0,0,1.06.7.7,0,0,0,.7.4,1.34,1.34,0,0,0,.94-.41,2.55,2.55,0,0,0,.66-1.13A1.54,1.54,0,0,0,90.89,23.5Zm18.68-.13a.62.62,0,0,0-.59-.28,1.24,1.24,0,0,0-.79.3,2.27,2.27,0,0,0-.6.84h2l0-.05A1.19,1.19,0,0,0,109.57,23.37Zm9.77,1.28c-.83,0-1.32.24-1.47.73a.5.5,0,0,0,0,.5.64.64,0,0,0,.5.18,1.45,1.45,0,0,0,.65-.16,1.6,1.6,0,0,0,.55-.43l.25-.82Zm9.37-1.15a.7.7,0,0,0-.7-.41,1.35,1.35,0,0,0-.94.4,2.52,2.52,0,0,0-.66,1.15,1.49,1.49,0,0,0,0,1.06.7.7,0,0,0,.7.4,1.34,1.34,0,0,0,.94-.41,2.55,2.55,0,0,0,.66-1.13A1.49,1.49,0,0,0,128.71,23.5Zm0,0a.7.7,0,0,0-.7-.41,1.35,1.35,0,0,0-.94.4,2.52,2.52,0,0,0-.66,1.15,1.49,1.49,0,0,0,0,1.06.7.7,0,0,0,.7.4,1.34,1.34,0,0,0,.94-.41,2.55,2.55,0,0,0,.66-1.13A1.49,1.49,0,0,0,128.71,23.5Zm-9.37,1.15c-.83,0-1.32.24-1.47.73a.5.5,0,0,0,0,.5.64.64,0,0,0,.5.18,1.45,1.45,0,0,0,.65-.16,1.6,1.6,0,0,0,.55-.43l.25-.82Zm-9.77-1.28a.62.62,0,0,0-.59-.28,1.24,1.24,0,0,0-.79.3,2.27,2.27,0,0,0-.6.84h2l0-.05A1.19,1.19,0,0,0,109.57,23.37Zm-18.68.13a.71.71,0,0,0-.7-.41,1.35,1.35,0,0,0-.94.4,2.52,2.52,0,0,0-.66,1.15,1.49,1.49,0,0,0,0,1.06.7.7,0,0,0,.7.4,1.34,1.34,0,0,0,.94-.41,2.55,2.55,0,0,0,.66-1.13A1.54,1.54,0,0,0,90.89,23.5ZM78,19.27l-2.75,8.88H139l2.75-8.88Zm47,2.28a.59.59,0,0,1,.19-.28.47.47,0,0,1,.33-.11.29.29,0,0,1,.27.11.34.34,0,0,1,0,.28.57.57,0,0,1-.18.28.55.55,0,0,1-.34.11.28.28,0,0,1-.26-.11A.3.3,0,0,1,125,21.55ZM87.41,23.73l-.11.34a3.8,3.8,0,0,1-.7,1.32,3.14,3.14,0,0,1-2.46,1.19H82.66l1.65-5.35h1.51a1.9,1.9,0,0,1,1.14.31,1.37,1.37,0,0,1,.56.88A2.78,2.78,0,0,1,87.41,23.73Zm4.13.86v.05a3.35,3.35,0,0,1-.55,1,2.83,2.83,0,0,1-.86.72,2.21,2.21,0,0,1-1,.25A1.18,1.18,0,0,1,88,26.09a1.83,1.83,0,0,1,0-1.49v0a3.17,3.17,0,0,1,.56-1.06,2.67,2.67,0,0,1,.86-.72,2.25,2.25,0,0,1,1-.25,1.22,1.22,0,0,1,1.14.56A1.86,1.86,0,0,1,91.54,24.59Zm2.73,2-.81-1.84-.57.44-.43,1.4h-.68l1.75-5.64h.68l-1.06,3.41.5-.44,1.64-1.31h.83l-2.06,1.67,1,2.31Zm3.79,0,.11-.39a2,2,0,0,1-1.31.46.91.91,0,0,1-.86-.37,1.43,1.43,0,0,1,0-1.09l.8-2.59h.68l-.79,2.57c-.19.6,0,.91.46.91a1.44,1.44,0,0,0,1.21-.58l.89-2.9h.68l-1.22,4Zm8.07-2.66-.82,2.66h-.68l.81-2.62a.77.77,0,0,0,0-.64c-.08-.14-.28-.21-.59-.21a1.16,1.16,0,0,0-.69.22,1.32,1.32,0,0,0-.48.61l-.82,2.64h-.68L103,24c.18-.58,0-.87-.58-.87a1.3,1.3,0,0,0-1.09.57l-.9,2.9h-.68l1.23-4h.65l-.12.45a2,2,0,0,1,1.34-.52c.55,0,.87.21.93.64a2.45,2.45,0,0,1,.66-.46,1.85,1.85,0,0,1,.81-.18C106.1,22.53,106.4,23,106.13,23.92Zm4,.87h-2.7a1.21,1.21,0,0,0,0,.95.79.79,0,0,0,.73.36,1.38,1.38,0,0,0,.65-.15,2.35,2.35,0,0,0,.56-.39l.32.33a2.33,2.33,0,0,1-1.74.76,1.25,1.25,0,0,1-1.15-.53,1.66,1.66,0,0,1-.07-1.42l0-.12a3.24,3.24,0,0,1,.55-1.06,2.84,2.84,0,0,1,.86-.73,2.07,2.07,0,0,1,1-.26,1.08,1.08,0,0,1,1,.51,2,2,0,0,1,0,1.46Zm4.17-.84-.81,2.63h-.68l.81-2.63a.77.77,0,0,0,0-.64.62.62,0,0,0-.54-.2,1.29,1.29,0,0,0-.63.17,2,2,0,0,0-.53.47L111,26.58h-.68l1.23-4h.64l-.13.5a2,2,0,0,1,1.37-.57C114.27,22.53,114.54,23,114.26,24Zm1.43,2q.06.12.3.12a1.76,1.76,0,0,0,.33,0l-.17.55a2.11,2.11,0,0,1-.54.07.62.62,0,0,1-.6-.27,1,1,0,0,1,0-.78l.76-2.47h-.72l.16-.53h.72l.3-1h.68l-.3,1h.75l-.17.53h-.74l-.76,2.47A.45.45,0,0,0,115.69,26Zm5.12-2.14-.56,1.83a2,2,0,0,0-.13.87l0,.06h-.72a1.48,1.48,0,0,1,0-.42,2.06,2.06,0,0,1-1.29.49,1.07,1.07,0,0,1-.86-.33.84.84,0,0,1-.11-.84,1.61,1.61,0,0,1,.77-1,2.73,2.73,0,0,1,1.43-.34H120l.1-.31a.54.54,0,0,0-.6-.78,1.29,1.29,0,0,0-.67.18.78.78,0,0,0-.38.45h-.68a1.42,1.42,0,0,1,.38-.58,2.43,2.43,0,0,1,.71-.44,2.29,2.29,0,0,1,.85-.16,1.19,1.19,0,0,1,1,.34A1,1,0,0,1,120.81,23.82ZM122.24,26q.06.12.3.12a2,2,0,0,0,.34,0l-.17.55a2.24,2.24,0,0,1-.55.07.62.62,0,0,1-.6-.27,1,1,0,0,1,0-.78l.76-2.47h-.72l.16-.53h.72l.3-1h.68l-.3,1h.75l-.17.53H123l-.76,2.47A.5.5,0,0,0,122.24,26Zm2,.62h-.68l1.23-4h.68Zm5.14-2v.05a3.35,3.35,0,0,1-.55,1,2.83,2.83,0,0,1-.86.72,2.18,2.18,0,0,1-1,.25,1.19,1.19,0,0,1-1.13-.56,1.83,1.83,0,0,1,0-1.49v0a3.17,3.17,0,0,1,.56-1.06,2.67,2.67,0,0,1,.86-.72,2.25,2.25,0,0,1,1-.25,1.22,1.22,0,0,1,1.14.56A1.86,1.86,0,0,1,129.36,24.59Zm4.18-.64-.82,2.63H132l.82-2.63a.86.86,0,0,0,0-.64.62.62,0,0,0-.54-.2,1.29,1.29,0,0,0-.63.17,2,2,0,0,0-.54.47l-.87,2.83h-.68l1.23-4h.64l-.13.5a2,2,0,0,1,1.37-.57C133.55,22.53,133.82,23,133.54,24ZM128,23.09a1.35,1.35,0,0,0-.94.4,2.52,2.52,0,0,0-.66,1.15,1.49,1.49,0,0,0,0,1.06.7.7,0,0,0,.7.4,1.34,1.34,0,0,0,.94-.41,2.55,2.55,0,0,0,.66-1.13,1.49,1.49,0,0,0,0-1.06A.7.7,0,0,0,128,23.09Zm-10.14,2.29a.5.5,0,0,0,0,.5.64.64,0,0,0,.5.18,1.45,1.45,0,0,0,.65-.16,1.6,1.6,0,0,0,.55-.43l.25-.82h-.53C118.51,24.65,118,24.89,117.87,25.38ZM109,23.09a1.24,1.24,0,0,0-.79.3,2.27,2.27,0,0,0-.6.84h2l0-.05a1.19,1.19,0,0,0,0-.81A.62.62,0,0,0,109,23.09Zm-18.79,0a1.35,1.35,0,0,0-.94.4,2.52,2.52,0,0,0-.66,1.15,1.49,1.49,0,0,0,0,1.06.7.7,0,0,0,.7.4,1.34,1.34,0,0,0,.94-.41,2.55,2.55,0,0,0,.66-1.13,1.54,1.54,0,0,0,0-1.06A.71.71,0,0,0,90.19,23.09Zm.7.41a.71.71,0,0,0-.7-.41,1.35,1.35,0,0,0-.94.4,2.52,2.52,0,0,0-.66,1.15,1.49,1.49,0,0,0,0,1.06.7.7,0,0,0,.7.4,1.34,1.34,0,0,0,.94-.41,2.55,2.55,0,0,0,.66-1.13A1.54,1.54,0,0,0,90.89,23.5Zm18.68-.13a.62.62,0,0,0-.59-.28,1.24,1.24,0,0,0-.79.3,2.27,2.27,0,0,0-.6.84h2l0-.05A1.19,1.19,0,0,0,109.57,23.37Zm9.77,1.28c-.83,0-1.32.24-1.47.73a.5.5,0,0,0,0,.5.64.64,0,0,0,.5.18,1.45,1.45,0,0,0,.65-.16,1.6,1.6,0,0,0,.55-.43l.25-.82Zm0,0c-.83,0-1.32.24-1.47.73a.5.5,0,0,0,0,.5.64.64,0,0,0,.5.18,1.45,1.45,0,0,0,.65-.16,1.6,1.6,0,0,0,.55-.43l.25-.82Zm-9.77-1.28a.62.62,0,0,0-.59-.28,1.24,1.24,0,0,0-.79.3,2.27,2.27,0,0,0-.6.84h2l0-.05A1.19,1.19,0,0,0,109.57,23.37Zm-18.68.13a.71.71,0,0,0-.7-.41,1.35,1.35,0,0,0-.94.4,2.52,2.52,0,0,0-.66,1.15,1.49,1.49,0,0,0,0,1.06.7.7,0,0,0,.7.4,1.34,1.34,0,0,0,.94-.41,2.55,2.55,0,0,0,.66-1.13A1.54,1.54,0,0,0,90.89,23.5Zm0,0a.71.71,0,0,0-.7-.41,1.35,1.35,0,0,0-.94.4,2.52,2.52,0,0,0-.66,1.15,1.49,1.49,0,0,0,0,1.06.7.7,0,0,0,.7.4,1.34,1.34,0,0,0,.94-.41,2.55,2.55,0,0,0,.66-1.13A1.54,1.54,0,0,0,90.89,23.5Zm18.68-.13a.62.62,0,0,0-.59-.28,1.24,1.24,0,0,0-.79.3,2.27,2.27,0,0,0-.6.84h2l0-.05A1.19,1.19,0,0,0,109.57,23.37Zm9.77,1.28c-.83,0-1.32.24-1.47.73a.5.5,0,0,0,0,.5.64.64,0,0,0,.5.18,1.45,1.45,0,0,0,.65-.16,1.6,1.6,0,0,0,.55-.43l.25-.82Zm0,0c-.83,0-1.32.24-1.47.73a.5.5,0,0,0,0,.5.64.64,0,0,0,.5.18,1.45,1.45,0,0,0,.65-.16,1.6,1.6,0,0,0,.55-.43l.25-.82Zm-9.77-1.28a.62.62,0,0,0-.59-.28,1.24,1.24,0,0,0-.79.3,2.27,2.27,0,0,0-.6.84h2l0-.05A1.19,1.19,0,0,0,109.57,23.37Zm-18.68.13a.71.71,0,0,0-.7-.41,1.35,1.35,0,0,0-.94.4,2.52,2.52,0,0,0-.66,1.15,1.49,1.49,0,0,0,0,1.06.7.7,0,0,0,.7.4,1.34,1.34,0,0,0,.94-.41,2.55,2.55,0,0,0,.66-1.13A1.54,1.54,0,0,0,90.89,23.5Zm0,0a.71.71,0,0,0-.7-.41,1.35,1.35,0,0,0-.94.4,2.52,2.52,0,0,0-.66,1.15,1.49,1.49,0,0,0,0,1.06.7.7,0,0,0,.7.4,1.34,1.34,0,0,0,.94-.41,2.55,2.55,0,0,0,.66-1.13A1.54,1.54,0,0,0,90.89,23.5Zm18.68-.13a.62.62,0,0,0-.59-.28,1.24,1.24,0,0,0-.79.3,2.27,2.27,0,0,0-.6.84h2l0-.05A1.19,1.19,0,0,0,109.57,23.37Zm0,0a.62.62,0,0,0-.59-.28,1.24,1.24,0,0,0-.79.3,2.27,2.27,0,0,0-.6.84h2l0-.05A1.19,1.19,0,0,0,109.57,23.37Zm-18.68.13a.71.71,0,0,0-.7-.41,1.35,1.35,0,0,0-.94.4,2.52,2.52,0,0,0-.66,1.15,1.49,1.49,0,0,0,0,1.06.7.7,0,0,0,.7.4,1.34,1.34,0,0,0,.94-.41,2.55,2.55,0,0,0,.66-1.13A1.54,1.54,0,0,0,90.89,23.5Zm0,0a.71.71,0,0,0-.7-.41,1.35,1.35,0,0,0-.94.4,2.52,2.52,0,0,0-.66,1.15,1.49,1.49,0,0,0,0,1.06.7.7,0,0,0,.7.4,1.34,1.34,0,0,0,.94-.41,2.55,2.55,0,0,0,.66-1.13A1.54,1.54,0,0,0,90.89,23.5Zm18.68-.13a.62.62,0,0,0-.59-.28,1.24,1.24,0,0,0-.79.3,2.27,2.27,0,0,0-.6.84h2l0-.05A1.19,1.19,0,0,0,109.57,23.37Zm0,0a.62.62,0,0,0-.59-.28,1.24,1.24,0,0,0-.79.3,2.27,2.27,0,0,0-.6.84h2l0-.05A1.19,1.19,0,0,0,109.57,23.37Zm-18.68.13a.71.71,0,0,0-.7-.41,1.35,1.35,0,0,0-.94.4,2.52,2.52,0,0,0-.66,1.15,1.49,1.49,0,0,0,0,1.06.7.7,0,0,0,.7.4,1.34,1.34,0,0,0,.94-.41,2.55,2.55,0,0,0,.66-1.13A1.54,1.54,0,0,0,90.89,23.5Zm0,0a.71.71,0,0,0-.7-.41,1.35,1.35,0,0,0-.94.4,2.52,2.52,0,0,0-.66,1.15,1.49,1.49,0,0,0,0,1.06.7.7,0,0,0,.7.4,1.34,1.34,0,0,0,.94-.41,2.55,2.55,0,0,0,.66-1.13A1.54,1.54,0,0,0,90.89,23.5Zm0,0a.71.71,0,0,0-.7-.41,1.35,1.35,0,0,0-.94.4,2.52,2.52,0,0,0-.66,1.15,1.49,1.49,0,0,0,0,1.06.7.7,0,0,0,.7.4,1.34,1.34,0,0,0,.94-.41,2.55,2.55,0,0,0,.66-1.13A1.54,1.54,0,0,0,90.89,23.5Zm0,0a.71.71,0,0,0-.7-.41,1.35,1.35,0,0,0-.94.4,2.52,2.52,0,0,0-.66,1.15,1.49,1.49,0,0,0,0,1.06.7.7,0,0,0,.7.4,1.34,1.34,0,0,0,.94-.41,2.55,2.55,0,0,0,.66-1.13A1.54,1.54,0,0,0,90.89,23.5Zm0,0a.71.71,0,0,0-.7-.41,1.35,1.35,0,0,0-.94.4,2.52,2.52,0,0,0-.66,1.15,1.49,1.49,0,0,0,0,1.06.7.7,0,0,0,.7.4,1.34,1.34,0,0,0,.94-.41,2.55,2.55,0,0,0,.66-1.13A1.54,1.54,0,0,0,90.89,23.5Z"/></g></g></svg>