<svg xmlns="http://www.w3.org/2000/svg" viewBox="0 0 405.97 351"><defs><style>.cls-1,.cls-2{fill:#fff;}.cls-2{font-size:60.99px;font-family:Teko-Regular, Teko;}</style></defs><g id="Ebene_2" data-name="Ebene 2"><g id="Ebene_1-2" data-name="Ebene 1"><path class="cls-1" d="M120,223.49,77.1,180.38a8.53,8.53,0,0,0-12.08,0L39,206.3a8.52,8.52,0,0,0-2.52,6L36,256.41a8.55,8.55,0,0,1-8.61,8.48l-18.91-.15A8.54,8.54,0,0,1,0,256.14V8.48A8.54,8.54,0,0,1,8.6,0H27.52A8.54,8.54,0,0,1,36,8.6l1,128.27A8.54,8.54,0,0,0,51.55,143L193.07,2.48a8.55,8.55,0,0,1,12.08,0L218.47,16a8.53,8.53,0,0,1,0,12.08L102.68,143a8.55,8.55,0,0,0,0,12.08l42.83,43.16a8.53,8.53,0,0,1,0,12.07l-13.36,13.26A8.54,8.54,0,0,1,120,223.49Z"/><path class="cls-1" d="M234.07,131.39,223.49,142a10.67,10.67,0,0,0,0,15.08l57.16,57.16c4.16,4.16,2,13.08-2.17,17.24l-41.15,41.16c-4.17,4.16-11.81,5.05-16,.89L176.1,228.24a10.67,10.67,0,0,0-15.08,0l-10.58,10.58a10.67,10.67,0,0,0,0,15.08l70.92,70.91a10.65,10.65,0,0,0,15.08,0L332,229.29a10.65,10.65,0,0,0,0-15.08l-82.81-82.82A10.67,10.67,0,0,0,234.07,131.39Z"/><path class="cls-1" d="M235.77,239.6,246.35,229a10.65,10.65,0,0,0,0-15.08L189.2,156.78c-4.17-4.16-2-13.08,2.16-17.24l41.16-41.16c4.16-4.16,11.8-5,16-.89l45.25,45.26a10.67,10.67,0,0,0,15.08,0l10.58-10.58a10.67,10.67,0,0,0,0-15.08L248.49,46.18a10.65,10.65,0,0,0-15.08,0L137.88,141.7a10.67,10.67,0,0,0,0,15.08L220.7,239.6A10.66,10.66,0,0,0,235.77,239.6Z"/><text class="cls-2" transform="translate(301.86 326.97)">GmbH</text></g></g></svg>