<?xml version="1.0" encoding="utf-8"?>
<!-- Generator: Adobe Illustrator 25.2.1, SVG Export Plug-In . SVG Version: 6.00 Build 0)  -->
<svg version="1.1" id="Ebene_1" xmlns="http://www.w3.org/2000/svg" xmlns:xlink="http://www.w3.org/1999/xlink" x="0px" y="0px"
	 viewBox="0 0 758.9 606.8" style="enable-background:new 0 0 758.9 606.8;" xml:space="preserve">
<style type="text/css">
	.st0{fill:#FFFFFF;}
	.st1{font-family:'NunitoSans-Regular';}
	.st2{font-size:69.38px;}
	.st3{font-family:'NunitoSans-ExtraLight';}
	.st4{font-size:55.5px;}
	.st5{letter-spacing:3;}
	.st6{letter-spacing:6;}
</style>
<g id="Ebene_2_1_">
	<g id="Ebene_2-2">
		<text transform="matrix(1 0 0 1 0 525.69)" class="st0 st1 st2">Special Solutions GmbH</text>
		<path class="st0" d="M372.9,422.2l-50.5-22l-3.5-1.5l1.1-3.2l8.5-24.4l-0.8-1c-0.2,0-0.4-0.1-0.5-0.3l-8.7,25.2l-1.4,3.9
			c-0.1,0.4,0.1,0.9,0.5,1l4.3,1.9l53.6,23.4L372.9,422.2z"/>
		<polygon class="st0" points="371.1,133.5 327.6,163.6 283.2,194.2 287.3,158.9 288.7,146.3 327.3,140.3 		"/>
		<path class="st0" d="M296.3,142.3l-0.1,0.1l27-4.2L296.3,142.3z M330.1,165.3l45.6-31.4v-0.1L330.1,165.3z M280.3,194.1
			L280.3,194.1L280.3,194.1l4.1-35L280.3,194.1z"/>
		<polygon class="st0" points="123,12.3 181.4,95.9 163,151.2 		"/>
		<path class="st0" d="M635.8,4.4L635.8,4.4c0-0.1,0-0.1-0.1-0.2c0-0.1-0.1-0.1-0.2-0.2c-0.1-0.1-0.1-0.1-0.2-0.1
			c-0.1,0-0.1,0-0.2-0.1H635c-0.1,0-0.1,0-0.2,0h-0.1c-0.2,0-0.3,0.2-0.5,0.3c0,0.1-0.1,0.2-0.1,0.2l-1.3,4.4l-0.1,0.5l-40.7,141.3
			l-0.7,2.5l0,0l-0.8,2.6c-0.1,0.2,0,0.4,0.1,0.6c0.1,0.2,0.3,0.3,0.5,0.4c0.1,0,0.1,0,0.2,0h0.2l0.2-0.1l0.1-0.1l0,0l0,0l0,0l0,0
			h0.1l3.6-3.3l27.8-25.7c0.1-0.1,0.2-0.3,0.3-0.5L635.3,9.2l0.5-4.5V4.6C635.8,4.5,635.8,4.5,635.8,4.4z M622,126.4l-27.4,25.4
			l-1.6,1.4l0,0l0.6-2.1l37.9-131.4l1.7-6L622,126.4z"/>
		<path class="st0" d="M592.2,155.6l-0.9-2.6l0,0l-0.8-2.5l-18-54.2l-0.2-0.7l-0.1-0.4c-0.1-0.4-0.6-0.7-1-0.5
			c-0.1,0-0.3,0.1-0.4,0.2l-0.1,0.1l0,0c-0.2,0.2-0.2,0.5-0.1,0.8V96l0.1,0.3l0.3,0.9l0.2,0.6l17.8,53.4l1.4,4.2l-3.4,1.2l0,0
			l-109.9,38.3l-2.4,2.5l0.1,0.1l113-39.4l3.7-1.3l0.2-0.1l0.1-0.1l0,0l0,0l0,0h0.1c0.1-0.1,0.2-0.2,0.2-0.4
			C592.2,156.1,592.2,155.8,592.2,155.6z"/>
		<polygon class="st0" points="426,364.8 379.7,241.7 459.2,281 		"/>
		<polygon class="st0" points="189.4,100.2 285.9,146 284.4,159 280.4,194.1 280.3,194.1 280.3,194.1 		"/>
		<polygon class="st0" points="375.7,133.7 375.7,236.7 284.3,197 330.1,165.3 		"/>
		<polygon class="st0" points="434.7,398.3 382.2,421.2 425.1,371.3 		"/>
		<polygon class="st0" points="348.5,116.1 373,130.3 323.2,138.1 296.1,142.3 296.3,142.3 		"/>
		<polygon class="st0" points="405.8,116.1 458.1,142.3 381.3,130.3 		"/>
		<polygon class="st0" points="378.5,236.7 378.5,133.7 470,197 		"/>
		<path class="st0" d="M470,197l-91.5,39.7"/>
		<polygon class="st0" points="374.4,242.1 349.2,309.2 328,364.7 295.2,280.9 317,270.1 		"/>
		<path class="st0" d="M352,309.8l23.8-62.3v-1L352,309.8z M294.4,278L294.4,278v0.1l0,0l20.4-10.1L294.4,278z"/>
		<polygon class="st0" points="471.1,194.3 383,133.4 465.6,146.3 465.6,146.3 466.5,154.6 		"/>
		<polygon class="st0" points="122.2,19.8 160.2,151.5 132.8,126.2 		"/>
		<polygon class="st0" points="164.7,155 183.6,98.3 276.3,194 		"/>
		<polygon class="st0" points="373.8,238.9 314.8,268 294.4,278.1 294.4,278.1 294.4,278 294.4,278 283.2,199.5 		"/>
		<path class="st0" d="M280.5,200.7l11,76.8l0,0L280.5,200.7z"/>
		<polygon class="st0" points="291.5,277.4 291.5,277.4 243.9,246.5 280.5,200.7 		"/>
		<path class="st0" d="M294.4,278L294.4,278v0.1l0,0V278z"/>
		<polygon class="st0" points="510.4,246.5 462.8,277.4 473.8,200.7 		"/>
		<polygon class="st0" points="352,309.8 375.7,246.5 375.7,421.2 330,368.4 		"/>
		<polygon class="st0" points="564.9,100.2 473.9,194.1 468.4,146 		"/>
		<polygon class="st0" points="571.3,95.7 570.7,96.3 570.5,96 		"/>
		<path class="st0" d="M572.6,95.2c0-0.1-0.1-0.3-0.2-0.4c-0.3-0.4-0.7-0.6-1.2-0.6l-0.6,0.9l0,0c-0.2,0.2-0.2,0.5-0.1,0.8V96
			l0.1,0.3l0.3,0.9l0.2,0.6l1.2-1.2c0.1-0.1,0.1-0.1,0.1-0.2l-0.2-0.7L572.6,95.2z"/>
		<path class="st0" d="M572.5,96.5c0,0.1-0.1,0.1-0.1,0.2l-1.2,1.2l17.8,53.4l0,0c0.1-0.1,0.3-0.2,0.4-0.2l0.2-0.1
			c0.3-0.1,0.6-0.2,0.9-0.3L572.5,96.5z M572.5,96.5c0,0.1-0.1,0.1-0.1,0.2l-1.2,1.2l17.8,53.4l0,0c0.1-0.1,0.3-0.2,0.4-0.2l0.2-0.1
			c0.3-0.1,0.6-0.2,0.9-0.3L572.5,96.5z M572.5,96.5c0,0.1-0.1,0.1-0.1,0.2l-1.2,1.2l17.8,53.4l0,0c0.1-0.1,0.3-0.2,0.4-0.2l0.2-0.1
			c0.3-0.1,0.6-0.2,0.9-0.3L572.5,96.5z M572.5,96.5c0,0.1-0.1,0.1-0.1,0.2l-1.2,1.2l17.8,53.4l0,0c0.1-0.1,0.3-0.2,0.4-0.2l0.2-0.1
			c0.3-0.1,0.6-0.2,0.9-0.3L572.5,96.5z M572.5,96.5c0,0.1-0.1,0.1-0.1,0.2l-1.2,1.2l17.8,53.4l0,0c0.1-0.1,0.3-0.2,0.4-0.2l0.2-0.1
			c0.3-0.1,0.6-0.2,0.9-0.3L572.5,96.5z M572.5,96.5c0,0.1-0.1,0.1-0.1,0.2l-1.2,1.2l17.8,53.4l0,0c0.1-0.1,0.3-0.2,0.4-0.2l0.2-0.1
			c0.3-0.1,0.6-0.2,0.9-0.3L572.5,96.5z M572.5,96.5c0,0.1-0.1,0.1-0.1,0.2l-1.2,1.2l17.8,53.4l0,0c0.1-0.1,0.3-0.2,0.4-0.2l0.2-0.1
			c0.3-0.1,0.6-0.2,0.9-0.3L572.5,96.5z M572.5,96.5c0,0.1-0.1,0.1-0.1,0.2l-1.2,1.2l17.8,53.4l0,0c0.1-0.1,0.3-0.2,0.4-0.2l0.2-0.1
			c0.3-0.1,0.6-0.2,0.9-0.3L572.5,96.5z M572.5,96.5c0,0.1-0.1,0.1-0.1,0.2l-1.2,1.2l17.8,53.4l0,0c0.1-0.1,0.3-0.2,0.4-0.2l0.2-0.1
			c0.3-0.1,0.6-0.2,0.9-0.3L572.5,96.5z M572.5,96.5c0,0.1-0.1,0.1-0.1,0.2l-1.2,1.2l17.8,53.4l0,0c0.1-0.1,0.3-0.2,0.4-0.2l0.2-0.1
			c0.3-0.1,0.6-0.2,0.9-0.3L572.5,96.5z M572.5,96.5c0,0.1-0.1,0.1-0.1,0.2l-1.2,1.2l17.8,53.4l0,0c0.1-0.1,0.3-0.2,0.4-0.2l0.2-0.1
			c0.3-0.1,0.6-0.2,0.9-0.3L572.5,96.5z M572.5,96.5c0,0.1-0.1,0.1-0.1,0.2l-1.2,1.2l17.8,53.4l0,0c0.1-0.1,0.3-0.2,0.4-0.2l0.2-0.1
			c0.3-0.1,0.6-0.2,0.9-0.3L572.5,96.5z M572.5,96.5c0,0.1-0.1,0.1-0.1,0.2l-1.2,1.2l17.8,53.4l0,0c0.1-0.1,0.3-0.2,0.4-0.2l0.2-0.1
			c0.3-0.1,0.6-0.2,0.9-0.3L572.5,96.5z M572.5,96.5c0,0.1-0.1,0.1-0.1,0.2l-1.2,1.2l17.8,53.4l0,0c0.1-0.1,0.3-0.2,0.4-0.2l0.2-0.1
			c0.3-0.1,0.6-0.2,0.9-0.3L572.5,96.5z M635.8,4.5L635.8,4.5c0-0.1,0-0.1-0.1-0.2c0-0.1-0.1-0.1-0.2-0.2c-0.1-0.1-0.1-0.1-0.2-0.1
			c-0.1,0-0.1,0-0.2-0.1H635c-0.1,0-0.1,0-0.2,0h-0.1c-0.2,0-0.3,0.2-0.5,0.3l-2.6,3.7l-60.4,86.3l-0.6,0.9l0,0
			c-0.2,0.2-0.2,0.5-0.1,0.8V96l0.1,0.3l0.3,0.9l0.2,0.6l17.8,53.4l1.4,4.2l0.3,0.8c0,0,0,0.1,0.1,0.1c0.1,0.2,0.3,0.3,0.5,0.4
			c0.1,0,0.1,0,0.2,0h0.2l0.2-0.1l0.1-0.1l0,0l0,0l0,0h0.1c0.1-0.1,0.2-0.2,0.2-0.4l0.8-2.9l0,0l0.6-2.1l38-131.5l1.7-6l1.3-4.5
			l1.3-4.4c0-0.1,0-0.2,0-0.2C635.8,4.5,635.8,4.5,635.8,4.5L635.8,4.5z M592,150.6l-0.7,2.5l-0.8-2.5l-18-54.2l-0.2-0.7l0.4-0.6
			l60.1-86L592,150.6z M572.5,96.5c0,0.1-0.1,0.1-0.1,0.2l-1.2,1.2l17.8,53.4l0,0c0.1-0.1,0.3-0.2,0.4-0.2l0.2-0.1
			c0.3-0.1,0.6-0.2,0.9-0.3L572.5,96.5z M572.5,96.5c0,0.1-0.1,0.1-0.1,0.2l-1.2,1.2l17.8,53.4l0,0c0.1-0.1,0.3-0.2,0.4-0.2l0.2-0.1
			c0.3-0.1,0.6-0.2,0.9-0.3L572.5,96.5z M572.5,96.5c0,0.1-0.1,0.1-0.1,0.2l-1.2,1.2l17.8,53.4l0,0c0.1-0.1,0.3-0.2,0.4-0.2l0.2-0.1
			c0.3-0.1,0.6-0.2,0.9-0.3L572.5,96.5z M572.5,96.5c0,0.1-0.1,0.1-0.1,0.2l-1.2,1.2l17.8,53.4l0,0c0.1-0.1,0.3-0.2,0.4-0.2l0.2-0.1
			c0.3-0.1,0.6-0.2,0.9-0.3L572.5,96.5z M572.5,96.5c0,0.1-0.1,0.1-0.1,0.2l-1.2,1.2l17.8,53.4l0,0c0.1-0.1,0.3-0.2,0.4-0.2l0.2-0.1
			c0.3-0.1,0.6-0.2,0.9-0.3L572.5,96.5z M572.5,96.5c0,0.1-0.1,0.1-0.1,0.2l-1.2,1.2l17.8,53.4l0,0c0.1-0.1,0.3-0.2,0.4-0.2l0.2-0.1
			c0.3-0.1,0.6-0.2,0.9-0.3L572.5,96.5z M572.5,96.5c0,0.1-0.1,0.1-0.1,0.2l-1.2,1.2l17.8,53.4l0,0c0.1-0.1,0.3-0.2,0.4-0.2l0.2-0.1
			c0.3-0.1,0.6-0.2,0.9-0.3L572.5,96.5z M572.5,96.5c0,0.1-0.1,0.1-0.1,0.2l-1.2,1.2l17.8,53.4l0,0c0.1-0.1,0.3-0.2,0.4-0.2l0.2-0.1
			c0.3-0.1,0.6-0.2,0.9-0.3L572.5,96.5z M572.5,96.5c0,0.1-0.1,0.1-0.1,0.2l-1.2,1.2l17.8,53.4l0,0c0.1-0.1,0.3-0.2,0.4-0.2l0.2-0.1
			c0.3-0.1,0.6-0.2,0.9-0.3L572.5,96.5z M572.5,96.5c0,0.1-0.1,0.1-0.1,0.2l-1.2,1.2l17.8,53.4l0,0c0.1-0.1,0.3-0.2,0.4-0.2l0.2-0.1
			c0.3-0.1,0.6-0.2,0.9-0.3L572.5,96.5z M572.5,96.5c0,0.1-0.1,0.1-0.1,0.2l-1.2,1.2l17.8,53.4l0,0c0.1-0.1,0.3-0.2,0.4-0.2l0.2-0.1
			c0.3-0.1,0.6-0.2,0.9-0.3L572.5,96.5z M572.5,96.5c0,0.1-0.1,0.1-0.1,0.2l-1.2,1.2l17.8,53.4l0,0c0.1-0.1,0.3-0.2,0.4-0.2l0.2-0.1
			c0.3-0.1,0.6-0.2,0.9-0.3L572.5,96.5z M572.5,96.5c0,0.1-0.1,0.1-0.1,0.2l-1.2,1.2l17.8,53.4l0,0c0.1-0.1,0.3-0.2,0.4-0.2l0.2-0.1
			c0.3-0.1,0.6-0.2,0.9-0.3L572.5,96.5z"/>
		<circle class="st0" cx="317.8" cy="399.4" r="4.6"/>
		<path class="st0" d="M596,155.1c0.1,2.6-2,4.7-4.5,4.7c-1.4,0-2.8-0.6-3.7-1.7c-0.4-0.4-0.6-0.9-0.8-1.5l0,0c-0.6-2,0.2-4.2,2-5.3
			l0,0c0.1-0.1,0.3-0.2,0.4-0.2l0.2-0.1c0.3-0.1,0.6-0.2,0.9-0.3c0.3-0.1,0.5-0.1,0.8-0.1c0.2,0,0.5,0,0.7,0
			c0.6,0.1,1.1,0.3,1.6,0.5l0,0c0.3,0.2,0.7,0.4,0.9,0.7C595.5,152.6,596,153.8,596,155.1L596,155.1z"/>
		<circle class="st0" cx="635" cy="4.6" r="4.6"/>
		<text transform="matrix(1 0 0 1 167.27 592.59)" class="st0 st3 st4 st5">W</text>
		<text transform="matrix(1 0 0 1 231.71 592.59)" class="st0 st3 st4 st6">e </text>
		<text transform="matrix(1 0 0 1 288.21 592.59)" class="st0 st3 st4 st6">r</text>
		<text transform="matrix(1 0 0 1 313.13 592.59)" class="st0 st3 st4 st6">eali</text>
		<text transform="matrix(1 0 0 1 422.8 592.59)" class="st0 st3 st4 st6">z</text>
		<text transform="matrix(1 0 0 1 456.6 592.59)" class="st0 st3 st4 st6">e I</text>
		<text transform="matrix(1 0 0 1 533.3 592.59)" class="st0 st3 st4 st6">T</text>
		<text transform="matrix(1 0 0 1 572.76 592.59)" class="st0 st3 st4 st6">!</text>
	</g>
</g>
</svg>
