<svg xmlns="http://www.w3.org/2000/svg" viewBox="0 0 2999.99 1050"><defs><style>.cls-1{fill:#fff;}</style></defs><g id="Ebene_2" data-name="Ebene 2"><g id="svg8"><g id="g1383"><path id="path1385" class="cls-1" d="M2877.51,273.77v23.38H2926V478.6h25.47V297.15H3000V273.77H2877.51"/><path id="path1387" class="cls-1" d="M2706.67,273.77h-122.5v23.38h48.51V478.6h25.48V297.15h48.51V273.77"/><path id="path1389" class="cls-1" d="M2522.78,478.6h25.49V273.77h-25.49V478.6"/><path id="path1391" class="cls-1" d="M2425.53,357.46l-14.64-5.71c-12.73-4.89-28.44-13.3-28.44-29.34,0-17.94,17.89-29.06,34.14-29.06,15.45,0,25.2,6.5,32.78,19.28l20.33-12.23c-11.1-19.84-29.79-31-52.57-31-30.88,0-60.17,19.83-60.17,53,0,28.52,21.15,41.85,44.45,51.88l14.1,6c17.6,7.34,35.22,16.85,35.22,38.85,0,21.46-15.72,39.93-37.66,39.93s-39.84-16.3-39.58-38.84l-25.75,5.46c4.35,32.85,30.1,57.29,63.15,57.29,36.6,0,65.32-26.6,65.32-63.84,0-34.23-21.69-50.25-50.68-61.66"/><path id="path1393" class="cls-1" d="M2146.07,455.26h-84.29V377.83h81.84V354.47h-81.84V297.15h84.29V273.77H2036.32V478.6h109.75V455.26"/><path id="path1395" class="cls-1" d="M2009.88,273.77H1982l-60.71,151.6-61-151.6h-27.91l88.89,215.73,88.63-215.73"/><path id="path1397" class="cls-1" d="M1805.77,273.77h-25.48V478.6h25.48V273.77"/><path id="path1399" class="cls-1" d="M1571.2,326l153.37,161.1V273.77h-25.46V425.1L1545.72,264V478.6h25.48V326"/><path id="path1401" class="cls-1" d="M1424.8,483c46.88,0,74.79-34.5,74.79-79.6V273.77h-25.47V394.68c0,33.4-10,64.37-49.32,64.37s-49.32-31-49.32-64.37V273.77H1350V403.36c0,45.1,27.92,79.6,74.8,79.6"/><path id="path1403" class="cls-1" d="M2233.58,370.77h-8.13V296.61h6.78c25.2,0,55.56,4.6,55.56,36.67,0,32.6-28.18,37.49-54.21,37.49Zm78.06-38.57c0-19.57-9.76-38.85-26.85-48.92-16.25-9.21-35.75-9.51-53.92-9.51H2200V478.6h25.46V392H2236l60.15,86.65h30.9l-64.5-89.08c29.55-3.54,49.06-28,49.06-57.32"/><path id="path1405" class="cls-1" d="M2832.14,305a16.43,16.43,0,1,0-16.53-16.55A16.37,16.37,0,0,0,2832.14,305"/><path id="path1407" class="cls-1" d="M2755.65,403.9l36.3-82.85,36.33,82.85Zm-61.24,74.7h27.36l23.31-51.33h93.75l23.31,51.33h27.39L2792,265.1l-97.54,213.5"/><path id="path1409" class="cls-1" d="M2751.77,305a16.43,16.43,0,1,0-16.27-16.55A16.43,16.43,0,0,0,2751.77,305"/><path id="path1411" class="cls-1" d="M1375.47,576.81H1350V781.65h87.52V758.29h-62V576.81"/><path id="path1413" class="cls-1" d="M2181.26,701.77h52.85c-1.09,33.43-35.21,60.86-66.94,60.86-44.17,0-79.4-40.74-79.4-83.66,0-45.92,35.78-83.15,81.58-83.15,24.94,0,49.58,13.31,64.22,33.43l17.89-17.13c-20.06-25.25-51.49-39.66-83.2-39.66-58.81,0-106,48.35-106,107.31,0,56.77,46.07,106.22,103.26,106.22s96.73-43.19,96.73-99.43v-8.15h-81v23.36"/><path id="path1415" class="cls-1" d="M2001,781.65h25.49V576.81H2001V781.65"/><path id="path1417" class="cls-1" d="M1835.7,579.1v23.39h88.89L1821.06,784h145V760.58H1862.52L1966.05,579.1H1835.7"/><path id="path1419" class="cls-1" d="M1622.21,781.65h25.49V576.81h-25.49V781.65"/><path id="path1421" class="cls-1" d="M1462.94,781.65h109.77V758.29h-84.29V680.88h81.84V657.5h-81.84V600.17h84.29V576.81H1462.94V781.65"/><path id="path1423" class="cls-1" d="M1737.86,673h-8.15V599.64h6.79c25.2,0,55.54,3.8,55.54,35.86,0,32.59-28.18,37.48-54.18,37.48Zm-4.34-96.17h-29.27V781.65h25.46V695.8h14.64c38.75,0,71.56-16.57,71.56-59.77,0-37.49-19.53-59.22-82.39-59.22"/><path id="path1425" class="cls-1" d="M1197,1050h6V0h-6V1050"/><path id="path1427" class="cls-1" d="M525,1043.93C238.86,1043.93,6.07,811.13,6.07,525S238.86,6.06,525,6.06,1043.94,238.84,1043.94,525,811.15,1043.93,525,1043.93ZM525,0C235.52,0,0,235.52,0,525s235.52,525,525,525,525-235.54,525-525S814.49,0,525,0"/><path id="path1429" class="cls-1" d="M396.16,369.88c.1.07,2.1.91,2.16.91s1.19.52,1.31.53c1-.29,1.38-1.21,1.88-2.2,0,0,2.77-4.68,4.8-8.31,1.16-2.1,2.83-4.26,6.53-3.25,1.18.3,3.32,1.07,4.94,1.7a2,2,0,0,1,.32-.59,5.9,5.9,0,0,0,.67-1,5,5,0,0,1,.26-.52c.2-.54.36-1.06.52-1.63a3,3,0,0,1-.48-1.09,2.69,2.69,0,0,1-1-.92c-.7-.23-1.37-.48-2-.74a10.94,10.94,0,0,0-14.3,5.06c-1.54,2.78-4.63,6.75-5.57,8.65-.58,1.12-1,2.58,0,3.41"/><path id="path1431" class="cls-1" d="M393,357.11a3.43,3.43,0,0,0,3.38-1.66c.29-.69-.43-2.31-.75-2.94a3.63,3.63,0,0,0-2.16-1.55,4.05,4.05,0,0,0-2.4,0s-1.9.7-2.36,1.51.17,2.16.81,3,1.9,1.25,3.48,1.63"/><path id="path1433" class="cls-1" d="M392.12,374.75c-1.33-1-2.71.33-2.71.33a4.27,4.27,0,0,0-.67,2.29c0,1.35,0,3.78,5.8,5.17,2.21.54,3.46,0,4.18-1.81,1.54-3.91-3.72-3.88-6.6-6"/><path id="path1435" class="cls-1" d="M657.78,360.89a4.21,4.21,0,0,0,3.93-2.54c.28-.87-.85-2.78-1.31-3.48a4.26,4.26,0,0,0-2.91-1.6,4.71,4.71,0,0,0-2.93.36s-2.25,1.11-2.72,2.21.51,2.63,1.45,3.55,2.5,1.26,4.49,1.5"/><path id="path1437" class="cls-1" d="M712.57,494.94a3.1,3.1,0,0,0,2.84-1.84c.19-.63-.63-2-.95-2.5a3.29,3.29,0,0,0-2.09-1.16,3.38,3.38,0,0,0-2.12.27s-1.63.8-2,1.59.37,1.91,1,2.56a5.68,5.68,0,0,0,3.24,1.08"/><path id="path1439" class="cls-1" d="M629,353.45a4.36,4.36,0,0,0-3.27-.47,4.9,4.9,0,0,0-2.63,1.32s-1.71,1.86-1.78,3.05,1.39,2.29,2.58,2.82,2.79.3,4.75-.17,2.82-2.81,2.8-3.72-1.75-2.31-2.45-2.83"/><path id="path1441" class="cls-1" d="M416,364a3.75,3.75,0,0,0-2.35.29s-1.84.91-2.2,1.8.39,2.1,1.16,2.84,2,1,3.63,1.22a3.38,3.38,0,0,0,3.15-2.05c.24-.72-.68-2.25-1.05-2.82A3.59,3.59,0,0,0,416,364"/><path id="path1443" class="cls-1" d="M142.3,800.87l14.25-23L168.8,795Zm52.16-11.47-18.77,4.16L160.21,771.9l10.12-16.27-4.47-6.26L129,810.16l69.87-14.57-4.42-6.19"/><path id="path1445" class="cls-1" d="M145.6,710.91l-5.69,3,8,15.22-49.45,26,3.24,6.16,55.15-29.06L145.6,710.91"/><path id="path1447" class="cls-1" d="M139,699.57l-2.34-6.71-42.45,6.26-.06-.17,35.68-33.56L81,661.09l0-.17,37.19-21.39-2.35-6.71L57.75,666.36l56.89,4.32-42,38.55L139,699.57"/><path id="path1449" class="cls-1" d="M60.24,598l23.13-14,3.15,20.82Zm51.7,13.42-18.62-4.79-4-26.32,16.37-9.93-1.13-7.6L44.2,600.28l68.88,18.65-1.14-7.5"/><path id="path1451" class="cls-1" d="M102.57,530.78l.55-7.08L61.67,512.53l0-.17,46.1-16.57L64.72,472.37v-.15l42.63-4.82.55-7.09-66.67,7.63,50.48,26.64-53.9,18.64,64.75,17.56"/><path id="path1453" class="cls-1" d="M90.28,431.24,68.6,414.91l26.73-4.15Zm21,15.81L95.87,435.51l6.37-25.85,18.93-2.92L123,399.3,52.9,410.87l56.53,43.55,1.81-7.37"/><path id="path1455" class="cls-1" d="M79.24,358.13l52.08,20.28,2.52-6.48L81.76,351.64l5.53-14.15-6-2.38L67.77,369.79l6,2.35,5.46-14"/><path id="path1457" class="cls-1" d="M163.37,311.61l-5.66-3.08-12.17,22.26-21.48-11.74,11.83-21.63-5.67-3.09-11.81,21.61-16.25-8.89,12.19-22.26-5.66-3.11L93.18,310.06,147.85,340l15.52-28.36"/><path id="path1459" class="cls-1" d="M155.79,263a.34.34,0,0,1-.14.05l-1.26,1.75L136.23,251.7l1.21-1.67a31.8,31.8,0,0,1,7.93-7.95c2.84-1.89,6.33-1.33,10.51,1.68q5.85,4.26,4.61,9.35a27.85,27.85,0,0,1-4.63,9.81A.17.17,0,0,1,155.79,263Zm25.75,21.41-22.19-16.05,1-1.39,33.22.73,5-6.9-34.21-.23a16.71,16.71,0,0,0,2.36-12.36,17.08,17.08,0,0,0-7.15-10.37q-8.58-6.2-15.35-2.46a37.62,37.62,0,0,0-12,10.85l-5.26,7.32L177.47,290l4.07-5.61"/><path id="path1461" class="cls-1" d="M875.11,293.23l5.22-3.78-10.07-13.94,45.27-32.74-4.06-5.62L861,273.66l14.15,19.57"/><path id="path1463" class="cls-1" d="M891.89,321l54.05-31-3.46-6-54.06,31,3.47,6"/><path id="path1465" class="cls-1" d="M961.87,336.12l1,2.38a.38.38,0,0,1,0,.12s0,0,.05.11a34.09,34.09,0,0,1,2.68,10.84c.26,3.53-2,6.24-6.59,8.18-4.13,1.75-7.44,1.59-9.93-.4a20.32,20.32,0,0,1-5.89-8.37l-1.8-4.29Zm-51.55,21.61,25.16-10.53,1.95,4.63c.13.32.25.63.39.92l.38.93a34.62,34.62,0,0,0,3.51,5.82,14.57,14.57,0,0,0,5.24,4.4,15,15,0,0,0,6.91,1.77,19.71,19.71,0,0,0,7.11-1.18,2.64,2.64,0,0,0,.29-.15l.31-.11a18.85,18.85,0,0,0,6.65-4.71,15.3,15.3,0,0,0,3.71-7.25,16.07,16.07,0,0,0,0-6.8,43.66,43.66,0,0,0-2-6.6c-.15-.37-.29-.71-.45-1.06s-.26-.75-.36-1.1l-4-9.45-57.48,24.08,2.69,6.39"/><path id="path1467" class="cls-1" d="M965.47,400.16a38.86,38.86,0,0,0-3.21,10.65l-.73,4.12c0,.12,0,.22,0,.3s0,.21,0,.34A39.57,39.57,0,0,1,959.1,424c-1,2.56-3.25,4.3-6.67,5.18A11.15,11.15,0,0,1,943,427.6a13.15,13.15,0,0,1-5.56-7.78,11.48,11.48,0,0,1,1.16-9,14.07,14.07,0,0,1,7-6L942,398.73a19.93,19.93,0,0,0-9.6,9.44,20.41,20.41,0,0,0,7.76,25.43,18.16,18.16,0,0,0,14.69,2.13c4.8-1.25,8-3.62,9.68-7.07a44.38,44.38,0,0,0,3.61-11.84l.63-4.45c.07-.41.15-.85.21-1.32s.17-.94.26-1.44a22.07,22.07,0,0,1,2-5.61,6.7,6.7,0,0,1,4.51-3.53,8.92,8.92,0,0,1,7.54,1.25,11.76,11.76,0,0,1,4.31,13,15.37,15.37,0,0,1-3.68,5.38l4.79,4.44a17.72,17.72,0,0,0,5.27-18,18.58,18.58,0,0,0-7.22-10.72,14.19,14.19,0,0,0-12.53-2.19q-6.48,1.71-8.74,6.47"/><path id="path1469" class="cls-1" d="M988.74,424.61l0,0s0,0,0,.05l.09,0"/><path id="path1471" class="cls-1" d="M943,477l61.79-8-.89-6.89-61.82,8L943,477"/><path id="path1473" class="cls-1" d="M946.15,541.66l6.45,0-.17-25.38,24.47-.17.16,24.64,6.45-.05L983.34,516l18.52-.11.18,25.37,6.45,0-.24-32.32-62.33.43.23,32.33"/><path id="path1475" class="cls-1" d="M944,577.84l-1.26,6.83L990,593.45,931.1,631.93l64,11.94,1.27-6.84L949,628.21l58.95-38.48L944,577.84"/><path id="path1477" class="cls-1" d="M969,678.61c-4.18-1.58-7.79-1.51-10.87.21a38.82,38.82,0,0,0-8.79,6.83l-3,2.94a2.06,2.06,0,0,0-.21.21l-.23.24a39.39,39.39,0,0,1-6.77,5.49q-3.52,2.26-8.46.38a11.12,11.12,0,0,1-6.77-6.73,13,13,0,0,1,0-9.55,11.43,11.43,0,0,1,6.15-6.69,14,14,0,0,1,9.17-.84l.56-7.05a20.19,20.19,0,0,0-13.27,2.1,20.47,20.47,0,0,0-8.41,25.26,18.22,18.22,0,0,0,10.76,10.24c4.62,1.76,8.63,1.7,12-.17a45.58,45.58,0,0,0,9.78-7.56l3.08-3.24c.29-.32.6-.64.93-1l1.06-1a24.1,24.1,0,0,1,4.87-3.4,6.83,6.83,0,0,1,5.72-.25,8.86,8.86,0,0,1,5.44,5.39,10.81,10.81,0,0,1-.06,7.72,11,11,0,0,1-4,5.4,16.15,16.15,0,0,1-6.12,2.27l1.33,6.37a17.76,17.76,0,0,0,14.71-11.61,18.81,18.81,0,0,0,.33-12.91,14.29,14.29,0,0,0-9-9"/><path id="path1479" class="cls-1" d="M962.89,712.22v-.06a.12.12,0,0,1-.07,0l.08,0"/><path id="path1481" class="cls-1" d="M897.51,724.13l55.33,28.67,3.2-6.16L900.7,718l-3.19,6.18"/><path id="path1483" class="cls-1" d="M909.74,806.39v0h-.08l.08,0"/><path id="path1485" class="cls-1" d="M923.25,775.05c-3.71-2.5-7.24-3.25-10.63-2.28a39,39,0,0,0-10.11,4.67L899,779.62c-.11.06-.2.14-.27.18a2,2,0,0,1-.26.17,41.62,41.62,0,0,1-7.85,3.82c-2.63,1-5.4.42-8.31-1.55a11.11,11.11,0,0,1-5.09-8.08,13.15,13.15,0,0,1,2.14-9.34,11.39,11.39,0,0,1,7.52-5.09A13.92,13.92,0,0,1,896,761l2.13-6.73a20,20,0,0,0-13.41-.94,19.14,19.14,0,0,0-10.74,8.11A19.34,19.34,0,0,0,870.78,776a18.17,18.17,0,0,0,8.15,12.39c4.12,2.77,8,3.62,11.73,2.56a44.06,44.06,0,0,0,11.22-5.15l3.74-2.47c.37-.22.75-.47,1.15-.72s.83-.52,1.25-.74a21.81,21.81,0,0,1,5.52-2.23,6.69,6.69,0,0,1,5.64,1,8.8,8.8,0,0,1,4.06,6.49A11.7,11.7,0,0,1,916.36,799a15.14,15.14,0,0,1-6.48.82l-.14,6.54a17.93,17.93,0,0,0,9.6-1.58,17.61,17.61,0,0,0,7.35-6.41,18.61,18.61,0,0,0,3.24-12.52,14.16,14.16,0,0,0-6.68-10.8"/><path id="path1487" class="cls-1" d="M202.08,211.24a5.07,5.07,0,1,0-5.06-5.06,5.05,5.05,0,0,0,5.06,5.06"/><path id="path1489" class="cls-1" d="M844.35,201.17a5.06,5.06,0,1,0,5,5.06,5.07,5.07,0,0,0-5-5.06"/><path id="path1491" class="cls-1" d="M203.65,840a5.06,5.06,0,1,0,5,5.06,5.06,5.06,0,0,0-5-5.06"/><path id="path1493" class="cls-1" d="M849.4,838.25a5.06,5.06,0,1,0,5.08,5.06,5.06,5.06,0,0,0-5.08-5.06"/><path id="path1495" class="cls-1" d="M795.13,943.61l.06-24.23-22.71-.06V858.54c103.77-77.45,165.69-200.77,165.69-330.15s-62-252.76-165.77-330.19V155.82h15.46v-6.08H772.4V110.41h-6.27v24.9L690.58,94V59h-4.93V94.34l-78.76,35.84V86.76h7.19V64.48H602c-8.34-17.89-27.44-31.38-51.38-37.31,263,13.32,472.92,231.52,472.92,497.82,0,175.37-91.12,329.76-228.41,418.62Zm-6-.31h-52.7V925.41h52.7Zm-106,54.34c6.89-7.65,22-24.5,23.42-26.48,3.8-5.36,5.16-13.85-2.41-21.8h82.06A496.78,496.78,0,0,1,683.1,997.64ZM678.33,973a17.56,17.56,0,0,0-10-3.87l18.73-19.73h6a14.7,14.7,0,0,1,6.6,4.17c6,6.21,3.77,11.5,1.9,14.09-.81,1.16-8.56,9.87-16.38,18.61A18.31,18.31,0,0,0,678.33,973Zm-3.49,24.31a20.76,20.76,0,0,1-14.09,6.37c-6.7,0-16.69-3.67-26.36-7.23-2.67-1-5.27-1.91-7.83-2.78l16.92-18.34c.7-.75,6.83-7.57,6.54-14.22a9.07,9.07,0,0,0-3-6.5,68,68,0,0,0-6.43-5.21H679l-21.19,22.58a13.36,13.36,0,0,0-4.73,6.1,13,13,0,0,0-.81,3.92,47.33,47.33,0,0,1,6.07-.06,7.71,7.71,0,0,1,.41-1.74,8.06,8.06,0,0,1,6.18-4.92,11.93,11.93,0,0,1,9.59,2.44,12.45,12.45,0,0,1,4.66,9.1,14.45,14.45,0,0,1-4.36,10.49Zm-147.19,26.11c7-10.69,16.24-24.59,18.76-28.2,7.34-2.74,28.83-3.74,32.71-3.83a111.55,111.55,0,0,1,41.6,6.66l2.28.78c3,1,6.13,2.16,9.3,3.32,5.73,2.1,11.54,4.23,16.94,5.7A497,497,0,0,1,527.65,1023.38Zm-4.37-4.39c-17-30.33-17.2-30.41-19.52-30.47-3.38-.48-6.68-.89-9.88-1.26V976.68h14.35l.1-5.79H493.88V949.36H559c-4,3.74-8.86,8.22-9.79,9.26-5.14,5.7-5.3,12-.41,17,3.28,3.26,8.28,8.14,11.86,11.6-4.87.54-10.18,1.24-15.91,2.17-1.87,0-2,.06-21.45,29.65Zm-121.53-11c5.58-1.48,11.64-3.69,17.61-5.88,3.17-1.17,6.31-2.31,9.33-3.33L431,998c11-3.76,19.73-6.65,38.13-6.28a294.49,294.49,0,0,1,33.2,2.7c2.38,3.93,10.49,18.26,16.47,28.87a498.13,498.13,0,0,1-117-15.3Zm-24.9-10.73a14.34,14.34,0,0,1-4.38-10.49,12.52,12.52,0,0,1,4.66-9.1,12,12,0,0,1,9.59-2.44,8,8,0,0,1,6.19,4.92,6.66,6.66,0,0,1,.38,1.57c2,.13,4.07.15,6.11.32a13.26,13.26,0,0,0-.82-4,13.64,13.64,0,0,0-4.72-6.12l-20.92-22.56h51.25l-12.83,11.92,4.12,4.46,17.62-16.38h.48v41.38c-1.51.49-3,1-4.58,1.54l-2.26.77c-3,1-6.25,2.19-9.47,3.36-9.66,3.56-19.65,7.23-26.34,7.23a20.68,20.68,0,0,1-14.08-6.37Zm-10.39-11c-7.84-8.75-15.58-17.48-16.39-18.61-1.84-2.59-4.06-7.88,1.9-14.09a14.74,14.74,0,0,1,6.65-4.17h6l18.75,19.73a17.49,17.49,0,0,0-10,3.89,18.25,18.25,0,0,0-6.89,13.25ZM264,949.36h83.58c-7.54,8-6.19,16.44-2.4,21.8,1.46,2,17.6,20,24.1,27.22A496.25,496.25,0,0,1,264,949.36Zm-3.5-24,52.8.08,0,17.89H260.56ZM202.69,504l-.07,75.92H166.94V504.06Zm49.9-144.93a131.8,131.8,0,0,1,21-23.07v64.12C267.64,384.31,259.78,370.93,252.59,359.07Zm-.55,99.3s.09-.66.18-1.77c.74-11.55,9.31-29.34,21.32-46.3V658.69H252Zm-23.72-55.82a221.46,221.46,0,0,1,19.76-37c7.44,12.3,14.86,25.16,20.18,40.86-8.32,11.76-15.28,23.78-18.94,34.24A127.18,127.18,0,0,0,228.32,402.55ZM246,458.41V658.69h-37l.15-161.12c0-33.27,5.79-61.52,16.42-87.82,12.18,16,20,34.53,20.42,46.59,0,.68,0,2.07,0,2.07Zm27.57-179v47.49c-21.56,15.66-51.29,57.35-64.6,113.36V368.65a3.94,3.94,0,0,0,3.44,2.1,4,4,0,1,0,0-8,4,4,0,0,0-3.44,2.09v-9.67a3.94,3.94,0,0,0,3.44,2.08,4,4,0,1,0,0-8,3.91,3.91,0,0,0-3.44,2.11v-9.71a4,4,0,0,0,3.44,2.11,4,4,0,1,0,0-8,3.93,3.93,0,0,0-3.44,2.11v-4.1h-1.47a4,4,0,1,0-3.68,0h-1.46v4.49a4,4,0,1,0,0,3v10.49a4,4,0,1,0,0,3v10.49a4,4,0,1,0,0,3s.07,120.89,0,129.46l-35.19-.12v-39.2a3.92,3.92,0,0,0,3.45,2.11,4,4,0,1,0,0-8,3.9,3.9,0,0,0-3.45,2.11v-9.72a3.93,3.93,0,0,0,3.45,2.12,4,4,0,1,0,0-8,3.93,3.93,0,0,0-3.45,2.1v-9.69a3.9,3.9,0,0,0,3.45,2.1,4,4,0,1,0,0-8,3.94,3.94,0,0,0-3.45,2.11v-4.09h-1.48a4,4,0,1,0-3.65,0h-1.48V428a4,4,0,1,0,0,3V441.5a4,4,0,1,0,0,3.05V455a4,4,0,1,0,0,3v41.14l-28,26,4.5,4.82,23.68-22.62v72.58h-36.7a412.79,412.79,0,0,1-3.32-51.53c0-124.33,55.65-239.53,152.78-317.06v62H256.69v6.08Zm-16.4,481.77a16,16,0,0,0-.21-15.78c-3.09-5.4-8.82-8.5-15.75-8.5a28,28,0,0,0-12.11,2.54c2.1-12.53-.85-27.79-9.37-33.85-4.87-3.47-10.53-4.79-15.57-3.51a15.05,15.05,0,0,0-10,8.11,14.09,14.09,0,0,0,.39,13.86,13.32,13.32,0,0,0,11.5,6.24h.18l-.07-6.07c-2.58-.26-5.1-1.17-6.46-3.35a8,8,0,0,1-.13-7.89,9,9,0,0,1,6-5c3.27-.81,7.24.18,10.63,2.57,7.92,5.63,10.06,26.5,3.8,37.2a32.65,32.65,0,0,0-3.42,15.13c0,5.44,5.36,25.71,29,25.92h.32a32.27,32.27,0,0,0,23.13-9.55,37.4,37.4,0,0,0,4.47-5.41v71.64C191.06,779.6,138.78,688.75,124.83,586h1.44c.41.34,40.81,34.09,44.09,37.07,2.79,2.54,6,5.38,6,14.47a12.68,12.68,0,0,1-3.84,9.05,15.93,15.93,0,0,1-11.2,4.35c-3.1,0-11.75-1.18-12-9.68a9.67,9.67,0,0,1,2.65-7,6.44,6.44,0,0,1,4.77-1.54c3.82.19,4.86,4.38,4.86,5.21l6.07.13c.07-4.42-3.33-11.08-10.68-11.38a12.3,12.3,0,0,0-9.28,3.28,15.55,15.55,0,0,0-4.44,11.51c.39,11.81,11.5,15.54,18.09,15.54a22.56,22.56,0,0,0,15.51-6.16,18.46,18.46,0,0,0,5.59-13.38c-.09-10.83-4-15.28-8-18.91-2.57-2.33-26.37-22.67-38-32.57h66.16l-.07,72.69h-18v6.09h89V738.3l-50.39-55.17H184.58v6.06h35.89l53.07,58.1v4.8a28.6,28.6,0,0,1-8.73,22.83,26.34,26.34,0,0,1-18.87,7.79l-.27,0c-21.31-.17-23-19.77-23-19.94,0-3.72.49-10.6,4.91-15.09,3.07-3.13,7.66-4.72,13.63-4.72,6.43,0,9.33,3.42,10.5,5.45a9.83,9.83,0,0,1,.23,9.7c-1.49,2.5-4.44,3.8-7.72,3.78l-.07,6.07c5.91.06,10.42-2.35,13-6.78ZM26.6,525C26.6,260.64,233.45,43.81,493.8,27.6,470.62,33.72,452.15,47,444,64.48H431.53V86.76h7.59v43.55l-78.76-36V59h-4.92V94l-76,41.57V110.41h-6.06l.17,39.33H258.65v6.08h14.89v47.67C172.6,282.18,114.69,400.58,114.69,528.39S172.57,774.63,273.54,853.3v66l-19.16,0,.11,24C117.49,854.36,26.6,700.13,26.6,525Zm493-479.74h-10.4v6.07h10.4V64.48H450.73C461.63,44.68,488.85,31,519.57,30Zm156,153.66C666.34,186.69,651,175,646,171.36v-24.1h-6.31v24.42a335.18,335.18,0,0,0-32.83,26.61V155.82h15.59v-6.08H606.89V136.85l68.69-31.25Zm50.67,149.87a72.78,72.78,0,0,1-12.77,41.3c-2.76.89-7,1.78-10.28.69-18.8-6.31-14.28-29.09-12.11-40l.41-2.14c1.7-9.06-1.53-20.75-8-29.08-4.4-5.65-9.82-8.93-15.29-9.25-13.5-.85-19,4.46-23.46,8.72l-.55.52c-3.7-4.56-11.69-13-27.78-6.32-15.11,6.23-16.7,29-16.06,36.45.25,3-1.06,5.13-2.9,8-2,3.24-4.56,7.25-4.78,13.36-.23,5.82,2.89,11,5.64,15.63s4.36,7.53,3.21,9.24c-2,2.95-4.25,3.14-7.87,2.54-9-11.25-14.2-29.27-14.2-49.64a73.41,73.41,0,1,1,146.82,0Zm-33.6-75.47H682.13V102.64l6.3-2.89,4.22,2.31Zm73.67,6.08v7.43c-10.15,5.6-27.23,10.79-49.45,15.1a79.53,79.53,0,0,0-25.42-22.53Zm0-129.65H752.23v6.08h14.09v37.53c-11.68-10.6-24.87-18.33-29.55-21.67V147.26h-6.31v24.1c-5.27,3.85-22.32,16.84-31.27,29.86V105.64l67.13,36.57Zm0,123.57h-67V215.45c0-11.65,23.21-31.19,34.06-39.17,5.08,3.64,20.83,13.27,32.94,24.89ZM780.7,539.19a72.88,72.88,0,0,1-3.25,20.27c-8.78-4.4-20.71-11-22.94-13.93-.91-1.23.44-6.28,1.35-9.63,1.74-6.49,3.54-13.21-.16-17.61-6.1-7.3-12.3-9.16-17.6-9.37a33.57,33.57,0,1,0-48.69,10.66c-1.76,2.88-3.22,5.87-3.56,8.26-.92,6.47-2.46,17.33-7,21.33a46.63,46.63,0,0,1-5.69,4c-.83.52-2.9,1.33-3.38,2.16s.13,1.51.59,1.89c.14.12.18.16.18.17a10.82,10.82,0,0,0,2.3,1.5c7,3.88,22.91,8.16,36.8,8.76A199.91,199.91,0,0,1,704.2,587c-7.44,23-20.5,45.44-30.23,58.76s-16.75,19.48-24.1,25.87L647,674.06a343.46,343.46,0,0,0-25.23,24.65c-4.49,4.76-7.93,10.58-11.26,16.19-4.49,7.62-8.78,14.81-15.14,18.61-20.26,12.1-25.94,29-27.52,36.67a190.13,190.13,0,0,1-13.67-15.81c-5.53-7.5-5.39-29.6-2.38-47.54,1.47-8.8,2.49-18.4,3.52-29.11,10.31-5.32,16.78-23.39,21.32-39,3.1-10.56,12.16-23.8,17.42-27.21,6.55-4.25,22.19-22.3,31.26-35,8.07-11.26,13.86-29.58,15.51-35.19,8.88.49,19.28-.94,27.33-8.63,5.63-5.36,7.77-10,6.56-14.26-1.49-5.22-7.79-8.81-19.88-11.3-3.13-.65-5.52-1.29-7.48-1.87,1.4-.57,2.85-1.15,4.46-1.77,6.27-2.77,8.9-3.14,12.71-3l.28-6.07c-5.32-.24-8.86.59-15.3,3.44-7.63,2.9-13.18,5.52-13.94,5.85a25.79,25.79,0,0,0-3.33,1.21c-4.81,2.08-13.22,5.61-29.68,3,6.4-7.59,17-19.67,21.23-22.42,4.59-3,20.84-7.93,30.55-10.92,3.52-1.08,6.52-2,8.41-2.64,8.07-2.72,20.3-12.41,25.14-19.94,3.67-5.69,18.53-14.18,29.27-15.39,7.1-.82,11,.53,12.49,1.26,5.53,21.08,19.47,36.8,25.87,44a40.72,40.72,0,0,1,2.91,3.46l.91,1.5c17.73,29.63,21.38,44.8,21.32,52.28Zm13.13-84.59h.06V611.93c-.69-1-1.38-1.93-2.12-2.93-5.84-8.07-13.12-18.13-13.15-32.08,0-1.47,1-4.41,2.15-7.85,2.35-6.84,5.88-17.27,6-29.83.09-9.63-4.8-23.65-14.35-41.59v-92.2c12.43,17.32,21.43,36.94,21.43,49.15Zm.35-99.17c-7.54,12.39-15.83,26.45-21.78,43.28v-67a130.41,130.41,0,0,1,21.78,23.77Zm50.49,144.81H880v79.68H844.75Zm-23.42-94.13c9.93,25.94,17.12,56.52,16.86,90l.16,162.6H800v-204C800,442.27,809.08,422.14,821.25,406.11ZM796.9,436.84c-3.66-10.45-10.06-22.35-18.39-34.13,5.31-15.68,12.75-28.54,20.18-40.83a219.56,219.56,0,0,1,19.76,37c-9.86,12.22-17.48,25.89-21.55,37.93ZM772.48,773.36a36.78,36.78,0,0,0,4.8,5.86,32.31,32.31,0,0,0,23.14,9.55h.31c23.68-.21,28.93-20.5,29-25.93a33.78,33.78,0,0,0-1.33-10.21s-2-4.89-2.09-4.91c-6.26-10.7-4.11-31.57,3.82-37.2,3.38-2.39,7.33-3.38,10.63-2.57a9,9,0,0,1,6,5,8,8,0,0,1-.14,7.89,6.57,6.57,0,0,1-6.45,3.35l-.08,6.07h.19a13.32,13.32,0,0,0,11.5-6.24,14,14,0,0,0,.38-13.82,15,15,0,0,0-10-8.15c-5-1.28-10.72,0-15.58,3.51-8.53,6.06-11.46,21.32-9.37,33.85a28,28,0,0,0-12.13-2.54c-6.9,0-12.64,3.1-15.74,8.5a16,16,0,0,0-.2,15.78c2.57,4.39,7.11,6.78,12.8,6.78h.23l-.08-6.07c-3.81,0-6.24-1.28-7.72-3.78a9.86,9.86,0,0,1,.23-9.7c1.17-2,4.09-5.45,10.48-5.45,6,0,10.58,1.59,13.65,4.72,4.42,4.49,5,11.37,4.91,15.06,0,.2-1.73,19.8-23,20l-.26,0a26.41,26.41,0,0,1-18.88-7.79c-6.21-6.16-9.06-12.57-9.06-21v-6.63l53-58.1h35.91v-6.06H822.87L772.48,738.3V664.78h89v-6.09H844.83L844.76,586l69.65-.12c-13,9.75-39.9,30.36-42.47,32.69-4,3.63-8,8.1-8.05,18.91a18.47,18.47,0,0,0,5.6,13.38c4.11,4.12,10.2,6.81,15.5,6.81,6.59,0,17.8-4.38,18.19-16.19A15.57,15.57,0,0,0,898.63,630a12.15,12.15,0,0,0-9.29-3.28c-7.32.3-10.46,7-10.38,11.38l6.07-.13c0-.83.77-5,4.57-5.21a6.48,6.48,0,0,1,4.76,1.54,9.77,9.77,0,0,1,2.78,7c-.3,8.5-9,10.34-12.15,10.34a17,17,0,0,1-11.2-5,12.6,12.6,0,0,1-3.83-9.07c.06-9.09,3.23-11.93,6-14.47S925.25,586,925.25,586h2.68A408.27,408.27,0,0,1,772.48,850.92Zm21.41-135.85v21.18H772.48V643.64C777.57,643.44,787.49,642.33,793.89,637.51Zm-54.06-74.89a103.91,103.91,0,0,0,16.78-7.83,208.88,208.88,0,0,0,19,10.53c-.18.58-.39,1.26-.58,1.81-1.45,4.24-2.5,7.33-2.5,9.81.06,15.91,8,26.83,14.34,35.61,3.75,5.19,7,9.65,7,13.29a8.06,8.06,0,0,1-2.54,6c-4.37,4.23-13.37,5.49-18.87,5.7v-1.21c-.77-15.82-5.51-40.69-32.65-73.74ZM710.32,937.35c2-3.7,2-7.85,0-12.4a119.66,119.66,0,0,0-7.55-14.53l-1.9-3.29h43.47l.06,12.16h-14.1v24H704.4a16.4,16.4,0,0,0,5.92-5.95ZM578.79,943.3c5.06-3.09,11.29-6.89,15.52-9.38,6.55-3.88,11.82-6.21,15.7-6.94.79-.15,19.39-3.58,20.69-14.44a19.56,19.56,0,0,0-.11-5h41.19c0,1,0,2,0,3,0,4.17,0,7.76.26,10.17a54.23,54.23,0,0,1,0,6.82c-.26,6.06-.51,12.3,2,15.82Zm7.84,33.12c6.91-7.92,4.24-14,.76-17.69A89.23,89.23,0,0,0,576,949.36h46.82l-6.29,6c-.37.39-3.77,4.11-3.4,8.7a8.92,8.92,0,0,0,3.76,6.48c5.77,4.49,7.63,6,7.67,6l3.83-4.7s-1.85-1.52-7.8-6.09a3,3,0,0,1-1.42-2.17c-.14-1.63,1.29-3.56,1.66-4l9.95-9.5A81,81,0,0,1,642.91,959c.53.52,2.18,2-.13,6.72a27.09,27.09,0,0,1-3.75,5.48L620.3,991.48c-10.57-3.57-19.8-6.27-37.88-5.8-1.92.05-4.15.12-6.61.27C580.18,982.32,585.23,978,586.63,976.42Zm-19.78-26c3.82,2.55,12.26,8.39,16.13,12.51,2.76,2.94,2.51,5.62-.92,9.56-1.4,1.59-9.13,8-14.83,12.72-3.3-3.24-10.09-9.83-14.16-13.9-1-1-3.74-3.75.63-8.59.91-1,7.94-7.55,13.15-12.3ZM320.69,716.79l11.21,80.83-17.48,8.92L296,725.73ZM293.76,578.67c-.07-2.86,1.45-9.65,2.79-15.63,1.48-6.59,2.88-12.79,3-16.58a63.08,63.08,0,0,1,.61-6.34c.86-7,1.91-15.59-.85-25-2-6.73-5.74-25-5.5-36.73.15-8.58,2.38-26.55,2.38-26.55,4.41.29,16.94,1.61,22.12,4.06,5.44,2.61,12.22,10.88,18.58,22.71,6.14,11.43.84,32.24-.93,38.38-3.54,12.24,1.46,24.15,5.55,32,1,2,2.1,3.75,3.19,5.52,3.57,5.71,6.65,10.64,5.29,19.9-1.59,10.79-.72,15.76,1.39,27.72.62,3.53,1.35,7.67,2.17,12.8,3.38,21.49-3.3,34.71-8.18,44.36l-.24.49c-.65-6.91-3.23-13.29-8.24-16.37-7.53-3.48-14.51-3.26-19.39.3-1.68-5.47-.37-11.24.92-16.82,1.6-7,3.27-14.21-1.84-19.7a27.73,27.73,0,0,0-5.5-4.18c-2-1.32-12.74-8-14.66-13.69a28.4,28.4,0,0,1-2.64-10.61ZM325,308.21a78.75,78.75,0,0,0-9.8,25.63c-19.91-3.95-29.41-8.33-35.38-11.8V294.6c10.44,5.09,25.6,9.66,45.18,13.61Zm38.93-34.9H353.35V102.07l4.23-2.32,6.31,2.89Zm29.29,2.06A73.36,73.36,0,0,1,437.6,407.15l-23.7-12.89c1.55-1.37,4.29-3.43,4.29-3.43.23.05.6.19,1.1.33,4.73,1.51,17.33,5.5,24.86-2.22,6.26-6.42,5.32-13.73,4.62-19-.4-3.13-.74-5.83.27-7.55,2.51-4.2,4-11.45,2.07-17.17a10.53,10.53,0,0,0-6.19-6.73,10.4,10.4,0,0,1-5.18-3.66,16,16,0,0,0-2.62-2.71c-.63-.54-1.72-3.23-2.44-5-1.69-4.2-3.61-9-7.32-10.85-4.09-2-8.17-.34-11.15.92-1.06.43-2.63,1.1-2.79,1.14a10.68,10.68,0,0,1-1.2-1.57c-1.76-2.59-4.77-7.19-11.85-6.63-4.55.2-7.31,2.4-9.73,4.36a20.18,20.18,0,0,1-3.47,2.4c-1.31.66-5.08.9-8.11,1.08-5.54.36-10.76.7-13.56,3.11-3.77,3.23-5.24,8.62-6.44,12.93a29.16,29.16,0,0,1-1.22,3.85c-.72,1.54-2.3,2.47-4.11,3.56-2.5,1.5-5.93,3.54-6.15,7.95-.28,5.07,5.19,8.47,10.49,11.74,2.57,1.58,7.43,5.41,7.43,5.41,4.4,4.38,6.42,6.37,5.1,14.46-.82,5-4.29,5.59-9.5,5.87-1.45.08-17.3,1.77-24.39,6.35l-1.35.86a72.73,72.73,0,0,1-15.59-45.21,73.5,73.5,0,0,1,73.41-73.41Zm10.54-99.09c5.41,3.88,34.82,25.89,35.4,36.76v60.27H417.93a78.8,78.8,0,0,0-47.49-.64V215.28c1.51-12.28,23.56-31.86,33.28-39Zm35.4-26.54H423.53v6.08h15.59v43.24c-11.8-13.84-24.74-23.38-32-27.39V147.26h-6.3v24.1c-5.11,3.74-21.22,16-30.35,28.65V105.6L439.12,137Zm72.72,129.65a11.88,11.88,0,0,0-1.15,2.1,13.24,13.24,0,0,0,0,10.38,14.14,14.14,0,0,0,2.24,3.51s2.87,2.85,4.74,3.55c-12.89,6.27-31.84,11.5-53.39,14.57a79.89,79.89,0,0,0-32.49-34.11Zm11.17,0a7.3,7.3,0,1,1-7.3,7.29A7.29,7.29,0,0,1,523,279.39Zm11.17-25.82c0,.19,0,.35,0,.53.51,7.08,5.74,12.19,13.69,12.19H548a15.25,15.25,0,0,0,11.21-5,16.35,16.35,0,0,0,4.28-12.18c-.64-8.61-7-15.36-15.67-17.34H548c0-11.49-8.64-20.83-19.24-20.83V217c7.08,0,12.83,6.3,13.12,14.17A21.84,21.84,0,0,0,523,242.41a21.76,21.76,0,0,0-18.86-11.26c.29-7.87,6-14.17,13.11-14.17v-6.07c-10.6,0-19.22,9.36-19.22,20.85h.21c-8.64,2-15.11,8.7-15.74,17.33a16.25,16.25,0,0,0,4.25,12.16,15.44,15.44,0,0,0,11.24,5h.17c7.91,0,13.33-5.13,13.84-12.21a3.81,3.81,0,0,0,0-.48h-6v.05c-.31,4.36-4.18,6.51-7.93,6.56a9.35,9.35,0,0,1-6.84-3,10.17,10.17,0,0,1-2.64-7.63c.52-7.18,6.74-12.37,14.82-12.37h.15c9.69.08,16.45,7.13,16.45,17.13v19H462.59c4.24-32.82,48.67-102.51,60.06-119.91,11.45,17.78,57,89.85,61.4,119.91H526v-19h0c0-10,6.76-17,16.44-17.1h.16c8,0,14.32,5.29,14.83,12.37a10.12,10.12,0,0,1-2.67,7.6,9.27,9.27,0,0,1-6.83,3.05h-.1c-4,0-7.35-2.24-7.65-6.54v-.12Zm39.24,94.17a220.1,220.1,0,0,1-50-15.17l0-.08a3.33,3.33,0,0,1-.56.05,2.52,2.52,0,0,1-.48-.05l0,.08c-13.21,5.91-30.33,11-49.78,14.72a79,79,0,0,0-5.69-28.07c23.23-3.45,42.77-9.21,56.12-16.43,13.36,7.22,32.89,13,56.12,16.43a79.14,79.14,0,0,0-5.71,28.52ZM582,398.25c-6.58,3-5,12-3.81,16.26-5.59,4.28-22.18,18-23.48,32.07-3,31.41-19.14,52.36-27.3,59.06-6.94,5.71-12.6,19.11-11.61,27.57a37.41,37.41,0,0,0,3.46,11.64l-.57-.44a28.58,28.58,0,0,0-3.63,7.93,33.19,33.19,0,0,0-6.92-7.33l-16.63-70.82-6.93,1.68c-4.39-5.66-20.55-26.61-23.63-31.44-1.34-2.1-1.74-5-2.14-7.79-.58-4.09-1.18-8.33-4.62-10.93-2.82-2.11-7.7-10.83-10.22-16a79.49,79.49,0,0,0,28.36-56.19c19.59-3.66,37-8.7,50.62-14.58a228.19,228.19,0,0,0,50.56,15c.71,17.08,4.92,32.41,12,43.54a10,10,0,0,0-3.48.8Zm75.7-68.11c4,2.44,6.85,8.13,8.54,13.26-8.9-1.48-18.09,1.64-20.08,2.62l2.66,5.44c1.4-.69,10.81-3.92,18.59-1.63a1.48,1.48,0,0,1,.49.86c.62,7,1.8,24.15-.5,32.82a22.28,22.28,0,0,0-.67,5.51c-4.41-.33-7.84-2.29-11.39-4.47-4-2.43-8.06-4.94-13.23-4.32-4.34.52-7.3,2.66-9.89,4.56-2.78,2-5,3.44-8.54,3.26-.17-.51-.33-1.1-.49-1.53h0s0-.07,0-.11-.09-.24-.14-.34a7.91,7.91,0,0,0-.4-1.06,46.77,46.77,0,0,1-4.43-15.91c-.23-3.37.48-12.66,1.14-19.22l0,.06s1.69-1,6.06-1c3.59,0,7.48-.14,9.12,2.08a7.67,7.67,0,0,1,1,5.16c-1.62,8.22-4,16.5-5.08,18.59L637,375c.48-1.7,4.35-16.91,4.39-17.05,1.33-4.39.4-8.37-.94-10.16-3.19-4.29-10.22-4.91-14.95-4.91a25,25,0,0,0-5.31.51.5.5,0,0,1,0-.16c.84-4.09,2.3-8.91,8.85-14.11,6-4.73,20.18-4.22,28.71,1.05Zm-32.73,64c4.81-.21,8.06-2.53,10.77-4.5,2.3-1.66,4.29-3.11,7.09-3.44,3.07-.39,5.86,1.32,9.37,3.47,3.92,2.4,8.74,5.29,15.15,5.46a25,25,0,0,0,1.08,3.44h.07a66.19,66.19,0,0,1,1.7,9.17c.38,3.82-1.85,12.14-4,20.19-.75,2.81-1.51,5.66-2.21,8.45-2.53,10.09-10.07,18.49-16.23,21.56-5.27,2.65-15,3.24-23.68,1.47-4.68-1-5.25-4.46-5.53-9,0-.64-.07-1.2-.13-1.65-.22-1.7,1.73-6.89,2.9-10,.42-1.14.83-2.22,1.16-3.19,1.72-4.91,3.06-17.1,3.22-19.32a193,193,0,0,0-.71-22.13Zm-31.42,112c-11.16-3-55.52,23.61-70.22,32.71a30.14,30.14,0,0,1-1.51-6.27c-.75-6.41,4.12-17.82,9.45-22.2,1.05-.87,25.55-21.44,29.46-63.16,1.13-11.93,17.11-24.79,21.58-28.17,3,.87,7.33,2,12.76,3.07a30,30,0,0,0,4.9.52s0-.11,0-.17c1,.05,2,.08,3.2.08.4,0,.81,0,1.21,0a65.78,65.78,0,0,0,14.85-2.3c-.55,4.48-1.49,10.7-2.44,13.45-.32.92-.71,1.95-1.12,3.05-2.12,5.67-3.6,9.93-3.24,12.83,0,.35.07.81.11,1.29.22,3.76.75,12.51,10.31,14.46a57.32,57.32,0,0,0,11.56,1.15c5.6,0,11.44-.82,16-3.12,7.15-3.55,16.26-13.06,19.37-25.46.69-2.76,1.45-5.58,2.19-8.34,1.48-5.52,3.65-14.48,3.65-14.48,2.68-1.06,9.32-3.82,15.35-3.8,6.34,0,12.68,2.68,17.49,5.31,7.16,5.36,13.58,9.55,18.91,9.73.15.8.37,1.53.47,2.33s.35,1.68.5,2.53a34.71,34.71,0,0,0-11.87-.47c-12,1.37-28.74,10.28-33.67,18.14C673.48,463.69,652.22,469,652.22,469c-5.62,1.73-29.66,10.19-31.7,11.51-6,3.9-20.17,20.71-24.66,26.14-.79-.19-1.46-.29-2.28-.51Zm34.09,27.13c-18.24-4.11-33.35,4.09-45,10.38-1.13.62-2.56,1.33-4.23,2.18-8.85,4.48-23,11.64-32.52,21.24-4.71-3.73-14.44-12.25-20-22.64,24.16-15,59.29-34.05,66.2-32.41,24.64,6.4,36.76,1.14,42.6-1.37a17.3,17.3,0,0,1,2.65-1c2-.37,3.49.07,6.76,1,2.35.71,5.33,1.59,9.59,2.47,12.72,2.63,14.93,5.78,15.29,7,.5,1.79-1.24,4.7-4.94,8.21-11.07,10.56-28.15,6.71-36.34,4.84ZM441.1,901.73c8.06-.93,13.13,4.57,16.51,8.23a18.94,18.94,0,0,0,3.19,3,41.14,41.14,0,0,0,5.5,2.62c7.05,2.94,12.35,5.59,11.18,10.54-.75,3.15-12.85,2.72-17.45,2.52-1.6,0-3.07-.09-4.29-.11-2.95,0-6.42-4.25-9.48-8-2.52-3.08-4.9-6-7.61-7.64-1.71-1-3.73-3.83-6-8.31C433.81,903.58,436.26,902.32,441.1,901.73Zm-35.63-3.27c.06-.34,5.29-32.64,7.53-57.59,1.73-19.4.11-30.42-2.32-47.06-.79-5.35-1.67-11.35-2.57-18.46-4-31.88,11.52-63.15,14.67-69.09,5.37-10.11,13.7-29.21,16.44-35.59h.06c0-.11,0-.19.05-.26.45-1.06.75-1.75.82-1.89l0,0c4.48-6.61,7.72-15.33,10.35-23.88a130.14,130.14,0,0,1,5.69-15.51,255.62,255.62,0,0,0-4.57,41.18c-.69,21.68,2.3,27.54,4.5,31.8a12.08,12.08,0,0,1,1.69,7.69c-.29,5-3.72,9.94-7,14.75-4.34,6.27-8.8,12.73-7.19,20.1a115.35,115.35,0,0,0,3.8,12.18c4,11.68,9.56,27.66,6.56,38.77-4.32,15.89-8.59,38-4.43,53.37,2.94,10.81,4.91,39,5.63,50.56a20.57,20.57,0,0,0-14.71-3.8c-5.25.6-8.65,2-10.84,3.6a4,4,0,0,0-2.62,2.61c-10.06,9.71-11.56,9.15-17,7l-.73-.28c-4.42-1.71-3.74-10.21-3.75-10.21Zm21.3-424.76c-12,14.81-13.16,23.37-14,30.24-.5,3.86-.9,6.93-3.12,10.63-1.38,2.25-2.4,4.15-3.27,5.87-1.06-3.39-2.29-7.39-3.58-12.75-1.94-8.12-1-9.78.51-12.28a20.88,20.88,0,0,0,3-8.26c1.35-8.95-5.14-29.28-7.36-35.87,31.62-2.28,48.63-11.88,53.7-15.27.07.49.15,1,.21,1.46a30.8,30.8,0,0,0,2.07,8.33c-3.28,2.12-13,9.35-28.13,27.9Zm9,14.11L461,589.91l17.8-4.52a48.09,48.09,0,0,0,4.67,4.21c-3.8,3.12-19.61,16.25-25.19,23.69-6.62,8.87-10.46,19.32-13,29.79-2,7.89-6,15.4-8.9,20.28-4.52-9.87-14.81-32.19-16.81-34.86C415.06,622.62,409,614.57,409,609a19.53,19.53,0,0,1,1.4-7.81c1-2.69,2-5.52,1.1-11.72a61.22,61.22,0,0,0-4.28-14.86,96.43,96.43,0,0,1-3.39-9.68c-1.38-4.9.67-10.41,2.68-15.72,1.55-4.15,3.15-8.43,3.15-12.54a32.9,32.9,0,0,0-.62-6.24h0s0-3.27,5.72-12.73c2.9-4.8,3.44-9,4-13,.81-6.42,1.75-13.72,12.74-27.2,14.6-17.92,23.87-24.75,26.64-26.6,4.95,6.93,15.13,20.16,20,26.51Zm54.68,56.85a92,92,0,0,0-8.78,8.88l-16.4-66.7L487,481.52l14.14,60.27a13.39,13.39,0,0,0-10.75,2.87Zm-22,27.31a80.18,80.18,0,0,0,5.8,8.29l-8.86,2.26-22.33-90.28,16.28-4,17.42,70.81c-3.93,4.53-7.27,8.56-8,9.46l-1.35,1.6Zm43.64,7.95c-3.05,3.05-9.52,8.75-13.92,9.25-9,1-19-11.65-23.36-18.46,5.2-6.22,15.73-18.46,19.32-21.26a7.15,7.15,0,0,1,6.29-1.68c5.61,1.29,10.79,9.29,12.58,12.73-1.31,6.66-1.86,14-.91,19.42Zm-2.78,126.73.76,4.47c2.52,15,3.9,25.51.21,33.9-2.46,5.59-5.68,9.69-9.07,14-5.29,6.79-10.8,13.79-13.77,26.77-4.62,20.1-5.33,49.95-1.46,60.27a100.9,100.9,0,0,0,5.26,10.74,5.06,5.06,0,0,0,.29.52h.27c.37.72.84,1.5,1.45,2.51,2.56,4.16,6.85,11.15,5.19,16.35-.8,2.49-2.94,4.45-6.55,6-3,1.26-20,6.06-31.44,6.88-1-13.63-2.74-32.8-5.15-41.69-4-14.77,1.05-37.8,4.42-50.22,3.5-12.89-2.37-29.89-6.67-42.3,11.58-10.74,37.54-43.09,40.42-50.49,1.38-3.54,1.89-7.28,2.59-12.48a223.72,223.72,0,0,1,4.29-23.52c3.18-13.51,10.85-19.94,15.06-22.56.43,11.45-2.65,17.62-4.77,21.7a28.88,28.88,0,0,0-2,4.32C505.28,683.13,507.07,693.52,509.33,706.65ZM513,629.26a89.64,89.64,0,0,1,1.88,10c-4.05,2-16,9.25-20.38,27.78a231.76,231.76,0,0,0-4.39,24.08c-.68,5-1.13,8.24-2.23,11.11-2.22,5.68-24.8,34.31-36.93,46.34-.63-1.95-1.13-3.69-1.46-5.18-1-4.79,2.5-9.92,6.24-15.35s7.75-11.2,8.12-17.88a17.9,17.9,0,0,0-2.34-10.79c-1.9-3.65-4.5-8.71-3.85-28.83a273.29,273.29,0,0,1,7.28-55.71c6.49-7.33,20.63-19,23.92-21.68a18.64,18.64,0,0,0,8.37,2.19,13.41,13.41,0,0,0,1.68-.1c5.31-.62,11.17-5.13,14.92-8.52,1.5,7,.49,12.78-.6,18.77-1.28,7-2.58,14.27-.23,23.82ZM349.5,422.07c4.68,2.38,8.46,2.51,13.25,2.68a88,88,0,0,1,12,1c5.48.86,9,3.33,12.41,5.66,3.7,2.58,7.51,5.24,13.14,5.24a13.78,13.78,0,0,0,1.54-.09c10.75-.87,17.09-8.67,22.19-15l1.35-1.65c4.24-5.13,12.8-6.18,12.88-6.2l.77-.11.15-.09c1.92,3.82,6.94,13.3,11.09,16.68-2.28,1.68-22.34,15.46-64.93,15.46h-1c-51.8-.24-72.77-18.52-75.84-21.51A131.12,131.12,0,0,1,333,402.79l2.26,5c.27.44,6.72,10.47,14.29,14.27Zm36.79-24.24A23.87,23.87,0,0,0,398.56,401a23.56,23.56,0,0,0,6.34-.85,15,15,0,0,0,3.72-1.89l21.22,11.55a22.83,22.83,0,0,0-9.13,6.29l-1.38,1.71c-4.6,5.67-9.81,12.07-18,12.77-4.38.31-7.09-1.6-10.72-4.09-3.77-2.65-8.06-5.64-14.92-6.72A95.33,95.33,0,0,0,363,418.7c-4.52-.18-7.26-.26-10.75-2-6-3-11.65-11.72-11.68-11.72l-2.47-5.51,1.61-1.08c11.48-6.52,25.62-4.27,34.07-10.1,4.08,3.25,10.38,8.19,12.54,9.58Zm-7-48.52c3.13-5.18,3.67-7.37,4.05-8.79a3.05,3.05,0,0,1,.86-1.73c.06-.09,6.57-8.06,13.91-5.53a28.56,28.56,0,0,0,11.11,1.67,7.6,7.6,0,0,1,2.38.16c2.07.79,2.58,2,3.45,4.36.75,2.07,1.67,4.65,4.29,6.57a17.51,17.51,0,0,0,7.23,2.76c2.81.58,3.74.81,4.39,2.62,2.9,8.1-6.46,22.44-10.24,27.19-5.06,5.87-13.87,14.65-17.58,15.76a18.48,18.48,0,0,1-13.62-1.64c-2-1.26-8.81-6.63-13.18-10.12.06-.24.16-.44.21-.71,1.82-11.16-2-14.94-6.82-19.73,0,0-1.11-1-1.34-1.21a39.74,39.74,0,0,0,10.9-11.63Zm63.44,21.36c.64,5,1.25,9.74-2.94,14-4.45,4.55-13,2.43-17.39,1.1,1.37-1.49,2.44-2.73,3-3.35,1.63-2.06,15.84-20.41,11.28-33.07-1.83-5.12-5.92-5.94-8.91-6.53a11.83,11.83,0,0,1-4.83-1.74c-1.07-.79-1.5-1.87-2.18-3.7-.93-2.6-2.21-6.14-6.94-8a12.4,12.4,0,0,0-4.73-.54,23.34,23.34,0,0,1-9-1.34c-9-3.1-17.2,3.23-20.59,7.45a8.8,8.8,0,0,0-2,4.07c-.28,1.07-.68,2.71-3.35,7.12a33.84,33.84,0,0,1-10.92,10.94c-.65-.4-1.29-.82-1.95-1.22-2.7-1.68-7.72-4.78-7.64-6.28.06-1,.76-1.6,3.21-3.05,2.23-1.33,5-3,6.48-6.2a31.62,31.62,0,0,0,1.6-4.81c1-3.52,2.18-7.91,4.54-10,1.26-1.07,6.52-1.41,10-1.63,4.31-.28,8-.5,10.45-1.72a26,26,0,0,0,4.52-3.08c2-1.66,3.65-2.94,6.22-3.06,3.64-.26,5,1.67,6.57,4,1.15,1.66,2.57,3.76,5.17,4.05,2.08.25,4.15-.6,6.15-1.45,2.72-1.13,4.6-1.81,6.12-1.07s3.26,4.79,4.42,7.69c1.27,3.15,2.37,5.89,4.2,7.41a13.58,13.58,0,0,1,1.81,1.9,16,16,0,0,0,7.65,5.44,4.57,4.57,0,0,1,2.66,3.07c1.28,3.74.2,9.18-1.54,12.1-2.09,3.49-1.57,7.52-1.08,11.42ZM359.51,614c-1.11-5.13-1.56-9.37-2.18-12.89-2.05-11.62-2.81-16-1.37-25.79,1.68-11.48-2.29-17.85-6.12-24-1-1.64-2-3.28-3-5.07-3.91-7.54-8-17.49-5.1-27.58,2.47-8.53,7.47-29.83.44-42.89-5-9.31-12.75-21.24-21.33-25.32-6.84-3.25-21.75-4.47-24-4.66,1-5.3,2.25-9.6,3.74-11.58,1.26-1.85,2.59-3.56,3.92-5.27,4.89,4.65,27.11,22.61,79.7,22.91h1.1c2.51,0,4.92-.08,7.3-.17,2.56,7.34,8.74,27.34,7.64,34.63a14.9,14.9,0,0,1-2.26,6.08c-2.22,3.78-3.49,7-1.18,16.76,1.41,5.86,2.77,10.19,3.9,13.82,1.69,5.38,2.81,9,2.81,13.75,0,3-1.34,6.61-2.77,10.41-2.21,6-4.74,12.68-2.81,19.5a100.93,100.93,0,0,0,3.57,10.25,55.6,55.6,0,0,1,3.94,13.54c.69,4.65.07,6.38-.8,8.71A25.55,25.55,0,0,0,402.9,609c0,7.61,6.52,16.23,11.79,23.18,1.6,2.09,3.13,4.12,4.14,5.69.38.4,11.53,25.69,13.93,31l0,0s.11.17.25.43.12.23.16.33c-3.18,7.36-10.78,24.65-15.65,33.81a148.07,148.07,0,0,0-13.74,38.73c-6.5-5.66-19-16.82-24-23.39-3.76-5-4.89-8.47-6.45-13.33a100.62,100.62,0,0,0-5.62-14.3c-5.36-11.06-14.17-19-18.24-22.28a7,7,0,0,0-1-2.5c.79-1.49,1.56-3,2.28-4.4,1.28-2.52,14.08-23.33,8.75-48Zm42,270.8c-14.75-1.68-28.29-8.51-33.61-11.52a20.28,20.28,0,0,1-7.73-8.66,114.89,114.89,0,0,1-1.57-24.46c.22-5.27.44-9.09.63-12.35.34-6.07.59-10.45.59-18.66a32.86,32.86,0,0,0-2.1-12.18c-1.73-5.36-4.34-13.47-7.4-37.46-3.76-29.64-1.95-54.18-.62-72.13.18-2.56.35-4.9.5-7.17.1.25.2.42.29.68l-.06,0c.08.13.18.34.25.49a21.94,21.94,0,0,0-.07-3.41,59.39,59.39,0,0,1,11.7,15.83,92.93,92.93,0,0,1,5.29,13.5c1.61,5,3,9.34,7.4,15.11,6.26,8.28,22.69,22.52,27.57,26.68a101.37,101.37,0,0,0-.41,27c.9,7.17,1.78,13.19,2.58,18.56,2.47,16.82,4,27,2.28,45.67-1.34,15-3.78,32.69-5.51,44.42Zm-25.95,15a12,12,0,0,1,2.66-.29c1.14,0,2.89,2.42,3.19,3.29,2.36,6.94,1.69,19.81.29,22.09-1.4,2-13.1,6.51-17.94,3.89-6.19-3.31-6.28-6.2-5.57-8.6,1.52-5,10.68-18.85,17.37-20.38Zm-17.67-14.19,3.6,16.32H337.43ZM381.45,894a8.68,8.68,0,0,0-1.74-.54c-6.82-1.17-11.4,2.6-12.07,2.87a1.93,1.93,0,0,1-.53.41L362.77,877a21.61,21.61,0,0,0,2.17,1.46,114,114,0,0,0,18.68,8.3Zm-26.32-20.87,1.18,5.28-5.89,4.7-11.33-81.7,11.3-5.78c.37,1.26.73,2.38,1.05,3.37a26.43,26.43,0,0,1,1.79,10.14c0,8-.24,12.1-.59,18.28-.18,3.3-.4,7.15-.64,12.46A123.08,123.08,0,0,0,355.13,873.09ZM341.77,709.17a306,306,0,0,0,2,51.13,272.93,272.93,0,0,0,4.87,28.77l-10.52,5.37-11.09-80Zm1.46-37c.24.42.52.82.74,1.23-.14,3.86-.48,8.41-.85,13.49-.35,4.65-.72,9.72-1,15.18l-16,5.79-2.45-17.63c6.34-5.3,14.35-12.32,19.58-18.06Zm-28.44,2.15,1.92,13.89-3,2.41L312,685.44a32.59,32.59,0,0,1-1.62-13.56c.35-3,2.07-5.63,4.06-8.61,2.43-3.64,5.15-7.77,5.67-13.44l-.23,0c4.23-4.8,11.41-2.34,14.18-1.1,3.77,2.34,5.7,9.44,5.16,16.68.09.16.22.23.3.39.17.33.36.59.53.91-3.74,4.38-10.43,10.57-17.32,16.47l-1.37-9.81Zm-2-26a10.69,10.69,0,0,1,.93,3.06,26.87,26.87,0,0,1-4.28,8.6c-2.22,3.36-4.52,6.79-5,11.3a38.41,38.41,0,0,0,1.93,16.27l3.15,9,4.69,1.38,3.51-2.83,2.09,15-18.53,6.72V603.32l.17-.17a34,34,0,0,0,6.4,4.93,24.09,24.09,0,0,1,4.32,3.17c2.78,3,2,7.38.37,14.24s-3.42,14.85.27,22.78Zm16.64,253.6H301.23V778.41Zm-13.17-88.56,16.63-8.77,11.41,82.36-9.38,8.72Zm83.3,88.15H387.32c-.06-.19-.55-2.09-.83-3.44l2.87-9.53a76.41,76.41,0,0,0,11.25,2.18c-.64,4.2-1.06,6.87-1.08,7A24.42,24.42,0,0,0,399.53,901.46ZM612.84,752.71a90.26,90.26,0,0,0,23.9-11c-1.45,6.91-2.5,17.2.69,27.35,7.78,24.75,4.21,59.08,2.52,66.59-1.33,5.79-5.93,15.55-7.49,18.76a3.76,3.76,0,0,0-1.25.75A56.82,56.82,0,0,0,615.79,853c-.73,0-1.47,0-2.21,0a131.9,131.9,0,0,0-19.74,2.67c-6.77,1.29-12.61,2.35-17.57,1.79-5.69-.69-11.55-1.8-15.21-6.93-4.35-6.08-4.93-16.82-1.74-32,8-37.93,17.23-55.46,53.52-65.92Zm30.37,14.55c-4.21-13.34.14-27.66,1.26-30.94,3.76-2.85,7.34-5.84,10.8-8.89-1.39,7.24-2,16.92,1.81,24.25a127.08,127.08,0,0,1,14.11,75c-1,8.23-4.72,35.9-5.74,43.39-4.42-.74-9.48-3.5-13.88-5.89l-1.68-.93a114.73,114.73,0,0,0-12.15-5.85c1.5-3.07,6.6-13.76,8.11-20.43,2.08-9.13,5.43-44-2.64-69.74Zm-18.88,125c-1-2.1-3.45-13.1,4.92-24.84,1.77-2.47,3-4.11,3.86-5.25A88.16,88.16,0,0,1,647,868.63l1.67.88c5.33,2.91,11.93,6.5,18.15,6.81a49,49,0,0,1,4,13.82,119.54,119.54,0,0,1,1.11,12.4H629.76a71.48,71.48,0,0,0-4.5-8.56c-.37-.69-.71-1.24-.93-1.69ZM603,883.2c-.09-1.36-.17-2.85-.17-4.45,0-5.73-2.14-13.39-3.56-17.83a104.42,104.42,0,0,1,14.59-1.81,51.48,51.48,0,0,1,13,1.34c-.76,1-1.57,2.16-2.51,3.48-10.06,14.06-7.2,27.48-5.41,31.08.26.51.63,1.17,1.07,2,2,3.54,5.35,9.47,4.69,14.87-.54,4.59-10.53,8.26-15.76,9.21-4.65.85-10.44,3.35-17.7,7.65-5.73,3.41-15.18,9.18-20.36,12.36-.48-2.47-1.07-5.71-1.51-8.94-.67-4.83,4.95-11.45,10.6-14.56,4.37-2.38,7.89-5.79,11.69-10H592v-.39c1.15-1.31,2.33-2.65,3.56-4.1l2.21-2.53c5.86-6.69,5.53-11.85,5.19-17.3Zm141.2-21.26.2,40.51H698.55a17.77,17.77,0,0,1-1.62-6.48c-.22-6.52,7.94-26.77,11.84-35.77a46.71,46.71,0,0,0,7.36-.28,26.19,26.19,0,0,0,14.11-5.73C733,856.93,738.21,861.28,744.16,861.94ZM724,773c3.66,17.18,8.65,55,8.72,55.41,0,.11,1.71,11.1-3.92,18.57-2.92,3.9-7.41,6.2-13.36,6.94a46.54,46.54,0,0,1-13.14-.42,46.15,46.15,0,0,0-15.19-.08c-5.76,2.16-7.61,5.46-9.4,8.65a21.26,21.26,0,0,1-5.08,6.57,7.17,7.17,0,0,1-.89.5c1.24-9.37,4.57-34,5.48-41.7a133,133,0,0,0-14.76-78.59c-5-9.55-.08-25.51,1.06-28.86l.65-.61c19.63-18.16,36.67-33.92,68.6-26.24-.54,2.75-1.14,5.36-1.74,7.76-5.53,21.93-11.27,52.26-7,72.1ZM715.8,567.67a68.78,68.78,0,0,0,9.28-1c3.2,7.44,12.74,30.88,13.53,47.09s-.49,46.81-4.42,71.29c-.11.72-.22,1.4-.34,2.12C698.94,678.92,680,696.41,660,714.9c-13.8,12.8-28.07,26-48.85,32-16.37,4.74-27.64,10.94-35.9,19.44,2.64-7.59,8.82-19,23.26-27.61,7.67-4.57,12.54-12.77,17.24-20.73,3.15-5.32,6.41-10.81,10.46-15.1A330.14,330.14,0,0,1,651,678.63l2.81-2.45a142,142,0,0,0,25-26.85c10-13.71,23.43-36.8,31.1-60.49a190.86,190.86,0,0,0,5.83-21.17Zm-14.18-25.91c-1.35,3.14-2.45,6.07-1,8.31a4.16,4.16,0,0,0,3.61,1.83h.12l1.43-.06c5.31-.06,12.56-.17,16.64-6.06,3-4.25,5.18-6.16,6.46-6.95v.24c0,3-.08,8.07,4.55,10.21,2.35,1.13,4,3.26,7.06,6.57-7.42,2.94-17.13,5.81-27.06,5.86-13.66.21-26.34-3.44-33.36-5.92a34,34,0,0,0,2.7-2.08,21,21,0,0,0,5.36-8.38A69.33,69.33,0,0,0,701.62,541.76Zm-9.77-13.06c.51-3.66,6.69-12.08,9-14.27,3.12-3,4.73-8.95,3.73-13.83-.75-3.71-4.54-4.92-7.58-5.91-1-.34-2.73-.85-2.86-.58.17-1.33,4.44-5.51,10.9-8.36s13.72-3.54,15.66-1.54c3.46,3.57,2.07,8-.45,14.41-1.75,4.46-3.41,8.68-1.62,12.37,1,2.08,3,3.58,5.85,4.43,2.19.64,4.66.32,7.28,0,5.79-.79,12.32-1.64,19.34,6.77,1.67,2,.16,7.64-1.06,12.14-1.56,5.79-3,11.29-.3,14.87a13.06,13.06,0,0,0,1.58,1.63c-1.35.74-3.2,1.69-5.46,2.73-4.55-5.51-5.16-7.62-9.81-9.77-1-.47-1-2.3-1-4.65s0-5.49-2.85-6.5-7.82-.15-14.66,9.69c-2.17,3.16-6.58,3.38-11,3.45.3-.77.66-1.63.94-2.25,1.44-3.33,2.8-6.48.54-8.57s-5.3-.43-6.61.26a46.84,46.84,0,0,1-11.29,3.57c.81-3.57,1.33-7.13,1.75-10.09ZM725,480c-5.21-5.36-16.57-2.42-22.44.19-5.38,2.38-15.3,8.48-14.49,14.62.49,3.53,4.1,4.72,7,5.65a19.16,19.16,0,0,1,3.51,1.34c.58,2.84-.36,6.68-2,8.26a45.9,45.9,0,0,0-3.81,4.52,27.53,27.53,0,1,1,37.6-5.12,13.12,13.12,0,0,1-4.23.16c-.68-.2-1.82-.64-2.14-1.28-.63-1.3.67-4.62,1.81-7.49,2.37-6,5.58-14.21-.84-20.85ZM549.34,758c5.36,7.25,14,16.29,17.38,19.71-6,10.38-9.86,23.3-13.33,39.7-3.6,17.09-2.71,29.11,2.73,36.72s14.22,8.78,19.41,9.43c5.39.66,11.38-.35,17.69-1.54,1.26,3.89,3.5,11.53,3.5,16.76,0,1.76.1,3.34.19,4.83.32,5.06.52,8.12-3.69,12.94L591,899.07c-.72.84-1.39,1.6-2.08,2.39H498.08c-1.14.6-7.94,0-8.79,0-.63,0-5.85-.45-8-.3a3.54,3.54,0,0,1-.66.27l0,.06H461.29c-.09-1.6-.23-3.8-.4-6.37,12.34-.91,30.06-6,33.36-7.38,5.24-2.21,8.57-5.48,9.92-9.68,2.5-7.83-2.69-16.27-5.78-21.32a20.33,20.33,0,0,1-1.49-2.55l-.18,0-.11-.22a94.74,94.74,0,0,1-4.92-10c-3.12-8.26-2.94-36.66,1.68-56.79,2.69-11.67,7.51-17.83,12.62-24.4,3.49-4.43,7.09-9,9.86-15.34,4.36-9.89,2.84-21.71.21-37.33l-.77-4.49c-2.2-12.84-3.81-22.08-.78-32a20.4,20.4,0,0,1,1.52-3.29c3.38-6.51,9-17.39,2.83-42.53-2.06-8.29-.91-14.59.3-21.24,1.36-7.54,2.78-15.29-.63-25.65-2.49-7.56.77-23.91,3.76-30.58,6.12,9.78,14.87,17.51,19.58,21.25-5.16,6.74-7.78,14.48-5,23.18a106.44,106.44,0,0,0,9.23,20.65c4.87,8.89,8.08,14.76,6.49,29.1-1,8.92-1.8,17.32-2.55,25.22-1.29,13.71-2.41,25.51-4.18,36.12-2.41,14.34-4.37,41.46,3.48,52.13ZM551.4,612.5a103.7,103.7,0,0,1-8.76-19.59c-6.12-19.16,25.15-34.95,38.49-41.72,1.72-.85,3.22-1.62,5-2.58,10.8-5.84,24.21-13.1,40.21-9.47,2.15.48,5.07,1.15,8.4,1.64-1.94,6.32-7.31,22.51-14.3,32.27-9.39,13.13-24.36,30-29.64,33.41-7,4.52-16.64,19.4-19.92,30.6-2,6.7-7.26,24.79-14.72,32.54.72-7.66,1.5-15.79,2.46-24.43,1.8-16.26-2.17-23.51-7.21-32.67ZM731,334.59a79,79,0,0,0-9.88-26.3c19.55-3.92,34.73-8.45,45.22-13.52v27.44c-7.42,4.33-17.09,8.77-35.34,12.38Zm.95,6.5c16.84-3.28,26.85-7.29,34.39-11.36V486.82c-.59-1-1.11-2-1.74-3l-.86-1.45a35.58,35.58,0,0,0-3.63-4.43c-6.94-7.85-23.23-26.21-26.2-50.13-2-16.48-11.67-29.18-15.69-33.82a78.7,78.7,0,0,0,14.12-45.21c0-2.61-.14-5.16-.39-7.69Zm-30.65,55.43a17.42,17.42,0,0,0,5.38.8,26.55,26.55,0,0,0,5.79-.69,65.87,65.87,0,0,1,13.43,23.3c-3.39-1-11.92-7.1-11.92-7.1-.52-.37-10.89-7.33-23-7.62-4.78-.13-11.23,2-14.83,3.23,0-.42.06-.93,0-1.3a68.33,68.33,0,0,0-1.48-8.48,9.68,9.68,0,0,0-.65-2.58c-.16-.55-.26-.92-.28-1l-.07,0a18.17,18.17,0,0,1-.45-10c2.46-9.27,1.49-25.86.67-34.94-.5-5.65-4.5-19.88-13-25.18a34.37,34.37,0,0,0-9.52-3.87c3.49-3,7.76-5.27,16.4-4.82,3.7.22,7.57,2.7,10.89,7,5.41,6.94,8.23,16.91,6.84,24.26l-.39,2.06c-2.31,11.66-7.74,39,16.13,47Zm-97.79-13c-2.44-4-5-8.23-4.79-12.26.17-4.49,1.95-7.35,3.86-10.37,2.08-3.3,4.24-6.71,3.8-11.77-.64-7.65,1.55-25.89,12.34-30.32,9.11-3.8,14.3-1.68,17.77,1.37a22.8,22.8,0,0,0-11.21,4.19c-7.76,6.16-9.88,12.09-11,17.6-.62,3-2.47,21.86-2.06,27.55a52.68,52.68,0,0,0,4.68,17.42l0,0s1.53,2.34,2.17,7.31a194.16,194.16,0,0,1,.8,19.54,63.61,63.61,0,0,1-15.49,2.67c-2.25.07-4.66,0-5.84-.11a18.7,18.7,0,0,1-2.21-.25c-5.11-1-9.24-2.07-12.08-2.9-1-3.39-1.66-8.52.38-9.46,1.45-.63,3.67-.18,6,.27,4.74.92,11.18,2.18,15.92-4.75,3.45-5,.17-10.47-3-15.75Zm3.4-110.21V210.82c0-9.22,30.79-30.66,36.21-34.54,9.18,6.75,30.57,25,32.48,37.26v59.13a78.84,78.84,0,0,0-47.5.64Zm7.34,6.08a79.89,79.89,0,0,0-32.49,34.11c-21.55-3.06-40.16-8.37-53-14.63a18.19,18.19,0,0,0,4.39-3.49,13.18,13.18,0,0,0,1.1-16Zm-168-129.65v-63H599.8v63H586.86v6.08H599.8V273.31h-9.43c-4.51-33.8-56.73-114.59-64.24-126.07V116.58h-7.08v30.84c-8,12-58.47,89.19-62.83,125.89h-10V155.82h12.94v-6.08ZM354.56,279.39a79.45,79.45,0,0,0-25.37,22.46c-22.17-4.32-39.22-9.53-49.28-15.13l-.13.19v-7.52ZM313.43,178.28c9.79,7.21,32.77,26.35,33.38,39v56h-67V205.76C292,194,308.25,182,313.43,178.28Zm-33.65-28.54v-7.45l67-36.65v96.51c-9.11-12.67-25.32-25-30.45-28.8V149.26h-6.31V173.7a344.28,344.28,0,0,0-30.27,24.21V155.82h14.51v-6.08ZM295,751.2V919.32H279.78V329.5c6.55,3.4,16.6,7.34,34.39,10.84a79.11,79.11,0,0,0,16.12,57c-9.69,6.52-23.61,17.17-34.59,33.32-7.17,9.6-8,47.23-8,47.6-.23,12.53,3.63,31.3,5.76,38.54,2.41,8.24,1.43,16.2.64,22.59-.31,2.56-.59,4.88-.64,6.92-.09,3.19-1.48,9.42-2.84,15.42-1.57,6.95-3,13.54-2.92,17.11.21,8.23,4.07,15.56,7.3,20.4V719.07l-6.77,2.46ZM319.3,943.3l0-23.92-18.11,0V907.12H330.6l0,.16.2-.16h27.77c-3.21,4.52-5.53,9-6.2,11.24-1.33,4.38-.93,10.64,8.49,15.68a14.43,14.43,0,0,0,6.86,1.47c7.62,0,16.81-3.8,19.09-7.51s2.65-13,1.71-20.48h12.19a11.05,11.05,0,0,0,6.3,6.75l.71.26a19.23,19.23,0,0,0,7.06,1.75c3.66,0,7.38-1.92,13.33-7.27,2.56,4.64,4.89,7.57,7.35,9.07,1.83,1.1,4,3.75,6.07,6.28,3.92,4.78,8.35,10.19,14.17,10.19,1.15,0,2.55.06,4.06.11,2,.09,4.14.19,6.29.19,7.8,0,15.79-1.08,17.29-7.36,2.46-10.33-8.3-14.83-14.74-17.53a33.38,33.38,0,0,1-4.6-2.15c-.07,0-.21-.21-.32-.29H583.18a29.35,29.35,0,0,1-6.16,4.71c-7.42,4.11-14.75,12.74-13.68,20.71.54,3.91,1.27,7.76,1.8,10.36Zm168.52,33.25v10.16c-7.3-.62-13.73-.91-18.56-1-13.34-.39-21.84,1-29.6,3.19V949.36h37.66l-18.18,27.13Zm-17.63-5.66,14.47-21.53h3.16v21.53Zm207.63-68.44s-.38-9.05-1-13.2a55.1,55.1,0,0,0-3.84-13.9,13.28,13.28,0,0,0,3.49-2.11A26.8,26.8,0,0,0,683,865c1.59-2.85,2.55-4.56,5.63-5.79a40,40,0,0,1,12.84.27l1,.14c-3.54,8.28-11.82,28.58-11.56,36.53a22,22,0,0,0,1.27,6.27h0s0,0,0,0c.62,1.51,4.13,8.8,5.43,11a121.27,121.27,0,0,1,7.2,13.86c1.19,2.83,1.26,5.15.2,7.15-2.17,4.08-8.7,6.17-10.75,6.58-5.87.53-13.4.14-15.18-1.21-1.46-1.11-1.14-8.53-1-12.1.12-2.85-.31-23.73-.25-25.29Zm88.42-47.06v63.93l-14.91,0-.27-57.84C757.48,860.32,762.6,858.27,766.24,855.39Zm-.08-8a7.7,7.7,0,0,1-1.23,1.19,9.16,9.16,0,0,1-2.91,2.3c-4.42,3.31-11,4.63-15.67,5.11-4.28.57-9.42-3.68-12.09-6.42,6.33-9.46,4.49-21.63,4.41-22.07-.19-1.56-5-38.39-8.78-55.8-3.12-14.6-.64-39.2,7-69.35,1.19-4.76,2.3-10.25,3.28-16.37,4-24.86,5.29-55.93,4.49-72.53s-9.82-39.4-13.55-48.15c.85-.21,1.7-.44,2.54-.68,31.79,37.87,32.25,64.5,32.43,78.94l.16,203.85s-.06,0-.08,0Zm6.24-574.1V205.82C872.48,282.3,932.1,402.44,932.1,528.39a401.15,401.15,0,0,1-3.36,51.53H886.88s-.25-43.75-.36-75.14l23.14,21.53,4.5-4.82-27.92-25.88c0-13,0-41.23,0-41.23a4,4,0,1,0,0-3v-10.5a4,4,0,1,0,0-3V427.38a4,4,0,1,0,0-3v-4.51h-1.47a3.91,3.91,0,0,0,2.17-3.49,4,4,0,1,0-8,0,3.91,3.91,0,0,0,2.17,3.49h-1.48V424a4,4,0,0,0-3.45-2.1,4,4,0,0,0,0,8,4,4,0,0,0,3.45-2.1v9.7a4,4,0,0,0-3.45-2.1,4,4,0,1,0,3.45,5.91V451a4,4,0,1,0-3.45,5.9,3.9,3.9,0,0,0,3.45-2.11v39.05l-34.72.1c0-.83-.42-129.3-.42-129.3a4,4,0,1,0,0-3V351.11a4,4,0,1,0,0-3V337.62a4,4,0,1,0,0-3v-4.5H843a3.94,3.94,0,0,0,2.16-3.5,4,4,0,0,0-8,0,3.93,3.93,0,0,0,2.17,3.5h-1.47v4.09a4,4,0,0,0-3.45-2.08,4,4,0,1,0,0,8,3.93,3.93,0,0,0,3.45-2.1v9.69a3.94,3.94,0,0,0-3.45-2.09,4,4,0,1,0,0,8,3.91,3.91,0,0,0,3.45-2.12v9.7a4,4,0,0,0-3.45-2.09,4,4,0,1,0,0,8,4,4,0,0,0,3.45-2.1v71.63c-12.4-56.47-43.82-98.81-65.43-114V279.39h16.93v-6.08ZM608,70.55V80.67H437.59V70.55ZM525.62,51.32h11.24V45.25H525.62V30c31,.75,58.66,14.48,69.66,34.48H525.62Zm-.54-30.86C246.89,20.46,20.54,246.8,20.54,525c0,176.82,91.52,332.6,229.61,422.72l2.61,1.65a501.19,501.19,0,0,0,272.32,80.16c278.19,0,504.52-226.35,504.52-504.53S803.27,20.46,525.08,20.46"/></g></g></g></svg>