<svg xmlns="http://www.w3.org/2000/svg" viewBox="0 0 1010.34 223.58"><defs><style>.cls-1,.cls-2{fill:#fff;}.cls-2{fill-rule:evenodd;}</style></defs><g id="Ebene_2" data-name="Ebene 2"><g id="svg4774"><path id="path2467" class="cls-1" d="M40.66,24.85c-11.42,49.75-.4,90.47,26.48,104,33.35,16.74,100.1-14.21,124.21-81.45,2.22-6.2,5.05-15.3,7.34-24h3.84c-.87,3.51-2.06,8.2-2.7,10.56-20.17,74.46-86,125.24-136.42,115.17C19.17,140.21-4.7,89.16.77,24.85H40.66"/><path id="path2471" class="cls-1" d="M62.33,95.88c-2.26-25.78-1.08-50,3.41-71h53.33c-4.73,14-9.16,30.89-10.86,47.29-7,67.88,18.91,128.9,56.65,136.09,32.65,6.21,68.53-14.5,83.6-52.06h3.62c-12.26,39.63-52.52,66.36-88.51,67.39C112.38,225,69.07,173,62.33,95.88"/><path id="path2475" class="cls-2" d="M267.75,201.39l3.38,7.41h3.95L261,178,246.87,208.8h4l3.36-7.41ZM266.23,198H255.72l5.26-12,5.25,12"/><path id="path2479" class="cls-1" d="M281.13,190.46H277.6V208.8h3.53v-8.43c0-3.33,0-7.32,4.54-7.32,3.61,0,4,2.11,4,5.25v10.5h3.53V197.87c0-4.47-1.33-8-6.51-8a6.25,6.25,0,0,0-5.52,3h-.08v-2.47"/><path id="path2483" class="cls-1" d="M308.78,193.12a5.48,5.48,0,0,0-5-3.21,5.35,5.35,0,0,0-5.41,5.33c0,2.51,1.49,3.52,3.53,4.62l3.45,1.84a2.23,2.23,0,0,1,1.29,2,2.63,2.63,0,0,1-2.78,2.59c-1.69,0-2.59-1-3.33-2.35l-3,1.37a6.76,6.76,0,0,0,6.35,4.12,6.16,6.16,0,0,0,6.31-6.08c0-2.9-2.08-4.23-4.24-5.21s-4.27-1.69-4.27-3.29a1.91,1.91,0,0,1,1.93-1.81,2.71,2.71,0,0,1,2.34,1.61l2.87-1.53"/><path id="path2487" class="cls-1" d="M318.07,193.75h3.45v-3.29h-3.45v-7h-3.53v7h-1.92v3.29h1.92V208.8h3.53V193.75"/><path id="path2491" class="cls-2" d="M331.8,206.29c-3.72,0-5.8-3.21-5.8-6.66s2.16-6.59,5.8-6.59c3.8,0,6,3,6,6.59S335.64,206.29,331.8,206.29Zm9.29-15.83h-3.53v3.06h-.08a7.49,7.49,0,0,0-6.35-3.61c-5.33,0-8.66,4.59-8.66,9.6,0,5.25,3.18,9.92,8.78,9.92a7.5,7.5,0,0,0,6.23-3.49h.08v2.86h3.53V190.46"/><path id="path2493" class="cls-1" d="M346.27,208.8h3.53v-34h-3.53Z"/><path id="path2497" class="cls-1" d="M359.29,193.75h3.45v-3.29h-3.45v-7h-3.53v7h-1.92v3.29h1.92V208.8h3.53V193.75"/><path id="path2501" class="cls-2" d="M380.9,181.6a2.37,2.37,0,1,0,2.35,2.35A2.37,2.37,0,0,0,380.9,181.6Zm8.27,0a2.37,2.37,0,1,0,2.35,2.35A2.37,2.37,0,0,0,389.17,181.6ZM385,189.91a9.76,9.76,0,1,0,9.79,9.76A9.64,9.64,0,0,0,385,189.91Zm0,3.37a6.39,6.39,0,1,1-6.27,6.39,6.34,6.34,0,0,1,6.27-6.39"/><path id="path2505" class="cls-1" d="M407.56,174.78a6.66,6.66,0,0,0-2.47-.47c-4.55,0-5.92,3.21-5.92,7.21v8.93h-1.6v3.3h1.6V208.8h3.53V193.75h4.86v-3.3H402.7v-7.87c0-1.8,0-5,2.51-5a6.7,6.7,0,0,1,2.35.74v-3.56"/><path id="path2509" class="cls-1" d="M419.56,174.78a6.62,6.62,0,0,0-2.47-.47c-4.54,0-5.91,3.21-5.91,7.21v8.93h-1.61v3.3h1.61V208.8h3.52V193.75h4.86v-3.3H414.7v-7.87c0-1.8,0-5,2.51-5a6.57,6.57,0,0,1,2.35.74v-3.56"/><path id="path2513" class="cls-2" d="M437.8,200.22v-.55c0-5.45-2.75-9.76-8.59-9.76s-8.93,4.23-8.93,9.88c0,5.4,3.41,9.64,9,9.64a9.57,9.57,0,0,0,8.51-5l-3-1.68c-1.33,2.19-2.79,3.56-5.49,3.56-3.37,0-5.48-2.94-5.53-6.07ZM424,197.55a5.25,5.25,0,0,1,5.21-4.58c2.82,0,4.63,1.84,5.06,4.58H424"/><path id="path2517" class="cls-1" d="M444.78,190.46h-3.53V208.8h3.53v-8.43c0-3.33,0-7.32,4.54-7.32,3.61,0,4,2.11,4,5.25v10.5h3.53V197.87c0-4.47-1.33-8-6.51-8a6.25,6.25,0,0,0-5.52,3h-.08v-2.47"/><path id="path2521" class="cls-1" d="M466.24,193.75h3.44v-3.29h-3.44v-7h-3.53v7h-1.92v3.29h1.92V208.8h3.53V193.75"/><path id="path2523" class="cls-1" d="M472.2,208.8h3.53v-34H472.2Z"/><path id="path2527" class="cls-2" d="M485.5,190.46H482V208.8h3.53Zm-1.77-10.86a2.45,2.45,0,0,0-2.43,2.47,2.43,2.43,0,0,0,4.86,0,2.45,2.45,0,0,0-2.43-2.47"/><path id="path2531" class="cls-1" d="M505.07,191.13a9.88,9.88,0,0,0-4.86-1.22,9.76,9.76,0,0,0-10,9.88,9.66,9.66,0,0,0,9.84,9.64,10.21,10.21,0,0,0,5.06-1.22v-4.5a6.6,6.6,0,0,1-5,2.42,6.2,6.2,0,0,1-6.35-6.5,6.34,6.34,0,0,1,6.11-6.43,6.76,6.76,0,0,1,5.26,2.47v-4.54"/><path id="path2535" class="cls-1" d="M509.31,174.78v34h3.53v-8.43c0-3.33,0-7.33,4.55-7.33,3.6,0,4,2.12,4,5.25V208.8H525V197.86c0-4.46-1.34-8-6.51-8a6.25,6.25,0,0,0-5.52,3h-.08V174.78h-3.53"/><path id="path2539" class="cls-2" d="M546.36,200.22v-.55c0-5.45-2.74-9.76-8.58-9.76s-8.94,4.23-8.94,9.88c0,5.4,3.41,9.64,9,9.64a9.56,9.56,0,0,0,8.5-5l-3-1.68c-1.33,2.19-2.78,3.56-5.49,3.56-3.37,0-5.48-2.94-5.52-6.07Zm-13.79-2.67a5.25,5.25,0,0,1,5.21-4.58c2.82,0,4.62,1.84,5.06,4.58H532.57"/><path id="path2543" class="cls-1" d="M553.34,190.46h-3.53V208.8h3.53v-8.43c0-3.33,0-7.32,4.55-7.32,3.6,0,4,2.11,4,5.25v10.5h3.53V197.87c0-4.47-1.33-8-6.5-8a6.26,6.26,0,0,0-5.53,3h-.08v-2.47"/><path id="path2547" class="cls-2" d="M592,195.94a8,8,0,0,0,7.09-8.26,8.18,8.18,0,0,0-3.88-7.06c-2.35-1.33-5.17-1.37-7.8-1.37h-4.47V208.8h3.69V196.29h1.53l8.7,12.51h4.47Zm-5.37-13.4h1c3.64,0,8,.67,8,5.29s-4.07,5.41-7.84,5.41H586.6v-10.7"/><path id="path2551" class="cls-2" d="M620.36,200.22v-.55c0-5.45-2.75-9.76-8.59-9.76s-8.93,4.23-8.93,9.88c0,5.4,3.41,9.64,9,9.64a9.57,9.57,0,0,0,8.51-5l-3-1.68c-1.33,2.19-2.79,3.56-5.49,3.56-3.37,0-5.48-2.94-5.53-6.07Zm-13.8-2.67a5.25,5.25,0,0,1,5.21-4.58c2.82,0,4.63,1.84,5.06,4.58H606.56"/><path id="path2555" class="cls-1" d="M637.29,191.13a9.85,9.85,0,0,0-4.86-1.22,9.76,9.76,0,1,0-.19,19.52,10.17,10.17,0,0,0,5-1.22v-4.5a6.56,6.56,0,0,1-5,2.42,6.19,6.19,0,0,1-6.35-6.5A6.34,6.34,0,0,1,632,193.2a6.74,6.74,0,0,1,5.25,2.47v-4.54"/><path id="path2559" class="cls-1" d="M641.54,174.78v34h3.53v-8.43c0-3.33,0-7.33,4.54-7.33,3.61,0,4,2.12,4,5.25V208.8h3.53V197.86c0-4.46-1.33-8-6.51-8a6.25,6.25,0,0,0-5.52,3h-.08V174.78h-3.53"/><path id="path2563" class="cls-1" d="M666.52,193.75H670v-3.29h-3.45v-7H663v7h-1.92v3.29H663V208.8h3.53V193.75"/><path id="path2567" class="cls-1" d="M682.56,193.12a5.47,5.47,0,0,0-5-3.21,5.36,5.36,0,0,0-5.41,5.33c0,2.51,1.5,3.52,3.53,4.62l3.45,1.84a2.24,2.24,0,0,1,1.3,2,2.64,2.64,0,0,1-2.79,2.59c-1.68,0-2.58-1-3.33-2.35l-3,1.37a6.77,6.77,0,0,0,6.35,4.12,6.16,6.16,0,0,0,6.31-6.08c0-2.9-2.08-4.23-4.23-5.21s-4.27-1.69-4.27-3.29a1.91,1.91,0,0,1,1.92-1.81,2.72,2.72,0,0,1,2.35,1.61l2.86-1.53"/><path id="path2571" class="cls-1" d="M260,82.21H248.3v55.85H281v-9.49H260V82.21"/><path id="path2575" class="cls-2" d="M366.23,101.69h-11.1v55.77h11.1V134.64h.16c2.22,3,6.42,4.6,10.38,4.6,11.5,0,18-9.63,18-19.56,0-9.55-6.75-19.18-17.76-19.18A14.78,14.78,0,0,0,366.23,105Zm8.49,28.36c-5.7,0-9.65-4.07-9.6-10.21s3.9-10.15,9.6-10.15,9.08,5.25,9.08,10.15-3.37,10.21-9.08,10.21"/><path id="path2579" class="cls-1" d="M416.93,129.32,436,101.69H401.55v8.74h16.8l-19.24,27.63h36.28v-8.74H416.93"/><path id="path2583" class="cls-2" d="M503.47,101.69H492.38v3.48h-.16a13.2,13.2,0,0,0-10.07-4.67c-11.57,0-18.07,9.63-18.07,19.63,0,9.78,6.1,19.11,17.52,19.11,4.12,0,8.24-1.42,10.62-4.39h.16v1.94c0,5.49.06,11.59-8,11.61-4.61,0-7.13-2.52-7.69-6.37H465c.56,9.7,9.17,15.1,19.66,15.11,15.39,0,18.86-9.07,18.86-20.92Zm-19.23,28.36c-5.71,0-9.08-4.65-8.9-10.14s3.19-10.22,8.9-10.22,9.42,4.55,9.48,10.22-3.77,10.14-9.48,10.14"/><path id="path2587" class="cls-2" d="M321.87,121.54H295.69c0,4.59,2.48,9.78,8.26,9.78a8.39,8.39,0,0,0,7.3-4.19l9.93,1.87c-3,6.43-9.58,10.24-17.23,10.24-12,0-19.41-8-19.41-19s6.26-19.71,18.86-19.71c12.76,0,18.47,8.82,18.47,19.78Zm-25.6-6.31H311.4c-.55-3.7-2.72-7.42-7.37-7.47-4.82-.05-7.2,3.69-7.76,7.47"/><path id="path2589" class="cls-1" d="M331.12,138.06h11.1V101.69h-11.1Z"/><path id="path2593" class="cls-1" d="M336.74,80.58A5.84,5.84,0,1,0,343,86.41a6.08,6.08,0,0,0-6.24-5.83"/><path id="path2595" class="cls-1" d="M443.76,138.06h11.1V101.69h-11.1Z"/><path id="path2599" class="cls-1" d="M448.84,80.58a5.84,5.84,0,1,0,6.23,5.83,6.08,6.08,0,0,0-6.23-5.83"/><path id="path2603" class="cls-1" d="M705.18,0h-11.1V61.2h11.1V45.72h.15L717.45,61.2H732L715,40.83l15.75-16H716.34l-11,12.69h-.15V0"/><path id="path2605" class="cls-1" d="M739.64,61.2h11.1V0h-11.1Z"/><path id="path2609" class="cls-1" d="M906.25,24.83v21.4c0,10.6,5.87,16.15,17.44,16.15s17.43-5.55,17.43-16.15V24.83H930v19.7c0,4.15-.72,9.11-6.34,9.11s-6.34-5-6.34-9.11V24.83h-11.1"/><path id="path2613" class="cls-1" d="M965.8,24.83H954.7V61.2h11.1V42.47c0-3.85-.74-10.53,5.86-10.53,5.78,0,5.31,6.61,5.31,10.17V61.2h11.1V42.56c0-3.78-.59-10.62,5.94-10.62,5.77,0,5.23,5.46,5.23,9V61.2h11.1V38.53c0-7.93-1.89-14.69-12.37-14.69-4.52,0-9,1.95-11.33,5.51-2.53-3.86-6.34-5.51-11.18-5.51-3.56,0-7.37,1.36-9.51,4.25h-.15V24.83"/><path id="path2617" class="cls-1" d="M681.9,27.17c-3.18-2.59-8.25-3.53-12.37-3.53-7.29,0-12.3,5.23-12.36,11.78-.06,5.85,3.88,8,7.77,9.55s8.22,2.31,8.22,5.49c0,2.37-2.44,3.92-4.9,3.92a12.12,12.12,0,0,1-8.52-3.75l-4.86,6.22c3.41,3.86,8.76,5.42,14,5.42,8.17,0,14.93-4.7,14.93-12.78,0-6.29-3.85-8.56-7.89-10.19s-8.25-2.62-8.25-5.29c0-2.47,2-3.11,3.77-3.11a9.66,9.66,0,0,1,6.18,2.26l4.29-6"/><path id="path2621" class="cls-1" d="M799.1,24.83H788V61.2h11.1v-18c0-4.37.08-11.26,6.66-11.26,6.26,0,6,5.63,6,10V61.2h11.1V39c0-8.45-3-15.34-13.48-15.34-4,0-7.84,1.26-10.14,4.52h-.16V24.83"/><path id="path2625" class="cls-1" d="M872.76,0H861.67V61.2h11.09V45.72h.16L885,61.2h14.58l-17-20.37,15.76-16H883.93l-11,12.69h-.16V0"/><path id="path2627" class="cls-1" d="M763.42,61.36h11.1V25h-11.1Z"/><path id="path2631" class="cls-1" d="M768.81,3.88a6.08,6.08,0,0,0-6.24,5.84,6.25,6.25,0,0,0,12.48,0,6.08,6.08,0,0,0-6.24-5.84"/><path id="path2633" class="cls-1" d="M836.19,61.2h11.09V24.83H836.19Z"/><path id="path2637" class="cls-1" d="M841.11,3.72a6.08,6.08,0,0,0-6.24,5.84,6.25,6.25,0,0,0,12.47,0,6.07,6.07,0,0,0-6.23-5.84"/><path id="path2641" class="cls-1" d="M247.71,38.76c0,13.63,6.18,23.92,22.19,23.92s22.19-10.29,22.19-23.92V5.35H280.44V36.61c0,6.89-.63,16.59-10.54,16.59s-10.54-9.7-10.54-16.59V5.35H247.71V38.76"/><path id="path2645" class="cls-1" d="M315.63,24.83h-11.1V61.2h11.1v-18c0-4.37.08-11.26,6.66-11.26,6.25,0,6,5.63,6,10V61.2h11.1V39c0-8.45-3-15.34-13.48-15.34-4,0-7.84,1.26-10.14,4.52h-.16V24.83"/><path id="path2649" class="cls-1" d="M381.07,24.83h-12l16.38,36.58h9.64l15.43-36.58h-12L391,45.69,390.39,48l-.66-2.35-8.66-20.86"/><path id="path2653" class="cls-2" d="M450.91,44.68H424.74c0,4.59,2.47,9.78,8.26,9.78a8.37,8.37,0,0,0,7.29-4.19l9.94,1.88c-3,6.42-9.58,10.23-17.23,10.23-12.05,0-19.42-8-19.42-19s6.27-19.71,18.86-19.71c12.76,0,18.47,8.82,18.47,19.78Zm-25.59-6.31h15.13c-.56-3.7-2.72-7.41-7.37-7.47-4.83,0-7.21,3.7-7.76,7.47"/><path id="path2657" class="cls-1" d="M472.33,24.83H461.24V61.2h11.09V43.61c0-5.63.79-10.78,8.48-10.78a9.9,9.9,0,0,1,4.76.79l1.19-9.09a13.71,13.71,0,0,0-4.6-.56c-4.12,0-7.45,1.45-9.67,4.64h-.16V24.83"/><path id="path2661" class="cls-1" d="M515.52,27.17c-3.17-2.59-8.24-3.53-12.36-3.53-7.29,0-12.3,5.23-12.36,11.78-.06,5.85,3.88,8,7.77,9.55s8.22,2.31,8.22,5.49c0,2.37-2.44,3.92-4.9,3.92a12.14,12.14,0,0,1-8.53-3.75l-4.85,6.22c3.41,3.86,8.76,5.42,14,5.42,8.16,0,14.93-4.7,14.93-12.78,0-6.29-3.85-8.56-7.89-10.19s-8.25-2.62-8.25-5.29c0-2.47,1.95-3.11,3.77-3.11a9.66,9.66,0,0,1,6.18,2.26l4.28-6"/><path id="path2665" class="cls-1" d="M565.16,33.57h6.17V24.83h-6.17V12.53h-11.1v12.3h-4.45v8.74h4.45V61.2h11.1V33.57"/><path id="path2669" class="cls-1" d="M643.31,33.57h6.17V24.83h-6.17V12.53h-11.1v12.3h-4.45v8.74h4.45V61.2h11.1V33.57"/><path id="path2673" class="cls-1" d="M357.29,3.72a6.07,6.07,0,0,0-6.23,5.84,6.25,6.25,0,0,0,12.47,0,6.08,6.08,0,0,0-6.24-5.84"/><path id="path2675" class="cls-1" d="M351.74,61.2h11.1V24.83h-11.1Z"/><path id="path2677" class="cls-1" d="M528.51,61.2h11.1V24.83h-11.1Z"/><path id="path2681" class="cls-1" d="M533.92,3.72a6.07,6.07,0,0,0-6.23,5.84,6.25,6.25,0,0,0,12.48,0,6.09,6.09,0,0,0-6.25-5.84"/><path id="path2685" class="cls-2" d="M617,24.83H606.08v3.41c-2.69-3-6.81-4.3-10.86-4.3-11.6,0-17.75,9.26-17.75,18.89,0,9.85,5.94,19.28,17.92,19.28,4,0,8.16-1.36,10.53-4.24h.16V61.2H617ZM597.71,53.2c-5.7,0-9.53-4.58-9.53-10.22,0-5.42,3.83-10.15,9.53-10.15S607,37.45,607,43s-3.57,10.22-9.28,10.22"/><path id="path2689" class="cls-1" d="M589.65,3.72a6.08,6.08,0,0,0-6.24,5.84,6.25,6.25,0,0,0,12.48,0,6.08,6.08,0,0,0-6.24-5.84"/><path id="path2693" class="cls-1" d="M606.62,3.72a6.08,6.08,0,0,0-6.24,5.84,6.25,6.25,0,0,0,12.48,0,6.08,6.08,0,0,0-6.24-5.84"/></g></g></svg>