<svg xmlns="http://www.w3.org/2000/svg" viewBox="0 0 492.06 123.79"><defs><style>.cls-1{fill:#fff;}</style></defs><g id="Ebene_2" data-name="Ebene 2"><g id="Ebene_1-2" data-name="Ebene 1"><path class="cls-1" d="M148.71,86.38V64.79h2V84.54h7.41v1.84Z"/><path class="cls-1" d="M161.19,86.38V64.79h10.69v1.84h-8.73v6.76h8.73v1.84h-8.73v9.31h8.73v1.84Z"/><path class="cls-1" d="M176.69,86.38V64.79h2v8.76h11.76V64.79h2V86.38h-2V75.23H178.65V86.38Z"/><path class="cls-1" d="M210.85,86.38h-2.39l-7.58-10.3H199.7v10.3h-2V64.79h4A8,8,0,0,1,207,66.25a5.42,5.42,0,0,1,1.75,4.42,5.25,5.25,0,0,1-1.5,4,5.7,5.7,0,0,1-4.12,1.44ZM199.7,66.5v8h2a6.28,6.28,0,0,0,3.83-.88,3.66,3.66,0,0,0,1.09-3,3.94,3.94,0,0,0-1.13-3.17,5.91,5.91,0,0,0-3.79-.94Z"/><path class="cls-1" d="M213.68,86.38V64.79h10.69v1.84h-8.73v6.76h8.73v1.84h-8.73v9.31h8.73v1.84Z"/><path class="cls-1" d="M242.29,86.38H239.9l-7.58-10.3h-1.18v10.3h-2V64.79h4a8,8,0,0,1,5.26,1.46,5.44,5.44,0,0,1,1.74,4.42,5.29,5.29,0,0,1-1.49,4,5.72,5.72,0,0,1-4.13,1.44ZM231.14,66.5v8h2A6.3,6.3,0,0,0,237,73.6a3.65,3.65,0,0,0,1.08-3,3.94,3.94,0,0,0-1.12-3.17,5.93,5.93,0,0,0-3.79-.94Z"/><path class="cls-1" d="M245.61,75.17a1.46,1.46,0,0,1,.44-1.07,1.44,1.44,0,0,1,1.07-.43,1.46,1.46,0,0,1,1.07.43,1.43,1.43,0,0,1,.44,1.07,1.5,1.5,0,0,1-1.51,1.52,1.45,1.45,0,0,1-1.07-.44A1.5,1.5,0,0,1,245.61,75.17Zm0,10a1.46,1.46,0,0,1,.44-1.07,1.44,1.44,0,0,1,1.07-.43,1.46,1.46,0,0,1,1.07.43,1.52,1.52,0,0,1,0,2.14,1.46,1.46,0,0,1-1.07.44,1.45,1.45,0,0,1-1.07-.44A1.46,1.46,0,0,1,245.61,85.14Z"/><path class="cls-1" d="M254.49,86.38V64.79h2V86.38Z"/><path class="cls-1" d="M261.83,86.38V63.87l15.3,18.07V64.79H279V87L263.68,68.92V86.38Z"/><path class="cls-1" d="M284.34,86.38V63.87l15.3,18.07V64.79h1.82V87L286.19,68.92V86.38Z"/><path class="cls-1" d="M306.85,86.38V64.79h10.69v1.84h-8.73v6.76h8.73v1.84h-8.73v9.31h8.73v1.84Z"/><path class="cls-1" d="M322.35,86.38V63.87l15.29,18.07V64.79h1.83V87L324.19,68.92V86.38Z"/><path class="cls-1" d="M344.86,86.38V64.79h3.74a19.68,19.68,0,0,1,3.56.23,4.92,4.92,0,0,1,1.86.81,5.39,5.39,0,0,1,1.63,2,5.82,5.82,0,0,1,.56,2.59,4.77,4.77,0,0,1-.9,2.93,4.15,4.15,0,0,1-2.48,1.59,5.17,5.17,0,0,1,3.26,1.67A5,5,0,0,1,357.27,80a7.57,7.57,0,0,1-.45,2.7,5.46,5.46,0,0,1-1.39,2A5.32,5.32,0,0,1,353.16,86a19.58,19.58,0,0,1-4.53.36Zm2-12h2.45a6.23,6.23,0,0,0,3.81-.89,3.55,3.55,0,0,0,1.11-3,3.93,3.93,0,0,0-1.08-3.14,6.09,6.09,0,0,0-3.84-.91h-2.45Zm0,10.29h2.51a17.14,17.14,0,0,0,2.94-.17,3.42,3.42,0,0,0,1.38-.61,3.57,3.57,0,0,0,1.1-1.47,4.8,4.8,0,0,0,.42-2,5.39,5.39,0,0,0-.46-2.28,3.24,3.24,0,0,0-1.27-1.47,4.11,4.11,0,0,0-1.32-.47,14.85,14.85,0,0,0-2.37-.14h-2.93Z"/><path class="cls-1" d="M361.57,86.38V64.79h2V86.38Z"/><path class="cls-1" d="M368.91,86.38V64.79h2V84.54h7.41v1.84Z"/><path class="cls-1" d="M381.39,86.38V64.79h3.36a31.42,31.42,0,0,1,6.39.44,8,8,0,0,1,3.24,1.52,9.06,9.06,0,0,1,2.75,3.69,14.66,14.66,0,0,1,0,10.33,8.69,8.69,0,0,1-2.72,3.62,8.56,8.56,0,0,1-3.2,1.53,25.66,25.66,0,0,1-5.79.46h-4Zm2-1.7h2.76a20.86,20.86,0,0,0,4.75-.37A5.56,5.56,0,0,0,393.23,83a7.91,7.91,0,0,0,2-3.16,13.87,13.87,0,0,0,0-8.67,7.34,7.34,0,0,0-2.07-3.09,6,6,0,0,0-2.52-1.32,24.37,24.37,0,0,0-5.21-.38h-2.12Z"/><path class="cls-1" d="M402.35,64.79h1.93v14.1a6.74,6.74,0,0,0,1.46,4.75,5.84,5.84,0,0,0,4.47,1.56,5.78,5.78,0,0,0,4.42-1.56,6.69,6.69,0,0,0,1.46-4.75V64.79h2V78.25c0,2.92-.64,5.1-1.94,6.54S412.84,87,410.21,87s-4.62-.72-5.92-2.16-1.94-3.62-1.94-6.54Z"/><path class="cls-1" d="M423.33,86.38V63.87l15.3,18.07V64.79h1.83V87L425.18,68.92V86.38Z"/><path class="cls-1" d="M463.54,70.21a9,9,0,0,0-3.23-3.08,8.85,8.85,0,0,0-4.32-1,8.53,8.53,0,0,0-6.54,2.72,9.92,9.92,0,0,0-2.52,7,10.07,10.07,0,0,0,.67,3.65,9.17,9.17,0,0,0,2,3,8.56,8.56,0,0,0,2.9,2,9.21,9.21,0,0,0,3.53.66,8.23,8.23,0,0,0,5.9-2.14,7.49,7.49,0,0,0,2.34-5.59h-7.45V75.72h9.61V76c0,3.44-.94,6.14-2.82,8.08A10.28,10.28,0,0,1,455.81,87a10.61,10.61,0,0,1-7.95-3.12,11.3,11.3,0,0,1-3-8.2,12.57,12.57,0,0,1,.77-4.4,10.46,10.46,0,0,1,2.21-3.61,10.26,10.26,0,0,1,3.53-2.49,11.3,11.3,0,0,1,4.39-.83,12.39,12.39,0,0,1,5.64,1.19A8.33,8.33,0,0,1,465,69Z"/><path class="cls-1" d="M148.62,101.13h1.93v14.1A6.76,6.76,0,0,0,152,120a5.87,5.87,0,0,0,4.47,1.56,5.78,5.78,0,0,0,4.43-1.56,6.76,6.76,0,0,0,1.46-4.76v-14.1h2V114.6q0,4.38-2,6.54t-5.9,2.16q-4,0-5.91-2.16t-1.95-6.54Z"/><path class="cls-1" d="M169.61,122.73V100.22l15.29,18.07V101.13h1.83v22.23l-15.28-18.1v17.47Z"/><path class="cls-1" d="M192.12,122.73v-21.6h3.36a31.23,31.23,0,0,1,6.39.45,8,8,0,0,1,3.24,1.52,9.08,9.08,0,0,1,2.74,3.68,14.52,14.52,0,0,1,0,10.33,8.7,8.7,0,0,1-2.71,3.63,8.87,8.87,0,0,1-3.2,1.53,26.32,26.32,0,0,1-5.8.46h-4Zm2-1.7h2.76a20.15,20.15,0,0,0,4.75-.38,5.55,5.55,0,0,0,2.37-1.27,8.09,8.09,0,0,0,2-3.16,13.87,13.87,0,0,0,0-8.67,7.44,7.44,0,0,0-2.07-3.1,6,6,0,0,0-2.52-1.31,23.72,23.72,0,0,0-5.21-.38h-2.12Z"/><path class="cls-1" d="M220.21,119.1l1.68-.9a4.71,4.71,0,0,0,1.63,2.47,4.52,4.52,0,0,0,2.78.88,4.21,4.21,0,0,0,3.2-1.21,4.67,4.67,0,0,0,1.16-3.35,4.2,4.2,0,0,0-.78-2.6,10.59,10.59,0,0,0-3.32-2.39,15,15,0,0,1-4.34-3,4.83,4.83,0,0,1-1.08-3.16,4.9,4.9,0,0,1,1.56-3.75,6.31,6.31,0,0,1,6.86-.76,5.18,5.18,0,0,1,1.95,2.06l-1.52.92a3.27,3.27,0,0,0-1.33-1.42,4.07,4.07,0,0,0-2-.49,3.45,3.45,0,0,0-2.53.94,3.4,3.4,0,0,0-1,2.53q0,2.26,3.75,4.23l1,.55a10.83,10.83,0,0,1,3.69,2.87,6,6,0,0,1,.93,3.5,6.43,6.43,0,0,1-9.95,5.26A6.94,6.94,0,0,1,220.21,119.1Z"/><path class="cls-1" d="M254.25,105.09a11.26,11.26,0,0,0-3.29-2,9.4,9.4,0,0,0-3.54-.67,9.12,9.12,0,0,0-6.8,2.66A9.4,9.4,0,0,0,238,112a10.82,10.82,0,0,0,.64,3.84,8.41,8.41,0,0,0,2,3,8.7,8.7,0,0,0,3,2,9.48,9.48,0,0,0,3.59.68,10.52,10.52,0,0,0,3.63-.64,11.85,11.85,0,0,0,3.35-1.87v2.3a14.29,14.29,0,0,1-3.37,1.5,12.41,12.41,0,0,1-3.52.52,12.18,12.18,0,0,1-4.49-.84,10.78,10.78,0,0,1-3.67-2.36,10.39,10.39,0,0,1-2.39-3.63,12.87,12.87,0,0,1,0-9,10.38,10.38,0,0,1,2.4-3.61,10.67,10.67,0,0,1,3.67-2.33,12.1,12.1,0,0,1,4.46-.84,12.71,12.71,0,0,1,3.83.56,10.19,10.19,0,0,1,3.2,1.71Z"/><path class="cls-1" d="M258.5,122.73v-21.6h2v8.76h11.76v-8.76h2v21.6h-2V111.58H260.46v11.15Z"/><path class="cls-1" d="M279.46,101.13h1.93v14.1a6.76,6.76,0,0,0,1.46,4.76,5.87,5.87,0,0,0,4.47,1.56,5.8,5.8,0,0,0,4.43-1.56,6.76,6.76,0,0,0,1.46-4.76v-14.1h2V114.6q0,4.38-1.95,6.54c-1.3,1.44-3.26,2.16-5.9,2.16s-4.61-.72-5.91-2.16-2-3.62-2-6.54Z"/><path class="cls-1" d="M300.45,122.73v-21.6h2v19.75h7.4v1.85Z"/><path class="cls-1" d="M312.92,122.73v-21.6h10.7V103h-8.73v6.75h8.4v1.85h-8.4v11.15Z"/><path class="cls-1" d="M350.15,112a11,11,0,0,1-.87,4.35,11.23,11.23,0,0,1-2.51,3.66,11.47,11.47,0,0,1-3.76,2.47,11.94,11.94,0,0,1-8.85,0,11.39,11.39,0,0,1-3.74-2.47,11.51,11.51,0,0,1-2.52-3.68A11.08,11.08,0,0,1,327,112a11.28,11.28,0,0,1,.86-4.37,11.44,11.44,0,0,1,2.52-3.69,10.89,10.89,0,0,1,3.7-2.44,12,12,0,0,1,4.46-.82,11.89,11.89,0,0,1,4.48.83,11.1,11.1,0,0,1,3.71,2.43,11.44,11.44,0,0,1,2.52,3.69A11.28,11.28,0,0,1,350.15,112Zm-11.57,9.58a9.43,9.43,0,0,0,3.63-.71,9.54,9.54,0,0,0,3.09-2.07,9.78,9.78,0,0,0,2.06-10.48,9.79,9.79,0,0,0-2.06-3.12,9.27,9.27,0,0,0-3.07-2.06,9.5,9.5,0,0,0-3.65-.71,9.38,9.38,0,0,0-3.62.71,9.7,9.7,0,0,0-3.07,2.06,10,10,0,0,0-2.06,3.12,9.69,9.69,0,0,0,2.06,10.48,9.32,9.32,0,0,0,3,2.08A9.57,9.57,0,0,0,338.58,121.55Z"/><path class="cls-1" d="M367.6,122.73h-2.39l-7.58-10.3h-1.18v10.3h-2v-21.6h4a8.07,8.07,0,0,1,5.26,1.46,5.44,5.44,0,0,1,1.75,4.43,5.27,5.27,0,0,1-1.5,4,5.7,5.7,0,0,1-4.12,1.44Zm-11.15-19.89v8h2a6.29,6.29,0,0,0,3.83-.87,3.66,3.66,0,0,0,1.09-3,4,4,0,0,0-1.12-3.17,6,6,0,0,0-3.8-1Z"/><path class="cls-1" d="M368.78,119.1l1.68-.9a4.66,4.66,0,0,0,1.63,2.47,4.5,4.5,0,0,0,2.78.88,4.23,4.23,0,0,0,3.2-1.21,4.67,4.67,0,0,0,1.15-3.35,4.26,4.26,0,0,0-.77-2.6,10.66,10.66,0,0,0-3.33-2.39,15.11,15.11,0,0,1-4.34-3,4.87,4.87,0,0,1-1.07-3.16,4.92,4.92,0,0,1,1.55-3.75,5.73,5.73,0,0,1,4-1.44,5.66,5.66,0,0,1,2.82.68,5.27,5.27,0,0,1,2,2.06l-1.52.92a3.29,3.29,0,0,0-1.34-1.42,4,4,0,0,0-2-.49,3.47,3.47,0,0,0-2.54.94,3.4,3.4,0,0,0-.94,2.53q0,2.26,3.75,4.23l1,.55a10.93,10.93,0,0,1,3.69,2.87,6.11,6.11,0,0,1,.92,3.5,6.42,6.42,0,0,1-9.94,5.26A6.94,6.94,0,0,1,368.78,119.1Z"/><path class="cls-1" d="M402.82,105.09a11.39,11.39,0,0,0-3.29-2,9.4,9.4,0,0,0-3.54-.67,9.16,9.16,0,0,0-6.81,2.66,9.44,9.44,0,0,0-2.61,6.92,10.82,10.82,0,0,0,.64,3.84,8.39,8.39,0,0,0,2,3,8.89,8.89,0,0,0,3,2,9.55,9.55,0,0,0,3.59.68,10.52,10.52,0,0,0,3.63-.64A11.72,11.72,0,0,0,402.7,119v2.3a13.93,13.93,0,0,1-3.37,1.5,12.35,12.35,0,0,1-3.52.52,12.13,12.13,0,0,1-4.48-.84,10.68,10.68,0,0,1-3.67-2.36,10.25,10.25,0,0,1-2.39-3.63,12.24,12.24,0,0,1-.81-4.52,12,12,0,0,1,.83-4.52,10.24,10.24,0,0,1,2.4-3.61,10.62,10.62,0,0,1,3.66-2.33,12.14,12.14,0,0,1,4.46-.84,12.66,12.66,0,0,1,3.83.56,10.24,10.24,0,0,1,3.21,1.71Z"/><path class="cls-1" d="M407.07,122.73v-21.6h2v8.76h11.75v-8.76h2v21.6h-2V111.58H409v11.15Z"/><path class="cls-1" d="M428,101.13H430v14.1a6.72,6.72,0,0,0,1.46,4.76,5.84,5.84,0,0,0,4.47,1.56,5.78,5.78,0,0,0,4.42-1.56,6.76,6.76,0,0,0,1.46-4.76v-14.1h2V114.6q0,4.38-1.94,6.54t-5.9,2.16q-4,0-5.92-2.16t-2-6.54Z"/><path class="cls-1" d="M449,122.73V100.22l15.3,18.07V101.13h1.83v22.23l-15.28-18.1v17.47Z"/><path class="cls-1" d="M489.22,106.56a9,9,0,0,0-3.23-3.08,8.85,8.85,0,0,0-4.32-1,8.52,8.52,0,0,0-6.54,2.72,10.78,10.78,0,0,0-1.85,10.67,9.07,9.07,0,0,0,2,3,8.59,8.59,0,0,0,2.9,2,9.21,9.21,0,0,0,3.53.66,8.31,8.31,0,0,0,5.9-2.14,7.51,7.51,0,0,0,2.34-5.59h-7.45v-1.7h9.6v.24q0,5.16-2.81,8.08a10.28,10.28,0,0,1-7.76,2.92,10.55,10.55,0,0,1-7.95-3.13,11.23,11.23,0,0,1-3-8.2,12.61,12.61,0,0,1,.77-4.4,10.51,10.51,0,0,1,2.21-3.6,10.15,10.15,0,0,1,3.53-2.5,11.3,11.3,0,0,1,4.39-.82,12.35,12.35,0,0,1,5.63,1.18,8.41,8.41,0,0,1,3.62,3.49Z"/><path class="cls-1" d="M146.4,50.09l12.83-19.81h-11V28.49h14.31L149.8,48.27h11.48v1.82Z"/><path class="cls-1" d="M165.63,50.09V28.49h10.69v1.85h-8.73v6.75h8.73v1.85h-8.73v9.3h8.73v1.85Z"/><path class="cls-1" d="M181.13,50.09V27.58l15.29,18.07V28.49h1.83V50.72L183,32.62V50.09Z"/><path class="cls-1" d="M207.47,50.09V30.34h-5.94V28.49h13.86v1.85h-6V50.09Z"/><path class="cls-1" d="M231.76,50.09h-2.39l-7.58-10.3h-1.18v10.3h-2V28.49h4A8.09,8.09,0,0,1,227.88,30a5.47,5.47,0,0,1,1.74,4.43,5.3,5.3,0,0,1-1.49,4A5.72,5.72,0,0,1,224,39.79ZM220.61,30.21v8h2a6.31,6.31,0,0,0,3.83-.87,3.65,3.65,0,0,0,1.08-3,3.94,3.94,0,0,0-1.12-3.17,5.93,5.93,0,0,0-3.79-.94Z"/><path class="cls-1" d="M234.5,28.49h1.94v14.1a6.72,6.72,0,0,0,1.46,4.76,5.84,5.84,0,0,0,4.47,1.56,5.78,5.78,0,0,0,4.42-1.56,6.76,6.76,0,0,0,1.46-4.76V28.49h2V42q0,4.38-1.94,6.54t-5.9,2.16q-4,0-5.92-2.16T234.5,42Z"/><path class="cls-1" d="M265.34,50.93,257.76,33.6l-1.63,16.49h-2L257,27.58l8.28,19.22,8.58-19.22,2.77,22.51h-2L273,33.6Z"/><path class="cls-1" d="M289.45,50.09V28.49h10.69v1.85h-8.73v6.75h8.4v1.85h-8.4V50.09Z"/><path class="cls-1" d="M304.49,28.49h1.93v14.1a6.76,6.76,0,0,0,1.46,4.76,5.84,5.84,0,0,0,4.47,1.56,5.76,5.76,0,0,0,4.42-1.56,6.72,6.72,0,0,0,1.46-4.76V28.49h2V42q0,4.38-1.95,6.54t-5.9,2.16q-4,0-5.91-2.16T304.49,42ZM308.34,24a1.45,1.45,0,0,1,.41-1,1.41,1.41,0,0,1,2,0,1.39,1.39,0,0,1,.43,1,1.35,1.35,0,0,1-.41,1,1.43,1.43,0,0,1-1,.41A1.37,1.37,0,0,1,308.34,24Zm5.17,0a1.43,1.43,0,0,1,.43-1,1.4,1.4,0,0,1,1-.43,1.35,1.35,0,0,1,1,.43,1.45,1.45,0,0,1,.41,1,1.39,1.39,0,0,1-.4,1,1.42,1.42,0,0,1-1,.4,1.47,1.47,0,0,1-1-.4A1.36,1.36,0,0,1,313.51,24Z"/><path class="cls-1" d="M338.59,50.09H336.2l-7.58-10.3h-1.18v10.3h-2V28.49h4A8.07,8.07,0,0,1,334.7,30a5.44,5.44,0,0,1,1.75,4.43,5.27,5.27,0,0,1-1.5,4,5.7,5.7,0,0,1-4.12,1.44ZM327.44,30.21v8h2a6.29,6.29,0,0,0,3.83-.87,3.66,3.66,0,0,0,1.09-3,4,4,0,0,0-1.12-3.17,6,6,0,0,0-3.8-.94Z"/><path class="cls-1" d="M61.89,123.79h0Z"/><path class="cls-1" d="M6.27,34.72H40L6.74,90a62,62,0,0,1-.47-55.29Z"/><path class="cls-1" d="M123.79,61.9v8.4c-.14-.31-.28-.62-.45-.94s-.23-.44-.36-.66a21.21,21.21,0,0,0-7.1-7.21,43.51,43.51,0,0,0-4.15-2.35c-.34-.17-1-.49-2.39-1.12-7.73-3.58-13-5.53-15.87-8.83a8.67,8.67,0,0,1-2.17-6.48,9.47,9.47,0,0,1,1.12-4.26,11.1,11.1,0,0,1,2.09-2.6,12.51,12.51,0,0,1,1.86-1.56,12.67,12.67,0,0,1,4.16-1.78,13.62,13.62,0,0,1,4.85-.16,16.92,16.92,0,0,1,2.53.5c4.19,1.21,7.75,6.48,8.2,7.17l3-1.78a61.4,61.4,0,0,1,4.67,23.25C123.79,61.62,123.79,61.76,123.79,61.9Z"/><path class="cls-1" d="M122.14,88.9a23.89,23.89,0,0,1-10,9.19h0c-.37.17-.74.34-1.14.5a24.81,24.81,0,0,1-9.35,1.75V92.91a23.5,23.5,0,0,0,2.89-.42,15.82,15.82,0,0,0,7-3.14,14.64,14.64,0,0,0,3.57-4.14,14,14,0,0,0,1.61-4.64,12.55,12.55,0,0,0-.49-6.28,12.3,12.3,0,0,0-2.53-4.09c-3.06-3.34-6.56-4.48-13.68-7.75l-2.07-1c-5.76-2.75-7.86-4.21-9.78-6.05a15.59,15.59,0,0,1-4-5.67,16.66,16.66,0,0,1-1-6.93,17.94,17.94,0,0,1,1.32-6.79,17,17,0,0,1,4.7-6.33c6.32-5.5,14.35-5,16.12-4.93a24.27,24.27,0,0,1,7.27,1.57,61.9,61.9,0,0,0-102,1h43.3l-4.43,7.36L14.31,93H52.63v7.37H13.39a61.74,61.74,0,0,0,48.09,23.44h62.31V85.69A24.67,24.67,0,0,1,122.14,88.9ZM95.32,100.34H57.12v-73h8V93H95.32Z"/><path class="cls-1" d="M123.79,61.49v.41c0-.14,0-.28,0-.41Z"/></g></g></svg>